<?xml version="1.0" encoding="UTF-8" standalone="no"?>
<!DOCTYPE svg PUBLIC "-//W3C//DTD SVG 1.1//EN"
 "http://www.w3.org/Graphics/SVG/1.1/DTD/svg11.dtd">
<!-- Generated by graphviz version 2.43.0 (0)
 -->
<!-- Title: g Pages: 1 -->
<svg width="334pt" height="188pt"
 viewBox="0.00 0.00 334.00 188.00" xmlns="http://www.w3.org/2000/svg" xmlns:xlink="http://www.w3.org/1999/xlink">
<g id="graph0" class="graph" transform="scale(1 1) rotate(0) translate(4 184)">
<title>g</title>
<polygon fill="white" stroke="transparent" points="-4,4 -4,-184 330,-184 330,4 -4,4"/>
<!-- n55831598 -->
<g id="node1" class="node">
<title>n55831598</title>
<polygon fill="none" stroke="black" points="157,-180 0,-180 0,-144 157,-144 157,-180"/>
<text text-anchor="start" x="8" y="-159.3" font-family="Times,serif" font-size="14.00">!friends(</text>
<text text-anchor="start" x="70" y="-159.3" font-family="Times,serif" font-style="italic" font-size="14.00">Kim</text>
<text text-anchor="start" x="99" y="-159.3" font-family="Times,serif" font-size="14.00">, </text>
<text text-anchor="start" x="109" y="-159.3" font-family="Times,serif" font-style="italic" font-size="14.00">Odie</text>
<text text-anchor="start" x="143" y="-159.3" font-family="Times,serif" font-size="14.00">)</text>
</g>
<!-- SUBSn55831598n55831599 -->
<g id="node3" class="node">
<title>SUBSn55831598n55831599</title>
<text text-anchor="start" x="155" y="-86.3" font-family="Times,serif" font-size="14.00">{}</text>
</g>
<!-- n55831598&#45;&gt;SUBSn55831598n55831599 -->
<g id="edge1" class="edge">
<title>n55831598&#45;&gt;SUBSn55831598n55831599</title>
<path fill="none" stroke="black" d="M99.76,-143.7C113.09,-132.85 130.2,-118.92 143.49,-108.1"/>
</g>
<!-- n55831599 -->
<g id="node2" class="node">
<title>n55831599</title>
<polygon fill="none" stroke="black" points="326,-180 175,-180 175,-144 326,-144 326,-180"/>
<text text-anchor="start" x="183" y="-159.3" font-family="Times,serif" font-size="14.00">friends(</text>
<text text-anchor="start" x="239" y="-159.3" font-family="Times,serif" font-style="italic" font-size="14.00">Kim</text>
<text text-anchor="start" x="268" y="-159.3" font-family="Times,serif" font-size="14.00">, </text>
<text text-anchor="start" x="278" y="-159.3" font-family="Times,serif" font-style="italic" font-size="14.00">Odie</text>
<text text-anchor="start" x="312" y="-159.3" font-family="Times,serif" font-size="14.00">)</text>
</g>
<!-- n55831599&#45;&gt;SUBSn55831598n55831599 -->
<g id="edge2" class="edge">
<title>n55831599&#45;&gt;SUBSn55831598n55831599</title>
<path fill="none" stroke="black" d="M229.24,-143.7C215.91,-132.85 198.8,-118.92 185.51,-108.1"/>
</g>
<!-- n00000000 -->
<g id="node4" class="node">
<title>n00000000</title>
<ellipse fill="none" stroke="black" cx="164.5" cy="-18" rx="41.69" ry="18"/>
<text text-anchor="start" x="140.5" y="-14.3" font-family="Times,serif" font-size="14.00">FALSE</text>
</g>
<!-- SUBSn55831598n55831599&#45;&gt;n00000000 -->
<g id="edge3" class="edge">
<title>SUBSn55831598n55831599&#45;&gt;n00000000</title>
<path fill="none" stroke="black" d="M164.5,-71.7C164.5,-63.98 164.5,-54.71 164.5,-46.11"/>
<polygon fill="black" stroke="black" points="168,-46.1 164.5,-36.1 161,-46.1 168,-46.1"/>
</g>
</g>
</svg>
