<?xml version="1.0" encoding="UTF-8" standalone="no"?>
<!DOCTYPE svg PUBLIC "-//W3C//DTD SVG 1.1//EN"
 "http://www.w3.org/Graphics/SVG/1.1/DTD/svg11.dtd">
<!-- Generated by graphviz version 2.43.0 (0)
 -->
<!-- Title: g Pages: 1 -->
<svg width="442pt" height="332pt"
 viewBox="0.00 0.00 442.00 332.00" xmlns="http://www.w3.org/2000/svg" xmlns:xlink="http://www.w3.org/1999/xlink">
<g id="graph0" class="graph" transform="scale(1 1) rotate(0) translate(4 328)">
<title>g</title>
<polygon fill="white" stroke="transparent" points="-4,4 -4,-328 438,-328 438,4 -4,4"/>
<!-- n30922066 -->
<g id="node1" class="node">
<title>n30922066</title>
<polygon fill="none" stroke="black" points="166,-324 0,-324 0,-288 166,-288 166,-324"/>
<text text-anchor="start" x="8" y="-303.3" font-family="Times,serif" font-size="14.00">animal(</text>
<text text-anchor="start" x="62" y="-303.3" font-family="Times,serif" font-weight="bold" font-size="14.00">x0</text>
<text text-anchor="start" x="81" y="-303.3" font-family="Times,serif" font-size="14.00">), !dog(</text>
<text text-anchor="start" x="133" y="-303.3" font-family="Times,serif" font-weight="bold" font-size="14.00">x0</text>
<text text-anchor="start" x="152" y="-303.3" font-family="Times,serif" font-size="14.00">)</text>
</g>
<!-- n90316022 -->
<g id="node2" class="node">
<title>n90316022</title>
<polygon fill="none" stroke="black" points="191.5,-180 90.5,-180 90.5,-144 191.5,-144 191.5,-180"/>
<text text-anchor="start" x="98.5" y="-159.3" font-family="Times,serif" font-size="14.00">!animal(</text>
<text text-anchor="start" x="158.5" y="-159.3" font-family="Times,serif" font-weight="bold" font-size="14.00">x3</text>
<text text-anchor="start" x="177.5" y="-159.3" font-family="Times,serif" font-size="14.00">)</text>
</g>
<!-- SUBSn24762540n90316022 -->
<g id="node5" class="node">
<title>SUBSn24762540n90316022</title>
<text text-anchor="start" x="127" y="-86.3" font-family="Times,serif" font-size="14.00">{R124: L215, x3: L215}</text>
</g>
<!-- n90316022&#45;&gt;SUBSn24762540n90316022 -->
<g id="edge1" class="edge">
<title>n90316022&#45;&gt;SUBSn24762540n90316022</title>
<path fill="none" stroke="black" d="M158.8,-143.7C169.96,-132.85 184.29,-118.92 195.41,-108.1"/>
</g>
<!-- n90458832 -->
<g id="node3" class="node">
<title>n90458832</title>
<polygon fill="none" stroke="black" points="253.5,-324 184.5,-324 184.5,-288 253.5,-288 253.5,-324"/>
<text text-anchor="start" x="192.5" y="-303.3" font-family="Times,serif" font-size="14.00">cat(</text>
<text text-anchor="start" x="220.5" y="-303.3" font-family="Times,serif" font-weight="bold" font-size="14.00">x2</text>
<text text-anchor="start" x="239.5" y="-303.3" font-family="Times,serif" font-size="14.00">)</text>
</g>
<!-- SUBSn76036692n90458832 -->
<g id="node6" class="node">
<title>SUBSn76036692n90458832</title>
<text text-anchor="start" x="208.5" y="-230.3" font-family="Times,serif" font-size="14.00">{x1: R124, x2: R124}</text>
</g>
<!-- n90458832&#45;&gt;SUBSn76036692n90458832 -->
<g id="edge2" class="edge">
<title>n90458832&#45;&gt;SUBSn76036692n90458832</title>
<path fill="none" stroke="black" d="M235.56,-287.7C245.95,-276.85 259.28,-262.92 269.63,-252.1"/>
</g>
<!-- n76036692 -->
<g id="node4" class="node">
<title>n76036692</title>
<polygon fill="none" stroke="black" points="434,-324 272,-324 272,-288 434,-288 434,-324"/>
<text text-anchor="start" x="280" y="-303.3" font-family="Times,serif" font-size="14.00">animal(</text>
<text text-anchor="start" x="334" y="-303.3" font-family="Times,serif" font-weight="bold" font-size="14.00">x1</text>
<text text-anchor="start" x="353" y="-303.3" font-family="Times,serif" font-size="14.00">), !cat(</text>
<text text-anchor="start" x="401" y="-303.3" font-family="Times,serif" font-weight="bold" font-size="14.00">x1</text>
<text text-anchor="start" x="420" y="-303.3" font-family="Times,serif" font-size="14.00">)</text>
</g>
<!-- n76036692&#45;&gt;SUBSn76036692n90458832 -->
<g id="edge5" class="edge">
<title>n76036692&#45;&gt;SUBSn76036692n90458832</title>
<path fill="none" stroke="black" d="M336.44,-287.7C326.05,-276.85 312.72,-262.92 302.37,-252.1"/>
</g>
<!-- n00000000 -->
<g id="node8" class="node">
<title>n00000000</title>
<ellipse fill="none" stroke="black" cx="213" cy="-18" rx="41.69" ry="18"/>
<text text-anchor="start" x="189" y="-14.3" font-family="Times,serif" font-size="14.00">FALSE</text>
</g>
<!-- SUBSn24762540n90316022&#45;&gt;n00000000 -->
<g id="edge6" class="edge">
<title>SUBSn24762540n90316022&#45;&gt;n00000000</title>
<path fill="none" stroke="black" d="M213,-71.7C213,-63.98 213,-54.71 213,-46.11"/>
<polygon fill="black" stroke="black" points="216.5,-46.1 213,-36.1 209.5,-46.1 216.5,-46.1"/>
</g>
<!-- n24762540 -->
<g id="node7" class="node">
<title>n24762540</title>
<ellipse fill="none" stroke="black" cx="286" cy="-162" rx="76.89" ry="18"/>
<text text-anchor="start" x="235" y="-159.3" font-family="Times,serif" font-size="14.00">animal(</text>
<text text-anchor="start" x="289" y="-159.3" font-family="Times,serif" font-weight="bold" font-size="14.00">R124</text>
<text text-anchor="start" x="331" y="-159.3" font-family="Times,serif" font-size="14.00">)</text>
</g>
<!-- SUBSn76036692n90458832&#45;&gt;n24762540 -->
<g id="edge4" class="edge">
<title>SUBSn76036692n90458832&#45;&gt;n24762540</title>
<path fill="none" stroke="black" d="M286,-215.7C286,-207.98 286,-198.71 286,-190.11"/>
<polygon fill="black" stroke="black" points="289.5,-190.1 286,-180.1 282.5,-190.1 289.5,-190.1"/>
</g>
<!-- n24762540&#45;&gt;SUBSn24762540n90316022 -->
<g id="edge3" class="edge">
<title>n24762540&#45;&gt;SUBSn24762540n90316022</title>
<path fill="none" stroke="black" d="M268.7,-144.41C257.32,-133.49 242.45,-119.24 230.94,-108.2"/>
</g>
</g>
</svg>
