<?xml version="1.0" encoding="UTF-8" standalone="no"?>
<!DOCTYPE svg PUBLIC "-//W3C//DTD SVG 1.1//EN"
 "http://www.w3.org/Graphics/SVG/1.1/DTD/svg11.dtd">
<!-- Generated by graphviz version 2.43.0 (0)
 -->
<!-- Title: g Pages: 1 -->
<svg width="725pt" height="188pt"
 viewBox="0.00 0.00 724.50 188.00" xmlns="http://www.w3.org/2000/svg" xmlns:xlink="http://www.w3.org/1999/xlink">
<g id="graph0" class="graph" transform="scale(1 1) rotate(0) translate(4 184)">
<title>g</title>
<polygon fill="white" stroke="transparent" points="-4,4 -4,-184 720.5,-184 720.5,4 -4,4"/>
<!-- n13420814 -->
<g id="node1" class="node">
<title>n13420814</title>
<polygon fill="none" stroke="black" points="194.5,-180 28.5,-180 28.5,-144 194.5,-144 194.5,-180"/>
<text text-anchor="start" x="36.5" y="-159.3" font-family="Times,serif" font-size="14.00">!dog(</text>
<text text-anchor="start" x="74.5" y="-159.3" font-family="Times,serif" font-weight="bold" font-size="14.00">x0</text>
<text text-anchor="start" x="93.5" y="-159.3" font-family="Times,serif" font-size="14.00">), animal(</text>
<text text-anchor="start" x="161.5" y="-159.3" font-family="Times,serif" font-weight="bold" font-size="14.00">x0</text>
<text text-anchor="start" x="180.5" y="-159.3" font-family="Times,serif" font-size="14.00">)</text>
</g>
<!-- SUBSn60434014n13420814 -->
<g id="node7" class="node">
<title>SUBSn60434014n13420814</title>
<text text-anchor="start" x="8" y="-86.3" font-family="Times,serif" font-size="14.00">{x2: I165, x0: I165}</text>
</g>
<!-- n13420814&#45;&gt;SUBSn60434014n13420814 -->
<g id="edge4" class="edge">
<title>n13420814&#45;&gt;SUBSn60434014n13420814</title>
<path fill="none" stroke="black" d="M103.84,-143.7C99.03,-132.85 92.86,-118.92 88.07,-108.1"/>
</g>
<!-- SUBSn13420814n60434014 -->
<g id="node9" class="node">
<title>SUBSn13420814n60434014</title>
<text text-anchor="start" x="187" y="-86.3" font-family="Times,serif" font-size="14.00">{x0: I166, x2: I166}</text>
</g>
<!-- n13420814&#45;&gt;SUBSn13420814n60434014 -->
<g id="edge9" class="edge">
<title>n13420814&#45;&gt;SUBSn13420814n60434014</title>
<path fill="none" stroke="black" d="M147.7,-143.88C170.72,-132.99 200.42,-118.95 223.41,-108.07"/>
</g>
<!-- n60434014 -->
<g id="node2" class="node">
<title>n60434014</title>
<polygon fill="none" stroke="black" points="327,-180 226,-180 226,-144 327,-144 327,-180"/>
<text text-anchor="start" x="234" y="-159.3" font-family="Times,serif" font-size="14.00">!animal(</text>
<text text-anchor="start" x="294" y="-159.3" font-family="Times,serif" font-weight="bold" font-size="14.00">x2</text>
<text text-anchor="start" x="313" y="-159.3" font-family="Times,serif" font-size="14.00">)</text>
</g>
<!-- SUBSn60434014n88633587 -->
<g id="node4" class="node">
<title>SUBSn60434014n88633587</title>
<text text-anchor="start" x="366.5" y="-86.3" font-family="Times,serif" font-size="14.00">{x2: F826, x1: F826}</text>
</g>
<!-- n60434014&#45;&gt;SUBSn60434014n88633587 -->
<g id="edge1" class="edge">
<title>n60434014&#45;&gt;SUBSn60434014n88633587</title>
<path fill="none" stroke="black" d="M317.35,-143.88C343.33,-132.99 376.83,-118.95 402.78,-108.07"/>
</g>
<!-- SUBSn88633587n60434014 -->
<g id="node5" class="node">
<title>SUBSn88633587n60434014</title>
<text text-anchor="start" x="554.5" y="-86.3" font-family="Times,serif" font-size="14.00">{x1: F825, x2: F825}</text>
</g>
<!-- n60434014&#45;&gt;SUBSn88633587n60434014 -->
<g id="edge11" class="edge">
<title>n60434014&#45;&gt;SUBSn88633587n60434014</title>
<path fill="none" stroke="black" d="M327.36,-150.97C384.5,-139.71 478.15,-121.24 546.46,-107.77"/>
</g>
<!-- n60434014&#45;&gt;SUBSn60434014n13420814 -->
<g id="edge12" class="edge">
<title>n60434014&#45;&gt;SUBSn60434014n13420814</title>
<path fill="none" stroke="black" d="M228.8,-143.97C198.32,-133.08 158.93,-119.01 128.41,-108.11"/>
</g>
<!-- n60434014&#45;&gt;SUBSn13420814n60434014 -->
<g id="edge5" class="edge">
<title>n60434014&#45;&gt;SUBSn13420814n60434014</title>
<path fill="none" stroke="black" d="M272.3,-143.7C269.66,-132.85 266.28,-118.92 263.65,-108.1"/>
</g>
<!-- n88633587 -->
<g id="node3" class="node">
<title>n88633587</title>
<polygon fill="none" stroke="black" points="618.5,-180 456.5,-180 456.5,-144 618.5,-144 618.5,-180"/>
<text text-anchor="start" x="464.5" y="-159.3" font-family="Times,serif" font-size="14.00">!cat(</text>
<text text-anchor="start" x="498.5" y="-159.3" font-family="Times,serif" font-weight="bold" font-size="14.00">x1</text>
<text text-anchor="start" x="517.5" y="-159.3" font-family="Times,serif" font-size="14.00">), animal(</text>
<text text-anchor="start" x="585.5" y="-159.3" font-family="Times,serif" font-weight="bold" font-size="14.00">x1</text>
<text text-anchor="start" x="604.5" y="-159.3" font-family="Times,serif" font-size="14.00">)</text>
</g>
<!-- n88633587&#45;&gt;SUBSn60434014n88633587 -->
<g id="edge3" class="edge">
<title>n88633587&#45;&gt;SUBSn60434014n88633587</title>
<path fill="none" stroke="black" d="M514.26,-143.7C499.69,-132.85 480.99,-118.92 466.47,-108.1"/>
</g>
<!-- n88633587&#45;&gt;SUBSn88633587n60434014 -->
<g id="edge7" class="edge">
<title>n88633587&#45;&gt;SUBSn88633587n60434014</title>
<path fill="none" stroke="black" d="M560.74,-143.7C575.31,-132.85 594.01,-118.92 608.53,-108.1"/>
</g>
<!-- n38322443 -->
<g id="node10" class="node">
<title>n38322443</title>
<ellipse fill="none" stroke="black" cx="443.5" cy="-18" rx="62.29" ry="18"/>
<text text-anchor="start" x="403.5" y="-15.3" font-family="Times,serif" font-size="14.00">!cat(</text>
<text text-anchor="start" x="437.5" y="-15.3" font-family="Times,serif" font-weight="bold" font-size="14.00">F826</text>
<text text-anchor="start" x="477.5" y="-15.3" font-family="Times,serif" font-size="14.00">)</text>
</g>
<!-- SUBSn60434014n88633587&#45;&gt;n38322443 -->
<g id="edge10" class="edge">
<title>SUBSn60434014n88633587&#45;&gt;n38322443</title>
<path fill="none" stroke="black" d="M443.5,-71.7C443.5,-63.98 443.5,-54.71 443.5,-46.11"/>
<polygon fill="black" stroke="black" points="447,-46.1 443.5,-36.1 440,-46.1 447,-46.1"/>
</g>
<!-- n21543004 -->
<g id="node6" class="node">
<title>n21543004</title>
<ellipse fill="none" stroke="black" cx="631.5" cy="-18" rx="62.29" ry="18"/>
<text text-anchor="start" x="591.5" y="-15.3" font-family="Times,serif" font-size="14.00">!cat(</text>
<text text-anchor="start" x="625.5" y="-15.3" font-family="Times,serif" font-weight="bold" font-size="14.00">F825</text>
<text text-anchor="start" x="665.5" y="-15.3" font-family="Times,serif" font-size="14.00">)</text>
</g>
<!-- SUBSn88633587n60434014&#45;&gt;n21543004 -->
<g id="edge2" class="edge">
<title>SUBSn88633587n60434014&#45;&gt;n21543004</title>
<path fill="none" stroke="black" d="M631.5,-71.7C631.5,-63.98 631.5,-54.71 631.5,-46.11"/>
<polygon fill="black" stroke="black" points="635,-46.1 631.5,-36.1 628,-46.1 635,-46.1"/>
</g>
<!-- n56564335 -->
<g id="node11" class="node">
<title>n56564335</title>
<ellipse fill="none" stroke="black" cx="80.5" cy="-18" rx="63.09" ry="18"/>
<text text-anchor="start" x="40" y="-15.3" font-family="Times,serif" font-size="14.00">!dog(</text>
<text text-anchor="start" x="78" y="-15.3" font-family="Times,serif" font-weight="bold" font-size="14.00">I165</text>
<text text-anchor="start" x="115" y="-15.3" font-family="Times,serif" font-size="14.00">)</text>
</g>
<!-- SUBSn60434014n13420814&#45;&gt;n56564335 -->
<g id="edge8" class="edge">
<title>SUBSn60434014n13420814&#45;&gt;n56564335</title>
<path fill="none" stroke="black" d="M80.5,-71.7C80.5,-63.98 80.5,-54.71 80.5,-46.11"/>
<polygon fill="black" stroke="black" points="84,-46.1 80.5,-36.1 77,-46.1 84,-46.1"/>
</g>
<!-- n39927232 -->
<g id="node8" class="node">
<title>n39927232</title>
<ellipse fill="none" stroke="black" cx="259.5" cy="-18" rx="63.09" ry="18"/>
<text text-anchor="start" x="219" y="-15.3" font-family="Times,serif" font-size="14.00">!dog(</text>
<text text-anchor="start" x="257" y="-15.3" font-family="Times,serif" font-weight="bold" font-size="14.00">I166</text>
<text text-anchor="start" x="294" y="-15.3" font-family="Times,serif" font-size="14.00">)</text>
</g>
<!-- SUBSn13420814n60434014&#45;&gt;n39927232 -->
<g id="edge6" class="edge">
<title>SUBSn13420814n60434014&#45;&gt;n39927232</title>
<path fill="none" stroke="black" d="M259.5,-71.7C259.5,-63.98 259.5,-54.71 259.5,-46.11"/>
<polygon fill="black" stroke="black" points="263,-46.1 259.5,-36.1 256,-46.1 263,-46.1"/>
</g>
</g>
</svg>
