<?xml version="1.0" encoding="UTF-8" standalone="no"?>
<!DOCTYPE svg PUBLIC "-//W3C//DTD SVG 1.1//EN"
 "http://www.w3.org/Graphics/SVG/1.1/DTD/svg11.dtd">
<!-- Generated by graphviz version 2.43.0 (0)
 -->
<!-- Title: g Pages: 1 -->
<svg width="1543pt" height="332pt"
 viewBox="0.00 0.00 1543.00 332.00" xmlns="http://www.w3.org/2000/svg" xmlns:xlink="http://www.w3.org/1999/xlink">
<g id="graph0" class="graph" transform="scale(1 1) rotate(0) translate(4 328)">
<title>g</title>
<polygon fill="white" stroke="transparent" points="-4,4 -4,-328 1539,-328 1539,4 -4,4"/>
<!-- n71734601 -->
<g id="node1" class="node">
<title>n71734601</title>
<polygon fill="none" stroke="black" points="157,-324 0,-324 0,-288 157,-288 157,-324"/>
<text text-anchor="start" x="8" y="-303.3" font-family="Times,serif" font-size="14.00">!day(</text>
<text text-anchor="start" x="45" y="-303.3" font-family="Times,serif" font-weight="bold" font-size="14.00">t0</text>
<text text-anchor="start" x="62" y="-303.3" font-family="Times,serif" font-size="14.00">), !night(</text>
<text text-anchor="start" x="126" y="-303.3" font-family="Times,serif" font-weight="bold" font-size="14.00">t0</text>
<text text-anchor="start" x="143" y="-303.3" font-family="Times,serif" font-size="14.00">)</text>
</g>
<!-- n86283366 -->
<g id="node2" class="node">
<title>n86283366</title>
<polygon fill="none" stroke="black" points="447.5,-324 175.5,-324 175.5,-288 447.5,-288 447.5,-324"/>
<text text-anchor="start" x="183.5" y="-303.3" font-family="Times,serif" font-size="14.00">!dry(</text>
<text text-anchor="start" x="219.5" y="-303.3" font-family="Times,serif" font-weight="bold" font-size="14.00">t5</text>
<text text-anchor="start" x="236.5" y="-303.3" font-family="Times,serif" font-size="14.00">), !day(</text>
<text text-anchor="start" x="288.5" y="-303.3" font-family="Times,serif" font-weight="bold" font-size="14.00">t5</text>
<text text-anchor="start" x="305.5" y="-303.3" font-family="Times,serif" font-size="14.00">), sprinkler(</text>
<text text-anchor="start" x="390.5" y="-303.3" font-family="Times,serif" font-weight="bold" font-size="14.00">t5</text>
<text text-anchor="start" x="407.5" y="-303.3" font-family="Times,serif" font-size="14.00">, </text>
<text text-anchor="start" x="417.5" y="-303.3" font-family="Times,serif" font-weight="bold" font-size="14.00">l0</text>
<text text-anchor="start" x="433.5" y="-303.3" font-family="Times,serif" font-size="14.00">)</text>
</g>
<!-- n73826728 -->
<g id="node3" class="node">
<title>n73826728</title>
<polygon fill="none" stroke="black" points="537,-324 466,-324 466,-288 537,-288 537,-324"/>
<text text-anchor="start" x="474" y="-303.3" font-family="Times,serif" font-size="14.00">wet(</text>
<text text-anchor="start" x="506" y="-303.3" font-family="Times,serif" font-weight="bold" font-size="14.00">t7</text>
<text text-anchor="start" x="523" y="-303.3" font-family="Times,serif" font-size="14.00">)</text>
</g>
<!-- SUBSn63031920n73826728 -->
<g id="node15" class="node">
<title>SUBSn63031920n73826728</title>
<text text-anchor="start" x="559" y="-230.3" font-family="Times,serif" font-size="14.00">{t4: F60, t7: F60}</text>
</g>
<!-- n73826728&#45;&gt;SUBSn63031920n73826728 -->
<g id="edge7" class="edge">
<title>n73826728&#45;&gt;SUBSn63031920n73826728</title>
<path fill="none" stroke="black" d="M531.59,-287.88C550.65,-277.03 575.21,-263.05 594.3,-252.19"/>
</g>
<!-- n90343970 -->
<g id="node4" class="node">
<title>n90343970</title>
<polygon fill="none" stroke="black" points="871,-324 724,-324 724,-288 871,-288 871,-324"/>
<text text-anchor="start" x="732" y="-303.3" font-family="Times,serif" font-size="14.00">dry(</text>
<text text-anchor="start" x="762" y="-303.3" font-family="Times,serif" font-weight="bold" font-size="14.00">t2</text>
<text text-anchor="start" x="779" y="-303.3" font-family="Times,serif" font-size="14.00">), !clear(</text>
<text text-anchor="start" x="840" y="-303.3" font-family="Times,serif" font-weight="bold" font-size="14.00">t2</text>
<text text-anchor="start" x="857" y="-303.3" font-family="Times,serif" font-size="14.00">)</text>
</g>
<!-- SUBSn97431753n90343970 -->
<g id="node14" class="node">
<title>SUBSn97431753n90343970</title>
<text text-anchor="start" x="724.5" y="-230.3" font-family="Times,serif" font-size="14.00">{t8: D716, t2: D716}</text>
</g>
<!-- n90343970&#45;&gt;SUBSn97431753n90343970 -->
<g id="edge4" class="edge">
<title>n90343970&#45;&gt;SUBSn97431753n90343970</title>
<path fill="none" stroke="black" d="M798.24,-287.7C798.71,-276.85 799.3,-262.92 799.77,-252.1"/>
</g>
<!-- n31343797 -->
<g id="node5" class="node">
<title>n31343797</title>
<polygon fill="none" stroke="black" points="1211.5,-324 987.5,-324 987.5,-288 1211.5,-288 1211.5,-324"/>
<text text-anchor="start" x="995.5" y="-303.3" font-family="Times,serif" font-size="14.00">!day(</text>
<text text-anchor="start" x="1032.5" y="-303.3" font-family="Times,serif" font-weight="bold" font-size="14.00">t6</text>
<text text-anchor="start" x="1049.5" y="-303.3" font-family="Times,serif" font-size="14.00">), bright(</text>
<text text-anchor="start" x="1113.5" y="-303.3" font-family="Times,serif" font-weight="bold" font-size="14.00">t6</text>
<text text-anchor="start" x="1130.5" y="-303.3" font-family="Times,serif" font-size="14.00">), !dry(</text>
<text text-anchor="start" x="1180.5" y="-303.3" font-family="Times,serif" font-weight="bold" font-size="14.00">t6</text>
<text text-anchor="start" x="1197.5" y="-303.3" font-family="Times,serif" font-size="14.00">)</text>
</g>
<!-- n97431753 -->
<g id="node6" class="node">
<title>n97431753</title>
<polygon fill="none" stroke="black" points="969.5,-324 889.5,-324 889.5,-288 969.5,-288 969.5,-324"/>
<text text-anchor="start" x="897.5" y="-303.3" font-family="Times,serif" font-size="14.00">clear(</text>
<text text-anchor="start" x="938.5" y="-303.3" font-family="Times,serif" font-weight="bold" font-size="14.00">t8</text>
<text text-anchor="start" x="955.5" y="-303.3" font-family="Times,serif" font-size="14.00">)</text>
</g>
<!-- n97431753&#45;&gt;SUBSn97431753n90343970 -->
<g id="edge6" class="edge">
<title>n97431753&#45;&gt;SUBSn97431753n90343970</title>
<path fill="none" stroke="black" d="M897.94,-287.88C877.95,-277.03 852.19,-263.05 832.18,-252.19"/>
</g>
<!-- n49892927 -->
<g id="node7" class="node">
<title>n49892927</title>
<polygon fill="none" stroke="black" points="1371.5,-324 1229.5,-324 1229.5,-288 1371.5,-288 1371.5,-324"/>
<text text-anchor="start" x="1237.5" y="-303.3" font-family="Times,serif" font-size="14.00">!rain(</text>
<text text-anchor="start" x="1277.5" y="-303.3" font-family="Times,serif" font-weight="bold" font-size="14.00">t3</text>
<text text-anchor="start" x="1294.5" y="-303.3" font-family="Times,serif" font-size="14.00">), wet(</text>
<text text-anchor="start" x="1340.5" y="-303.3" font-family="Times,serif" font-weight="bold" font-size="14.00">t3</text>
<text text-anchor="start" x="1357.5" y="-303.3" font-family="Times,serif" font-size="14.00">)</text>
</g>
<!-- n63031920 -->
<g id="node8" class="node">
<title>n63031920</title>
<polygon fill="none" stroke="black" points="699.5,-324 555.5,-324 555.5,-288 699.5,-288 699.5,-324"/>
<text text-anchor="start" x="563.5" y="-303.3" font-family="Times,serif" font-size="14.00">!wet(</text>
<text text-anchor="start" x="601.5" y="-303.3" font-family="Times,serif" font-weight="bold" font-size="14.00">t4</text>
<text text-anchor="start" x="618.5" y="-303.3" font-family="Times,serif" font-size="14.00">), !dry(</text>
<text text-anchor="start" x="668.5" y="-303.3" font-family="Times,serif" font-weight="bold" font-size="14.00">t4</text>
<text text-anchor="start" x="685.5" y="-303.3" font-family="Times,serif" font-size="14.00">)</text>
</g>
<!-- n63031920&#45;&gt;SUBSn63031920n73826728 -->
<g id="edge8" class="edge">
<title>n63031920&#45;&gt;SUBSn63031920n73826728</title>
<path fill="none" stroke="black" d="M626.76,-287.7C626.29,-276.85 625.7,-262.92 625.23,-252.1"/>
</g>
<!-- n59940317 -->
<g id="node9" class="node">
<title>n59940317</title>
<polygon fill="none" stroke="black" points="1535,-324 1390,-324 1390,-288 1535,-288 1535,-324"/>
<text text-anchor="start" x="1398" y="-303.3" font-family="Times,serif" font-size="14.00">night(</text>
<text text-anchor="start" x="1441" y="-303.3" font-family="Times,serif" font-weight="bold" font-size="14.00">t1</text>
<text text-anchor="start" x="1458" y="-303.3" font-family="Times,serif" font-size="14.00">), day(</text>
<text text-anchor="start" x="1504" y="-303.3" font-family="Times,serif" font-weight="bold" font-size="14.00">t1</text>
<text text-anchor="start" x="1521" y="-303.3" font-family="Times,serif" font-size="14.00">)</text>
</g>
<!-- n04534644 -->
<g id="node10" class="node">
<title>n04534644</title>
<ellipse fill="none" stroke="black" cx="790.5" cy="-162" rx="61.19" ry="18"/>
<text text-anchor="start" x="751.5" y="-159.3" font-family="Times,serif" font-size="14.00">dry(</text>
<text text-anchor="start" x="781.5" y="-159.3" font-family="Times,serif" font-weight="bold" font-size="14.00">D716</text>
<text text-anchor="start" x="823.5" y="-159.3" font-family="Times,serif" font-size="14.00">)</text>
</g>
<!-- SUBSn04534644n35437200 -->
<g id="node11" class="node">
<title>SUBSn04534644n35437200</title>
<text text-anchor="start" x="620" y="-86.3" font-family="Times,serif" font-size="14.00">{D716: P617, F60: P617}</text>
</g>
<!-- n04534644&#45;&gt;SUBSn04534644n35437200 -->
<g id="edge1" class="edge">
<title>n04534644&#45;&gt;SUBSn04534644n35437200</title>
<path fill="none" stroke="black" d="M772.41,-144.76C760.17,-133.78 744.03,-119.29 731.58,-108.12"/>
</g>
<!-- n00000000 -->
<g id="node12" class="node">
<title>n00000000</title>
<ellipse fill="none" stroke="black" cx="712.5" cy="-18" rx="41.69" ry="18"/>
<text text-anchor="start" x="688.5" y="-14.3" font-family="Times,serif" font-size="14.00">FALSE</text>
</g>
<!-- SUBSn04534644n35437200&#45;&gt;n00000000 -->
<g id="edge5" class="edge">
<title>SUBSn04534644n35437200&#45;&gt;n00000000</title>
<path fill="none" stroke="black" d="M712.5,-71.7C712.5,-63.98 712.5,-54.71 712.5,-46.11"/>
<polygon fill="black" stroke="black" points="716,-46.1 712.5,-36.1 709,-46.1 716,-46.1"/>
</g>
<!-- n35437200 -->
<g id="node13" class="node">
<title>n35437200</title>
<ellipse fill="none" stroke="black" cx="644.5" cy="-162" rx="57.39" ry="18"/>
<text text-anchor="start" x="608.5" y="-159.3" font-family="Times,serif" font-size="14.00">!dry(</text>
<text text-anchor="start" x="644.5" y="-159.3" font-family="Times,serif" font-weight="bold" font-size="14.00">F60</text>
<text text-anchor="start" x="674.5" y="-159.3" font-family="Times,serif" font-size="14.00">)</text>
</g>
<!-- n35437200&#45;&gt;SUBSn04534644n35437200 -->
<g id="edge2" class="edge">
<title>n35437200&#45;&gt;SUBSn04534644n35437200</title>
<path fill="none" stroke="black" d="M660.62,-144.41C671.14,-133.58 684.86,-119.45 695.55,-108.45"/>
</g>
<!-- SUBSn97431753n90343970&#45;&gt;n04534644 -->
<g id="edge3" class="edge">
<title>SUBSn97431753n90343970&#45;&gt;n04534644</title>
<path fill="none" stroke="black" d="M798.03,-215.7C796.93,-207.98 795.6,-198.71 794.37,-190.11"/>
<polygon fill="black" stroke="black" points="797.82,-189.51 792.94,-180.1 790.89,-190.5 797.82,-189.51"/>
</g>
<!-- SUBSn63031920n73826728&#45;&gt;n35437200 -->
<g id="edge9" class="edge">
<title>SUBSn63031920n73826728&#45;&gt;n35437200</title>
<path fill="none" stroke="black" d="M629.44,-215.7C631.67,-207.9 634.35,-198.51 636.83,-189.83"/>
<polygon fill="black" stroke="black" points="640.23,-190.68 639.61,-180.1 633.5,-188.76 640.23,-190.68"/>
</g>
</g>
</svg>
