<?xml version="1.0" encoding="UTF-8" standalone="no"?>
<!DOCTYPE svg PUBLIC "-//W3C//DTD SVG 1.1//EN"
 "http://www.w3.org/Graphics/SVG/1.1/DTD/svg11.dtd">
<!-- Generated by graphviz version 2.43.0 (0)
 -->
<!-- Title: g Pages: 1 -->
<svg width="1478pt" height="476pt"
 viewBox="0.00 0.00 1478.13 476.00" xmlns="http://www.w3.org/2000/svg" xmlns:xlink="http://www.w3.org/1999/xlink">
<g id="graph0" class="graph" transform="scale(1 1) rotate(0) translate(4 472)">
<title>g</title>
<polygon fill="white" stroke="transparent" points="-4,4 -4,-472 1474.13,-472 1474.13,4 -4,4"/>
<!-- n16300281 -->
<g id="node1" class="node">
<title>n16300281</title>
<polygon fill="none" stroke="black" points="110.63,-468 40.63,-468 40.63,-432 110.63,-432 110.63,-468"/>
<text text-anchor="start" x="48.63" y="-447.3" font-family="Times,serif" font-size="14.00">day(</text>
<text text-anchor="start" x="79.63" y="-447.3" font-family="Times,serif" font-weight="bold" font-size="14.00">t7</text>
<text text-anchor="start" x="96.63" y="-447.3" font-family="Times,serif" font-size="14.00">)</text>
</g>
<!-- SUBSn16300281n08707641 -->
<g id="node13" class="node">
<title>SUBSn16300281n08707641</title>
<text text-anchor="start" x="90.63" y="-374.3" font-family="Times,serif" font-size="14.00">{t7: W990, t5: W990}</text>
</g>
<!-- n16300281&#45;&gt;SUBSn16300281n08707641 -->
<g id="edge2" class="edge">
<title>n16300281&#45;&gt;SUBSn16300281n08707641</title>
<path fill="none" stroke="black" d="M98.87,-431.7C113.44,-420.85 132.15,-406.92 146.67,-396.1"/>
</g>
<!-- n80174781 -->
<g id="node2" class="node">
<title>n80174781</title>
<polygon fill="none" stroke="black" points="563.13,-468 418.13,-468 418.13,-432 563.13,-432 563.13,-468"/>
<text text-anchor="start" x="426.13" y="-447.3" font-family="Times,serif" font-size="14.00">day(</text>
<text text-anchor="start" x="457.13" y="-447.3" font-family="Times,serif" font-weight="bold" font-size="14.00">t1</text>
<text text-anchor="start" x="474.13" y="-447.3" font-family="Times,serif" font-size="14.00">), night(</text>
<text text-anchor="start" x="532.13" y="-447.3" font-family="Times,serif" font-weight="bold" font-size="14.00">t1</text>
<text text-anchor="start" x="549.13" y="-447.3" font-family="Times,serif" font-size="14.00">)</text>
</g>
<!-- n00998678 -->
<g id="node3" class="node">
<title>n00998678</title>
<polygon fill="none" stroke="black" points="738.13,-468 581.13,-468 581.13,-432 738.13,-432 738.13,-468"/>
<text text-anchor="start" x="589.13" y="-447.3" font-family="Times,serif" font-size="14.00">!day(</text>
<text text-anchor="start" x="626.13" y="-447.3" font-family="Times,serif" font-weight="bold" font-size="14.00">t0</text>
<text text-anchor="start" x="643.13" y="-447.3" font-family="Times,serif" font-size="14.00">), !night(</text>
<text text-anchor="start" x="707.13" y="-447.3" font-family="Times,serif" font-weight="bold" font-size="14.00">t0</text>
<text text-anchor="start" x="724.13" y="-447.3" font-family="Times,serif" font-size="14.00">)</text>
</g>
<!-- n45151119 -->
<g id="node4" class="node">
<title>n45151119</title>
<polygon fill="none" stroke="black" points="899.13,-468 756.13,-468 756.13,-432 899.13,-432 899.13,-468"/>
<text text-anchor="start" x="764.13" y="-447.3" font-family="Times,serif" font-size="14.00">wet(</text>
<text text-anchor="start" x="796.13" y="-447.3" font-family="Times,serif" font-weight="bold" font-size="14.00">t3</text>
<text text-anchor="start" x="813.13" y="-447.3" font-family="Times,serif" font-size="14.00">), !rain(</text>
<text text-anchor="start" x="868.13" y="-447.3" font-family="Times,serif" font-weight="bold" font-size="14.00">t3</text>
<text text-anchor="start" x="885.13" y="-447.3" font-family="Times,serif" font-size="14.00">)</text>
</g>
<!-- n88282213 -->
<g id="node5" class="node">
<title>n88282213</title>
<polygon fill="none" stroke="black" points="1061.63,-468 917.63,-468 917.63,-432 1061.63,-432 1061.63,-468"/>
<text text-anchor="start" x="925.63" y="-447.3" font-family="Times,serif" font-size="14.00">!wet(</text>
<text text-anchor="start" x="963.63" y="-447.3" font-family="Times,serif" font-weight="bold" font-size="14.00">t4</text>
<text text-anchor="start" x="980.63" y="-447.3" font-family="Times,serif" font-size="14.00">), !dry(</text>
<text text-anchor="start" x="1030.63" y="-447.3" font-family="Times,serif" font-weight="bold" font-size="14.00">t4</text>
<text text-anchor="start" x="1047.63" y="-447.3" font-family="Times,serif" font-size="14.00">)</text>
</g>
<!-- n93092099 -->
<g id="node6" class="node">
<title>n93092099</title>
<polygon fill="none" stroke="black" points="426.13,-324 357.13,-324 357.13,-288 426.13,-288 426.13,-324"/>
<text text-anchor="start" x="365.13" y="-303.3" font-family="Times,serif" font-size="14.00">dry(</text>
<text text-anchor="start" x="395.13" y="-303.3" font-family="Times,serif" font-weight="bold" font-size="14.00">t8</text>
<text text-anchor="start" x="412.13" y="-303.3" font-family="Times,serif" font-size="14.00">)</text>
</g>
<!-- SUBSn10768916n93092099 -->
<g id="node14" class="node">
<title>SUBSn10768916n93092099</title>
<text text-anchor="start" x="193.13" y="-230.3" font-family="Times,serif" font-size="14.00">{W990: V456, t8: V456}</text>
</g>
<!-- n93092099&#45;&gt;SUBSn10768916n93092099 -->
<g id="edge7" class="edge">
<title>n93092099&#45;&gt;SUBSn10768916n93092099</title>
<path fill="none" stroke="black" d="M364.48,-287.88C347.28,-277.03 325.11,-263.05 307.89,-252.19"/>
</g>
<!-- n16070147 -->
<g id="node7" class="node">
<title>n16070147</title>
<polygon fill="none" stroke="black" points="1305.13,-468 1080.13,-468 1080.13,-432 1305.13,-432 1305.13,-468"/>
<text text-anchor="start" x="1088.13" y="-447.3" font-family="Times,serif" font-size="14.00">bright(</text>
<text text-anchor="start" x="1138.13" y="-447.3" font-family="Times,serif" font-weight="bold" font-size="14.00">t6</text>
<text text-anchor="start" x="1155.13" y="-447.3" font-family="Times,serif" font-size="14.00">), !day(</text>
<text text-anchor="start" x="1207.13" y="-447.3" font-family="Times,serif" font-weight="bold" font-size="14.00">t6</text>
<text text-anchor="start" x="1224.13" y="-447.3" font-family="Times,serif" font-size="14.00">), !dry(</text>
<text text-anchor="start" x="1274.13" y="-447.3" font-family="Times,serif" font-weight="bold" font-size="14.00">t6</text>
<text text-anchor="start" x="1291.13" y="-447.3" font-family="Times,serif" font-size="14.00">)</text>
</g>
<!-- n46790165 -->
<g id="node8" class="node">
<title>n46790165</title>
<polygon fill="none" stroke="black" points="542.13,-180 401.13,-180 401.13,-144 542.13,-144 542.13,-180"/>
<text text-anchor="start" x="409.13" y="-159.3" font-family="Times,serif" font-size="14.00">!sprinkler(</text>
<text text-anchor="start" x="485.13" y="-159.3" font-family="Times,serif" font-weight="bold" font-size="14.00">t9</text>
<text text-anchor="start" x="502.13" y="-159.3" font-family="Times,serif" font-size="14.00">, </text>
<text text-anchor="start" x="512.13" y="-159.3" font-family="Times,serif" font-weight="bold" font-size="14.00">l1</text>
<text text-anchor="start" x="528.13" y="-159.3" font-family="Times,serif" font-size="14.00">)</text>
</g>
<!-- SUBSn39323904n46790165 -->
<g id="node12" class="node">
<title>SUBSn39323904n46790165</title>
<text text-anchor="start" x="217.63" y="-86.3" font-family="Times,serif" font-size="14.00">{V456: M304, t9: M304, l0: Z960, l1: Z960}</text>
</g>
<!-- n46790165&#45;&gt;SUBSn39323904n46790165 -->
<g id="edge3" class="edge">
<title>n46790165&#45;&gt;SUBSn39323904n46790165</title>
<path fill="none" stroke="black" d="M447.9,-143.7C433.02,-132.85 413.92,-118.92 399.09,-108.1"/>
</g>
<!-- n06276098 -->
<g id="node9" class="node">
<title>n06276098</title>
<polygon fill="none" stroke="black" points="1470.13,-468 1323.13,-468 1323.13,-432 1470.13,-432 1470.13,-468"/>
<text text-anchor="start" x="1331.13" y="-447.3" font-family="Times,serif" font-size="14.00">!clear(</text>
<text text-anchor="start" x="1378.13" y="-447.3" font-family="Times,serif" font-weight="bold" font-size="14.00">t2</text>
<text text-anchor="start" x="1395.13" y="-447.3" font-family="Times,serif" font-size="14.00">), dry(</text>
<text text-anchor="start" x="1439.13" y="-447.3" font-family="Times,serif" font-weight="bold" font-size="14.00">t2</text>
<text text-anchor="start" x="1456.13" y="-447.3" font-family="Times,serif" font-size="14.00">)</text>
</g>
<!-- n08707641 -->
<g id="node10" class="node">
<title>n08707641</title>
<polygon fill="none" stroke="black" points="400.13,-468 129.13,-468 129.13,-432 400.13,-432 400.13,-468"/>
<text text-anchor="start" x="137.13" y="-447.3" font-family="Times,serif" font-size="14.00">!day(</text>
<text text-anchor="start" x="174.13" y="-447.3" font-family="Times,serif" font-weight="bold" font-size="14.00">t5</text>
<text text-anchor="start" x="191.13" y="-447.3" font-family="Times,serif" font-size="14.00">), !dry(</text>
<text text-anchor="start" x="241.13" y="-447.3" font-family="Times,serif" font-weight="bold" font-size="14.00">t5</text>
<text text-anchor="start" x="258.13" y="-447.3" font-family="Times,serif" font-size="14.00">), sprinkler(</text>
<text text-anchor="start" x="343.13" y="-447.3" font-family="Times,serif" font-weight="bold" font-size="14.00">t5</text>
<text text-anchor="start" x="360.13" y="-447.3" font-family="Times,serif" font-size="14.00">, </text>
<text text-anchor="start" x="370.13" y="-447.3" font-family="Times,serif" font-weight="bold" font-size="14.00">l0</text>
<text text-anchor="start" x="386.13" y="-447.3" font-family="Times,serif" font-size="14.00">)</text>
</g>
<!-- n08707641&#45;&gt;SUBSn16300281n08707641 -->
<g id="edge6" class="edge">
<title>n08707641&#45;&gt;SUBSn16300281n08707641</title>
<path fill="none" stroke="black" d="M241.15,-431.7C226.43,-420.85 207.52,-406.92 192.85,-396.1"/>
</g>
<!-- n39323904 -->
<g id="node11" class="node">
<title>n39323904</title>
<ellipse fill="none" stroke="black" cx="280.63" cy="-162" rx="102.88" ry="18"/>
<text text-anchor="start" x="209.63" y="-159.3" font-family="Times,serif" font-size="14.00">sprinkler(</text>
<text text-anchor="start" x="279.63" y="-159.3" font-family="Times,serif" font-weight="bold" font-size="14.00">V456</text>
<text text-anchor="start" x="319.63" y="-159.3" font-family="Times,serif" font-size="14.00">, </text>
<text text-anchor="start" x="329.63" y="-159.3" font-family="Times,serif" font-weight="bold" font-size="14.00">l0</text>
<text text-anchor="start" x="345.63" y="-159.3" font-family="Times,serif" font-size="14.00">)</text>
</g>
<!-- n39323904&#45;&gt;SUBSn39323904n46790165 -->
<g id="edge1" class="edge">
<title>n39323904&#45;&gt;SUBSn39323904n46790165</title>
<path fill="none" stroke="black" d="M303.15,-144.41C317.96,-133.49 337.31,-119.24 352.29,-108.2"/>
</g>
<!-- n00000000 -->
<g id="node16" class="node">
<title>n00000000</title>
<ellipse fill="none" stroke="black" cx="375.63" cy="-18" rx="41.69" ry="18"/>
<text text-anchor="start" x="351.63" y="-14.3" font-family="Times,serif" font-size="14.00">FALSE</text>
</g>
<!-- SUBSn39323904n46790165&#45;&gt;n00000000 -->
<g id="edge9" class="edge">
<title>SUBSn39323904n46790165&#45;&gt;n00000000</title>
<path fill="none" stroke="black" d="M375.63,-71.7C375.63,-63.98 375.63,-54.71 375.63,-46.11"/>
<polygon fill="black" stroke="black" points="379.14,-46.1 375.63,-36.1 372.14,-46.1 379.14,-46.1"/>
</g>
<!-- n10768916 -->
<g id="node15" class="node">
<title>n10768916</title>
<ellipse fill="none" stroke="black" cx="169.63" cy="-306" rx="169.77" ry="18"/>
<text text-anchor="start" x="47.13" y="-303.3" font-family="Times,serif" font-size="14.00">!dry(</text>
<text text-anchor="start" x="83.13" y="-303.3" font-family="Times,serif" font-weight="bold" font-size="14.00">W990</text>
<text text-anchor="start" x="129.13" y="-303.3" font-family="Times,serif" font-size="14.00">), sprinkler(</text>
<text text-anchor="start" x="214.13" y="-303.3" font-family="Times,serif" font-weight="bold" font-size="14.00">W990</text>
<text text-anchor="start" x="260.13" y="-303.3" font-family="Times,serif" font-size="14.00">, </text>
<text text-anchor="start" x="270.13" y="-303.3" font-family="Times,serif" font-weight="bold" font-size="14.00">l0</text>
<text text-anchor="start" x="286.13" y="-303.3" font-family="Times,serif" font-size="14.00">)</text>
</g>
<!-- SUBSn16300281n08707641&#45;&gt;n10768916 -->
<g id="edge5" class="edge">
<title>SUBSn16300281n08707641&#45;&gt;n10768916</title>
<path fill="none" stroke="black" d="M169.63,-359.7C169.63,-351.98 169.63,-342.71 169.63,-334.11"/>
<polygon fill="black" stroke="black" points="173.14,-334.1 169.63,-324.1 166.14,-334.1 173.14,-334.1"/>
</g>
<!-- SUBSn10768916n93092099&#45;&gt;n39323904 -->
<g id="edge4" class="edge">
<title>SUBSn10768916n93092099&#45;&gt;n39323904</title>
<path fill="none" stroke="black" d="M280.63,-215.7C280.63,-207.98 280.63,-198.71 280.63,-190.11"/>
<polygon fill="black" stroke="black" points="284.14,-190.1 280.63,-180.1 277.14,-190.1 284.14,-190.1"/>
</g>
<!-- n10768916&#45;&gt;SUBSn10768916n93092099 -->
<g id="edge8" class="edge">
<title>n10768916&#45;&gt;SUBSn10768916n93092099</title>
<path fill="none" stroke="black" d="M196.5,-288.05C213.83,-277.13 236.28,-262.97 253.63,-252.03"/>
</g>
</g>
</svg>
