<?xml version="1.0" encoding="UTF-8" standalone="no"?>
<!DOCTYPE svg PUBLIC "-//W3C//DTD SVG 1.1//EN"
 "http://www.w3.org/Graphics/SVG/1.1/DTD/svg11.dtd">
<!-- Generated by graphviz version 2.43.0 (0)
 -->
<!-- Title: g Pages: 1 -->
<svg width="1321pt" height="476pt"
 viewBox="0.00 0.00 1321.00 476.00" xmlns="http://www.w3.org/2000/svg" xmlns:xlink="http://www.w3.org/1999/xlink">
<g id="graph0" class="graph" transform="scale(1 1) rotate(0) translate(4 472)">
<title>g</title>
<polygon fill="white" stroke="transparent" points="-4,4 -4,-472 1317,-472 1317,4 -4,4"/>
<!-- n67545363 -->
<g id="node1" class="node">
<title>n67545363</title>
<polygon fill="none" stroke="black" points="145,-468 0,-468 0,-432 145,-432 145,-468"/>
<text text-anchor="start" x="8" y="-447.3" font-family="Times,serif" font-size="14.00">day(</text>
<text text-anchor="start" x="39" y="-447.3" font-family="Times,serif" font-weight="bold" font-size="14.00">t1</text>
<text text-anchor="start" x="56" y="-447.3" font-family="Times,serif" font-size="14.00">), night(</text>
<text text-anchor="start" x="114" y="-447.3" font-family="Times,serif" font-weight="bold" font-size="14.00">t1</text>
<text text-anchor="start" x="131" y="-447.3" font-family="Times,serif" font-size="14.00">)</text>
</g>
<!-- SUBSn67545363n05062250 -->
<g id="node10" class="node">
<title>SUBSn67545363n05062250</title>
<text text-anchor="start" x="120.5" y="-374.3" font-family="Times,serif" font-size="14.00">{t1: Y45, t7: Y45}</text>
</g>
<!-- n67545363&#45;&gt;SUBSn67545363n05062250 -->
<g id="edge9" class="edge">
<title>n67545363&#45;&gt;SUBSn67545363n05062250</title>
<path fill="none" stroke="black" d="M100.14,-431.88C117.65,-421.03 140.22,-407.05 157.75,-396.19"/>
</g>
<!-- n62133725 -->
<g id="node2" class="node">
<title>n62133725</title>
<polygon fill="none" stroke="black" points="811.5,-468 667.5,-468 667.5,-432 811.5,-432 811.5,-468"/>
<text text-anchor="start" x="675.5" y="-447.3" font-family="Times,serif" font-size="14.00">!wet(</text>
<text text-anchor="start" x="713.5" y="-447.3" font-family="Times,serif" font-weight="bold" font-size="14.00">t4</text>
<text text-anchor="start" x="730.5" y="-447.3" font-family="Times,serif" font-size="14.00">), !dry(</text>
<text text-anchor="start" x="780.5" y="-447.3" font-family="Times,serif" font-weight="bold" font-size="14.00">t4</text>
<text text-anchor="start" x="797.5" y="-447.3" font-family="Times,serif" font-size="14.00">)</text>
</g>
<!-- n05062250 -->
<g id="node3" class="node">
<title>n05062250</title>
<polygon fill="none" stroke="black" points="251.5,-468 163.5,-468 163.5,-432 251.5,-432 251.5,-468"/>
<text text-anchor="start" x="171.5" y="-447.3" font-family="Times,serif" font-size="14.00">!night(</text>
<text text-anchor="start" x="220.5" y="-447.3" font-family="Times,serif" font-weight="bold" font-size="14.00">t7</text>
<text text-anchor="start" x="237.5" y="-447.3" font-family="Times,serif" font-size="14.00">)</text>
</g>
<!-- n05062250&#45;&gt;SUBSn67545363n05062250 -->
<g id="edge1" class="edge">
<title>n05062250&#45;&gt;SUBSn67545363n05062250</title>
<path fill="none" stroke="black" d="M202.06,-431.7C198.65,-420.85 194.27,-406.92 190.88,-396.1"/>
</g>
<!-- n43660823 -->
<g id="node4" class="node">
<title>n43660823</title>
<polygon fill="none" stroke="black" points="987,-468 830,-468 830,-432 987,-432 987,-468"/>
<text text-anchor="start" x="838" y="-447.3" font-family="Times,serif" font-size="14.00">!day(</text>
<text text-anchor="start" x="875" y="-447.3" font-family="Times,serif" font-weight="bold" font-size="14.00">t0</text>
<text text-anchor="start" x="892" y="-447.3" font-family="Times,serif" font-size="14.00">), !night(</text>
<text text-anchor="start" x="956" y="-447.3" font-family="Times,serif" font-weight="bold" font-size="14.00">t0</text>
<text text-anchor="start" x="973" y="-447.3" font-family="Times,serif" font-size="14.00">)</text>
</g>
<!-- n73543559 -->
<g id="node5" class="node">
<title>n73543559</title>
<polygon fill="none" stroke="black" points="407,-468 312,-468 312,-432 407,-432 407,-468"/>
<text text-anchor="start" x="320" y="-447.3" font-family="Times,serif" font-size="14.00">!bright(</text>
<text text-anchor="start" x="376" y="-447.3" font-family="Times,serif" font-weight="bold" font-size="14.00">t6</text>
<text text-anchor="start" x="393" y="-447.3" font-family="Times,serif" font-size="14.00">)</text>
</g>
<!-- SUBSn29633002n73543559 -->
<g id="node16" class="node">
<title>SUBSn29633002n73543559</title>
<text text-anchor="start" x="306" y="-374.3" font-family="Times,serif" font-size="14.00">{t5: F517, t6: F517}</text>
</g>
<!-- n73543559&#45;&gt;SUBSn29633002n73543559 -->
<g id="edge10" class="edge">
<title>n73543559&#45;&gt;SUBSn29633002n73543559</title>
<path fill="none" stroke="black" d="M364.69,-431.7C367.95,-420.85 372.12,-406.92 375.37,-396.1"/>
</g>
<!-- n55646341 -->
<g id="node6" class="node">
<title>n55646341</title>
<polygon fill="none" stroke="black" points="1147.5,-468 1005.5,-468 1005.5,-432 1147.5,-432 1147.5,-468"/>
<text text-anchor="start" x="1013.5" y="-447.3" font-family="Times,serif" font-size="14.00">!rain(</text>
<text text-anchor="start" x="1053.5" y="-447.3" font-family="Times,serif" font-weight="bold" font-size="14.00">t3</text>
<text text-anchor="start" x="1070.5" y="-447.3" font-family="Times,serif" font-size="14.00">), wet(</text>
<text text-anchor="start" x="1116.5" y="-447.3" font-family="Times,serif" font-weight="bold" font-size="14.00">t3</text>
<text text-anchor="start" x="1133.5" y="-447.3" font-family="Times,serif" font-size="14.00">)</text>
</g>
<!-- n85615545 -->
<g id="node7" class="node">
<title>n85615545</title>
<polygon fill="none" stroke="black" points="1313,-468 1166,-468 1166,-432 1313,-432 1313,-468"/>
<text text-anchor="start" x="1174" y="-447.3" font-family="Times,serif" font-size="14.00">dry(</text>
<text text-anchor="start" x="1204" y="-447.3" font-family="Times,serif" font-weight="bold" font-size="14.00">t2</text>
<text text-anchor="start" x="1221" y="-447.3" font-family="Times,serif" font-size="14.00">), !clear(</text>
<text text-anchor="start" x="1282" y="-447.3" font-family="Times,serif" font-weight="bold" font-size="14.00">t2</text>
<text text-anchor="start" x="1299" y="-447.3" font-family="Times,serif" font-size="14.00">)</text>
</g>
<!-- n49150335 -->
<g id="node8" class="node">
<title>n49150335</title>
<polygon fill="none" stroke="black" points="433,-180 364,-180 364,-144 433,-144 433,-180"/>
<text text-anchor="start" x="372" y="-159.3" font-family="Times,serif" font-size="14.00">dry(</text>
<text text-anchor="start" x="402" y="-159.3" font-family="Times,serif" font-weight="bold" font-size="14.00">t8</text>
<text text-anchor="start" x="419" y="-159.3" font-family="Times,serif" font-size="14.00">)</text>
</g>
<!-- SUBSn05649923n49150335 -->
<g id="node14" class="node">
<title>SUBSn05649923n49150335</title>
<text text-anchor="start" x="254.5" y="-86.3" font-family="Times,serif" font-size="14.00">{A163: R578, t8: R578}</text>
</g>
<!-- n49150335&#45;&gt;SUBSn05649923n49150335 -->
<g id="edge5" class="edge">
<title>n49150335&#45;&gt;SUBSn05649923n49150335</title>
<path fill="none" stroke="black" d="M384.16,-143.7C375.17,-132.85 363.63,-118.92 354.67,-108.1"/>
</g>
<!-- n29633002 -->
<g id="node9" class="node">
<title>n29633002</title>
<polygon fill="none" stroke="black" points="649.5,-468 425.5,-468 425.5,-432 649.5,-432 649.5,-468"/>
<text text-anchor="start" x="433.5" y="-447.3" font-family="Times,serif" font-size="14.00">!day(</text>
<text text-anchor="start" x="470.5" y="-447.3" font-family="Times,serif" font-weight="bold" font-size="14.00">t5</text>
<text text-anchor="start" x="487.5" y="-447.3" font-family="Times,serif" font-size="14.00">), !dry(</text>
<text text-anchor="start" x="537.5" y="-447.3" font-family="Times,serif" font-weight="bold" font-size="14.00">t5</text>
<text text-anchor="start" x="554.5" y="-447.3" font-family="Times,serif" font-size="14.00">), bright(</text>
<text text-anchor="start" x="618.5" y="-447.3" font-family="Times,serif" font-weight="bold" font-size="14.00">t5</text>
<text text-anchor="start" x="635.5" y="-447.3" font-family="Times,serif" font-size="14.00">)</text>
</g>
<!-- n29633002&#45;&gt;SUBSn29633002n73543559 -->
<g id="edge7" class="edge">
<title>n29633002&#45;&gt;SUBSn29633002n73543559</title>
<path fill="none" stroke="black" d="M499.09,-431.88C474.67,-420.99 443.18,-406.95 418.78,-396.07"/>
</g>
<!-- n03595333 -->
<g id="node11" class="node">
<title>n03595333</title>
<ellipse fill="none" stroke="black" cx="185.5" cy="-306" rx="53.89" ry="18"/>
<text text-anchor="start" x="152" y="-303.3" font-family="Times,serif" font-size="14.00">day(</text>
<text text-anchor="start" x="183" y="-303.3" font-family="Times,serif" font-weight="bold" font-size="14.00">Y45</text>
<text text-anchor="start" x="213" y="-303.3" font-family="Times,serif" font-size="14.00">)</text>
</g>
<!-- SUBSn67545363n05062250&#45;&gt;n03595333 -->
<g id="edge11" class="edge">
<title>SUBSn67545363n05062250&#45;&gt;n03595333</title>
<path fill="none" stroke="black" d="M185.5,-359.7C185.5,-351.98 185.5,-342.71 185.5,-334.11"/>
<polygon fill="black" stroke="black" points="189,-334.1 185.5,-324.1 182,-334.1 189,-334.1"/>
</g>
<!-- SUBSn03595333n01060181 -->
<g id="node12" class="node">
<title>SUBSn03595333n01060181</title>
<text text-anchor="start" x="191" y="-230.3" font-family="Times,serif" font-size="14.00">{Y45: A163, F517: A163}</text>
</g>
<!-- n03595333&#45;&gt;SUBSn03595333n01060181 -->
<g id="edge2" class="edge">
<title>n03595333&#45;&gt;SUBSn03595333n01060181</title>
<path fill="none" stroke="black" d="M207.03,-289.46C222.32,-278.43 242.86,-263.61 258.65,-252.21"/>
</g>
<!-- n05649923 -->
<g id="node13" class="node">
<title>n05649923</title>
<ellipse fill="none" stroke="black" cx="282.5" cy="-162" rx="63.89" ry="18"/>
<text text-anchor="start" x="241.5" y="-159.3" font-family="Times,serif" font-size="14.00">!dry(</text>
<text text-anchor="start" x="277.5" y="-159.3" font-family="Times,serif" font-weight="bold" font-size="14.00">A163</text>
<text text-anchor="start" x="317.5" y="-159.3" font-family="Times,serif" font-size="14.00">)</text>
</g>
<!-- SUBSn03595333n01060181&#45;&gt;n05649923 -->
<g id="edge4" class="edge">
<title>SUBSn03595333n01060181&#45;&gt;n05649923</title>
<path fill="none" stroke="black" d="M282.5,-215.7C282.5,-207.98 282.5,-198.71 282.5,-190.11"/>
<polygon fill="black" stroke="black" points="286,-190.1 282.5,-180.1 279,-190.1 286,-190.1"/>
</g>
<!-- n05649923&#45;&gt;SUBSn05649923n49150335 -->
<g id="edge3" class="edge">
<title>n05649923&#45;&gt;SUBSn05649923n49150335</title>
<path fill="none" stroke="black" d="M296.25,-144.41C305.22,-133.58 316.93,-119.45 326.04,-108.45"/>
</g>
<!-- n00000000 -->
<g id="node15" class="node">
<title>n00000000</title>
<ellipse fill="none" stroke="black" cx="340.5" cy="-18" rx="41.69" ry="18"/>
<text text-anchor="start" x="316.5" y="-14.3" font-family="Times,serif" font-size="14.00">FALSE</text>
</g>
<!-- SUBSn05649923n49150335&#45;&gt;n00000000 -->
<g id="edge6" class="edge">
<title>SUBSn05649923n49150335&#45;&gt;n00000000</title>
<path fill="none" stroke="black" d="M340.5,-71.7C340.5,-63.98 340.5,-54.71 340.5,-46.11"/>
<polygon fill="black" stroke="black" points="344,-46.1 340.5,-36.1 337,-46.1 344,-46.1"/>
</g>
<!-- n01060181 -->
<g id="node17" class="node">
<title>n01060181</title>
<ellipse fill="none" stroke="black" cx="380.5" cy="-306" rx="123.48" ry="18"/>
<text text-anchor="start" x="293.5" y="-303.3" font-family="Times,serif" font-size="14.00">!dry(</text>
<text text-anchor="start" x="329.5" y="-303.3" font-family="Times,serif" font-weight="bold" font-size="14.00">F517</text>
<text text-anchor="start" x="369.5" y="-303.3" font-family="Times,serif" font-size="14.00">), !day(</text>
<text text-anchor="start" x="421.5" y="-303.3" font-family="Times,serif" font-weight="bold" font-size="14.00">F517</text>
<text text-anchor="start" x="461.5" y="-303.3" font-family="Times,serif" font-size="14.00">)</text>
</g>
<!-- SUBSn29633002n73543559&#45;&gt;n01060181 -->
<g id="edge8" class="edge">
<title>SUBSn29633002n73543559&#45;&gt;n01060181</title>
<path fill="none" stroke="black" d="M380.5,-359.7C380.5,-351.98 380.5,-342.71 380.5,-334.11"/>
<polygon fill="black" stroke="black" points="384,-334.1 380.5,-324.1 377,-334.1 384,-334.1"/>
</g>
<!-- n01060181&#45;&gt;SUBSn03595333n01060181 -->
<g id="edge12" class="edge">
<title>n01060181&#45;&gt;SUBSn03595333n01060181</title>
<path fill="none" stroke="black" d="M356.78,-288.05C341.48,-277.13 321.66,-262.97 306.34,-252.03"/>
</g>
</g>
</svg>
