<?xml version="1.0" encoding="UTF-8" standalone="no"?>
<!DOCTYPE svg PUBLIC "-//W3C//DTD SVG 1.1//EN"
 "http://www.w3.org/Graphics/SVG/1.1/DTD/svg11.dtd">
<!-- Generated by graphviz version 2.43.0 (0)
 -->
<!-- Title: g Pages: 1 -->
<svg width="1728pt" height="476pt"
 viewBox="0.00 0.00 1728.00 476.00" xmlns="http://www.w3.org/2000/svg" xmlns:xlink="http://www.w3.org/1999/xlink">
<g id="graph0" class="graph" transform="scale(1 1) rotate(0) translate(4 472)">
<title>g</title>
<polygon fill="white" stroke="transparent" points="-4,4 -4,-472 1724,-472 1724,4 -4,4"/>
<!-- n35066206 -->
<g id="node1" class="node">
<title>n35066206</title>
<polygon fill="none" stroke="black" points="89,-468 0,-468 0,-432 89,-432 89,-468"/>
<text text-anchor="start" x="8" y="-447.3" font-family="Times,serif" font-size="14.00">man(</text>
<text text-anchor="start" x="45" y="-447.3" font-family="Times,serif" font-style="italic" font-size="14.00">SK0</text>
<text text-anchor="start" x="75" y="-447.3" font-family="Times,serif" font-size="14.00">)</text>
</g>
<!-- n62371328 -->
<g id="node2" class="node">
<title>n62371328</title>
<polygon fill="none" stroke="black" points="442,-468 107,-468 107,-432 442,-432 442,-468"/>
<text text-anchor="start" x="115" y="-447.3" font-family="Times,serif" font-size="14.00">!friendly(</text>
<text text-anchor="start" x="182" y="-447.3" font-family="Times,serif" font-weight="bold" font-size="14.00">x2</text>
<text text-anchor="start" x="201" y="-447.3" font-family="Times,serif" font-size="14.00">), loves(</text>
<text text-anchor="start" x="258" y="-447.3" font-family="Times,serif" font-style="italic" font-size="14.00">SKF0</text>
<text text-anchor="start" x="298" y="-447.3" font-family="Times,serif" font-size="14.00">(</text>
<text text-anchor="start" x="304" y="-447.3" font-family="Times,serif" font-weight="bold" font-size="14.00">x2</text>
<text text-anchor="start" x="323" y="-447.3" font-family="Times,serif" font-size="14.00">), </text>
<text text-anchor="start" x="338" y="-447.3" font-family="Times,serif" font-weight="bold" font-size="14.00">x2</text>
<text text-anchor="start" x="357" y="-447.3" font-family="Times,serif" font-size="14.00">), !dog(</text>
<text text-anchor="start" x="409" y="-447.3" font-family="Times,serif" font-weight="bold" font-size="14.00">x2</text>
<text text-anchor="start" x="428" y="-447.3" font-family="Times,serif" font-size="14.00">)</text>
</g>
<!-- SUBSn62371328n48937496 -->
<g id="node12" class="node">
<title>SUBSn62371328n48937496</title>
<text text-anchor="start" x="359" y="-374.3" font-family="Times,serif" font-size="14.00">{x2: Kim}</text>
</g>
<!-- n62371328&#45;&gt;SUBSn62371328n48937496 -->
<g id="edge5" class="edge">
<title>n62371328&#45;&gt;SUBSn62371328n48937496</title>
<path fill="none" stroke="black" d="M304.1,-431.88C322.85,-421.03 347.01,-407.05 365.79,-396.19"/>
</g>
<!-- n36983270 -->
<g id="node3" class="node">
<title>n36983270</title>
<polygon fill="none" stroke="black" points="908.5,-468 590.5,-468 590.5,-432 908.5,-432 908.5,-468"/>
<text text-anchor="start" x="598.5" y="-447.3" font-family="Times,serif" font-size="14.00">!friendly(</text>
<text text-anchor="start" x="665.5" y="-447.3" font-family="Times,serif" font-weight="bold" font-size="14.00">x1</text>
<text text-anchor="start" x="684.5" y="-447.3" font-family="Times,serif" font-size="14.00">), !dog(</text>
<text text-anchor="start" x="736.5" y="-447.3" font-family="Times,serif" font-weight="bold" font-size="14.00">x1</text>
<text text-anchor="start" x="755.5" y="-447.3" font-family="Times,serif" font-size="14.00">), person(</text>
<text text-anchor="start" x="824.5" y="-447.3" font-family="Times,serif" font-style="italic" font-size="14.00">SKF0</text>
<text text-anchor="start" x="864.5" y="-447.3" font-family="Times,serif" font-size="14.00">(</text>
<text text-anchor="start" x="870.5" y="-447.3" font-family="Times,serif" font-weight="bold" font-size="14.00">x1</text>
<text text-anchor="start" x="889.5" y="-447.3" font-family="Times,serif" font-size="14.00">))</text>
</g>
<!-- n20493355 -->
<g id="node4" class="node">
<title>n20493355</title>
<polygon fill="none" stroke="black" points="1025,-468 926,-468 926,-432 1025,-432 1025,-468"/>
<text text-anchor="start" x="934" y="-447.3" font-family="Times,serif" font-size="14.00">angry(</text>
<text text-anchor="start" x="981" y="-447.3" font-family="Times,serif" font-style="italic" font-size="14.00">SK0</text>
<text text-anchor="start" x="1011" y="-447.3" font-family="Times,serif" font-size="14.00">)</text>
</g>
<!-- n01894652 -->
<g id="node5" class="node">
<title>n01894652</title>
<polygon fill="none" stroke="black" points="778,-180 649,-180 649,-144 778,-144 778,-180"/>
<text text-anchor="start" x="657" y="-159.3" font-family="Times,serif" font-size="14.00">!loves(</text>
<text text-anchor="start" x="706" y="-159.3" font-family="Times,serif" font-weight="bold" font-size="14.00">x5</text>
<text text-anchor="start" x="725" y="-159.3" font-family="Times,serif" font-size="14.00">, </text>
<text text-anchor="start" x="735" y="-159.3" font-family="Times,serif" font-style="italic" font-size="14.00">Kim</text>
<text text-anchor="start" x="764" y="-159.3" font-family="Times,serif" font-size="14.00">)</text>
</g>
<!-- SUBSn01894652n94086903 -->
<g id="node16" class="node">
<title>SUBSn01894652n94086903</title>
<text text-anchor="start" x="551" y="-86.3" font-family="Times,serif" font-size="14.00">{x5: SKF0(Kim)}</text>
</g>
<!-- n01894652&#45;&gt;SUBSn01894652n94086903 -->
<g id="edge7" class="edge">
<title>n01894652&#45;&gt;SUBSn01894652n94086903</title>
<path fill="none" stroke="black" d="M688.79,-143.88C673.14,-133.03 652.97,-119.05 637.3,-108.19"/>
</g>
<!-- n40646573 -->
<g id="node6" class="node">
<title>n40646573</title>
<polygon fill="none" stroke="black" points="1209.5,-468 1043.5,-468 1043.5,-432 1209.5,-432 1209.5,-468"/>
<text text-anchor="start" x="1051.5" y="-447.3" font-family="Times,serif" font-size="14.00">!dog(</text>
<text text-anchor="start" x="1089.5" y="-447.3" font-family="Times,serif" font-weight="bold" font-size="14.00">x0</text>
<text text-anchor="start" x="1108.5" y="-447.3" font-family="Times,serif" font-size="14.00">), animal(</text>
<text text-anchor="start" x="1176.5" y="-447.3" font-family="Times,serif" font-weight="bold" font-size="14.00">x0</text>
<text text-anchor="start" x="1195.5" y="-447.3" font-family="Times,serif" font-size="14.00">)</text>
</g>
<!-- n45513415 -->
<g id="node7" class="node">
<title>n45513415</title>
<polygon fill="none" stroke="black" points="1399.5,-468 1227.5,-468 1227.5,-432 1399.5,-432 1399.5,-468"/>
<text text-anchor="start" x="1235.5" y="-447.3" font-family="Times,serif" font-size="14.00">person(</text>
<text text-anchor="start" x="1290.5" y="-447.3" font-family="Times,serif" font-weight="bold" font-size="14.00">x3</text>
<text text-anchor="start" x="1309.5" y="-447.3" font-family="Times,serif" font-size="14.00">), !man(</text>
<text text-anchor="start" x="1366.5" y="-447.3" font-family="Times,serif" font-weight="bold" font-size="14.00">x3</text>
<text text-anchor="start" x="1385.5" y="-447.3" font-family="Times,serif" font-size="14.00">)</text>
</g>
<!-- n55864732 -->
<g id="node8" class="node">
<title>n55864732</title>
<polygon fill="none" stroke="black" points="1607,-468 1418,-468 1418,-432 1607,-432 1607,-468"/>
<text text-anchor="start" x="1426" y="-447.3" font-family="Times,serif" font-size="14.00">animal(</text>
<text text-anchor="start" x="1480" y="-447.3" font-family="Times,serif" font-weight="bold" font-size="14.00">x4</text>
<text text-anchor="start" x="1499" y="-447.3" font-family="Times,serif" font-size="14.00">), !person(</text>
<text text-anchor="start" x="1574" y="-447.3" font-family="Times,serif" font-weight="bold" font-size="14.00">x4</text>
<text text-anchor="start" x="1593" y="-447.3" font-family="Times,serif" font-size="14.00">)</text>
</g>
<!-- n33765991 -->
<g id="node9" class="node">
<title>n33765991</title>
<polygon fill="none" stroke="black" points="669,-324 586,-324 586,-288 669,-288 669,-324"/>
<text text-anchor="start" x="594" y="-303.3" font-family="Times,serif" font-size="14.00">dog(</text>
<text text-anchor="start" x="626" y="-303.3" font-family="Times,serif" font-style="italic" font-size="14.00">Kim</text>
<text text-anchor="start" x="655" y="-303.3" font-family="Times,serif" font-size="14.00">)</text>
</g>
<!-- SUBSn33765991n27852895 -->
<g id="node14" class="node">
<title>SUBSn33765991n27852895</title>
<text text-anchor="start" x="502" y="-230.3" font-family="Times,serif" font-size="14.00">{}</text>
</g>
<!-- n33765991&#45;&gt;SUBSn33765991n27852895 -->
<g id="edge9" class="edge">
<title>n33765991&#45;&gt;SUBSn33765991n27852895</title>
<path fill="none" stroke="black" d="M599.12,-287.88C580.75,-276.79 556.94,-262.42 538.79,-251.47"/>
</g>
<!-- n48937496 -->
<g id="node10" class="node">
<title>n48937496</title>
<polygon fill="none" stroke="black" points="572.5,-468 460.5,-468 460.5,-432 572.5,-432 572.5,-468"/>
<text text-anchor="start" x="468.5" y="-447.3" font-family="Times,serif" font-size="14.00">friendly(</text>
<text text-anchor="start" x="529.5" y="-447.3" font-family="Times,serif" font-style="italic" font-size="14.00">Kim</text>
<text text-anchor="start" x="558.5" y="-447.3" font-family="Times,serif" font-size="14.00">)</text>
</g>
<!-- n48937496&#45;&gt;SUBSn62371328n48937496 -->
<g id="edge1" class="edge">
<title>n48937496&#45;&gt;SUBSn62371328n48937496</title>
<path fill="none" stroke="black" d="M486.9,-431.88C468.15,-421.03 443.99,-407.05 425.21,-396.19"/>
</g>
<!-- n42857452 -->
<g id="node11" class="node">
<title>n42857452</title>
<polygon fill="none" stroke="black" points="1720,-468 1625,-468 1625,-432 1720,-432 1720,-468"/>
<text text-anchor="start" x="1633" y="-447.3" font-family="Times,serif" font-size="14.00">man(</text>
<text text-anchor="start" x="1670" y="-447.3" font-family="Times,serif" font-style="italic" font-size="14.00">Mike</text>
<text text-anchor="start" x="1706" y="-447.3" font-family="Times,serif" font-size="14.00">)</text>
</g>
<!-- n27852895 -->
<g id="node13" class="node">
<title>n27852895</title>
<ellipse fill="none" stroke="black" cx="395.5" cy="-306" rx="172.47" ry="18"/>
<text text-anchor="start" x="271" y="-303.3" font-family="Times,serif" font-size="14.00">!dog(</text>
<text text-anchor="start" x="309" y="-303.3" font-family="Times,serif" font-style="italic" font-size="14.00">Kim</text>
<text text-anchor="start" x="338" y="-303.3" font-family="Times,serif" font-size="14.00">), loves(</text>
<text text-anchor="start" x="395" y="-303.3" font-family="Times,serif" font-style="italic" font-size="14.00">SKF0</text>
<text text-anchor="start" x="435" y="-303.3" font-family="Times,serif" font-size="14.00">(</text>
<text text-anchor="start" x="441" y="-303.3" font-family="Times,serif" font-style="italic" font-size="14.00">Kim</text>
<text text-anchor="start" x="470" y="-303.3" font-family="Times,serif" font-size="14.00">), </text>
<text text-anchor="start" x="485" y="-303.3" font-family="Times,serif" font-style="italic" font-size="14.00">Kim</text>
<text text-anchor="start" x="514" y="-303.3" font-family="Times,serif" font-size="14.00">)</text>
</g>
<!-- SUBSn62371328n48937496&#45;&gt;n27852895 -->
<g id="edge3" class="edge">
<title>SUBSn62371328n48937496&#45;&gt;n27852895</title>
<path fill="none" stroke="black" d="M395.5,-359.7C395.5,-351.98 395.5,-342.71 395.5,-334.11"/>
<polygon fill="black" stroke="black" points="399,-334.1 395.5,-324.1 392,-334.1 399,-334.1"/>
</g>
<!-- n27852895&#45;&gt;SUBSn33765991n27852895 -->
<g id="edge4" class="edge">
<title>n27852895&#45;&gt;SUBSn33765991n27852895</title>
<path fill="none" stroke="black" d="M423.28,-288.23C441.78,-277.07 465.97,-262.47 484.34,-251.39"/>
</g>
<!-- n94086903 -->
<g id="node15" class="node">
<title>n94086903</title>
<ellipse fill="none" stroke="black" cx="511.5" cy="-162" rx="119.68" ry="18"/>
<text text-anchor="start" x="427.5" y="-159.3" font-family="Times,serif" font-size="14.00">loves(</text>
<text text-anchor="start" x="470.5" y="-159.3" font-family="Times,serif" font-style="italic" font-size="14.00">SKF0</text>
<text text-anchor="start" x="510.5" y="-159.3" font-family="Times,serif" font-size="14.00">(</text>
<text text-anchor="start" x="516.5" y="-159.3" font-family="Times,serif" font-style="italic" font-size="14.00">Kim</text>
<text text-anchor="start" x="545.5" y="-159.3" font-family="Times,serif" font-size="14.00">), </text>
<text text-anchor="start" x="560.5" y="-159.3" font-family="Times,serif" font-style="italic" font-size="14.00">Kim</text>
<text text-anchor="start" x="589.5" y="-159.3" font-family="Times,serif" font-size="14.00">)</text>
</g>
<!-- SUBSn33765991n27852895&#45;&gt;n94086903 -->
<g id="edge2" class="edge">
<title>SUBSn33765991n27852895&#45;&gt;n94086903</title>
<path fill="none" stroke="black" d="M511.5,-215.7C511.5,-207.98 511.5,-198.71 511.5,-190.11"/>
<polygon fill="black" stroke="black" points="515,-190.1 511.5,-180.1 508,-190.1 515,-190.1"/>
</g>
<!-- n94086903&#45;&gt;SUBSn01894652n94086903 -->
<g id="edge8" class="edge">
<title>n94086903&#45;&gt;SUBSn01894652n94086903</title>
<path fill="none" stroke="black" d="M535.69,-144.23C551.45,-133.31 571.95,-119.11 587.8,-108.12"/>
</g>
<!-- n00000000 -->
<g id="node17" class="node">
<title>n00000000</title>
<ellipse fill="none" stroke="black" cx="612.5" cy="-18" rx="41.69" ry="18"/>
<text text-anchor="start" x="588.5" y="-14.3" font-family="Times,serif" font-size="14.00">FALSE</text>
</g>
<!-- SUBSn01894652n94086903&#45;&gt;n00000000 -->
<g id="edge6" class="edge">
<title>SUBSn01894652n94086903&#45;&gt;n00000000</title>
<path fill="none" stroke="black" d="M612.5,-71.7C612.5,-63.98 612.5,-54.71 612.5,-46.11"/>
<polygon fill="black" stroke="black" points="616,-46.1 612.5,-36.1 609,-46.1 616,-46.1"/>
</g>
</g>
</svg>
