<?xml version="1.0" encoding="UTF-8" standalone="no"?>
<!DOCTYPE svg PUBLIC "-//W3C//DTD SVG 1.1//EN"
 "http://www.w3.org/Graphics/SVG/1.1/DTD/svg11.dtd">
<!-- Generated by graphviz version 2.43.0 (0)
 -->
<!-- Title: g Pages: 1 -->
<svg width="3560pt" height="476pt"
 viewBox="0.00 0.00 3559.54 476.00" xmlns="http://www.w3.org/2000/svg" xmlns:xlink="http://www.w3.org/1999/xlink">
<g id="graph0" class="graph" transform="scale(1 1) rotate(0) translate(4 472)">
<title>g</title>
<polygon fill="white" stroke="transparent" points="-4,4 -4,-472 3555.54,-472 3555.54,4 -4,4"/>
<!-- n53800922 -->
<g id="node1" class="node">
<title>n53800922</title>
<polygon fill="none" stroke="black" points="846.04,-468 734.04,-468 734.04,-432 846.04,-432 846.04,-468"/>
<text text-anchor="start" x="742.04" y="-447.3" font-family="Times,serif" font-size="14.00">friendly(</text>
<text text-anchor="start" x="803.04" y="-447.3" font-family="Times,serif" font-style="italic" font-size="14.00">Kim</text>
<text text-anchor="start" x="832.04" y="-447.3" font-family="Times,serif" font-size="14.00">)</text>
</g>
<!-- SUBSn06529084n53800922 -->
<g id="node21" class="node">
<title>SUBSn06529084n53800922</title>
<text text-anchor="start" x="509.54" y="-374.3" font-family="Times,serif" font-size="14.00">{x1: Kim}</text>
</g>
<!-- n53800922&#45;&gt;SUBSn06529084n53800922 -->
<g id="edge43" class="edge">
<title>n53800922&#45;&gt;SUBSn06529084n53800922</title>
<path fill="none" stroke="black" d="M733.78,-433.83C695.89,-423.49 644.85,-409.3 600.04,-396 597.02,-395.11 593.92,-394.17 590.79,-393.21"/>
</g>
<!-- SUBSn53800922n53195007 -->
<g id="node48" class="node">
<title>SUBSn53800922n53195007</title>
<text text-anchor="start" x="763.54" y="-374.3" font-family="Times,serif" font-size="14.00">{x2: Kim}</text>
</g>
<!-- n53800922&#45;&gt;SUBSn53800922n53195007 -->
<g id="edge55" class="edge">
<title>n53800922&#45;&gt;SUBSn53800922n53195007</title>
<path fill="none" stroke="black" d="M792.51,-431.7C794.06,-420.85 796.05,-406.92 797.59,-396.1"/>
</g>
<!-- n09168536 -->
<g id="node2" class="node">
<title>n09168536</title>
<polygon fill="none" stroke="black" points="3434.04,-468 3296.04,-468 3296.04,-432 3434.04,-432 3434.04,-468"/>
<text text-anchor="start" x="3304.04" y="-447.3" font-family="Times,serif" font-size="14.00">!partOf(</text>
<text text-anchor="start" x="3362.04" y="-447.3" font-family="Times,serif" font-weight="bold" font-size="14.00">x7</text>
<text text-anchor="start" x="3381.04" y="-447.3" font-family="Times,serif" font-size="14.00">, </text>
<text text-anchor="start" x="3391.04" y="-447.3" font-family="Times,serif" font-style="italic" font-size="14.00">Kim</text>
<text text-anchor="start" x="3420.04" y="-447.3" font-family="Times,serif" font-size="14.00">)</text>
</g>
<!-- n69840073 -->
<g id="node3" class="node">
<title>n69840073</title>
<polygon fill="none" stroke="black" points="2591.54,-324 2346.54,-324 2346.54,-288 2591.54,-288 2591.54,-324"/>
<text text-anchor="start" x="2354.54" y="-303.3" font-family="Times,serif" font-size="14.00">partOf(</text>
<text text-anchor="start" x="2406.54" y="-303.3" font-family="Times,serif" font-weight="bold" font-size="14.00">x3</text>
<text text-anchor="start" x="2425.54" y="-303.3" font-family="Times,serif" font-size="14.00">, </text>
<text text-anchor="start" x="2435.54" y="-303.3" font-family="Times,serif" font-style="italic" font-size="14.00">SKF1</text>
<text text-anchor="start" x="2475.54" y="-303.3" font-family="Times,serif" font-size="14.00">(</text>
<text text-anchor="start" x="2481.54" y="-303.3" font-family="Times,serif" font-weight="bold" font-size="14.00">x3</text>
<text text-anchor="start" x="2500.54" y="-303.3" font-family="Times,serif" font-size="14.00">)), !dog(</text>
<text text-anchor="start" x="2558.54" y="-303.3" font-family="Times,serif" font-weight="bold" font-size="14.00">x3</text>
<text text-anchor="start" x="2577.54" y="-303.3" font-family="Times,serif" font-size="14.00">)</text>
</g>
<!-- SUBSn69840073n12348298 -->
<g id="node42" class="node">
<title>SUBSn69840073n12348298</title>
<text text-anchor="start" x="2422.54" y="-230.3" font-family="Times,serif" font-size="14.00">{x3: Kim}</text>
</g>
<!-- n69840073&#45;&gt;SUBSn69840073n12348298 -->
<g id="edge20" class="edge">
<title>n69840073&#45;&gt;SUBSn69840073n12348298</title>
<path fill="none" stroke="black" d="M2466.56,-287.7C2465.01,-276.85 2463.02,-262.92 2461.48,-252.1"/>
</g>
<!-- n14655254 -->
<g id="node4" class="node">
<title>n14655254</title>
<polygon fill="none" stroke="black" points="1887.54,-468 1698.54,-468 1698.54,-432 1887.54,-432 1887.54,-468"/>
<text text-anchor="start" x="1706.54" y="-447.3" font-family="Times,serif" font-size="14.00">animal(</text>
<text text-anchor="start" x="1760.54" y="-447.3" font-family="Times,serif" font-weight="bold" font-size="14.00">x6</text>
<text text-anchor="start" x="1779.54" y="-447.3" font-family="Times,serif" font-size="14.00">), !person(</text>
<text text-anchor="start" x="1854.54" y="-447.3" font-family="Times,serif" font-weight="bold" font-size="14.00">x6</text>
<text text-anchor="start" x="1873.54" y="-447.3" font-family="Times,serif" font-size="14.00">)</text>
</g>
<!-- SUBSn14655254n02958499 -->
<g id="node16" class="node">
<title>SUBSn14655254n02958499</title>
<text text-anchor="start" x="301.54" y="-230.3" font-family="Times,serif" font-size="14.00">{x6: SKF0(Kim)}</text>
</g>
<!-- n14655254&#45;&gt;SUBSn14655254n02958499 -->
<g id="edge4" class="edge">
<title>n14655254&#45;&gt;SUBSn14655254n02958499</title>
<path fill="none" stroke="black" d="M1698.36,-439.46C1528.9,-422.52 1162.54,-386.48 853.04,-360 800.74,-355.53 421.55,-358.54 382.04,-324 361.7,-306.22 360.05,-272.48 361.2,-252.04"/>
</g>
<!-- SUBSn14655254n09794809 -->
<g id="node26" class="node">
<title>SUBSn14655254n09794809</title>
<text text-anchor="start" x="2672.54" y="-374.3" font-family="Times,serif" font-size="14.00">{x6: O678, x5: O678}</text>
</g>
<!-- n14655254&#45;&gt;SUBSn14655254n09794809 -->
<g id="edge56" class="edge">
<title>n14655254&#45;&gt;SUBSn14655254n09794809</title>
<path fill="none" stroke="black" d="M1887.95,-442.06C2074.18,-428.46 2484.89,-398.45 2664.31,-385.34"/>
</g>
<!-- SUBSn06529084n14655254 -->
<g id="node31" class="node">
<title>SUBSn06529084n14655254</title>
<text text-anchor="start" x="617.04" y="-374.3" font-family="Times,serif" font-size="14.00">{x6: SKF0(x1)}</text>
</g>
<!-- n14655254&#45;&gt;SUBSn06529084n14655254 -->
<g id="edge10" class="edge">
<title>n14655254&#45;&gt;SUBSn06529084n14655254</title>
<path fill="none" stroke="black" d="M1698.36,-443.14C1642.18,-439.72 1569.56,-435.43 1505.04,-432 1167.8,-414.05 1080.53,-442.49 746.04,-396 743.2,-395.61 740.31,-395.15 737.4,-394.66"/>
</g>
<!-- SUBSn09794809n14655254 -->
<g id="node39" class="node">
<title>SUBSn09794809n14655254</title>
<text text-anchor="start" x="1898.54" y="-374.3" font-family="Times,serif" font-size="14.00">{x5: O677, x6: O677}</text>
</g>
<!-- n14655254&#45;&gt;SUBSn09794809n14655254 -->
<g id="edge19" class="edge">
<title>n14655254&#45;&gt;SUBSn09794809n14655254</title>
<path fill="none" stroke="black" d="M1838.05,-431.88C1866.67,-420.99 1903.58,-406.95 1932.17,-396.07"/>
</g>
<!-- n96071227 -->
<g id="node5" class="node">
<title>n96071227</title>
<polygon fill="none" stroke="black" points="3551.54,-468 3452.54,-468 3452.54,-432 3551.54,-432 3551.54,-468"/>
<text text-anchor="start" x="3460.54" y="-447.3" font-family="Times,serif" font-size="14.00">angry(</text>
<text text-anchor="start" x="3507.54" y="-447.3" font-family="Times,serif" font-style="italic" font-size="14.00">SK0</text>
<text text-anchor="start" x="3537.54" y="-447.3" font-family="Times,serif" font-size="14.00">)</text>
</g>
<!-- n42092269 -->
<g id="node6" class="node">
<title>n42092269</title>
<polygon fill="none" stroke="black" points="3014.54,-468 2925.54,-468 2925.54,-432 3014.54,-432 3014.54,-468"/>
<text text-anchor="start" x="2933.54" y="-447.3" font-family="Times,serif" font-size="14.00">man(</text>
<text text-anchor="start" x="2970.54" y="-447.3" font-family="Times,serif" font-style="italic" font-size="14.00">SK0</text>
<text text-anchor="start" x="3000.54" y="-447.3" font-family="Times,serif" font-size="14.00">)</text>
</g>
<!-- SUBSn42092269n22654871 -->
<g id="node28" class="node">
<title>SUBSn42092269n22654871</title>
<text text-anchor="start" x="2787.54" y="-230.3" font-family="Times,serif" font-size="14.00">{O678: SK0}</text>
</g>
<!-- n42092269&#45;&gt;SUBSn42092269n22654871 -->
<g id="edge17" class="edge">
<title>n42092269&#45;&gt;SUBSn42092269n22654871</title>
<path fill="none" stroke="black" d="M2958.84,-431.79C2952.52,-421.63 2944.77,-408.38 2939.04,-396 2917.65,-349.83 2930.45,-329.52 2901.04,-288 2890.93,-273.73 2875.96,-261.27 2862.83,-252.03"/>
</g>
<!-- SUBSn09794809n42092269 -->
<g id="node34" class="node">
<title>SUBSn09794809n42092269</title>
<text text-anchor="start" x="2956.04" y="-374.3" font-family="Times,serif" font-size="14.00">{x5: SK0}</text>
</g>
<!-- n42092269&#45;&gt;SUBSn09794809n42092269 -->
<g id="edge47" class="edge">
<title>n42092269&#45;&gt;SUBSn09794809n42092269</title>
<path fill="none" stroke="black" d="M2975.72,-431.7C2979.29,-420.85 2983.86,-406.92 2987.42,-396.1"/>
</g>
<!-- n06529084 -->
<g id="node7" class="node">
<title>n06529084</title>
<polygon fill="none" stroke="black" points="705.04,-468 387.04,-468 387.04,-432 705.04,-432 705.04,-468"/>
<text text-anchor="start" x="395.04" y="-447.3" font-family="Times,serif" font-size="14.00">!friendly(</text>
<text text-anchor="start" x="462.04" y="-447.3" font-family="Times,serif" font-weight="bold" font-size="14.00">x1</text>
<text text-anchor="start" x="481.04" y="-447.3" font-family="Times,serif" font-size="14.00">), !dog(</text>
<text text-anchor="start" x="533.04" y="-447.3" font-family="Times,serif" font-weight="bold" font-size="14.00">x1</text>
<text text-anchor="start" x="552.04" y="-447.3" font-family="Times,serif" font-size="14.00">), person(</text>
<text text-anchor="start" x="621.04" y="-447.3" font-family="Times,serif" font-style="italic" font-size="14.00">SKF0</text>
<text text-anchor="start" x="661.04" y="-447.3" font-family="Times,serif" font-size="14.00">(</text>
<text text-anchor="start" x="667.04" y="-447.3" font-family="Times,serif" font-weight="bold" font-size="14.00">x1</text>
<text text-anchor="start" x="686.04" y="-447.3" font-family="Times,serif" font-size="14.00">))</text>
</g>
<!-- n06529084&#45;&gt;SUBSn06529084n53800922 -->
<g id="edge57" class="edge">
<title>n06529084&#45;&gt;SUBSn06529084n53800922</title>
<path fill="none" stroke="black" d="M546.04,-431.7C546.04,-420.85 546.04,-406.92 546.04,-396.1"/>
</g>
<!-- n06529084&#45;&gt;SUBSn06529084n14655254 -->
<g id="edge53" class="edge">
<title>n06529084&#45;&gt;SUBSn06529084n14655254</title>
<path fill="none" stroke="black" d="M577.1,-431.88C596.78,-421.03 622.15,-407.05 641.85,-396.19"/>
</g>
<!-- SUBSn06529084n12348298 -->
<g id="node44" class="node">
<title>SUBSn06529084n12348298</title>
<text text-anchor="start" x="463.54" y="-230.3" font-family="Times,serif" font-size="14.00">{x1: Kim}</text>
</g>
<!-- n06529084&#45;&gt;SUBSn06529084n12348298 -->
<g id="edge18" class="edge">
<title>n06529084&#45;&gt;SUBSn06529084n12348298</title>
<path fill="none" stroke="black" d="M506.35,-431.84C466.61,-412.22 407.77,-375.97 382.04,-324 374.94,-309.66 373.34,-301.43 382.04,-288 390.67,-274.66 425.81,-259.88 455.52,-249.32"/>
</g>
<!-- n85554560 -->
<g id="node8" class="node">
<title>n85554560</title>
<polygon fill="none" stroke="black" points="3277.54,-468 3182.54,-468 3182.54,-432 3277.54,-432 3277.54,-468"/>
<text text-anchor="start" x="3190.54" y="-447.3" font-family="Times,serif" font-size="14.00">man(</text>
<text text-anchor="start" x="3227.54" y="-447.3" font-family="Times,serif" font-style="italic" font-size="14.00">Mike</text>
<text text-anchor="start" x="3263.54" y="-447.3" font-family="Times,serif" font-size="14.00">)</text>
</g>
<!-- SUBSn85554560n09794809 -->
<g id="node17" class="node">
<title>SUBSn85554560n09794809</title>
<text text-anchor="start" x="3139.04" y="-374.3" font-family="Times,serif" font-size="14.00">{x5: Mike}</text>
</g>
<!-- n85554560&#45;&gt;SUBSn85554560n09794809 -->
<g id="edge39" class="edge">
<title>n85554560&#45;&gt;SUBSn85554560n09794809</title>
<path fill="none" stroke="black" d="M3217.43,-431.7C3209.52,-420.85 3199.38,-406.92 3191.5,-396.1"/>
</g>
<!-- SUBSn85554560n22654871 -->
<g id="node45" class="node">
<title>SUBSn85554560n22654871</title>
<text text-anchor="start" x="3128.54" y="-230.3" font-family="Times,serif" font-size="14.00">{O678: Mike}</text>
</g>
<!-- n85554560&#45;&gt;SUBSn85554560n22654871 -->
<g id="edge24" class="edge">
<title>n85554560&#45;&gt;SUBSn85554560n22654871</title>
<path fill="none" stroke="black" d="M3240.31,-431.89C3257.29,-401.18 3286.89,-335.5 3261.04,-288 3252.45,-272.22 3236.91,-260.42 3221.65,-252.01"/>
</g>
<!-- n09794809 -->
<g id="node9" class="node">
<title>n09794809</title>
<polygon fill="none" stroke="black" points="2861.04,-468 2689.04,-468 2689.04,-432 2861.04,-432 2861.04,-468"/>
<text text-anchor="start" x="2697.04" y="-447.3" font-family="Times,serif" font-size="14.00">person(</text>
<text text-anchor="start" x="2752.04" y="-447.3" font-family="Times,serif" font-weight="bold" font-size="14.00">x5</text>
<text text-anchor="start" x="2771.04" y="-447.3" font-family="Times,serif" font-size="14.00">), !man(</text>
<text text-anchor="start" x="2828.04" y="-447.3" font-family="Times,serif" font-weight="bold" font-size="14.00">x5</text>
<text text-anchor="start" x="2847.04" y="-447.3" font-family="Times,serif" font-size="14.00">)</text>
</g>
<!-- n09794809&#45;&gt;SUBSn85554560n09794809 -->
<g id="edge2" class="edge">
<title>n09794809&#45;&gt;SUBSn85554560n09794809</title>
<path fill="none" stroke="black" d="M2861.21,-434.07C2943.48,-419.81 3064.46,-398.85 3130.92,-387.34"/>
</g>
<!-- n09794809&#45;&gt;SUBSn14655254n09794809 -->
<g id="edge29" class="edge">
<title>n09794809&#45;&gt;SUBSn14655254n09794809</title>
<path fill="none" stroke="black" d="M2769.1,-431.7C2765.38,-420.85 2760.61,-406.92 2756.9,-396.1"/>
</g>
<!-- n09794809&#45;&gt;SUBSn09794809n42092269 -->
<g id="edge34" class="edge">
<title>n09794809&#45;&gt;SUBSn09794809n42092269</title>
<path fill="none" stroke="black" d="M2828.09,-431.97C2864.76,-420.19 2913.03,-404.69 2947.87,-393.5"/>
</g>
<!-- n09794809&#45;&gt;SUBSn09794809n14655254 -->
<g id="edge36" class="edge">
<title>n09794809&#45;&gt;SUBSn09794809n14655254</title>
<path fill="none" stroke="black" d="M2688.88,-441.44C2535.63,-428 2217.38,-400.08 2063.74,-386.61"/>
</g>
<!-- n12348298 -->
<g id="node10" class="node">
<title>n12348298</title>
<polygon fill="none" stroke="black" points="1595.54,-324 1512.54,-324 1512.54,-288 1595.54,-288 1595.54,-324"/>
<text text-anchor="start" x="1520.54" y="-303.3" font-family="Times,serif" font-size="14.00">dog(</text>
<text text-anchor="start" x="1552.54" y="-303.3" font-family="Times,serif" font-style="italic" font-size="14.00">Kim</text>
<text text-anchor="start" x="1581.54" y="-303.3" font-family="Times,serif" font-size="14.00">)</text>
</g>
<!-- SUBSn44837116n12348298 -->
<g id="node14" class="node">
<title>SUBSn44837116n12348298</title>
<text text-anchor="start" x="1698.54" y="-230.3" font-family="Times,serif" font-size="14.00">{x0: Kim}</text>
</g>
<!-- n12348298&#45;&gt;SUBSn44837116n12348298 -->
<g id="edge21" class="edge">
<title>n12348298&#45;&gt;SUBSn44837116n12348298</title>
<path fill="none" stroke="black" d="M1595.56,-288.94C1624.05,-277.92 1661.82,-263.32 1690.86,-252.08"/>
</g>
<!-- SUBSn12348298n02958499 -->
<g id="node19" class="node">
<title>SUBSn12348298n02958499</title>
<text text-anchor="start" x="784.54" y="-230.3" font-family="Times,serif" font-size="14.00">{}</text>
</g>
<!-- n12348298&#45;&gt;SUBSn12348298n02958499 -->
<g id="edge14" class="edge">
<title>n12348298&#45;&gt;SUBSn12348298n02958499</title>
<path fill="none" stroke="black" d="M1512.52,-290.23C1509.33,-289.38 1506.15,-288.62 1503.04,-288 1485.98,-284.57 948.85,-246.06 821.1,-236.93"/>
</g>
<!-- SUBSn12348298n60514664 -->
<g id="node23" class="node">
<title>SUBSn12348298n60514664</title>
<text text-anchor="start" x="839.54" y="-86.3" font-family="Times,serif" font-size="14.00">{}</text>
</g>
<!-- n12348298&#45;&gt;SUBSn12348298n60514664 -->
<g id="edge5" class="edge">
<title>n12348298&#45;&gt;SUBSn12348298n60514664</title>
<path fill="none" stroke="black" d="M1557.07,-287.76C1561.83,-254.4 1566.74,-181.05 1526.04,-144 1477.26,-99.61 996.58,-92.33 876.24,-91.2"/>
</g>
<!-- SUBSn12348298n09309445 -->
<g id="node29" class="node">
<title>SUBSn12348298n09309445</title>
<text text-anchor="start" x="1050.54" y="-230.3" font-family="Times,serif" font-size="14.00">{x1: Kim}</text>
</g>
<!-- n12348298&#45;&gt;SUBSn12348298n09309445 -->
<g id="edge50" class="edge">
<title>n12348298&#45;&gt;SUBSn12348298n09309445</title>
<path fill="none" stroke="black" d="M1512.48,-290.41C1509.3,-289.52 1506.13,-288.71 1503.04,-288 1369.77,-257.6 1208.22,-243.29 1131.56,-237.81"/>
</g>
<!-- SUBSn12348298n53195007 -->
<g id="node32" class="node">
<title>SUBSn12348298n53195007</title>
<text text-anchor="start" x="1587.54" y="-230.3" font-family="Times,serif" font-size="14.00">{x2: Kim}</text>
</g>
<!-- n12348298&#45;&gt;SUBSn12348298n53195007 -->
<g id="edge45" class="edge">
<title>n12348298&#45;&gt;SUBSn12348298n53195007</title>
<path fill="none" stroke="black" d="M1571.34,-287.7C1582.19,-276.85 1596.12,-262.92 1606.93,-252.1"/>
</g>
<!-- SUBSn12348298n49480531 -->
<g id="node36" class="node">
<title>SUBSn12348298n49480531</title>
<text text-anchor="start" x="1387.54" y="-230.3" font-family="Times,serif" font-size="14.00">{}</text>
</g>
<!-- n12348298&#45;&gt;SUBSn12348298n49480531 -->
<g id="edge25" class="edge">
<title>n12348298&#45;&gt;SUBSn12348298n49480531</title>
<path fill="none" stroke="black" d="M1515.63,-287.88C1487.31,-275.25 1449.46,-258.38 1424.22,-247.12"/>
</g>
<!-- SUBSn12348298n56922315 -->
<g id="node37" class="node">
<title>SUBSn12348298n56922315</title>
<text text-anchor="start" x="2183.54" y="-230.3" font-family="Times,serif" font-size="14.00">{x4: Kim}</text>
</g>
<!-- n12348298&#45;&gt;SUBSn12348298n56922315 -->
<g id="edge44" class="edge">
<title>n12348298&#45;&gt;SUBSn12348298n56922315</title>
<path fill="none" stroke="black" d="M1595.55,-296.2C1610.47,-293.27 1627.46,-290.2 1643.04,-288 1840.51,-260.14 2078.17,-243.64 2175.34,-237.62"/>
</g>
<!-- n12348298&#45;&gt;SUBSn69840073n12348298 -->
<g id="edge42" class="edge">
<title>n12348298&#45;&gt;SUBSn69840073n12348298</title>
<path fill="none" stroke="black" d="M1595.96,-295.82C1610.77,-292.88 1627.58,-289.91 1643.04,-288 1921.38,-253.62 1993.35,-272.77 2273.04,-252 2321.38,-248.41 2376.69,-243.22 2414.35,-239.51"/>
</g>
<!-- n12348298&#45;&gt;SUBSn06529084n12348298 -->
<g id="edge37" class="edge">
<title>n12348298&#45;&gt;SUBSn06529084n12348298</title>
<path fill="none" stroke="black" d="M1512.53,-290.14C1509.35,-289.31 1506.16,-288.58 1503.04,-288 1177.2,-227.02 1088.99,-270.9 758.04,-252 683.19,-247.73 596.2,-241.79 544.77,-238.19"/>
</g>
<!-- n53195007 -->
<g id="node11" class="node">
<title>n53195007</title>
<polygon fill="none" stroke="black" points="1496.04,-468 1160.04,-468 1160.04,-432 1496.04,-432 1496.04,-468"/>
<text text-anchor="start" x="1168.04" y="-447.3" font-family="Times,serif" font-size="14.00">loves(</text>
<text text-anchor="start" x="1211.04" y="-447.3" font-family="Times,serif" font-style="italic" font-size="14.00">SKF0</text>
<text text-anchor="start" x="1251.04" y="-447.3" font-family="Times,serif" font-size="14.00">(</text>
<text text-anchor="start" x="1257.04" y="-447.3" font-family="Times,serif" font-weight="bold" font-size="14.00">x2</text>
<text text-anchor="start" x="1276.04" y="-447.3" font-family="Times,serif" font-size="14.00">), </text>
<text text-anchor="start" x="1291.04" y="-447.3" font-family="Times,serif" font-weight="bold" font-size="14.00">x2</text>
<text text-anchor="start" x="1310.04" y="-447.3" font-family="Times,serif" font-size="14.00">), !friendly(</text>
<text text-anchor="start" x="1392.04" y="-447.3" font-family="Times,serif" font-weight="bold" font-size="14.00">x2</text>
<text text-anchor="start" x="1411.04" y="-447.3" font-family="Times,serif" font-size="14.00">), !dog(</text>
<text text-anchor="start" x="1463.04" y="-447.3" font-family="Times,serif" font-weight="bold" font-size="14.00">x2</text>
<text text-anchor="start" x="1482.04" y="-447.3" font-family="Times,serif" font-size="14.00">)</text>
</g>
<!-- n53195007&#45;&gt;SUBSn12348298n53195007 -->
<g id="edge46" class="edge">
<title>n53195007&#45;&gt;SUBSn12348298n53195007</title>
<path fill="none" stroke="black" d="M1412.51,-431.98C1474.58,-415.06 1556.13,-382.84 1604.04,-324 1620.83,-303.37 1624.2,-271.49 1624.53,-252.01"/>
</g>
<!-- n53195007&#45;&gt;SUBSn53800922n53195007 -->
<g id="edge35" class="edge">
<title>n53195007&#45;&gt;SUBSn53800922n53195007</title>
<path fill="none" stroke="black" d="M1159.84,-436.88C1070.01,-428.68 957.88,-415.68 859.04,-396 854.33,-395.06 849.46,-393.93 844.62,-392.7"/>
</g>
<!-- n44837116 -->
<g id="node12" class="node">
<title>n44837116</title>
<polygon fill="none" stroke="black" points="1818.04,-324 1652.04,-324 1652.04,-288 1818.04,-288 1818.04,-324"/>
<text text-anchor="start" x="1660.04" y="-303.3" font-family="Times,serif" font-size="14.00">animal(</text>
<text text-anchor="start" x="1714.04" y="-303.3" font-family="Times,serif" font-weight="bold" font-size="14.00">x0</text>
<text text-anchor="start" x="1733.04" y="-303.3" font-family="Times,serif" font-size="14.00">), !dog(</text>
<text text-anchor="start" x="1785.04" y="-303.3" font-family="Times,serif" font-weight="bold" font-size="14.00">x0</text>
<text text-anchor="start" x="1804.04" y="-303.3" font-family="Times,serif" font-size="14.00">)</text>
</g>
<!-- n44837116&#45;&gt;SUBSn44837116n12348298 -->
<g id="edge7" class="edge">
<title>n44837116&#45;&gt;SUBSn44837116n12348298</title>
<path fill="none" stroke="black" d="M1735.04,-287.7C1735.04,-276.85 1735.04,-262.92 1735.04,-252.1"/>
</g>
<!-- n56922315 -->
<g id="node13" class="node">
<title>n56922315</title>
<polygon fill="none" stroke="black" points="2328.04,-324 2136.04,-324 2136.04,-288 2328.04,-288 2328.04,-324"/>
<text text-anchor="start" x="2144.04" y="-303.3" font-family="Times,serif" font-size="14.00">!dog(</text>
<text text-anchor="start" x="2182.04" y="-303.3" font-family="Times,serif" font-weight="bold" font-size="14.00">x4</text>
<text text-anchor="start" x="2201.04" y="-303.3" font-family="Times,serif" font-size="14.00">), tail(</text>
<text text-anchor="start" x="2244.04" y="-303.3" font-family="Times,serif" font-style="italic" font-size="14.00">SKF1</text>
<text text-anchor="start" x="2284.04" y="-303.3" font-family="Times,serif" font-size="14.00">(</text>
<text text-anchor="start" x="2290.04" y="-303.3" font-family="Times,serif" font-weight="bold" font-size="14.00">x4</text>
<text text-anchor="start" x="2309.04" y="-303.3" font-family="Times,serif" font-size="14.00">))</text>
</g>
<!-- n56922315&#45;&gt;SUBSn12348298n56922315 -->
<g id="edge33" class="edge">
<title>n56922315&#45;&gt;SUBSn12348298n56922315</title>
<path fill="none" stroke="black" d="M2229.07,-287.7C2227.21,-276.85 2224.82,-262.92 2222.97,-252.1"/>
</g>
<!-- n79781635 -->
<g id="node15" class="node">
<title>n79781635</title>
<ellipse fill="none" stroke="black" cx="2041.04" cy="-162" rx="68.49" ry="18"/>
<text text-anchor="start" x="1996.54" y="-159.3" font-family="Times,serif" font-size="14.00">animal(</text>
<text text-anchor="start" x="2050.54" y="-159.3" font-family="Times,serif" font-style="italic" font-size="14.00">Kim</text>
<text text-anchor="start" x="2079.54" y="-159.3" font-family="Times,serif" font-size="14.00">)</text>
</g>
<!-- SUBSn44837116n12348298&#45;&gt;n79781635 -->
<g id="edge1" class="edge">
<title>SUBSn44837116n12348298&#45;&gt;n79781635</title>
<path fill="none" stroke="black" d="M1779.86,-222.75C1833.14,-210.56 1922.24,-190.18 1981.33,-176.66"/>
<polygon fill="black" stroke="black" points="1982.3,-180.03 1991.27,-174.39 1980.74,-173.2 1982.3,-180.03"/>
</g>
<!-- n60514664 -->
<g id="node24" class="node">
<title>n60514664</title>
<ellipse fill="none" stroke="black" cx="154.04" cy="-162" rx="154.07" ry="18"/>
<text text-anchor="start" x="43.54" y="-159.3" font-family="Times,serif" font-size="14.00">!dog(</text>
<text text-anchor="start" x="81.54" y="-159.3" font-family="Times,serif" font-style="italic" font-size="14.00">Kim</text>
<text text-anchor="start" x="110.54" y="-159.3" font-family="Times,serif" font-size="14.00">), animal(</text>
<text text-anchor="start" x="178.54" y="-159.3" font-family="Times,serif" font-style="italic" font-size="14.00">SKF0</text>
<text text-anchor="start" x="218.54" y="-159.3" font-family="Times,serif" font-size="14.00">(</text>
<text text-anchor="start" x="224.54" y="-159.3" font-family="Times,serif" font-style="italic" font-size="14.00">Kim</text>
<text text-anchor="start" x="253.54" y="-159.3" font-family="Times,serif" font-size="14.00">))</text>
</g>
<!-- SUBSn14655254n02958499&#45;&gt;n60514664 -->
<g id="edge6" class="edge">
<title>SUBSn14655254n02958499&#45;&gt;n60514664</title>
<path fill="none" stroke="black" d="M312.18,-215.97C281.84,-205.81 243.24,-192.88 211.77,-182.34"/>
<polygon fill="black" stroke="black" points="212.84,-179 202.25,-179.15 210.62,-185.64 212.84,-179"/>
</g>
<!-- n83530332 -->
<g id="node25" class="node">
<title>n83530332</title>
<ellipse fill="none" stroke="black" cx="3179.04" cy="-306" rx="73.39" ry="18"/>
<text text-anchor="start" x="3130.54" y="-303.3" font-family="Times,serif" font-size="14.00">person(</text>
<text text-anchor="start" x="3185.54" y="-303.3" font-family="Times,serif" font-style="italic" font-size="14.00">Mike</text>
<text text-anchor="start" x="3221.54" y="-303.3" font-family="Times,serif" font-size="14.00">)</text>
</g>
<!-- SUBSn85554560n09794809&#45;&gt;n83530332 -->
<g id="edge23" class="edge">
<title>SUBSn85554560n09794809&#45;&gt;n83530332</title>
<path fill="none" stroke="black" d="M3179.04,-359.7C3179.04,-351.98 3179.04,-342.71 3179.04,-334.11"/>
<polygon fill="black" stroke="black" points="3182.54,-334.1 3179.04,-324.1 3175.54,-334.1 3182.54,-334.1"/>
</g>
<!-- n02958499 -->
<g id="node18" class="node">
<title>n02958499</title>
<ellipse fill="none" stroke="black" cx="546.04" cy="-306" rx="154.87" ry="18"/>
<text text-anchor="start" x="435.04" y="-303.3" font-family="Times,serif" font-size="14.00">!dog(</text>
<text text-anchor="start" x="473.04" y="-303.3" font-family="Times,serif" font-style="italic" font-size="14.00">Kim</text>
<text text-anchor="start" x="502.04" y="-303.3" font-family="Times,serif" font-size="14.00">), person(</text>
<text text-anchor="start" x="571.04" y="-303.3" font-family="Times,serif" font-style="italic" font-size="14.00">SKF0</text>
<text text-anchor="start" x="611.04" y="-303.3" font-family="Times,serif" font-size="14.00">(</text>
<text text-anchor="start" x="617.04" y="-303.3" font-family="Times,serif" font-style="italic" font-size="14.00">Kim</text>
<text text-anchor="start" x="646.04" y="-303.3" font-family="Times,serif" font-size="14.00">))</text>
</g>
<!-- n02958499&#45;&gt;SUBSn14655254n02958499 -->
<g id="edge52" class="edge">
<title>n02958499&#45;&gt;SUBSn14655254n02958499</title>
<path fill="none" stroke="black" d="M503.13,-288.59C474.4,-277.6 436.65,-263.16 407.58,-252.04"/>
</g>
<!-- n02958499&#45;&gt;SUBSn12348298n02958499 -->
<g id="edge3" class="edge">
<title>n02958499&#45;&gt;SUBSn12348298n02958499</title>
<path fill="none" stroke="black" d="M602,-289.2C653.43,-274.69 727.48,-253.79 766.91,-242.66"/>
</g>
<!-- n15306796 -->
<g id="node49" class="node">
<title>n15306796</title>
<ellipse fill="none" stroke="black" cx="794.04" cy="-162" rx="102.08" ry="18"/>
<text text-anchor="start" x="723.54" y="-159.3" font-family="Times,serif" font-size="14.00">person(</text>
<text text-anchor="start" x="778.54" y="-159.3" font-family="Times,serif" font-style="italic" font-size="14.00">SKF0</text>
<text text-anchor="start" x="818.54" y="-159.3" font-family="Times,serif" font-size="14.00">(</text>
<text text-anchor="start" x="824.54" y="-159.3" font-family="Times,serif" font-style="italic" font-size="14.00">Kim</text>
<text text-anchor="start" x="853.54" y="-159.3" font-family="Times,serif" font-size="14.00">))</text>
</g>
<!-- SUBSn12348298n02958499&#45;&gt;n15306796 -->
<g id="edge40" class="edge">
<title>SUBSn12348298n02958499&#45;&gt;n15306796</title>
<path fill="none" stroke="black" d="M794.04,-215.7C794.04,-207.98 794.04,-198.71 794.04,-190.11"/>
<polygon fill="black" stroke="black" points="797.54,-190.1 794.04,-180.1 790.54,-190.1 797.54,-190.1"/>
</g>
<!-- n38494125 -->
<g id="node20" class="node">
<title>n38494125</title>
<ellipse fill="none" stroke="black" cx="500.04" cy="-162" rx="173.57" ry="18"/>
<text text-anchor="start" x="374.54" y="-159.3" font-family="Times,serif" font-size="14.00">!friendly(</text>
<text text-anchor="start" x="441.54" y="-159.3" font-family="Times,serif" font-style="italic" font-size="14.00">Kim</text>
<text text-anchor="start" x="470.54" y="-159.3" font-family="Times,serif" font-size="14.00">), person(</text>
<text text-anchor="start" x="539.54" y="-159.3" font-family="Times,serif" font-style="italic" font-size="14.00">SKF0</text>
<text text-anchor="start" x="579.54" y="-159.3" font-family="Times,serif" font-size="14.00">(</text>
<text text-anchor="start" x="585.54" y="-159.3" font-family="Times,serif" font-style="italic" font-size="14.00">Kim</text>
<text text-anchor="start" x="614.54" y="-159.3" font-family="Times,serif" font-size="14.00">))</text>
</g>
<!-- SUBSn06529084n53800922&#45;&gt;n02958499 -->
<g id="edge38" class="edge">
<title>SUBSn06529084n53800922&#45;&gt;n02958499</title>
<path fill="none" stroke="black" d="M546.04,-359.7C546.04,-351.98 546.04,-342.71 546.04,-334.11"/>
<polygon fill="black" stroke="black" points="549.54,-334.1 546.04,-324.1 542.54,-334.1 549.54,-334.1"/>
</g>
<!-- n49480531 -->
<g id="node22" class="node">
<title>n49480531</title>
<ellipse fill="none" stroke="black" cx="1322.04" cy="-306" rx="172.47" ry="18"/>
<text text-anchor="start" x="1197.54" y="-303.3" font-family="Times,serif" font-size="14.00">!dog(</text>
<text text-anchor="start" x="1235.54" y="-303.3" font-family="Times,serif" font-style="italic" font-size="14.00">Kim</text>
<text text-anchor="start" x="1264.54" y="-303.3" font-family="Times,serif" font-size="14.00">), loves(</text>
<text text-anchor="start" x="1321.54" y="-303.3" font-family="Times,serif" font-style="italic" font-size="14.00">SKF0</text>
<text text-anchor="start" x="1361.54" y="-303.3" font-family="Times,serif" font-size="14.00">(</text>
<text text-anchor="start" x="1367.54" y="-303.3" font-family="Times,serif" font-style="italic" font-size="14.00">Kim</text>
<text text-anchor="start" x="1396.54" y="-303.3" font-family="Times,serif" font-size="14.00">), </text>
<text text-anchor="start" x="1411.54" y="-303.3" font-family="Times,serif" font-style="italic" font-size="14.00">Kim</text>
<text text-anchor="start" x="1440.54" y="-303.3" font-family="Times,serif" font-size="14.00">)</text>
</g>
<!-- n49480531&#45;&gt;SUBSn12348298n49480531 -->
<g id="edge22" class="edge">
<title>n49480531&#45;&gt;SUBSn12348298n49480531</title>
<path fill="none" stroke="black" d="M1340.19,-288.05C1351.9,-277.13 1367.06,-262.97 1378.79,-252.03"/>
</g>
<!-- n72862961 -->
<g id="node46" class="node">
<title>n72862961</title>
<ellipse fill="none" stroke="black" cx="849.04" cy="-18" rx="101.28" ry="18"/>
<text text-anchor="start" x="779.04" y="-15.3" font-family="Times,serif" font-size="14.00">animal(</text>
<text text-anchor="start" x="833.04" y="-15.3" font-family="Times,serif" font-style="italic" font-size="14.00">SKF0</text>
<text text-anchor="start" x="873.04" y="-15.3" font-family="Times,serif" font-size="14.00">(</text>
<text text-anchor="start" x="879.04" y="-15.3" font-family="Times,serif" font-style="italic" font-size="14.00">Kim</text>
<text text-anchor="start" x="908.04" y="-15.3" font-family="Times,serif" font-size="14.00">))</text>
</g>
<!-- SUBSn12348298n60514664&#45;&gt;n72862961 -->
<g id="edge28" class="edge">
<title>SUBSn12348298n60514664&#45;&gt;n72862961</title>
<path fill="none" stroke="black" d="M849.04,-71.7C849.04,-63.98 849.04,-54.71 849.04,-46.11"/>
<polygon fill="black" stroke="black" points="852.54,-46.1 849.04,-36.1 845.54,-46.1 852.54,-46.1"/>
</g>
<!-- n60514664&#45;&gt;SUBSn12348298n60514664 -->
<g id="edge30" class="edge">
<title>n60514664&#45;&gt;SUBSn12348298n60514664</title>
<path fill="none" stroke="black" d="M264.51,-149.41C282.08,-147.59 300.05,-145.73 317.04,-144 510.49,-124.28 743.6,-101.34 821.9,-93.66"/>
</g>
<!-- n22654871 -->
<g id="node27" class="node">
<title>n22654871</title>
<ellipse fill="none" stroke="black" cx="2751.04" cy="-306" rx="141.07" ry="18"/>
<text text-anchor="start" x="2650.54" y="-303.3" font-family="Times,serif" font-size="14.00">animal(</text>
<text text-anchor="start" x="2704.54" y="-303.3" font-family="Times,serif" font-weight="bold" font-size="14.00">O678</text>
<text text-anchor="start" x="2746.54" y="-303.3" font-family="Times,serif" font-size="14.00">), !man(</text>
<text text-anchor="start" x="2803.54" y="-303.3" font-family="Times,serif" font-weight="bold" font-size="14.00">O678</text>
<text text-anchor="start" x="2845.54" y="-303.3" font-family="Times,serif" font-size="14.00">)</text>
</g>
<!-- SUBSn14655254n09794809&#45;&gt;n22654871 -->
<g id="edge27" class="edge">
<title>SUBSn14655254n09794809&#45;&gt;n22654871</title>
<path fill="none" stroke="black" d="M2751.04,-359.7C2751.04,-351.98 2751.04,-342.71 2751.04,-334.11"/>
<polygon fill="black" stroke="black" points="2754.54,-334.1 2751.04,-324.1 2747.54,-334.1 2754.54,-334.1"/>
</g>
<!-- n22654871&#45;&gt;SUBSn42092269n22654871 -->
<g id="edge8" class="edge">
<title>n22654871&#45;&gt;SUBSn42092269n22654871</title>
<path fill="none" stroke="black" d="M2771.37,-288.05C2784.48,-277.13 2801.47,-262.97 2814.6,-252.03"/>
</g>
<!-- n22654871&#45;&gt;SUBSn85554560n22654871 -->
<g id="edge54" class="edge">
<title>n22654871&#45;&gt;SUBSn85554560n22654871</title>
<path fill="none" stroke="black" d="M2834.07,-291.42C2918.18,-277.66 3046.15,-256.73 3120.29,-244.61"/>
</g>
<!-- n74284760 -->
<g id="node51" class="node">
<title>n74284760</title>
<ellipse fill="none" stroke="black" cx="2835.04" cy="-162" rx="68.79" ry="18"/>
<text text-anchor="start" x="2790.04" y="-159.3" font-family="Times,serif" font-size="14.00">animal(</text>
<text text-anchor="start" x="2844.04" y="-159.3" font-family="Times,serif" font-style="italic" font-size="14.00">SK0</text>
<text text-anchor="start" x="2874.04" y="-159.3" font-family="Times,serif" font-size="14.00">)</text>
</g>
<!-- SUBSn42092269n22654871&#45;&gt;n74284760 -->
<g id="edge41" class="edge">
<title>SUBSn42092269n22654871&#45;&gt;n74284760</title>
<path fill="none" stroke="black" d="M2835.04,-215.7C2835.04,-207.98 2835.04,-198.71 2835.04,-190.11"/>
<polygon fill="black" stroke="black" points="2838.54,-190.1 2835.04,-180.1 2831.54,-190.1 2838.54,-190.1"/>
</g>
<!-- n80937960 -->
<g id="node30" class="node">
<title>n80937960</title>
<ellipse fill="none" stroke="black" cx="1087.04" cy="-162" rx="172.77" ry="18"/>
<text text-anchor="start" x="962.04" y="-159.3" font-family="Times,serif" font-size="14.00">!friendly(</text>
<text text-anchor="start" x="1029.04" y="-159.3" font-family="Times,serif" font-style="italic" font-size="14.00">Kim</text>
<text text-anchor="start" x="1058.04" y="-159.3" font-family="Times,serif" font-size="14.00">), animal(</text>
<text text-anchor="start" x="1126.04" y="-159.3" font-family="Times,serif" font-style="italic" font-size="14.00">SKF0</text>
<text text-anchor="start" x="1166.04" y="-159.3" font-family="Times,serif" font-size="14.00">(</text>
<text text-anchor="start" x="1172.04" y="-159.3" font-family="Times,serif" font-style="italic" font-size="14.00">Kim</text>
<text text-anchor="start" x="1201.04" y="-159.3" font-family="Times,serif" font-size="14.00">))</text>
</g>
<!-- SUBSn12348298n09309445&#45;&gt;n80937960 -->
<g id="edge9" class="edge">
<title>SUBSn12348298n09309445&#45;&gt;n80937960</title>
<path fill="none" stroke="black" d="M1087.04,-215.7C1087.04,-207.98 1087.04,-198.71 1087.04,-190.11"/>
<polygon fill="black" stroke="black" points="1090.54,-190.1 1087.04,-180.1 1083.54,-190.1 1090.54,-190.1"/>
</g>
<!-- n09309445 -->
<g id="node47" class="node">
<title>n09309445</title>
<ellipse fill="none" stroke="black" cx="925.04" cy="-306" rx="206.86" ry="18"/>
<text text-anchor="start" x="774.04" y="-303.3" font-family="Times,serif" font-size="14.00">!friendly(</text>
<text text-anchor="start" x="841.04" y="-303.3" font-family="Times,serif" font-weight="bold" font-size="14.00">x1</text>
<text text-anchor="start" x="860.04" y="-303.3" font-family="Times,serif" font-size="14.00">), animal(</text>
<text text-anchor="start" x="928.04" y="-303.3" font-family="Times,serif" font-style="italic" font-size="14.00">SKF0</text>
<text text-anchor="start" x="968.04" y="-303.3" font-family="Times,serif" font-size="14.00">(</text>
<text text-anchor="start" x="974.04" y="-303.3" font-family="Times,serif" font-weight="bold" font-size="14.00">x1</text>
<text text-anchor="start" x="993.04" y="-303.3" font-family="Times,serif" font-size="14.00">)), !dog(</text>
<text text-anchor="start" x="1051.04" y="-303.3" font-family="Times,serif" font-weight="bold" font-size="14.00">x1</text>
<text text-anchor="start" x="1070.04" y="-303.3" font-family="Times,serif" font-size="14.00">)</text>
</g>
<!-- SUBSn06529084n14655254&#45;&gt;n09309445 -->
<g id="edge31" class="edge">
<title>SUBSn06529084n14655254&#45;&gt;n09309445</title>
<path fill="none" stroke="black" d="M734.36,-359.97C771.27,-349.71 818.34,-336.64 856.48,-326.04"/>
<polygon fill="black" stroke="black" points="857.78,-329.32 866.48,-323.27 855.91,-322.57 857.78,-329.32"/>
</g>
<!-- n36157351 -->
<g id="node33" class="node">
<title>n36157351</title>
<ellipse fill="none" stroke="black" cx="1764.04" cy="-162" rx="191.17" ry="18"/>
<text text-anchor="start" x="1625.04" y="-159.3" font-family="Times,serif" font-size="14.00">!friendly(</text>
<text text-anchor="start" x="1692.04" y="-159.3" font-family="Times,serif" font-style="italic" font-size="14.00">Kim</text>
<text text-anchor="start" x="1721.04" y="-159.3" font-family="Times,serif" font-size="14.00">), loves(</text>
<text text-anchor="start" x="1778.04" y="-159.3" font-family="Times,serif" font-style="italic" font-size="14.00">SKF0</text>
<text text-anchor="start" x="1818.04" y="-159.3" font-family="Times,serif" font-size="14.00">(</text>
<text text-anchor="start" x="1824.04" y="-159.3" font-family="Times,serif" font-style="italic" font-size="14.00">Kim</text>
<text text-anchor="start" x="1853.04" y="-159.3" font-family="Times,serif" font-size="14.00">), </text>
<text text-anchor="start" x="1868.04" y="-159.3" font-family="Times,serif" font-style="italic" font-size="14.00">Kim</text>
<text text-anchor="start" x="1897.04" y="-159.3" font-family="Times,serif" font-size="14.00">)</text>
</g>
<!-- SUBSn12348298n53195007&#45;&gt;n36157351 -->
<g id="edge11" class="edge">
<title>SUBSn12348298n53195007&#45;&gt;n36157351</title>
<path fill="none" stroke="black" d="M1658.28,-215.88C1677.24,-206.4 1700.97,-194.53 1721.15,-184.44"/>
<polygon fill="black" stroke="black" points="1722.76,-187.55 1730.14,-179.95 1719.63,-181.29 1722.76,-187.55"/>
</g>
<!-- n44116497 -->
<g id="node35" class="node">
<title>n44116497</title>
<ellipse fill="none" stroke="black" cx="3018.04" cy="-306" rx="69.59" ry="18"/>
<text text-anchor="start" x="2972.54" y="-303.3" font-family="Times,serif" font-size="14.00">person(</text>
<text text-anchor="start" x="3027.54" y="-303.3" font-family="Times,serif" font-style="italic" font-size="14.00">SK0</text>
<text text-anchor="start" x="3057.54" y="-303.3" font-family="Times,serif" font-size="14.00">)</text>
</g>
<!-- SUBSn09794809n42092269&#45;&gt;n44116497 -->
<g id="edge12" class="edge">
<title>SUBSn09794809n42092269&#45;&gt;n44116497</title>
<path fill="none" stroke="black" d="M2999.22,-359.7C3002.03,-351.81 3005.43,-342.3 3008.56,-333.55"/>
<polygon fill="black" stroke="black" points="3011.86,-334.7 3011.93,-324.1 3005.27,-332.34 3011.86,-334.7"/>
</g>
<!-- n37132234 -->
<g id="node50" class="node">
<title>n37132234</title>
<ellipse fill="none" stroke="black" cx="1397.04" cy="-162" rx="119.68" ry="18"/>
<text text-anchor="start" x="1313.04" y="-159.3" font-family="Times,serif" font-size="14.00">loves(</text>
<text text-anchor="start" x="1356.04" y="-159.3" font-family="Times,serif" font-style="italic" font-size="14.00">SKF0</text>
<text text-anchor="start" x="1396.04" y="-159.3" font-family="Times,serif" font-size="14.00">(</text>
<text text-anchor="start" x="1402.04" y="-159.3" font-family="Times,serif" font-style="italic" font-size="14.00">Kim</text>
<text text-anchor="start" x="1431.04" y="-159.3" font-family="Times,serif" font-size="14.00">), </text>
<text text-anchor="start" x="1446.04" y="-159.3" font-family="Times,serif" font-style="italic" font-size="14.00">Kim</text>
<text text-anchor="start" x="1475.04" y="-159.3" font-family="Times,serif" font-size="14.00">)</text>
</g>
<!-- SUBSn12348298n49480531&#45;&gt;n37132234 -->
<g id="edge49" class="edge">
<title>SUBSn12348298n49480531&#45;&gt;n37132234</title>
<path fill="none" stroke="black" d="M1397.04,-215.7C1397.04,-207.98 1397.04,-198.71 1397.04,-190.11"/>
<polygon fill="black" stroke="black" points="1400.54,-190.1 1397.04,-180.1 1393.54,-190.1 1400.54,-190.1"/>
</g>
<!-- n60258042 -->
<g id="node38" class="node">
<title>n60258042</title>
<ellipse fill="none" stroke="black" cx="2220.04" cy="-162" rx="85.29" ry="18"/>
<text text-anchor="start" x="2162.54" y="-159.3" font-family="Times,serif" font-size="14.00">tail(</text>
<text text-anchor="start" x="2191.54" y="-159.3" font-family="Times,serif" font-style="italic" font-size="14.00">SKF1</text>
<text text-anchor="start" x="2231.54" y="-159.3" font-family="Times,serif" font-size="14.00">(</text>
<text text-anchor="start" x="2237.54" y="-159.3" font-family="Times,serif" font-style="italic" font-size="14.00">Kim</text>
<text text-anchor="start" x="2266.54" y="-159.3" font-family="Times,serif" font-size="14.00">))</text>
</g>
<!-- SUBSn12348298n56922315&#45;&gt;n60258042 -->
<g id="edge13" class="edge">
<title>SUBSn12348298n56922315&#45;&gt;n60258042</title>
<path fill="none" stroke="black" d="M2220.04,-215.7C2220.04,-207.98 2220.04,-198.71 2220.04,-190.11"/>
<polygon fill="black" stroke="black" points="2223.54,-190.1 2220.04,-180.1 2216.54,-190.1 2223.54,-190.1"/>
</g>
<!-- n69225076 -->
<g id="node41" class="node">
<title>n69225076</title>
<ellipse fill="none" stroke="black" cx="1977.04" cy="-306" rx="141.07" ry="18"/>
<text text-anchor="start" x="1876.54" y="-303.3" font-family="Times,serif" font-size="14.00">animal(</text>
<text text-anchor="start" x="1930.54" y="-303.3" font-family="Times,serif" font-weight="bold" font-size="14.00">O677</text>
<text text-anchor="start" x="1972.54" y="-303.3" font-family="Times,serif" font-size="14.00">), !man(</text>
<text text-anchor="start" x="2029.54" y="-303.3" font-family="Times,serif" font-weight="bold" font-size="14.00">O677</text>
<text text-anchor="start" x="2071.54" y="-303.3" font-family="Times,serif" font-size="14.00">)</text>
</g>
<!-- SUBSn09794809n14655254&#45;&gt;n69225076 -->
<g id="edge16" class="edge">
<title>SUBSn09794809n14655254&#45;&gt;n69225076</title>
<path fill="none" stroke="black" d="M1977.04,-359.7C1977.04,-351.98 1977.04,-342.71 1977.04,-334.11"/>
<polygon fill="black" stroke="black" points="1980.54,-334.1 1977.04,-324.1 1973.54,-334.1 1980.54,-334.1"/>
</g>
<!-- n74025833 -->
<g id="node40" class="node">
<title>n74025833</title>
<ellipse fill="none" stroke="black" cx="3179.04" cy="-162" rx="72.59" ry="18"/>
<text text-anchor="start" x="3131.04" y="-159.3" font-family="Times,serif" font-size="14.00">animal(</text>
<text text-anchor="start" x="3185.04" y="-159.3" font-family="Times,serif" font-style="italic" font-size="14.00">Mike</text>
<text text-anchor="start" x="3221.04" y="-159.3" font-family="Times,serif" font-size="14.00">)</text>
</g>
<!-- n94729648 -->
<g id="node43" class="node">
<title>n94729648</title>
<ellipse fill="none" stroke="black" cx="2459.04" cy="-162" rx="125.38" ry="18"/>
<text text-anchor="start" x="2370.54" y="-159.3" font-family="Times,serif" font-size="14.00">partOf(</text>
<text text-anchor="start" x="2422.54" y="-159.3" font-family="Times,serif" font-style="italic" font-size="14.00">Kim</text>
<text text-anchor="start" x="2451.54" y="-159.3" font-family="Times,serif" font-size="14.00">, </text>
<text text-anchor="start" x="2461.54" y="-159.3" font-family="Times,serif" font-style="italic" font-size="14.00">SKF1</text>
<text text-anchor="start" x="2501.54" y="-159.3" font-family="Times,serif" font-size="14.00">(</text>
<text text-anchor="start" x="2507.54" y="-159.3" font-family="Times,serif" font-style="italic" font-size="14.00">Kim</text>
<text text-anchor="start" x="2536.54" y="-159.3" font-family="Times,serif" font-size="14.00">))</text>
</g>
<!-- SUBSn69840073n12348298&#45;&gt;n94729648 -->
<g id="edge15" class="edge">
<title>SUBSn69840073n12348298&#45;&gt;n94729648</title>
<path fill="none" stroke="black" d="M2459.04,-215.7C2459.04,-207.98 2459.04,-198.71 2459.04,-190.11"/>
<polygon fill="black" stroke="black" points="2462.54,-190.1 2459.04,-180.1 2455.54,-190.1 2462.54,-190.1"/>
</g>
<!-- SUBSn06529084n12348298&#45;&gt;n38494125 -->
<g id="edge26" class="edge">
<title>SUBSn06529084n12348298&#45;&gt;n38494125</title>
<path fill="none" stroke="black" d="M500.04,-215.7C500.04,-207.98 500.04,-198.71 500.04,-190.11"/>
<polygon fill="black" stroke="black" points="503.54,-190.1 500.04,-180.1 496.54,-190.1 503.54,-190.1"/>
</g>
<!-- SUBSn85554560n22654871&#45;&gt;n74025833 -->
<g id="edge32" class="edge">
<title>SUBSn85554560n22654871&#45;&gt;n74025833</title>
<path fill="none" stroke="black" d="M3179.04,-215.7C3179.04,-207.98 3179.04,-198.71 3179.04,-190.11"/>
<polygon fill="black" stroke="black" points="3182.54,-190.1 3179.04,-180.1 3175.54,-190.1 3182.54,-190.1"/>
</g>
<!-- n09309445&#45;&gt;SUBSn12348298n09309445 -->
<g id="edge48" class="edge">
<title>n09309445&#45;&gt;SUBSn12348298n09309445</title>
<path fill="none" stroke="black" d="M963.84,-288.23C989.11,-277.31 1021.99,-263.11 1047.42,-252.12"/>
</g>
<!-- SUBSn53800922n53195007&#45;&gt;n49480531 -->
<g id="edge51" class="edge">
<title>SUBSn53800922n53195007&#45;&gt;n49480531</title>
<path fill="none" stroke="black" d="M844.54,-371.03C924.9,-360.26 1096.43,-337.25 1210.5,-321.96"/>
<polygon fill="black" stroke="black" points="1211.23,-325.39 1220.67,-320.59 1210.29,-318.45 1211.23,-325.39"/>
</g>
</g>
</svg>
