<?xml version="1.0" encoding="UTF-8" standalone="no"?>
<!DOCTYPE svg PUBLIC "-//W3C//DTD SVG 1.1//EN"
 "http://www.w3.org/Graphics/SVG/1.1/DTD/svg11.dtd">
<!-- Generated by graphviz version 2.43.0 (0)
 -->
<!-- Title: g Pages: 1 -->
<svg width="3376pt" height="476pt"
 viewBox="0.00 0.00 3375.85 476.00" xmlns="http://www.w3.org/2000/svg" xmlns:xlink="http://www.w3.org/1999/xlink">
<g id="graph0" class="graph" transform="scale(1 1) rotate(0) translate(4 472)">
<title>g</title>
<polygon fill="white" stroke="transparent" points="-4,4 -4,-472 3371.85,-472 3371.85,4 -4,4"/>
<!-- n71455013 -->
<g id="node1" class="node">
<title>n71455013</title>
<polygon fill="none" stroke="black" points="89.85,-468 0.85,-468 0.85,-432 89.85,-432 89.85,-468"/>
<text text-anchor="start" x="8.85" y="-447.3" font-family="Times,serif" font-size="14.00">man(</text>
<text text-anchor="start" x="45.85" y="-447.3" font-family="Times,serif" font-style="italic" font-size="14.00">SK0</text>
<text text-anchor="start" x="75.85" y="-447.3" font-family="Times,serif" font-size="14.00">)</text>
</g>
<!-- SUBSn60316782n71455013 -->
<g id="node15" class="node">
<title>SUBSn60316782n71455013</title>
<text text-anchor="start" x="276.35" y="-230.3" font-family="Times,serif" font-size="14.00">{Z106: SK0}</text>
</g>
<!-- n71455013&#45;&gt;SUBSn60316782n71455013 -->
<g id="edge16" class="edge">
<title>n71455013&#45;&gt;SUBSn60316782n71455013</title>
<path fill="none" stroke="black" d="M34.07,-431.67C14.64,-399.44 -19.82,-329.75 15.35,-288 47.08,-250.35 188.64,-239.44 268.34,-236.29"/>
</g>
<!-- SUBSn56512424n71455013 -->
<g id="node31" class="node">
<title>SUBSn56512424n71455013</title>
<text text-anchor="start" x="57.35" y="-374.3" font-family="Times,serif" font-size="14.00">{x5: SK0}</text>
</g>
<!-- n71455013&#45;&gt;SUBSn56512424n71455013 -->
<g id="edge9" class="edge">
<title>n71455013&#45;&gt;SUBSn56512424n71455013</title>
<path fill="none" stroke="black" d="M57.47,-431.7C65.06,-420.85 74.81,-406.92 82.38,-396.1"/>
</g>
<!-- n42531986 -->
<g id="node2" class="node">
<title>n42531986</title>
<polygon fill="none" stroke="black" points="2060.85,-468 1815.85,-468 1815.85,-432 2060.85,-432 2060.85,-468"/>
<text text-anchor="start" x="1823.85" y="-447.3" font-family="Times,serif" font-size="14.00">!dog(</text>
<text text-anchor="start" x="1861.85" y="-447.3" font-family="Times,serif" font-weight="bold" font-size="14.00">x3</text>
<text text-anchor="start" x="1880.85" y="-447.3" font-family="Times,serif" font-size="14.00">), partOf(</text>
<text text-anchor="start" x="1947.85" y="-447.3" font-family="Times,serif" font-weight="bold" font-size="14.00">x3</text>
<text text-anchor="start" x="1966.85" y="-447.3" font-family="Times,serif" font-size="14.00">, </text>
<text text-anchor="start" x="1976.85" y="-447.3" font-family="Times,serif" font-style="italic" font-size="14.00">SKF1</text>
<text text-anchor="start" x="2016.85" y="-447.3" font-family="Times,serif" font-size="14.00">(</text>
<text text-anchor="start" x="2022.85" y="-447.3" font-family="Times,serif" font-weight="bold" font-size="14.00">x3</text>
<text text-anchor="start" x="2041.85" y="-447.3" font-family="Times,serif" font-size="14.00">))</text>
</g>
<!-- SUBSn00892776n42531986 -->
<g id="node23" class="node">
<title>SUBSn00892776n42531986</title>
<text text-anchor="start" x="1901.85" y="-374.3" font-family="Times,serif" font-size="14.00">{x3: Kim}</text>
</g>
<!-- n42531986&#45;&gt;SUBSn00892776n42531986 -->
<g id="edge5" class="edge">
<title>n42531986&#45;&gt;SUBSn00892776n42531986</title>
<path fill="none" stroke="black" d="M1938.35,-431.7C1938.35,-420.85 1938.35,-406.92 1938.35,-396.1"/>
</g>
<!-- n86035812 -->
<g id="node3" class="node">
<title>n86035812</title>
<polygon fill="none" stroke="black" points="847.85,-468 658.85,-468 658.85,-432 847.85,-432 847.85,-468"/>
<text text-anchor="start" x="666.85" y="-447.3" font-family="Times,serif" font-size="14.00">!person(</text>
<text text-anchor="start" x="727.85" y="-447.3" font-family="Times,serif" font-weight="bold" font-size="14.00">x6</text>
<text text-anchor="start" x="746.85" y="-447.3" font-family="Times,serif" font-size="14.00">), animal(</text>
<text text-anchor="start" x="814.85" y="-447.3" font-family="Times,serif" font-weight="bold" font-size="14.00">x6</text>
<text text-anchor="start" x="833.85" y="-447.3" font-family="Times,serif" font-size="14.00">)</text>
</g>
<!-- SUBSn17663671n86035812 -->
<g id="node19" class="node">
<title>SUBSn17663671n86035812</title>
<text text-anchor="start" x="1125.35" y="-374.3" font-family="Times,serif" font-size="14.00">{x6: SKF0(x1)}</text>
</g>
<!-- n86035812&#45;&gt;SUBSn17663671n86035812 -->
<g id="edge15" class="edge">
<title>n86035812&#45;&gt;SUBSn17663671n86035812</title>
<path fill="none" stroke="black" d="M848.08,-433.51C929.82,-420.14 1045.69,-401.19 1117.05,-389.52"/>
</g>
<!-- SUBSn56512424n86035812 -->
<g id="node21" class="node">
<title>SUBSn56512424n86035812</title>
<text text-anchor="start" x="676.35" y="-374.3" font-family="Times,serif" font-size="14.00">{x5: Z105, x6: Z105}</text>
</g>
<!-- n86035812&#45;&gt;SUBSn56512424n86035812 -->
<g id="edge18" class="edge">
<title>n86035812&#45;&gt;SUBSn56512424n86035812</title>
<path fill="none" stroke="black" d="M753.35,-431.7C753.35,-420.85 753.35,-406.92 753.35,-396.1"/>
</g>
<!-- SUBSn86035812n56512424 -->
<g id="node41" class="node">
<title>SUBSn86035812n56512424</title>
<text text-anchor="start" x="435.35" y="-374.3" font-family="Times,serif" font-size="14.00">{x6: Z106, x5: Z106}</text>
</g>
<!-- n86035812&#45;&gt;SUBSn86035812n56512424 -->
<g id="edge50" class="edge">
<title>n86035812&#45;&gt;SUBSn86035812n56512424</title>
<path fill="none" stroke="black" d="M694.71,-431.97C657.23,-421.08 608.79,-407.01 571.26,-396.11"/>
</g>
<!-- n60438415 -->
<g id="node4" class="node">
<title>n60438415</title>
<polygon fill="none" stroke="black" points="627.85,-468 532.85,-468 532.85,-432 627.85,-432 627.85,-468"/>
<text text-anchor="start" x="540.85" y="-447.3" font-family="Times,serif" font-size="14.00">man(</text>
<text text-anchor="start" x="577.85" y="-447.3" font-family="Times,serif" font-style="italic" font-size="14.00">Mike</text>
<text text-anchor="start" x="613.85" y="-447.3" font-family="Times,serif" font-size="14.00">)</text>
</g>
<!-- SUBSn60438415n56512424 -->
<g id="node22" class="node">
<title>SUBSn60438415n56512424</title>
<text text-anchor="start" x="321.35" y="-374.3" font-family="Times,serif" font-size="14.00">{x5: Mike}</text>
</g>
<!-- n60438415&#45;&gt;SUBSn60438415n56512424 -->
<g id="edge38" class="edge">
<title>n60438415&#45;&gt;SUBSn60438415n56512424</title>
<path fill="none" stroke="black" d="M532.83,-433.81C496.35,-422.15 446.18,-406.11 409.54,-394.4"/>
</g>
<!-- SUBSn60438415n60316782 -->
<g id="node32" class="node">
<title>SUBSn60438415n60316782</title>
<text text-anchor="start" x="597.35" y="-230.3" font-family="Times,serif" font-size="14.00">{Z106: Mike}</text>
</g>
<!-- n60438415&#45;&gt;SUBSn60438415n60316782 -->
<g id="edge32" class="edge">
<title>n60438415&#45;&gt;SUBSn60438415n60316782</title>
<path fill="none" stroke="black" d="M628.09,-437.02C635.53,-435.26 643.14,-433.53 650.35,-432 779.6,-404.52 873.6,-444.71 927.35,-324 933.86,-309.38 937.56,-300.32 927.35,-288 899.74,-254.66 779.03,-242.14 705.42,-237.55"/>
</g>
<!-- n66293174 -->
<g id="node5" class="node">
<title>n66293174</title>
<polygon fill="none" stroke="black" points="2571.35,-468 2405.35,-468 2405.35,-432 2571.35,-432 2571.35,-468"/>
<text text-anchor="start" x="2413.35" y="-447.3" font-family="Times,serif" font-size="14.00">animal(</text>
<text text-anchor="start" x="2467.35" y="-447.3" font-family="Times,serif" font-weight="bold" font-size="14.00">x0</text>
<text text-anchor="start" x="2486.35" y="-447.3" font-family="Times,serif" font-size="14.00">), !dog(</text>
<text text-anchor="start" x="2538.35" y="-447.3" font-family="Times,serif" font-weight="bold" font-size="14.00">x0</text>
<text text-anchor="start" x="2557.35" y="-447.3" font-family="Times,serif" font-size="14.00">)</text>
</g>
<!-- SUBSn00892776n66293174 -->
<g id="node49" class="node">
<title>SUBSn00892776n66293174</title>
<text text-anchor="start" x="2451.85" y="-374.3" font-family="Times,serif" font-size="14.00">{x0: Kim}</text>
</g>
<!-- n66293174&#45;&gt;SUBSn00892776n66293174 -->
<g id="edge45" class="edge">
<title>n66293174&#45;&gt;SUBSn00892776n66293174</title>
<path fill="none" stroke="black" d="M2488.35,-431.7C2488.35,-420.85 2488.35,-406.92 2488.35,-396.1"/>
</g>
<!-- n62571086 -->
<g id="node6" class="node">
<title>n62571086</title>
<polygon fill="none" stroke="black" points="3250.85,-468 3077.85,-468 3077.85,-432 3250.85,-432 3250.85,-468"/>
<text text-anchor="start" x="3085.85" y="-447.3" font-family="Times,serif" font-size="14.00">partOf(</text>
<text text-anchor="start" x="3137.85" y="-447.3" font-family="Times,serif" font-weight="bold" font-size="14.00">x7</text>
<text text-anchor="start" x="3156.85" y="-447.3" font-family="Times,serif" font-size="14.00">, </text>
<text text-anchor="start" x="3166.85" y="-447.3" font-family="Times,serif" font-style="italic" font-size="14.00">SKF2</text>
<text text-anchor="start" x="3206.85" y="-447.3" font-family="Times,serif" font-size="14.00">(</text>
<text text-anchor="start" x="3212.85" y="-447.3" font-family="Times,serif" font-weight="bold" font-size="14.00">x7</text>
<text text-anchor="start" x="3231.85" y="-447.3" font-family="Times,serif" font-size="14.00">))</text>
</g>
<!-- n54886249 -->
<g id="node7" class="node">
<title>n54886249</title>
<polygon fill="none" stroke="black" points="2382.85,-468 2189.85,-468 2189.85,-432 2382.85,-432 2382.85,-468"/>
<text text-anchor="start" x="2197.85" y="-447.3" font-family="Times,serif" font-size="14.00">tail(</text>
<text text-anchor="start" x="2226.85" y="-447.3" font-family="Times,serif" font-style="italic" font-size="14.00">SKF1</text>
<text text-anchor="start" x="2266.85" y="-447.3" font-family="Times,serif" font-size="14.00">(</text>
<text text-anchor="start" x="2272.85" y="-447.3" font-family="Times,serif" font-weight="bold" font-size="14.00">x4</text>
<text text-anchor="start" x="2291.85" y="-447.3" font-family="Times,serif" font-size="14.00">)), !dog(</text>
<text text-anchor="start" x="2349.85" y="-447.3" font-family="Times,serif" font-weight="bold" font-size="14.00">x4</text>
<text text-anchor="start" x="2368.85" y="-447.3" font-family="Times,serif" font-size="14.00">)</text>
</g>
<!-- SUBSn00892776n54886249 -->
<g id="node29" class="node">
<title>SUBSn00892776n54886249</title>
<text text-anchor="start" x="2249.85" y="-374.3" font-family="Times,serif" font-size="14.00">{x4: Kim}</text>
</g>
<!-- n54886249&#45;&gt;SUBSn00892776n54886249 -->
<g id="edge12" class="edge">
<title>n54886249&#45;&gt;SUBSn00892776n54886249</title>
<path fill="none" stroke="black" d="M2286.35,-431.7C2286.35,-420.85 2286.35,-406.92 2286.35,-396.1"/>
</g>
<!-- n85094125 -->
<g id="node8" class="node">
<title>n85094125</title>
<polygon fill="none" stroke="black" points="2229.35,-324 2117.35,-324 2117.35,-288 2229.35,-288 2229.35,-324"/>
<text text-anchor="start" x="2125.35" y="-303.3" font-family="Times,serif" font-size="14.00">friendly(</text>
<text text-anchor="start" x="2186.35" y="-303.3" font-family="Times,serif" font-style="italic" font-size="14.00">Kim</text>
<text text-anchor="start" x="2215.35" y="-303.3" font-family="Times,serif" font-size="14.00">)</text>
</g>
<!-- SUBSn85094125n52273473 -->
<g id="node16" class="node">
<title>SUBSn85094125n52273473</title>
<text text-anchor="start" x="2076.85" y="-230.3" font-family="Times,serif" font-size="14.00">{}</text>
</g>
<!-- n85094125&#45;&gt;SUBSn85094125n52273473 -->
<g id="edge2" class="edge">
<title>n85094125&#45;&gt;SUBSn85094125n52273473</title>
<path fill="none" stroke="black" d="M2151.85,-287.7C2138.36,-276.85 2121.05,-262.92 2107.61,-252.1"/>
</g>
<!-- SUBSn85094125n17663671 -->
<g id="node25" class="node">
<title>SUBSn85094125n17663671</title>
<text text-anchor="start" x="1774.85" y="-230.3" font-family="Times,serif" font-size="14.00">{x1: Kim}</text>
</g>
<!-- n85094125&#45;&gt;SUBSn85094125n17663671 -->
<g id="edge43" class="edge">
<title>n85094125&#45;&gt;SUBSn85094125n17663671</title>
<path fill="none" stroke="black" d="M2117.26,-291.07C2112.56,-290 2107.88,-288.96 2103.35,-288 2016.16,-269.52 1913.46,-251.81 1856.04,-242.27"/>
</g>
<!-- SUBSn85094125n87167509 -->
<g id="node26" class="node">
<title>SUBSn85094125n87167509</title>
<text text-anchor="start" x="2539.85" y="-230.3" font-family="Times,serif" font-size="14.00">{}</text>
</g>
<!-- n85094125&#45;&gt;SUBSn85094125n87167509 -->
<g id="edge24" class="edge">
<title>n85094125&#45;&gt;SUBSn85094125n87167509</title>
<path fill="none" stroke="black" d="M2229.65,-289.96C2232.59,-289.27 2235.5,-288.61 2238.35,-288 2342.49,-265.55 2467.91,-246.62 2522.16,-238.82"/>
</g>
<!-- SUBSn41457650n85094125 -->
<g id="node36" class="node">
<title>SUBSn41457650n85094125</title>
<text text-anchor="start" x="1666.85" y="-86.3" font-family="Times,serif" font-size="14.00">{}</text>
</g>
<!-- n85094125&#45;&gt;SUBSn41457650n85094125 -->
<g id="edge55" class="edge">
<title>n85094125&#45;&gt;SUBSn41457650n85094125</title>
<path fill="none" stroke="black" d="M2183.64,-287.9C2201.71,-255.43 2233.92,-184.47 2197.35,-144 2163.95,-107.02 1805.61,-94.51 1703.42,-91.68"/>
</g>
<!-- SUBSn52154598n85094125 -->
<g id="node43" class="node">
<title>SUBSn52154598n85094125</title>
<text text-anchor="start" x="2914.85" y="-230.3" font-family="Times,serif" font-size="14.00">{x2: Kim}</text>
</g>
<!-- n85094125&#45;&gt;SUBSn52154598n85094125 -->
<g id="edge28" class="edge">
<title>n85094125&#45;&gt;SUBSn52154598n85094125</title>
<path fill="none" stroke="black" d="M2229.59,-289.62C2232.54,-289.03 2235.48,-288.48 2238.35,-288 2367.99,-266.41 2770.99,-244.28 2906.43,-237.27"/>
</g>
<!-- SUBSn71520506n85094125 -->
<g id="node48" class="node">
<title>SUBSn71520506n85094125</title>
<text text-anchor="start" x="1446.85" y="-230.3" font-family="Times,serif" font-size="14.00">{x1: Kim}</text>
</g>
<!-- n85094125&#45;&gt;SUBSn71520506n85094125 -->
<g id="edge34" class="edge">
<title>n85094125&#45;&gt;SUBSn71520506n85094125</title>
<path fill="none" stroke="black" d="M2117.34,-290.6C2112.63,-289.63 2107.92,-288.75 2103.35,-288 1992.2,-269.86 1650.84,-246.11 1527.99,-237.92"/>
</g>
<!-- n56512424 -->
<g id="node9" class="node">
<title>n56512424</title>
<polygon fill="none" stroke="black" points="480.35,-468 308.35,-468 308.35,-432 480.35,-432 480.35,-468"/>
<text text-anchor="start" x="316.35" y="-447.3" font-family="Times,serif" font-size="14.00">person(</text>
<text text-anchor="start" x="371.35" y="-447.3" font-family="Times,serif" font-weight="bold" font-size="14.00">x5</text>
<text text-anchor="start" x="390.35" y="-447.3" font-family="Times,serif" font-size="14.00">), !man(</text>
<text text-anchor="start" x="447.35" y="-447.3" font-family="Times,serif" font-weight="bold" font-size="14.00">x5</text>
<text text-anchor="start" x="466.35" y="-447.3" font-family="Times,serif" font-size="14.00">)</text>
</g>
<!-- n56512424&#45;&gt;SUBSn56512424n86035812 -->
<g id="edge22" class="edge">
<title>n56512424&#45;&gt;SUBSn56512424n86035812</title>
<path fill="none" stroke="black" d="M480.8,-432.14C537.65,-421.06 611.71,-406.62 668.28,-395.59"/>
</g>
<!-- n56512424&#45;&gt;SUBSn60438415n56512424 -->
<g id="edge6" class="edge">
<title>n56512424&#45;&gt;SUBSn60438415n56512424</title>
<path fill="none" stroke="black" d="M386.2,-431.7C381.08,-420.85 374.51,-406.92 369.42,-396.1"/>
</g>
<!-- n56512424&#45;&gt;SUBSn56512424n71455013 -->
<g id="edge31" class="edge">
<title>n56512424&#45;&gt;SUBSn56512424n71455013</title>
<path fill="none" stroke="black" d="M321.35,-431.97C264.63,-418.73 187.77,-400.8 139.63,-389.56"/>
</g>
<!-- n56512424&#45;&gt;SUBSn86035812n56512424 -->
<g id="edge39" class="edge">
<title>n56512424&#45;&gt;SUBSn86035812n56512424</title>
<path fill="none" stroke="black" d="M423.22,-431.88C441.51,-421.03 465.07,-407.05 483.38,-396.19"/>
</g>
<!-- n17663671 -->
<g id="node10" class="node">
<title>n17663671</title>
<polygon fill="none" stroke="black" points="1576.35,-468 1256.35,-468 1256.35,-432 1576.35,-432 1576.35,-468"/>
<text text-anchor="start" x="1264.35" y="-447.3" font-family="Times,serif" font-size="14.00">person(</text>
<text text-anchor="start" x="1319.35" y="-447.3" font-family="Times,serif" font-style="italic" font-size="14.00">SKF0</text>
<text text-anchor="start" x="1359.35" y="-447.3" font-family="Times,serif" font-size="14.00">(</text>
<text text-anchor="start" x="1365.35" y="-447.3" font-family="Times,serif" font-weight="bold" font-size="14.00">x1</text>
<text text-anchor="start" x="1384.35" y="-447.3" font-family="Times,serif" font-size="14.00">)), !dog(</text>
<text text-anchor="start" x="1442.35" y="-447.3" font-family="Times,serif" font-weight="bold" font-size="14.00">x1</text>
<text text-anchor="start" x="1461.35" y="-447.3" font-family="Times,serif" font-size="14.00">), !friendly(</text>
<text text-anchor="start" x="1543.35" y="-447.3" font-family="Times,serif" font-weight="bold" font-size="14.00">x1</text>
<text text-anchor="start" x="1562.35" y="-447.3" font-family="Times,serif" font-size="14.00">)</text>
</g>
<!-- SUBSn00892776n17663671 -->
<g id="node18" class="node">
<title>SUBSn00892776n17663671</title>
<text text-anchor="start" x="1581.85" y="-374.3" font-family="Times,serif" font-size="14.00">{x1: Kim}</text>
</g>
<!-- n17663671&#45;&gt;SUBSn00892776n17663671 -->
<g id="edge3" class="edge">
<title>n17663671&#45;&gt;SUBSn00892776n17663671</title>
<path fill="none" stroke="black" d="M1465.51,-431.97C1498.56,-420.51 1541.77,-405.54 1573.81,-394.44"/>
</g>
<!-- n17663671&#45;&gt;SUBSn17663671n86035812 -->
<g id="edge25" class="edge">
<title>n17663671&#45;&gt;SUBSn17663671n86035812</title>
<path fill="none" stroke="black" d="M1359.17,-431.97C1322.62,-421.08 1275.39,-407.01 1238.8,-396.11"/>
</g>
<!-- n17663671&#45;&gt;SUBSn85094125n17663671 -->
<g id="edge44" class="edge">
<title>n17663671&#45;&gt;SUBSn85094125n17663671</title>
<path fill="none" stroke="black" d="M1412.39,-431.86C1405.91,-399 1397.28,-326.94 1435.35,-288 1458.25,-264.58 1672.23,-245.58 1766.79,-238.25"/>
</g>
<!-- n90271659 -->
<g id="node11" class="node">
<title>n90271659</title>
<polygon fill="none" stroke="black" points="3367.85,-468 3268.85,-468 3268.85,-432 3367.85,-432 3367.85,-468"/>
<text text-anchor="start" x="3276.85" y="-447.3" font-family="Times,serif" font-size="14.00">angry(</text>
<text text-anchor="start" x="3323.85" y="-447.3" font-family="Times,serif" font-style="italic" font-size="14.00">SK0</text>
<text text-anchor="start" x="3353.85" y="-447.3" font-family="Times,serif" font-size="14.00">)</text>
</g>
<!-- n52154598 -->
<g id="node12" class="node">
<title>n52154598</title>
<polygon fill="none" stroke="black" points="3059.35,-468 2723.35,-468 2723.35,-432 3059.35,-432 3059.35,-468"/>
<text text-anchor="start" x="2731.35" y="-447.3" font-family="Times,serif" font-size="14.00">loves(</text>
<text text-anchor="start" x="2774.35" y="-447.3" font-family="Times,serif" font-style="italic" font-size="14.00">SKF0</text>
<text text-anchor="start" x="2814.35" y="-447.3" font-family="Times,serif" font-size="14.00">(</text>
<text text-anchor="start" x="2820.35" y="-447.3" font-family="Times,serif" font-weight="bold" font-size="14.00">x2</text>
<text text-anchor="start" x="2839.35" y="-447.3" font-family="Times,serif" font-size="14.00">), </text>
<text text-anchor="start" x="2854.35" y="-447.3" font-family="Times,serif" font-weight="bold" font-size="14.00">x2</text>
<text text-anchor="start" x="2873.35" y="-447.3" font-family="Times,serif" font-size="14.00">), !dog(</text>
<text text-anchor="start" x="2925.35" y="-447.3" font-family="Times,serif" font-weight="bold" font-size="14.00">x2</text>
<text text-anchor="start" x="2944.35" y="-447.3" font-family="Times,serif" font-size="14.00">), !friendly(</text>
<text text-anchor="start" x="3026.35" y="-447.3" font-family="Times,serif" font-weight="bold" font-size="14.00">x2</text>
<text text-anchor="start" x="3045.35" y="-447.3" font-family="Times,serif" font-size="14.00">)</text>
</g>
<!-- SUBSn52154598n00892776 -->
<g id="node35" class="node">
<title>SUBSn52154598n00892776</title>
<text text-anchor="start" x="2744.85" y="-374.3" font-family="Times,serif" font-size="14.00">{x2: Kim}</text>
</g>
<!-- n52154598&#45;&gt;SUBSn52154598n00892776 -->
<g id="edge35" class="edge">
<title>n52154598&#45;&gt;SUBSn52154598n00892776</title>
<path fill="none" stroke="black" d="M2864.44,-431.88C2847.4,-421.03 2825.43,-407.05 2808.37,-396.19"/>
</g>
<!-- n52154598&#45;&gt;SUBSn52154598n85094125 -->
<g id="edge47" class="edge">
<title>n52154598&#45;&gt;SUBSn52154598n85094125</title>
<path fill="none" stroke="black" d="M2909.7,-431.64C2931.9,-409.24 2968.07,-367.9 2982.35,-324 2987.31,-308.79 2986.54,-303.44 2982.35,-288 2978.84,-275.04 2971.28,-261.99 2964.5,-252.09"/>
</g>
<!-- n00892776 -->
<g id="node13" class="node">
<title>n00892776</title>
<polygon fill="none" stroke="black" points="2163.85,-468 2080.85,-468 2080.85,-432 2163.85,-432 2163.85,-468"/>
<text text-anchor="start" x="2088.85" y="-447.3" font-family="Times,serif" font-size="14.00">dog(</text>
<text text-anchor="start" x="2120.85" y="-447.3" font-family="Times,serif" font-style="italic" font-size="14.00">Kim</text>
<text text-anchor="start" x="2149.85" y="-447.3" font-family="Times,serif" font-size="14.00">)</text>
</g>
<!-- n00892776&#45;&gt;SUBSn00892776n17663671 -->
<g id="edge53" class="edge">
<title>n00892776&#45;&gt;SUBSn00892776n17663671</title>
<path fill="none" stroke="black" d="M2080.83,-434.62C2077.31,-433.65 2073.79,-432.75 2070.35,-432 1923.35,-399.69 1744.84,-386.12 1663.11,-381.29"/>
</g>
<!-- n00892776&#45;&gt;SUBSn00892776n42531986 -->
<g id="edge48" class="edge">
<title>n00892776&#45;&gt;SUBSn00892776n42531986</title>
<path fill="none" stroke="black" d="M2080.6,-433.12C2051.55,-422.06 2012.85,-407.34 1983.16,-396.04"/>
</g>
<!-- n00892776&#45;&gt;SUBSn00892776n54886249 -->
<g id="edge36" class="edge">
<title>n00892776&#45;&gt;SUBSn00892776n54886249</title>
<path fill="none" stroke="black" d="M2162.47,-431.88C2187.98,-420.99 2220.88,-406.95 2246.37,-396.07"/>
</g>
<!-- SUBSn71520506n00892776 -->
<g id="node33" class="node">
<title>SUBSn71520506n00892776</title>
<text text-anchor="start" x="1144.85" y="-230.3" font-family="Times,serif" font-size="14.00">{x1: Kim}</text>
</g>
<!-- n00892776&#45;&gt;SUBSn71520506n00892776 -->
<g id="edge10" class="edge">
<title>n00892776&#45;&gt;SUBSn71520506n00892776</title>
<path fill="none" stroke="black" d="M2122.63,-431.89C2122.13,-398.09 2115.7,-323 2070.35,-288 2013.97,-244.48 1501.44,-256.43 1430.35,-252 1358.78,-247.54 1275.68,-241.74 1225.87,-238.2"/>
</g>
<!-- n00892776&#45;&gt;SUBSn52154598n00892776 -->
<g id="edge26" class="edge">
<title>n00892776&#45;&gt;SUBSn52154598n00892776</title>
<path fill="none" stroke="black" d="M2164.02,-435.92C2169.8,-434.42 2175.7,-433.06 2181.35,-432 2235.52,-421.9 2607.14,-392.51 2736.82,-382.44"/>
</g>
<!-- n00892776&#45;&gt;SUBSn00892776n66293174 -->
<g id="edge41" class="edge">
<title>n00892776&#45;&gt;SUBSn00892776n66293174</title>
<path fill="none" stroke="black" d="M2164.11,-436.36C2169.88,-434.79 2175.74,-433.29 2181.35,-432 2273.87,-410.75 2383.82,-393.73 2443.82,-385.12"/>
</g>
<!-- n60316782 -->
<g id="node14" class="node">
<title>n60316782</title>
<ellipse fill="none" stroke="black" cx="485.35" cy="-306" rx="138.38" ry="18"/>
<text text-anchor="start" x="386.85" y="-303.3" font-family="Times,serif" font-size="14.00">!man(</text>
<text text-anchor="start" x="429.85" y="-303.3" font-family="Times,serif" font-weight="bold" font-size="14.00">Z106</text>
<text text-anchor="start" x="469.85" y="-303.3" font-family="Times,serif" font-size="14.00">), animal(</text>
<text text-anchor="start" x="537.85" y="-303.3" font-family="Times,serif" font-weight="bold" font-size="14.00">Z106</text>
<text text-anchor="start" x="577.85" y="-303.3" font-family="Times,serif" font-size="14.00">)</text>
</g>
<!-- n60316782&#45;&gt;SUBSn60316782n71455013 -->
<g id="edge1" class="edge">
<title>n60316782&#45;&gt;SUBSn60316782n71455013</title>
<path fill="none" stroke="black" d="M447.37,-288.59C421.93,-277.6 388.52,-263.16 362.79,-252.04"/>
</g>
<!-- n60316782&#45;&gt;SUBSn60438415n60316782 -->
<g id="edge33" class="edge">
<title>n60316782&#45;&gt;SUBSn60438415n60316782</title>
<path fill="none" stroke="black" d="M523.34,-288.59C548.77,-277.6 582.18,-263.16 607.92,-252.04"/>
</g>
<!-- n69250815 -->
<g id="node47" class="node">
<title>n69250815</title>
<ellipse fill="none" stroke="black" cx="323.35" cy="-162" rx="68.79" ry="18"/>
<text text-anchor="start" x="278.35" y="-159.3" font-family="Times,serif" font-size="14.00">animal(</text>
<text text-anchor="start" x="332.35" y="-159.3" font-family="Times,serif" font-style="italic" font-size="14.00">SK0</text>
<text text-anchor="start" x="362.35" y="-159.3" font-family="Times,serif" font-size="14.00">)</text>
</g>
<!-- SUBSn60316782n71455013&#45;&gt;n69250815 -->
<g id="edge46" class="edge">
<title>SUBSn60316782n71455013&#45;&gt;n69250815</title>
<path fill="none" stroke="black" d="M323.35,-215.7C323.35,-207.98 323.35,-198.71 323.35,-190.11"/>
<polygon fill="black" stroke="black" points="326.85,-190.1 323.35,-180.1 319.85,-190.1 326.85,-190.1"/>
</g>
<!-- n21955151 -->
<g id="node34" class="node">
<title>n21955151</title>
<ellipse fill="none" stroke="black" cx="2086.35" cy="-162" rx="102.08" ry="18"/>
<text text-anchor="start" x="2015.85" y="-159.3" font-family="Times,serif" font-size="14.00">person(</text>
<text text-anchor="start" x="2070.85" y="-159.3" font-family="Times,serif" font-style="italic" font-size="14.00">SKF0</text>
<text text-anchor="start" x="2110.85" y="-159.3" font-family="Times,serif" font-size="14.00">(</text>
<text text-anchor="start" x="2116.85" y="-159.3" font-family="Times,serif" font-style="italic" font-size="14.00">Kim</text>
<text text-anchor="start" x="2145.85" y="-159.3" font-family="Times,serif" font-size="14.00">))</text>
</g>
<!-- SUBSn85094125n52273473&#45;&gt;n21955151 -->
<g id="edge11" class="edge">
<title>SUBSn85094125n52273473&#45;&gt;n21955151</title>
<path fill="none" stroke="black" d="M2086.35,-215.7C2086.35,-207.98 2086.35,-198.71 2086.35,-190.11"/>
<polygon fill="black" stroke="black" points="2089.85,-190.1 2086.35,-180.1 2082.85,-190.1 2089.85,-190.1"/>
</g>
<!-- n97050986 -->
<g id="node17" class="node">
<title>n97050986</title>
<ellipse fill="none" stroke="black" cx="255.35" cy="-306" rx="73.39" ry="18"/>
<text text-anchor="start" x="206.85" y="-303.3" font-family="Times,serif" font-size="14.00">person(</text>
<text text-anchor="start" x="261.85" y="-303.3" font-family="Times,serif" font-style="italic" font-size="14.00">Mike</text>
<text text-anchor="start" x="297.85" y="-303.3" font-family="Times,serif" font-size="14.00">)</text>
</g>
<!-- n52273473 -->
<g id="node38" class="node">
<title>n52273473</title>
<ellipse fill="none" stroke="black" cx="1618.35" cy="-306" rx="174.37" ry="18"/>
<text text-anchor="start" x="1492.35" y="-303.3" font-family="Times,serif" font-size="14.00">person(</text>
<text text-anchor="start" x="1547.35" y="-303.3" font-family="Times,serif" font-style="italic" font-size="14.00">SKF0</text>
<text text-anchor="start" x="1587.35" y="-303.3" font-family="Times,serif" font-size="14.00">(</text>
<text text-anchor="start" x="1593.35" y="-303.3" font-family="Times,serif" font-style="italic" font-size="14.00">Kim</text>
<text text-anchor="start" x="1622.35" y="-303.3" font-family="Times,serif" font-size="14.00">)), !friendly(</text>
<text text-anchor="start" x="1709.35" y="-303.3" font-family="Times,serif" font-style="italic" font-size="14.00">Kim</text>
<text text-anchor="start" x="1738.35" y="-303.3" font-family="Times,serif" font-size="14.00">)</text>
</g>
<!-- SUBSn00892776n17663671&#45;&gt;n52273473 -->
<g id="edge30" class="edge">
<title>SUBSn00892776n17663671&#45;&gt;n52273473</title>
<path fill="none" stroke="black" d="M1618.35,-359.7C1618.35,-351.98 1618.35,-342.71 1618.35,-334.11"/>
<polygon fill="black" stroke="black" points="1621.85,-334.1 1618.35,-324.1 1614.85,-334.1 1621.85,-334.1"/>
</g>
<!-- n71520506 -->
<g id="node42" class="node">
<title>n71520506</title>
<ellipse fill="none" stroke="black" cx="1181.35" cy="-306" rx="206.86" ry="18"/>
<text text-anchor="start" x="1030.35" y="-303.3" font-family="Times,serif" font-size="14.00">!dog(</text>
<text text-anchor="start" x="1068.35" y="-303.3" font-family="Times,serif" font-weight="bold" font-size="14.00">x1</text>
<text text-anchor="start" x="1087.35" y="-303.3" font-family="Times,serif" font-size="14.00">), !friendly(</text>
<text text-anchor="start" x="1169.35" y="-303.3" font-family="Times,serif" font-weight="bold" font-size="14.00">x1</text>
<text text-anchor="start" x="1188.35" y="-303.3" font-family="Times,serif" font-size="14.00">), animal(</text>
<text text-anchor="start" x="1256.35" y="-303.3" font-family="Times,serif" font-style="italic" font-size="14.00">SKF0</text>
<text text-anchor="start" x="1296.35" y="-303.3" font-family="Times,serif" font-size="14.00">(</text>
<text text-anchor="start" x="1302.35" y="-303.3" font-family="Times,serif" font-weight="bold" font-size="14.00">x1</text>
<text text-anchor="start" x="1321.35" y="-303.3" font-family="Times,serif" font-size="14.00">))</text>
</g>
<!-- SUBSn17663671n86035812&#45;&gt;n71520506 -->
<g id="edge56" class="edge">
<title>SUBSn17663671n86035812&#45;&gt;n71520506</title>
<path fill="none" stroke="black" d="M1181.35,-359.7C1181.35,-351.98 1181.35,-342.71 1181.35,-334.11"/>
<polygon fill="black" stroke="black" points="1184.85,-334.1 1181.35,-324.1 1177.85,-334.1 1184.85,-334.1"/>
</g>
<!-- n02073383 -->
<g id="node20" class="node">
<title>n02073383</title>
<ellipse fill="none" stroke="black" cx="2549.35" cy="-162" rx="119.68" ry="18"/>
<text text-anchor="start" x="2465.35" y="-159.3" font-family="Times,serif" font-size="14.00">loves(</text>
<text text-anchor="start" x="2508.35" y="-159.3" font-family="Times,serif" font-style="italic" font-size="14.00">SKF0</text>
<text text-anchor="start" x="2548.35" y="-159.3" font-family="Times,serif" font-size="14.00">(</text>
<text text-anchor="start" x="2554.35" y="-159.3" font-family="Times,serif" font-style="italic" font-size="14.00">Kim</text>
<text text-anchor="start" x="2583.35" y="-159.3" font-family="Times,serif" font-size="14.00">), </text>
<text text-anchor="start" x="2598.35" y="-159.3" font-family="Times,serif" font-style="italic" font-size="14.00">Kim</text>
<text text-anchor="start" x="2627.35" y="-159.3" font-family="Times,serif" font-size="14.00">)</text>
</g>
<!-- n97987996 -->
<g id="node51" class="node">
<title>n97987996</title>
<ellipse fill="none" stroke="black" cx="780.35" cy="-306" rx="138.38" ry="18"/>
<text text-anchor="start" x="681.85" y="-303.3" font-family="Times,serif" font-size="14.00">!man(</text>
<text text-anchor="start" x="724.85" y="-303.3" font-family="Times,serif" font-weight="bold" font-size="14.00">Z105</text>
<text text-anchor="start" x="764.85" y="-303.3" font-family="Times,serif" font-size="14.00">), animal(</text>
<text text-anchor="start" x="832.85" y="-303.3" font-family="Times,serif" font-weight="bold" font-size="14.00">Z105</text>
<text text-anchor="start" x="872.85" y="-303.3" font-family="Times,serif" font-size="14.00">)</text>
</g>
<!-- SUBSn56512424n86035812&#45;&gt;n97987996 -->
<g id="edge54" class="edge">
<title>SUBSn56512424n86035812&#45;&gt;n97987996</title>
<path fill="none" stroke="black" d="M760.03,-359.7C763.07,-351.81 766.74,-342.3 770.11,-333.55"/>
<polygon fill="black" stroke="black" points="773.42,-334.69 773.76,-324.1 766.89,-332.17 773.42,-334.69"/>
</g>
<!-- SUBSn60438415n56512424&#45;&gt;n97050986 -->
<g id="edge4" class="edge">
<title>SUBSn60438415n56512424&#45;&gt;n97050986</title>
<path fill="none" stroke="black" d="M335.42,-359.88C321.28,-350.54 303.63,-338.88 288.5,-328.89"/>
<polygon fill="black" stroke="black" points="290.2,-325.82 279.92,-323.23 286.34,-331.66 290.2,-325.82"/>
</g>
<!-- n86350166 -->
<g id="node44" class="node">
<title>n86350166</title>
<ellipse fill="none" stroke="black" cx="1936.35" cy="-306" rx="125.38" ry="18"/>
<text text-anchor="start" x="1847.85" y="-303.3" font-family="Times,serif" font-size="14.00">partOf(</text>
<text text-anchor="start" x="1899.85" y="-303.3" font-family="Times,serif" font-style="italic" font-size="14.00">Kim</text>
<text text-anchor="start" x="1928.85" y="-303.3" font-family="Times,serif" font-size="14.00">, </text>
<text text-anchor="start" x="1938.85" y="-303.3" font-family="Times,serif" font-style="italic" font-size="14.00">SKF1</text>
<text text-anchor="start" x="1978.85" y="-303.3" font-family="Times,serif" font-size="14.00">(</text>
<text text-anchor="start" x="1984.85" y="-303.3" font-family="Times,serif" font-style="italic" font-size="14.00">Kim</text>
<text text-anchor="start" x="2013.85" y="-303.3" font-family="Times,serif" font-size="14.00">))</text>
</g>
<!-- SUBSn00892776n42531986&#45;&gt;n86350166 -->
<g id="edge29" class="edge">
<title>SUBSn00892776n42531986&#45;&gt;n86350166</title>
<path fill="none" stroke="black" d="M1937.86,-359.7C1937.64,-351.98 1937.37,-342.71 1937.13,-334.11"/>
<polygon fill="black" stroke="black" points="1940.63,-334 1936.84,-324.1 1933.63,-334.2 1940.63,-334"/>
</g>
<!-- n01180608 -->
<g id="node24" class="node">
<title>n01180608</title>
<ellipse fill="none" stroke="black" cx="2951.35" cy="-162" rx="172.47" ry="18"/>
<text text-anchor="start" x="2826.85" y="-159.3" font-family="Times,serif" font-size="14.00">loves(</text>
<text text-anchor="start" x="2869.85" y="-159.3" font-family="Times,serif" font-style="italic" font-size="14.00">SKF0</text>
<text text-anchor="start" x="2909.85" y="-159.3" font-family="Times,serif" font-size="14.00">(</text>
<text text-anchor="start" x="2915.85" y="-159.3" font-family="Times,serif" font-style="italic" font-size="14.00">Kim</text>
<text text-anchor="start" x="2944.85" y="-159.3" font-family="Times,serif" font-size="14.00">), </text>
<text text-anchor="start" x="2959.85" y="-159.3" font-family="Times,serif" font-style="italic" font-size="14.00">Kim</text>
<text text-anchor="start" x="2988.85" y="-159.3" font-family="Times,serif" font-size="14.00">), !dog(</text>
<text text-anchor="start" x="3040.85" y="-159.3" font-family="Times,serif" font-style="italic" font-size="14.00">Kim</text>
<text text-anchor="start" x="3069.85" y="-159.3" font-family="Times,serif" font-size="14.00">)</text>
</g>
<!-- n21062376 -->
<g id="node46" class="node">
<title>n21062376</title>
<ellipse fill="none" stroke="black" cx="1811.35" cy="-162" rx="155.17" ry="18"/>
<text text-anchor="start" x="1699.85" y="-159.3" font-family="Times,serif" font-size="14.00">person(</text>
<text text-anchor="start" x="1754.85" y="-159.3" font-family="Times,serif" font-style="italic" font-size="14.00">SKF0</text>
<text text-anchor="start" x="1794.85" y="-159.3" font-family="Times,serif" font-size="14.00">(</text>
<text text-anchor="start" x="1800.85" y="-159.3" font-family="Times,serif" font-style="italic" font-size="14.00">Kim</text>
<text text-anchor="start" x="1829.85" y="-159.3" font-family="Times,serif" font-size="14.00">)), !dog(</text>
<text text-anchor="start" x="1887.85" y="-159.3" font-family="Times,serif" font-style="italic" font-size="14.00">Kim</text>
<text text-anchor="start" x="1916.85" y="-159.3" font-family="Times,serif" font-size="14.00">)</text>
</g>
<!-- SUBSn85094125n17663671&#45;&gt;n21062376 -->
<g id="edge23" class="edge">
<title>SUBSn85094125n17663671&#45;&gt;n21062376</title>
<path fill="none" stroke="black" d="M1811.35,-215.7C1811.35,-207.98 1811.35,-198.71 1811.35,-190.11"/>
<polygon fill="black" stroke="black" points="1814.85,-190.1 1811.35,-180.1 1807.85,-190.1 1814.85,-190.1"/>
</g>
<!-- SUBSn85094125n87167509&#45;&gt;n02073383 -->
<g id="edge20" class="edge">
<title>SUBSn85094125n87167509&#45;&gt;n02073383</title>
<path fill="none" stroke="black" d="M2549.35,-215.7C2549.35,-207.98 2549.35,-198.71 2549.35,-190.11"/>
<polygon fill="black" stroke="black" points="2552.85,-190.1 2549.35,-180.1 2545.85,-190.1 2552.85,-190.1"/>
</g>
<!-- n38318601 -->
<g id="node27" class="node">
<title>n38318601</title>
<ellipse fill="none" stroke="black" cx="2503.35" cy="-306" rx="68.49" ry="18"/>
<text text-anchor="start" x="2458.85" y="-303.3" font-family="Times,serif" font-size="14.00">animal(</text>
<text text-anchor="start" x="2512.85" y="-303.3" font-family="Times,serif" font-style="italic" font-size="14.00">Kim</text>
<text text-anchor="start" x="2541.85" y="-303.3" font-family="Times,serif" font-size="14.00">)</text>
</g>
<!-- n87167509 -->
<g id="node28" class="node">
<title>n87167509</title>
<ellipse fill="none" stroke="black" cx="2781.35" cy="-306" rx="191.97" ry="18"/>
<text text-anchor="start" x="2641.85" y="-303.3" font-family="Times,serif" font-size="14.00">loves(</text>
<text text-anchor="start" x="2684.85" y="-303.3" font-family="Times,serif" font-style="italic" font-size="14.00">SKF0</text>
<text text-anchor="start" x="2724.85" y="-303.3" font-family="Times,serif" font-size="14.00">(</text>
<text text-anchor="start" x="2730.85" y="-303.3" font-family="Times,serif" font-style="italic" font-size="14.00">Kim</text>
<text text-anchor="start" x="2759.85" y="-303.3" font-family="Times,serif" font-size="14.00">), </text>
<text text-anchor="start" x="2774.85" y="-303.3" font-family="Times,serif" font-style="italic" font-size="14.00">Kim</text>
<text text-anchor="start" x="2803.85" y="-303.3" font-family="Times,serif" font-size="14.00">), !friendly(</text>
<text text-anchor="start" x="2885.85" y="-303.3" font-family="Times,serif" font-style="italic" font-size="14.00">Kim</text>
<text text-anchor="start" x="2914.85" y="-303.3" font-family="Times,serif" font-size="14.00">)</text>
</g>
<!-- n87167509&#45;&gt;SUBSn85094125n87167509 -->
<g id="edge7" class="edge">
<title>n87167509&#45;&gt;SUBSn85094125n87167509</title>
<path fill="none" stroke="black" d="M2727.25,-288.68C2679.99,-274.42 2613.33,-254.3 2576.49,-243.19"/>
</g>
<!-- n83725068 -->
<g id="node30" class="node">
<title>n83725068</title>
<ellipse fill="none" stroke="black" cx="2332.35" cy="-306" rx="85.29" ry="18"/>
<text text-anchor="start" x="2274.85" y="-303.3" font-family="Times,serif" font-size="14.00">tail(</text>
<text text-anchor="start" x="2303.85" y="-303.3" font-family="Times,serif" font-style="italic" font-size="14.00">SKF1</text>
<text text-anchor="start" x="2343.85" y="-303.3" font-family="Times,serif" font-size="14.00">(</text>
<text text-anchor="start" x="2349.85" y="-303.3" font-family="Times,serif" font-style="italic" font-size="14.00">Kim</text>
<text text-anchor="start" x="2378.85" y="-303.3" font-family="Times,serif" font-size="14.00">))</text>
</g>
<!-- SUBSn00892776n54886249&#45;&gt;n83725068 -->
<g id="edge8" class="edge">
<title>SUBSn00892776n54886249&#45;&gt;n83725068</title>
<path fill="none" stroke="black" d="M2297.72,-359.7C2303.07,-351.56 2309.56,-341.69 2315.46,-332.7"/>
<polygon fill="black" stroke="black" points="2318.55,-334.38 2321.11,-324.1 2312.7,-330.54 2318.55,-334.38"/>
</g>
<!-- n21148491 -->
<g id="node39" class="node">
<title>n21148491</title>
<ellipse fill="none" stroke="black" cx="94.35" cy="-306" rx="69.59" ry="18"/>
<text text-anchor="start" x="48.85" y="-303.3" font-family="Times,serif" font-size="14.00">person(</text>
<text text-anchor="start" x="103.85" y="-303.3" font-family="Times,serif" font-style="italic" font-size="14.00">SK0</text>
<text text-anchor="start" x="133.85" y="-303.3" font-family="Times,serif" font-size="14.00">)</text>
</g>
<!-- SUBSn56512424n71455013&#45;&gt;n21148491 -->
<g id="edge49" class="edge">
<title>SUBSn56512424n71455013&#45;&gt;n21148491</title>
<path fill="none" stroke="black" d="M94.35,-359.7C94.35,-351.98 94.35,-342.71 94.35,-334.11"/>
<polygon fill="black" stroke="black" points="97.85,-334.1 94.35,-324.1 90.85,-334.1 97.85,-334.1"/>
</g>
<!-- n62642613 -->
<g id="node40" class="node">
<title>n62642613</title>
<ellipse fill="none" stroke="black" cx="647.35" cy="-162" rx="72.59" ry="18"/>
<text text-anchor="start" x="599.35" y="-159.3" font-family="Times,serif" font-size="14.00">animal(</text>
<text text-anchor="start" x="653.35" y="-159.3" font-family="Times,serif" font-style="italic" font-size="14.00">Mike</text>
<text text-anchor="start" x="689.35" y="-159.3" font-family="Times,serif" font-size="14.00">)</text>
</g>
<!-- SUBSn60438415n60316782&#45;&gt;n62642613 -->
<g id="edge17" class="edge">
<title>SUBSn60438415n60316782&#45;&gt;n62642613</title>
<path fill="none" stroke="black" d="M647.35,-215.7C647.35,-207.98 647.35,-198.71 647.35,-190.11"/>
<polygon fill="black" stroke="black" points="650.85,-190.1 647.35,-180.1 643.85,-190.1 650.85,-190.1"/>
</g>
<!-- n41457650 -->
<g id="node37" class="node">
<title>n41457650</title>
<ellipse fill="none" stroke="black" cx="1137.35" cy="-162" rx="172.77" ry="18"/>
<text text-anchor="start" x="1012.35" y="-159.3" font-family="Times,serif" font-size="14.00">!friendly(</text>
<text text-anchor="start" x="1079.35" y="-159.3" font-family="Times,serif" font-style="italic" font-size="14.00">Kim</text>
<text text-anchor="start" x="1108.35" y="-159.3" font-family="Times,serif" font-size="14.00">), animal(</text>
<text text-anchor="start" x="1176.35" y="-159.3" font-family="Times,serif" font-style="italic" font-size="14.00">SKF0</text>
<text text-anchor="start" x="1216.35" y="-159.3" font-family="Times,serif" font-size="14.00">(</text>
<text text-anchor="start" x="1222.35" y="-159.3" font-family="Times,serif" font-style="italic" font-size="14.00">Kim</text>
<text text-anchor="start" x="1251.35" y="-159.3" font-family="Times,serif" font-size="14.00">))</text>
</g>
<!-- SUBSn71520506n00892776&#45;&gt;n41457650 -->
<g id="edge13" class="edge">
<title>SUBSn71520506n00892776&#45;&gt;n41457650</title>
<path fill="none" stroke="black" d="M1170.48,-215.7C1165.36,-207.56 1159.16,-197.69 1153.51,-188.7"/>
<polygon fill="black" stroke="black" points="1156.39,-186.71 1148.11,-180.1 1150.46,-190.43 1156.39,-186.71"/>
</g>
<!-- SUBSn52154598n00892776&#45;&gt;n87167509 -->
<g id="edge57" class="edge">
<title>SUBSn52154598n00892776&#45;&gt;n87167509</title>
<path fill="none" stroke="black" d="M2781.35,-359.7C2781.35,-351.98 2781.35,-342.71 2781.35,-334.11"/>
<polygon fill="black" stroke="black" points="2784.85,-334.1 2781.35,-324.1 2777.85,-334.1 2784.85,-334.1"/>
</g>
<!-- n56363524 -->
<g id="node45" class="node">
<title>n56363524</title>
<ellipse fill="none" stroke="black" cx="1676.35" cy="-18" rx="101.28" ry="18"/>
<text text-anchor="start" x="1606.35" y="-15.3" font-family="Times,serif" font-size="14.00">animal(</text>
<text text-anchor="start" x="1660.35" y="-15.3" font-family="Times,serif" font-style="italic" font-size="14.00">SKF0</text>
<text text-anchor="start" x="1700.35" y="-15.3" font-family="Times,serif" font-size="14.00">(</text>
<text text-anchor="start" x="1706.35" y="-15.3" font-family="Times,serif" font-style="italic" font-size="14.00">Kim</text>
<text text-anchor="start" x="1735.35" y="-15.3" font-family="Times,serif" font-size="14.00">))</text>
</g>
<!-- SUBSn41457650n85094125&#45;&gt;n56363524 -->
<g id="edge27" class="edge">
<title>SUBSn41457650n85094125&#45;&gt;n56363524</title>
<path fill="none" stroke="black" d="M1676.35,-71.7C1676.35,-63.98 1676.35,-54.71 1676.35,-46.11"/>
<polygon fill="black" stroke="black" points="1679.85,-46.1 1676.35,-36.1 1672.85,-46.1 1679.85,-46.1"/>
</g>
<!-- n41457650&#45;&gt;SUBSn41457650n85094125 -->
<g id="edge52" class="edge">
<title>n41457650&#45;&gt;SUBSn41457650n85094125</title>
<path fill="none" stroke="black" d="M1240.96,-147.54C1368.02,-131.04 1575.59,-104.09 1649.32,-94.51"/>
</g>
<!-- n52273473&#45;&gt;SUBSn85094125n52273473 -->
<g id="edge14" class="edge">
<title>n52273473&#45;&gt;SUBSn85094125n52273473</title>
<path fill="none" stroke="black" d="M1713.06,-290.83C1821.5,-274.61 1992.69,-249.01 2058.92,-239.1"/>
</g>
<!-- SUBSn86035812n56512424&#45;&gt;n60316782 -->
<g id="edge37" class="edge">
<title>SUBSn86035812n56512424&#45;&gt;n60316782</title>
<path fill="none" stroke="black" d="M505.68,-359.7C502.64,-351.81 498.97,-342.3 495.59,-333.55"/>
<polygon fill="black" stroke="black" points="498.82,-332.17 491.95,-324.1 492.28,-334.69 498.82,-332.17"/>
</g>
<!-- n71520506&#45;&gt;SUBSn71520506n00892776 -->
<g id="edge21" class="edge">
<title>n71520506&#45;&gt;SUBSn71520506n00892776</title>
<path fill="none" stroke="black" d="M1181.35,-287.7C1181.35,-276.85 1181.35,-262.92 1181.35,-252.1"/>
</g>
<!-- n71520506&#45;&gt;SUBSn71520506n85094125 -->
<g id="edge51" class="edge">
<title>n71520506&#45;&gt;SUBSn71520506n85094125</title>
<path fill="none" stroke="black" d="M1250.26,-289.03C1308.06,-275.63 1388.91,-256.89 1438.61,-245.37"/>
</g>
<!-- SUBSn52154598n85094125&#45;&gt;n01180608 -->
<g id="edge19" class="edge">
<title>SUBSn52154598n85094125&#45;&gt;n01180608</title>
<path fill="none" stroke="black" d="M2951.35,-215.7C2951.35,-207.98 2951.35,-198.71 2951.35,-190.11"/>
<polygon fill="black" stroke="black" points="2954.85,-190.1 2951.35,-180.1 2947.85,-190.1 2954.85,-190.1"/>
</g>
<!-- n55470749 -->
<g id="node50" class="node">
<title>n55470749</title>
<ellipse fill="none" stroke="black" cx="1483.35" cy="-162" rx="154.87" ry="18"/>
<text text-anchor="start" x="1372.35" y="-159.3" font-family="Times,serif" font-size="14.00">animal(</text>
<text text-anchor="start" x="1426.35" y="-159.3" font-family="Times,serif" font-style="italic" font-size="14.00">SKF0</text>
<text text-anchor="start" x="1466.35" y="-159.3" font-family="Times,serif" font-size="14.00">(</text>
<text text-anchor="start" x="1472.35" y="-159.3" font-family="Times,serif" font-style="italic" font-size="14.00">Kim</text>
<text text-anchor="start" x="1501.35" y="-159.3" font-family="Times,serif" font-size="14.00">)), !dog(</text>
<text text-anchor="start" x="1559.35" y="-159.3" font-family="Times,serif" font-style="italic" font-size="14.00">Kim</text>
<text text-anchor="start" x="1588.35" y="-159.3" font-family="Times,serif" font-size="14.00">)</text>
</g>
<!-- SUBSn71520506n85094125&#45;&gt;n55470749 -->
<g id="edge40" class="edge">
<title>SUBSn71520506n85094125&#45;&gt;n55470749</title>
<path fill="none" stroke="black" d="M1483.35,-215.7C1483.35,-207.98 1483.35,-198.71 1483.35,-190.11"/>
<polygon fill="black" stroke="black" points="1486.85,-190.1 1483.35,-180.1 1479.85,-190.1 1486.85,-190.1"/>
</g>
<!-- SUBSn00892776n66293174&#45;&gt;n38318601 -->
<g id="edge42" class="edge">
<title>SUBSn00892776n66293174&#45;&gt;n38318601</title>
<path fill="none" stroke="black" d="M2492.06,-359.7C2493.71,-351.98 2495.7,-342.71 2497.54,-334.11"/>
<polygon fill="black" stroke="black" points="2501.02,-334.62 2499.69,-324.1 2494.17,-333.15 2501.02,-334.62"/>
</g>
</g>
</svg>
