<?xml version="1.0" encoding="UTF-8" standalone="no"?>
<!DOCTYPE svg PUBLIC "-//W3C//DTD SVG 1.1//EN"
 "http://www.w3.org/Graphics/SVG/1.1/DTD/svg11.dtd">
<!-- Generated by graphviz version 2.43.0 (0)
 -->
<!-- Title: g Pages: 1 -->
<svg width="1909pt" height="332pt"
 viewBox="0.00 0.00 1908.69 332.00" xmlns="http://www.w3.org/2000/svg" xmlns:xlink="http://www.w3.org/1999/xlink">
<g id="graph0" class="graph" transform="scale(1 1) rotate(0) translate(4 328)">
<title>g</title>
<polygon fill="white" stroke="transparent" points="-4,4 -4,-328 1904.69,-328 1904.69,4 -4,4"/>
<!-- n73751725 -->
<g id="node1" class="node">
<title>n73751725</title>
<polygon fill="none" stroke="black" points="1214.69,-324 1109.69,-324 1109.69,-288 1214.69,-288 1214.69,-324"/>
<text text-anchor="start" x="1117.69" y="-303.3" font-family="Times,serif" font-size="14.00">before(</text>
<text text-anchor="start" x="1169.69" y="-303.3" font-family="Times,serif" font-style="italic" font-size="14.00">A</text>
<text text-anchor="start" x="1179.69" y="-303.3" font-family="Times,serif" font-size="14.00">, </text>
<text text-anchor="start" x="1189.69" y="-303.3" font-family="Times,serif" font-style="italic" font-size="14.00">B</text>
<text text-anchor="start" x="1200.69" y="-303.3" font-family="Times,serif" font-size="14.00">)</text>
</g>
<!-- SUBSn75159759n73751725 -->
<g id="node16" class="node">
<title>SUBSn75159759n73751725</title>
<text text-anchor="start" x="1045.19" y="-230.3" font-family="Times,serif" font-size="14.00">{t10: A, t20: B}</text>
</g>
<!-- n73751725&#45;&gt;SUBSn75159759n73751725 -->
<g id="edge18" class="edge">
<title>n73751725&#45;&gt;SUBSn75159759n73751725</title>
<path fill="none" stroke="black" d="M1147.36,-287.7C1138.06,-276.85 1126.12,-262.92 1116.85,-252.1"/>
</g>
<!-- n19171416 -->
<g id="node2" class="node">
<title>n19171416</title>
<polygon fill="none" stroke="black" points="656.69,-324 589.69,-324 589.69,-288 656.69,-288 656.69,-324"/>
<text text-anchor="start" x="597.69" y="-303.3" font-family="Times,serif" font-size="14.00">rain(</text>
<text text-anchor="start" x="631.69" y="-303.3" font-family="Times,serif" font-style="italic" font-size="14.00">B</text>
<text text-anchor="start" x="642.69" y="-303.3" font-family="Times,serif" font-size="14.00">)</text>
</g>
<!-- SUBSn19171416n32790863 -->
<g id="node15" class="node">
<title>SUBSn19171416n32790863</title>
<text text-anchor="start" x="238.69" y="-230.3" font-family="Times,serif" font-size="14.00">{t0: B}</text>
</g>
<!-- n19171416&#45;&gt;SUBSn19171416n32790863 -->
<g id="edge17" class="edge">
<title>n19171416&#45;&gt;SUBSn19171416n32790863</title>
<path fill="none" stroke="black" d="M589.51,-298.41C521.54,-285.12 368.6,-255.22 299.83,-241.77"/>
</g>
<!-- SUBSn19171416n75159759 -->
<g id="node22" class="node">
<title>SUBSn19171416n75159759</title>
<text text-anchor="start" x="781.19" y="-230.3" font-family="Times,serif" font-size="14.00">{t10: B}</text>
</g>
<!-- n19171416&#45;&gt;SUBSn19171416n75159759 -->
<g id="edge13" class="edge">
<title>n19171416&#45;&gt;SUBSn19171416n75159759</title>
<path fill="none" stroke="black" d="M656.98,-292.49C689.58,-280.41 738.89,-262.15 773.15,-249.46"/>
</g>
<!-- n37613220 -->
<g id="node3" class="node">
<title>n37613220</title>
<polygon fill="none" stroke="black" points="437.19,-324 371.19,-324 371.19,-288 437.19,-288 437.19,-324"/>
<text text-anchor="start" x="379.19" y="-303.3" font-family="Times,serif" font-size="14.00">rain(</text>
<text text-anchor="start" x="413.19" y="-303.3" font-family="Times,serif" font-style="italic" font-size="14.00">A</text>
<text text-anchor="start" x="423.19" y="-303.3" font-family="Times,serif" font-size="14.00">)</text>
</g>
<!-- SUBSn75159759n37613220 -->
<g id="node10" class="node">
<title>SUBSn75159759n37613220</title>
<text text-anchor="start" x="445.69" y="-230.3" font-family="Times,serif" font-size="14.00">{t10: A}</text>
</g>
<!-- n37613220&#45;&gt;SUBSn75159759n37613220 -->
<g id="edge4" class="edge">
<title>n37613220&#45;&gt;SUBSn75159759n37613220</title>
<path fill="none" stroke="black" d="M421.99,-287.7C433.15,-276.85 447.48,-262.92 458.6,-252.1"/>
</g>
<!-- SUBSn32790863n37613220 -->
<g id="node18" class="node">
<title>SUBSn32790863n37613220</title>
<text text-anchor="start" x="152.19" y="-230.3" font-family="Times,serif" font-size="14.00">{t0: A}</text>
</g>
<!-- n37613220&#45;&gt;SUBSn32790863n37613220 -->
<g id="edge15" class="edge">
<title>n37613220&#45;&gt;SUBSn32790863n37613220</title>
<path fill="none" stroke="black" d="M371.17,-296.45C334.3,-286.66 273,-269.7 221.19,-252 218.31,-251.01 215.33,-249.95 212.35,-248.84"/>
</g>
<!-- n29340794 -->
<g id="node4" class="node">
<title>n29340794</title>
<polygon fill="none" stroke="black" points="1717.19,-324 1611.19,-324 1611.19,-288 1717.19,-288 1717.19,-324"/>
<text text-anchor="start" x="1619.19" y="-303.3" font-family="Times,serif" font-size="14.00">before(</text>
<text text-anchor="start" x="1671.19" y="-303.3" font-family="Times,serif" font-style="italic" font-size="14.00">B</text>
<text text-anchor="start" x="1682.19" y="-303.3" font-family="Times,serif" font-size="14.00">, </text>
<text text-anchor="start" x="1692.19" y="-303.3" font-family="Times,serif" font-style="italic" font-size="14.00">C</text>
<text text-anchor="start" x="1703.19" y="-303.3" font-family="Times,serif" font-size="14.00">)</text>
</g>
<!-- SUBSn29340794n75159759 -->
<g id="node11" class="node">
<title>SUBSn29340794n75159759</title>
<text text-anchor="start" x="1535.69" y="-230.3" font-family="Times,serif" font-size="14.00">{t10: B, t20: C}</text>
</g>
<!-- n29340794&#45;&gt;SUBSn29340794n75159759 -->
<g id="edge1" class="edge">
<title>n29340794&#45;&gt;SUBSn29340794n75159759</title>
<path fill="none" stroke="black" d="M1646.64,-287.7C1635.64,-276.85 1621.51,-262.92 1610.54,-252.1"/>
</g>
<!-- SUBSn29340794n64753550 -->
<g id="node23" class="node">
<title>SUBSn29340794n64753550</title>
<text text-anchor="start" x="1242.19" y="-86.3" font-family="Times,serif" font-size="14.00">{t20: C}</text>
</g>
<!-- n29340794&#45;&gt;SUBSn29340794n64753550 -->
<g id="edge14" class="edge">
<title>n29340794&#45;&gt;SUBSn29340794n64753550</title>
<path fill="none" stroke="black" d="M1679.34,-287.75C1705.66,-255.65 1753.63,-186.18 1716.19,-144 1689.55,-113.98 1415.7,-97.83 1312.37,-92.77"/>
</g>
<!-- n32790863 -->
<g id="node5" class="node">
<title>n32790863</title>
<polygon fill="none" stroke="black" points="315.69,-324 128.69,-324 128.69,-288 315.69,-288 315.69,-324"/>
<text text-anchor="start" x="136.69" y="-303.3" font-family="Times,serif" font-size="14.00">!sprinkler(</text>
<text text-anchor="start" x="212.69" y="-303.3" font-family="Times,serif" font-weight="bold" font-size="14.00">t0</text>
<text text-anchor="start" x="229.69" y="-303.3" font-family="Times,serif" font-size="14.00">), !rain(</text>
<text text-anchor="start" x="284.69" y="-303.3" font-family="Times,serif" font-weight="bold" font-size="14.00">t0</text>
<text text-anchor="start" x="301.69" y="-303.3" font-family="Times,serif" font-size="14.00">)</text>
</g>
<!-- n32790863&#45;&gt;SUBSn19171416n32790863 -->
<g id="edge11" class="edge">
<title>n32790863&#45;&gt;SUBSn19171416n32790863</title>
<path fill="none" stroke="black" d="M232.82,-287.7C239.49,-276.85 248.04,-262.92 254.69,-252.1"/>
</g>
<!-- n32790863&#45;&gt;SUBSn32790863n37613220 -->
<g id="edge8" class="edge">
<title>n32790863&#45;&gt;SUBSn32790863n37613220</title>
<path fill="none" stroke="black" d="M211.32,-287.7C204.5,-276.85 195.74,-262.92 188.95,-252.1"/>
</g>
<!-- n35860815 -->
<g id="node6" class="node">
<title>n35860815</title>
<polygon fill="none" stroke="black" points="1370.69,-324 1263.69,-324 1263.69,-288 1370.69,-288 1370.69,-324"/>
<text text-anchor="start" x="1271.69" y="-303.3" font-family="Times,serif" font-size="14.00">before(</text>
<text text-anchor="start" x="1323.69" y="-303.3" font-family="Times,serif" font-style="italic" font-size="14.00">C</text>
<text text-anchor="start" x="1334.69" y="-303.3" font-family="Times,serif" font-size="14.00">, </text>
<text text-anchor="start" x="1344.69" y="-303.3" font-family="Times,serif" font-style="italic" font-size="14.00">D</text>
<text text-anchor="start" x="1356.69" y="-303.3" font-family="Times,serif" font-size="14.00">)</text>
</g>
<!-- SUBSn35860815n75159759 -->
<g id="node12" class="node">
<title>SUBSn35860815n75159759</title>
<text text-anchor="start" x="1259.69" y="-230.3" font-family="Times,serif" font-size="14.00">{t10: C, t20: D}</text>
</g>
<!-- n35860815&#45;&gt;SUBSn35860815n75159759 -->
<g id="edge10" class="edge">
<title>n35860815&#45;&gt;SUBSn35860815n75159759</title>
<path fill="none" stroke="black" d="M1317.19,-287.7C1317.19,-276.85 1317.19,-262.92 1317.19,-252.1"/>
</g>
<!-- n46030192 -->
<g id="node7" class="node">
<title>n46030192</title>
<polygon fill="none" stroke="black" points="1809.19,-324 1735.19,-324 1735.19,-288 1809.19,-288 1809.19,-324"/>
<text text-anchor="start" x="1743.19" y="-303.3" font-family="Times,serif" font-size="14.00">!rain(</text>
<text text-anchor="start" x="1783.19" y="-303.3" font-family="Times,serif" font-style="italic" font-size="14.00">D</text>
<text text-anchor="start" x="1795.19" y="-303.3" font-family="Times,serif" font-size="14.00">)</text>
</g>
<!-- n06896241 -->
<g id="node8" class="node">
<title>n06896241</title>
<polygon fill="none" stroke="black" points="1900.69,-324 1827.69,-324 1827.69,-288 1900.69,-288 1900.69,-324"/>
<text text-anchor="start" x="1835.69" y="-303.3" font-family="Times,serif" font-size="14.00">!rain(</text>
<text text-anchor="start" x="1875.69" y="-303.3" font-family="Times,serif" font-style="italic" font-size="14.00">C</text>
<text text-anchor="start" x="1886.69" y="-303.3" font-family="Times,serif" font-size="14.00">)</text>
</g>
<!-- n75159759 -->
<g id="node9" class="node">
<title>n75159759</title>
<polygon fill="none" stroke="black" points="1091.69,-324 748.69,-324 748.69,-288 1091.69,-288 1091.69,-324"/>
<text text-anchor="start" x="756.69" y="-303.3" font-family="Times,serif" font-size="14.00">!sprinkler(</text>
<text text-anchor="start" x="832.69" y="-303.3" font-family="Times,serif" font-weight="bold" font-size="14.00">t20</text>
<text text-anchor="start" x="859.69" y="-303.3" font-family="Times,serif" font-size="14.00">), !before(</text>
<text text-anchor="start" x="931.69" y="-303.3" font-family="Times,serif" font-weight="bold" font-size="14.00">t10</text>
<text text-anchor="start" x="958.69" y="-303.3" font-family="Times,serif" font-size="14.00">, </text>
<text text-anchor="start" x="968.69" y="-303.3" font-family="Times,serif" font-weight="bold" font-size="14.00">t20</text>
<text text-anchor="start" x="995.69" y="-303.3" font-family="Times,serif" font-size="14.00">), !rain(</text>
<text text-anchor="start" x="1050.69" y="-303.3" font-family="Times,serif" font-weight="bold" font-size="14.00">t10</text>
<text text-anchor="start" x="1077.69" y="-303.3" font-family="Times,serif" font-size="14.00">)</text>
</g>
<!-- n75159759&#45;&gt;SUBSn75159759n37613220 -->
<g id="edge23" class="edge">
<title>n75159759&#45;&gt;SUBSn75159759n37613220</title>
<path fill="none" stroke="black" d="M812.15,-287.97C715.89,-272.79 580.41,-251.43 514.81,-241.09"/>
</g>
<!-- n75159759&#45;&gt;SUBSn29340794n75159759 -->
<g id="edge5" class="edge">
<title>n75159759&#45;&gt;SUBSn29340794n75159759</title>
<path fill="none" stroke="black" d="M1083.97,-287.97C1226.37,-273.15 1425.4,-252.45 1527.33,-241.85"/>
</g>
<!-- n75159759&#45;&gt;SUBSn35860815n75159759 -->
<g id="edge12" class="edge">
<title>n75159759&#45;&gt;SUBSn35860815n75159759</title>
<path fill="none" stroke="black" d="M1016.8,-287.97C1089.68,-275.12 1187.68,-257.84 1251.63,-246.56"/>
</g>
<!-- n75159759&#45;&gt;SUBSn75159759n73751725 -->
<g id="edge22" class="edge">
<title>n75159759&#45;&gt;SUBSn75159759n73751725</title>
<path fill="none" stroke="black" d="M964.72,-287.88C993.02,-276.99 1029.54,-262.95 1057.82,-252.07"/>
</g>
<!-- n75159759&#45;&gt;SUBSn19171416n75159759 -->
<g id="edge21" class="edge">
<title>n75159759&#45;&gt;SUBSn19171416n75159759</title>
<path fill="none" stroke="black" d="M893.77,-287.88C877.04,-277.03 855.47,-263.05 838.72,-252.19"/>
</g>
<!-- n22158009 -->
<g id="node21" class="node">
<title>n22158009</title>
<ellipse fill="none" stroke="black" cx="476.19" cy="-162" rx="158.67" ry="18"/>
<text text-anchor="start" x="362.19" y="-159.3" font-family="Times,serif" font-size="14.00">!sprinkler(</text>
<text text-anchor="start" x="438.19" y="-159.3" font-family="Times,serif" font-weight="bold" font-size="14.00">t20</text>
<text text-anchor="start" x="465.19" y="-159.3" font-family="Times,serif" font-size="14.00">), !before(</text>
<text text-anchor="start" x="537.19" y="-159.3" font-family="Times,serif" font-style="italic" font-size="14.00">A</text>
<text text-anchor="start" x="547.19" y="-159.3" font-family="Times,serif" font-size="14.00">, </text>
<text text-anchor="start" x="557.19" y="-159.3" font-family="Times,serif" font-weight="bold" font-size="14.00">t20</text>
<text text-anchor="start" x="584.19" y="-159.3" font-family="Times,serif" font-size="14.00">)</text>
</g>
<!-- SUBSn75159759n37613220&#45;&gt;n22158009 -->
<g id="edge9" class="edge">
<title>SUBSn75159759n37613220&#45;&gt;n22158009</title>
<path fill="none" stroke="black" d="M476.19,-215.7C476.19,-207.98 476.19,-198.71 476.19,-190.11"/>
<polygon fill="black" stroke="black" points="479.69,-190.1 476.19,-180.1 472.69,-190.1 479.69,-190.1"/>
</g>
<!-- n45917411 -->
<g id="node13" class="node">
<title>n45917411</title>
<ellipse fill="none" stroke="black" cx="1593.19" cy="-162" rx="113.98" ry="18"/>
<text text-anchor="start" x="1513.69" y="-159.3" font-family="Times,serif" font-size="14.00">!sprinkler(</text>
<text text-anchor="start" x="1589.69" y="-159.3" font-family="Times,serif" font-style="italic" font-size="14.00">C</text>
<text text-anchor="start" x="1600.69" y="-159.3" font-family="Times,serif" font-size="14.00">), !rain(</text>
<text text-anchor="start" x="1655.69" y="-159.3" font-family="Times,serif" font-style="italic" font-size="14.00">B</text>
<text text-anchor="start" x="1666.69" y="-159.3" font-family="Times,serif" font-size="14.00">)</text>
</g>
<!-- SUBSn29340794n75159759&#45;&gt;n45917411 -->
<g id="edge7" class="edge">
<title>SUBSn29340794n75159759&#45;&gt;n45917411</title>
<path fill="none" stroke="black" d="M1593.19,-215.7C1593.19,-207.98 1593.19,-198.71 1593.19,-190.11"/>
<polygon fill="black" stroke="black" points="1596.69,-190.1 1593.19,-180.1 1589.69,-190.1 1596.69,-190.1"/>
</g>
<!-- n08103704 -->
<g id="node20" class="node">
<title>n08103704</title>
<ellipse fill="none" stroke="black" cx="1347.19" cy="-162" rx="114.28" ry="18"/>
<text text-anchor="start" x="1267.19" y="-159.3" font-family="Times,serif" font-size="14.00">!sprinkler(</text>
<text text-anchor="start" x="1343.19" y="-159.3" font-family="Times,serif" font-style="italic" font-size="14.00">D</text>
<text text-anchor="start" x="1355.19" y="-159.3" font-family="Times,serif" font-size="14.00">), !rain(</text>
<text text-anchor="start" x="1410.19" y="-159.3" font-family="Times,serif" font-style="italic" font-size="14.00">C</text>
<text text-anchor="start" x="1421.19" y="-159.3" font-family="Times,serif" font-size="14.00">)</text>
</g>
<!-- SUBSn35860815n75159759&#45;&gt;n08103704 -->
<g id="edge16" class="edge">
<title>SUBSn35860815n75159759&#45;&gt;n08103704</title>
<path fill="none" stroke="black" d="M1324.61,-215.7C1327.99,-207.81 1332.06,-198.3 1335.82,-189.55"/>
<polygon fill="black" stroke="black" points="1339.14,-190.67 1339.86,-180.1 1332.71,-187.92 1339.14,-190.67"/>
</g>
<!-- n15754634 -->
<g id="node14" class="node">
<title>n15754634</title>
<ellipse fill="none" stroke="black" cx="229.19" cy="-162" rx="70.69" ry="18"/>
<text text-anchor="start" x="182.69" y="-159.3" font-family="Times,serif" font-size="14.00">!sprinkler(</text>
<text text-anchor="start" x="258.69" y="-159.3" font-family="Times,serif" font-style="italic" font-size="14.00">B</text>
<text text-anchor="start" x="269.69" y="-159.3" font-family="Times,serif" font-size="14.00">)</text>
</g>
<!-- SUBSn19171416n32790863&#45;&gt;n15754634 -->
<g id="edge6" class="edge">
<title>SUBSn19171416n32790863&#45;&gt;n15754634</title>
<path fill="none" stroke="black" d="M256.29,-215.7C252.2,-207.73 247.24,-198.1 242.7,-189.26"/>
<polygon fill="black" stroke="black" points="245.68,-187.4 237.99,-180.1 239.45,-190.6 245.68,-187.4"/>
</g>
<!-- n78141413 -->
<g id="node17" class="node">
<title>n78141413</title>
<ellipse fill="none" stroke="black" cx="1102.19" cy="-162" rx="113.18" ry="18"/>
<text text-anchor="start" x="1023.19" y="-159.3" font-family="Times,serif" font-size="14.00">!sprinkler(</text>
<text text-anchor="start" x="1099.19" y="-159.3" font-family="Times,serif" font-style="italic" font-size="14.00">B</text>
<text text-anchor="start" x="1110.19" y="-159.3" font-family="Times,serif" font-size="14.00">), !rain(</text>
<text text-anchor="start" x="1165.19" y="-159.3" font-family="Times,serif" font-style="italic" font-size="14.00">A</text>
<text text-anchor="start" x="1175.19" y="-159.3" font-family="Times,serif" font-size="14.00">)</text>
</g>
<!-- SUBSn75159759n73751725&#45;&gt;n78141413 -->
<g id="edge2" class="edge">
<title>SUBSn75159759n73751725&#45;&gt;n78141413</title>
<path fill="none" stroke="black" d="M1102.19,-215.7C1102.19,-207.98 1102.19,-198.71 1102.19,-190.11"/>
<polygon fill="black" stroke="black" points="1105.69,-190.1 1102.19,-180.1 1098.69,-190.1 1105.69,-190.1"/>
</g>
<!-- n28843075 -->
<g id="node19" class="node">
<title>n28843075</title>
<ellipse fill="none" stroke="black" cx="70.19" cy="-162" rx="70.39" ry="18"/>
<text text-anchor="start" x="24.19" y="-159.3" font-family="Times,serif" font-size="14.00">!sprinkler(</text>
<text text-anchor="start" x="100.19" y="-159.3" font-family="Times,serif" font-style="italic" font-size="14.00">A</text>
<text text-anchor="start" x="110.19" y="-159.3" font-family="Times,serif" font-size="14.00">)</text>
</g>
<!-- SUBSn32790863n37613220&#45;&gt;n28843075 -->
<g id="edge3" class="edge">
<title>SUBSn32790863n37613220&#45;&gt;n28843075</title>
<path fill="none" stroke="black" d="M151.77,-215.88C137.26,-206.47 119.12,-194.71 103.63,-184.67"/>
<polygon fill="black" stroke="black" points="105.16,-181.49 94.86,-178.99 101.35,-187.36 105.16,-181.49"/>
</g>
<!-- n64753550 -->
<g id="node25" class="node">
<title>n64753550</title>
<ellipse fill="none" stroke="black" cx="812.19" cy="-162" rx="159.47" ry="18"/>
<text text-anchor="start" x="697.69" y="-159.3" font-family="Times,serif" font-size="14.00">!sprinkler(</text>
<text text-anchor="start" x="773.69" y="-159.3" font-family="Times,serif" font-weight="bold" font-size="14.00">t20</text>
<text text-anchor="start" x="800.69" y="-159.3" font-family="Times,serif" font-size="14.00">), !before(</text>
<text text-anchor="start" x="872.69" y="-159.3" font-family="Times,serif" font-style="italic" font-size="14.00">B</text>
<text text-anchor="start" x="883.69" y="-159.3" font-family="Times,serif" font-size="14.00">, </text>
<text text-anchor="start" x="893.69" y="-159.3" font-family="Times,serif" font-weight="bold" font-size="14.00">t20</text>
<text text-anchor="start" x="920.69" y="-159.3" font-family="Times,serif" font-size="14.00">)</text>
</g>
<!-- SUBSn19171416n75159759&#45;&gt;n64753550 -->
<g id="edge20" class="edge">
<title>SUBSn19171416n75159759&#45;&gt;n64753550</title>
<path fill="none" stroke="black" d="M812.19,-215.7C812.19,-207.98 812.19,-198.71 812.19,-190.11"/>
<polygon fill="black" stroke="black" points="815.69,-190.1 812.19,-180.1 808.69,-190.1 815.69,-190.1"/>
</g>
<!-- n73254006 -->
<g id="node24" class="node">
<title>n73254006</title>
<ellipse fill="none" stroke="black" cx="1273.19" cy="-18" rx="70.69" ry="18"/>
<text text-anchor="start" x="1226.69" y="-15.3" font-family="Times,serif" font-size="14.00">!sprinkler(</text>
<text text-anchor="start" x="1302.69" y="-15.3" font-family="Times,serif" font-style="italic" font-size="14.00">C</text>
<text text-anchor="start" x="1313.69" y="-15.3" font-family="Times,serif" font-size="14.00">)</text>
</g>
<!-- SUBSn29340794n64753550&#45;&gt;n73254006 -->
<g id="edge19" class="edge">
<title>SUBSn29340794n64753550&#45;&gt;n73254006</title>
<path fill="none" stroke="black" d="M1273.19,-71.7C1273.19,-63.98 1273.19,-54.71 1273.19,-46.11"/>
<polygon fill="black" stroke="black" points="1276.69,-46.1 1273.19,-36.1 1269.69,-46.1 1276.69,-46.1"/>
</g>
<!-- n64753550&#45;&gt;SUBSn29340794n64753550 -->
<g id="edge24" class="edge">
<title>n64753550&#45;&gt;SUBSn29340794n64753550</title>
<path fill="none" stroke="black" d="M903,-147.21C1003.59,-131.94 1161.19,-108.01 1233.95,-96.96"/>
</g>
</g>
</svg>
