<?xml version="1.0" encoding="UTF-8" standalone="no"?>
<!DOCTYPE svg PUBLIC "-//W3C//DTD SVG 1.1//EN"
 "http://www.w3.org/Graphics/SVG/1.1/DTD/svg11.dtd">
<!-- Generated by graphviz version 2.43.0 (0)
 -->
<!-- Title: g Pages: 1 -->
<svg width="1413pt" height="476pt"
 viewBox="0.00 0.00 1412.50 476.00" xmlns="http://www.w3.org/2000/svg" xmlns:xlink="http://www.w3.org/1999/xlink">
<g id="graph0" class="graph" transform="scale(1 1) rotate(0) translate(4 472)">
<title>g</title>
<polygon fill="white" stroke="transparent" points="-4,4 -4,-472 1408.5,-472 1408.5,4 -4,4"/>
<!-- n43360159 -->
<g id="node1" class="node">
<title>n43360159</title>
<polygon fill="none" stroke="black" points="272,-468 85,-468 85,-432 272,-432 272,-468"/>
<text text-anchor="start" x="93" y="-447.3" font-family="Times,serif" font-size="14.00">!sprinkler(</text>
<text text-anchor="start" x="169" y="-447.3" font-family="Times,serif" font-weight="bold" font-size="14.00">t0</text>
<text text-anchor="start" x="186" y="-447.3" font-family="Times,serif" font-size="14.00">), !rain(</text>
<text text-anchor="start" x="241" y="-447.3" font-family="Times,serif" font-weight="bold" font-size="14.00">t0</text>
<text text-anchor="start" x="258" y="-447.3" font-family="Times,serif" font-size="14.00">)</text>
</g>
<!-- SUBSn43360159n14204881 -->
<g id="node11" class="node">
<title>SUBSn43360159n14204881</title>
<text text-anchor="start" x="79" y="-374.3" font-family="Times,serif" font-size="14.00">{t0: B}</text>
</g>
<!-- n43360159&#45;&gt;SUBSn43360159n14204881 -->
<g id="edge10" class="edge">
<title>n43360159&#45;&gt;SUBSn43360159n14204881</title>
<path fill="none" stroke="black" d="M160.46,-431.7C149.14,-420.85 134.61,-406.92 123.34,-396.1"/>
</g>
<!-- SUBSn43360159n96829850 -->
<g id="node16" class="node">
<title>SUBSn43360159n96829850</title>
<text text-anchor="start" x="277.5" y="-374.3" font-family="Times,serif" font-size="14.00">{t0: A}</text>
</g>
<!-- n43360159&#45;&gt;SUBSn43360159n96829850 -->
<g id="edge4" class="edge">
<title>n43360159&#45;&gt;SUBSn43360159n96829850</title>
<path fill="none" stroke="black" d="M209.08,-431.88C228.45,-421.03 253.41,-407.05 272.8,-396.19"/>
</g>
<!-- n14204881 -->
<g id="node2" class="node">
<title>n14204881</title>
<polygon fill="none" stroke="black" points="67,-468 0,-468 0,-432 67,-432 67,-468"/>
<text text-anchor="start" x="8" y="-447.3" font-family="Times,serif" font-size="14.00">rain(</text>
<text text-anchor="start" x="42" y="-447.3" font-family="Times,serif" font-style="italic" font-size="14.00">B</text>
<text text-anchor="start" x="53" y="-447.3" font-family="Times,serif" font-size="14.00">)</text>
</g>
<!-- n14204881&#45;&gt;SUBSn43360159n14204881 -->
<g id="edge9" class="edge">
<title>n14204881&#45;&gt;SUBSn43360159n14204881</title>
<path fill="none" stroke="black" d="M51.3,-431.7C62.46,-420.85 76.79,-406.92 87.91,-396.1"/>
</g>
<!-- n64232209 -->
<g id="node3" class="node">
<title>n64232209</title>
<polygon fill="none" stroke="black" points="580.5,-468 506.5,-468 506.5,-432 580.5,-432 580.5,-468"/>
<text text-anchor="start" x="514.5" y="-447.3" font-family="Times,serif" font-size="14.00">!rain(</text>
<text text-anchor="start" x="554.5" y="-447.3" font-family="Times,serif" font-style="italic" font-size="14.00">D</text>
<text text-anchor="start" x="566.5" y="-447.3" font-family="Times,serif" font-size="14.00">)</text>
</g>
<!-- n45271974 -->
<g id="node4" class="node">
<title>n45271974</title>
<polygon fill="none" stroke="black" points="672,-468 599,-468 599,-432 672,-432 672,-468"/>
<text text-anchor="start" x="607" y="-447.3" font-family="Times,serif" font-size="14.00">!rain(</text>
<text text-anchor="start" x="647" y="-447.3" font-family="Times,serif" font-style="italic" font-size="14.00">C</text>
<text text-anchor="start" x="658" y="-447.3" font-family="Times,serif" font-size="14.00">)</text>
</g>
<!-- n82111349 -->
<g id="node5" class="node">
<title>n82111349</title>
<polygon fill="none" stroke="black" points="335.5,-180 269.5,-180 269.5,-144 335.5,-144 335.5,-180"/>
<text text-anchor="start" x="277.5" y="-159.3" font-family="Times,serif" font-size="14.00">rain(</text>
<text text-anchor="start" x="311.5" y="-159.3" font-family="Times,serif" font-style="italic" font-size="14.00">A</text>
<text text-anchor="start" x="321.5" y="-159.3" font-family="Times,serif" font-size="14.00">)</text>
</g>
<!-- SUBSn82111350n82111349 -->
<g id="node13" class="node">
<title>SUBSn82111350n82111349</title>
<text text-anchor="start" x="244" y="-86.3" font-family="Times,serif" font-size="14.00">{}</text>
</g>
<!-- n82111349&#45;&gt;SUBSn82111350n82111349 -->
<g id="edge8" class="edge">
<title>n82111349&#45;&gt;SUBSn82111350n82111349</title>
<path fill="none" stroke="black" d="M290.39,-143.7C282.79,-132.85 273.04,-118.92 265.47,-108.1"/>
</g>
<!-- n96829850 -->
<g id="node6" class="node">
<title>n96829850</title>
<polygon fill="none" stroke="black" points="488.5,-468 290.5,-468 290.5,-432 488.5,-432 488.5,-468"/>
<text text-anchor="start" x="298.5" y="-447.3" font-family="Times,serif" font-size="14.00">sprinkler(</text>
<text text-anchor="start" x="368.5" y="-447.3" font-family="Times,serif" font-style="italic" font-size="14.00">A</text>
<text text-anchor="start" x="378.5" y="-447.3" font-family="Times,serif" font-size="14.00">), sprinkler(</text>
<text text-anchor="start" x="463.5" y="-447.3" font-family="Times,serif" font-style="italic" font-size="14.00">B</text>
<text text-anchor="start" x="474.5" y="-447.3" font-family="Times,serif" font-size="14.00">)</text>
</g>
<!-- n96829850&#45;&gt;SUBSn43360159n96829850 -->
<g id="edge11" class="edge">
<title>n96829850&#45;&gt;SUBSn43360159n96829850</title>
<path fill="none" stroke="black" d="M368.24,-431.7C354.91,-420.85 337.8,-406.92 324.51,-396.1"/>
</g>
<!-- n07258590 -->
<g id="node7" class="node">
<title>n07258590</title>
<polygon fill="none" stroke="black" points="795,-468 690,-468 690,-432 795,-432 795,-468"/>
<text text-anchor="start" x="698" y="-447.3" font-family="Times,serif" font-size="14.00">before(</text>
<text text-anchor="start" x="750" y="-447.3" font-family="Times,serif" font-style="italic" font-size="14.00">A</text>
<text text-anchor="start" x="760" y="-447.3" font-family="Times,serif" font-size="14.00">, </text>
<text text-anchor="start" x="770" y="-447.3" font-family="Times,serif" font-style="italic" font-size="14.00">B</text>
<text text-anchor="start" x="781" y="-447.3" font-family="Times,serif" font-size="14.00">)</text>
</g>
<!-- n01787018 -->
<g id="node8" class="node">
<title>n01787018</title>
<polygon fill="none" stroke="black" points="920,-468 813,-468 813,-432 920,-432 920,-468"/>
<text text-anchor="start" x="821" y="-447.3" font-family="Times,serif" font-size="14.00">before(</text>
<text text-anchor="start" x="873" y="-447.3" font-family="Times,serif" font-style="italic" font-size="14.00">C</text>
<text text-anchor="start" x="884" y="-447.3" font-family="Times,serif" font-size="14.00">, </text>
<text text-anchor="start" x="894" y="-447.3" font-family="Times,serif" font-style="italic" font-size="14.00">D</text>
<text text-anchor="start" x="906" y="-447.3" font-family="Times,serif" font-size="14.00">)</text>
</g>
<!-- n83242311 -->
<g id="node9" class="node">
<title>n83242311</title>
<polygon fill="none" stroke="black" points="1281,-468 938,-468 938,-432 1281,-432 1281,-468"/>
<text text-anchor="start" x="946" y="-447.3" font-family="Times,serif" font-size="14.00">!rain(</text>
<text text-anchor="start" x="986" y="-447.3" font-family="Times,serif" font-weight="bold" font-size="14.00">t10</text>
<text text-anchor="start" x="1013" y="-447.3" font-family="Times,serif" font-size="14.00">), !before(</text>
<text text-anchor="start" x="1085" y="-447.3" font-family="Times,serif" font-weight="bold" font-size="14.00">t10</text>
<text text-anchor="start" x="1112" y="-447.3" font-family="Times,serif" font-size="14.00">, </text>
<text text-anchor="start" x="1122" y="-447.3" font-family="Times,serif" font-weight="bold" font-size="14.00">t20</text>
<text text-anchor="start" x="1149" y="-447.3" font-family="Times,serif" font-size="14.00">), !sprinkler(</text>
<text text-anchor="start" x="1240" y="-447.3" font-family="Times,serif" font-weight="bold" font-size="14.00">t20</text>
<text text-anchor="start" x="1267" y="-447.3" font-family="Times,serif" font-size="14.00">)</text>
</g>
<!-- n44097966 -->
<g id="node10" class="node">
<title>n44097966</title>
<polygon fill="none" stroke="black" points="1404.5,-468 1298.5,-468 1298.5,-432 1404.5,-432 1404.5,-468"/>
<text text-anchor="start" x="1306.5" y="-447.3" font-family="Times,serif" font-size="14.00">before(</text>
<text text-anchor="start" x="1358.5" y="-447.3" font-family="Times,serif" font-style="italic" font-size="14.00">B</text>
<text text-anchor="start" x="1369.5" y="-447.3" font-family="Times,serif" font-size="14.00">, </text>
<text text-anchor="start" x="1379.5" y="-447.3" font-family="Times,serif" font-style="italic" font-size="14.00">C</text>
<text text-anchor="start" x="1390.5" y="-447.3" font-family="Times,serif" font-size="14.00">)</text>
</g>
<!-- n59756060 -->
<g id="node18" class="node">
<title>n59756060</title>
<ellipse fill="none" stroke="black" cx="105.5" cy="-306" rx="70.69" ry="18"/>
<text text-anchor="start" x="59" y="-303.3" font-family="Times,serif" font-size="14.00">!sprinkler(</text>
<text text-anchor="start" x="135" y="-303.3" font-family="Times,serif" font-style="italic" font-size="14.00">B</text>
<text text-anchor="start" x="146" y="-303.3" font-family="Times,serif" font-size="14.00">)</text>
</g>
<!-- SUBSn43360159n14204881&#45;&gt;n59756060 -->
<g id="edge5" class="edge">
<title>SUBSn43360159n14204881&#45;&gt;n59756060</title>
<path fill="none" stroke="black" d="M105.5,-359.7C105.5,-351.98 105.5,-342.71 105.5,-334.11"/>
<polygon fill="black" stroke="black" points="109,-334.1 105.5,-324.1 102,-334.1 109,-334.1"/>
</g>
<!-- n82111350 -->
<g id="node12" class="node">
<title>n82111350</title>
<ellipse fill="none" stroke="black" cx="204.5" cy="-162" rx="46.59" ry="18"/>
<text text-anchor="start" x="176.5" y="-159.3" font-family="Times,serif" font-size="14.00">!rain(</text>
<text text-anchor="start" x="216.5" y="-159.3" font-family="Times,serif" font-style="italic" font-size="14.00">A</text>
<text text-anchor="start" x="226.5" y="-159.3" font-family="Times,serif" font-size="14.00">)</text>
</g>
<!-- n82111350&#45;&gt;SUBSn82111350n82111349 -->
<g id="edge7" class="edge">
<title>n82111350&#45;&gt;SUBSn82111350n82111349</title>
<path fill="none" stroke="black" d="M216.11,-144.41C223.7,-133.58 233.59,-119.45 241.29,-108.45"/>
</g>
<!-- n00000000 -->
<g id="node14" class="node">
<title>n00000000</title>
<ellipse fill="none" stroke="black" cx="253.5" cy="-18" rx="41.69" ry="18"/>
<text text-anchor="start" x="229.5" y="-14.3" font-family="Times,serif" font-size="14.00">FALSE</text>
</g>
<!-- SUBSn82111350n82111349&#45;&gt;n00000000 -->
<g id="edge1" class="edge">
<title>SUBSn82111350n82111349&#45;&gt;n00000000</title>
<path fill="none" stroke="black" d="M253.5,-71.7C253.5,-63.98 253.5,-54.71 253.5,-46.11"/>
<polygon fill="black" stroke="black" points="257,-46.1 253.5,-36.1 250,-46.1 257,-46.1"/>
</g>
<!-- n77644711 -->
<g id="node15" class="node">
<title>n77644711</title>
<ellipse fill="none" stroke="black" cx="303.5" cy="-306" rx="109.38" ry="18"/>
<text text-anchor="start" x="227.5" y="-303.3" font-family="Times,serif" font-size="14.00">!rain(</text>
<text text-anchor="start" x="267.5" y="-303.3" font-family="Times,serif" font-style="italic" font-size="14.00">A</text>
<text text-anchor="start" x="277.5" y="-303.3" font-family="Times,serif" font-size="14.00">), sprinkler(</text>
<text text-anchor="start" x="362.5" y="-303.3" font-family="Times,serif" font-style="italic" font-size="14.00">B</text>
<text text-anchor="start" x="373.5" y="-303.3" font-family="Times,serif" font-size="14.00">)</text>
</g>
<!-- SUBSn59756060n77644711 -->
<g id="node17" class="node">
<title>SUBSn59756060n77644711</title>
<text text-anchor="start" x="195" y="-230.3" font-family="Times,serif" font-size="14.00">{}</text>
</g>
<!-- n77644711&#45;&gt;SUBSn59756060n77644711 -->
<g id="edge6" class="edge">
<title>n77644711&#45;&gt;SUBSn59756060n77644711</title>
<path fill="none" stroke="black" d="M280.04,-288.41C264.6,-277.49 244.44,-263.24 228.83,-252.2"/>
</g>
<!-- SUBSn43360159n96829850&#45;&gt;n77644711 -->
<g id="edge12" class="edge">
<title>SUBSn43360159n96829850&#45;&gt;n77644711</title>
<path fill="none" stroke="black" d="M303.5,-359.7C303.5,-351.98 303.5,-342.71 303.5,-334.11"/>
<polygon fill="black" stroke="black" points="307,-334.1 303.5,-324.1 300,-334.1 307,-334.1"/>
</g>
<!-- SUBSn59756060n77644711&#45;&gt;n82111350 -->
<g id="edge2" class="edge">
<title>SUBSn59756060n77644711&#45;&gt;n82111350</title>
<path fill="none" stroke="black" d="M204.5,-215.7C204.5,-207.98 204.5,-198.71 204.5,-190.11"/>
<polygon fill="black" stroke="black" points="208,-190.1 204.5,-180.1 201,-190.1 208,-190.1"/>
</g>
<!-- n59756060&#45;&gt;SUBSn59756060n77644711 -->
<g id="edge3" class="edge">
<title>n59756060&#45;&gt;SUBSn59756060n77644711</title>
<path fill="none" stroke="black" d="M128.46,-288.76C144,-277.78 164.49,-263.29 180.28,-252.12"/>
</g>
</g>
</svg>
