<?xml version="1.0" encoding="UTF-8" standalone="no"?>
<!DOCTYPE svg PUBLIC "-//W3C//DTD SVG 1.1//EN"
 "http://www.w3.org/Graphics/SVG/1.1/DTD/svg11.dtd">
<!-- Generated by graphviz version 2.43.0 (0)
 -->
<!-- Title: g Pages: 1 -->
<svg width="1317pt" height="332pt"
 viewBox="0.00 0.00 1316.50 332.00" xmlns="http://www.w3.org/2000/svg" xmlns:xlink="http://www.w3.org/1999/xlink">
<g id="graph0" class="graph" transform="scale(1 1) rotate(0) translate(4 328)">
<title>g</title>
<polygon fill="white" stroke="transparent" points="-4,4 -4,-328 1312.5,-328 1312.5,4 -4,4"/>
<!-- n95564713 -->
<g id="node1" class="node">
<title>n95564713</title>
<polygon fill="none" stroke="black" points="106,-324 0,-324 0,-288 106,-288 106,-324"/>
<text text-anchor="start" x="8" y="-303.3" font-family="Times,serif" font-size="14.00">before(</text>
<text text-anchor="start" x="60" y="-303.3" font-family="Times,serif" font-style="italic" font-size="14.00">B</text>
<text text-anchor="start" x="71" y="-303.3" font-family="Times,serif" font-size="14.00">, </text>
<text text-anchor="start" x="81" y="-303.3" font-family="Times,serif" font-style="italic" font-size="14.00">C</text>
<text text-anchor="start" x="92" y="-303.3" font-family="Times,serif" font-size="14.00">)</text>
</g>
<!-- n57973910 -->
<g id="node2" class="node">
<title>n57973910</title>
<polygon fill="none" stroke="black" points="198,-324 124,-324 124,-288 198,-288 198,-324"/>
<text text-anchor="start" x="132" y="-303.3" font-family="Times,serif" font-size="14.00">!rain(</text>
<text text-anchor="start" x="172" y="-303.3" font-family="Times,serif" font-style="italic" font-size="14.00">D</text>
<text text-anchor="start" x="184" y="-303.3" font-family="Times,serif" font-size="14.00">)</text>
</g>
<!-- n16551906 -->
<g id="node3" class="node">
<title>n16551906</title>
<polygon fill="none" stroke="black" points="325.5,-180 258.5,-180 258.5,-144 325.5,-144 325.5,-180"/>
<text text-anchor="start" x="266.5" y="-159.3" font-family="Times,serif" font-size="14.00">rain(</text>
<text text-anchor="start" x="300.5" y="-159.3" font-family="Times,serif" font-style="italic" font-size="14.00">B</text>
<text text-anchor="start" x="311.5" y="-159.3" font-family="Times,serif" font-size="14.00">)</text>
</g>
<!-- SUBSn16551907n16551906 -->
<g id="node13" class="node">
<title>SUBSn16551907n16551906</title>
<text text-anchor="start" x="331.5" y="-86.3" font-family="Times,serif" font-size="14.00">{}</text>
</g>
<!-- n16551906&#45;&gt;SUBSn16551907n16551906 -->
<g id="edge6" class="edge">
<title>n16551906&#45;&gt;SUBSn16551907n16551906</title>
<path fill="none" stroke="black" d="M304.11,-143.7C311.71,-132.85 321.46,-118.92 329.03,-108.1"/>
</g>
<!-- n05956015 -->
<g id="node4" class="node">
<title>n05956015</title>
<polygon fill="none" stroke="black" points="647.5,-324 542.5,-324 542.5,-288 647.5,-288 647.5,-324"/>
<text text-anchor="start" x="550.5" y="-303.3" font-family="Times,serif" font-size="14.00">before(</text>
<text text-anchor="start" x="602.5" y="-303.3" font-family="Times,serif" font-style="italic" font-size="14.00">A</text>
<text text-anchor="start" x="612.5" y="-303.3" font-family="Times,serif" font-size="14.00">, </text>
<text text-anchor="start" x="622.5" y="-303.3" font-family="Times,serif" font-style="italic" font-size="14.00">B</text>
<text text-anchor="start" x="633.5" y="-303.3" font-family="Times,serif" font-size="14.00">)</text>
</g>
<!-- n36918661 -->
<g id="node5" class="node">
<title>n36918661</title>
<polygon fill="none" stroke="black" points="403.5,-324 216.5,-324 216.5,-288 403.5,-288 403.5,-324"/>
<text text-anchor="start" x="224.5" y="-303.3" font-family="Times,serif" font-size="14.00">!rain(</text>
<text text-anchor="start" x="264.5" y="-303.3" font-family="Times,serif" font-weight="bold" font-size="14.00">t0</text>
<text text-anchor="start" x="281.5" y="-303.3" font-family="Times,serif" font-size="14.00">), !sprinkler(</text>
<text text-anchor="start" x="372.5" y="-303.3" font-family="Times,serif" font-weight="bold" font-size="14.00">t0</text>
<text text-anchor="start" x="389.5" y="-303.3" font-family="Times,serif" font-size="14.00">)</text>
</g>
<!-- SUBSn13129479n36918661 -->
<g id="node11" class="node">
<title>SUBSn13129479n36918661</title>
<text text-anchor="start" x="364.5" y="-230.3" font-family="Times,serif" font-size="14.00">{t0: B}</text>
</g>
<!-- n36918661&#45;&gt;SUBSn13129479n36918661 -->
<g id="edge1" class="edge">
<title>n36918661&#45;&gt;SUBSn13129479n36918661</title>
<path fill="none" stroke="black" d="M330.02,-287.7C342.58,-276.85 358.7,-262.92 371.21,-252.1"/>
</g>
<!-- n38232274 -->
<g id="node6" class="node">
<title>n38232274</title>
<polygon fill="none" stroke="black" points="732,-324 666,-324 666,-288 732,-288 732,-324"/>
<text text-anchor="start" x="674" y="-303.3" font-family="Times,serif" font-size="14.00">rain(</text>
<text text-anchor="start" x="708" y="-303.3" font-family="Times,serif" font-style="italic" font-size="14.00">A</text>
<text text-anchor="start" x="718" y="-303.3" font-family="Times,serif" font-size="14.00">)</text>
</g>
<!-- n13129479 -->
<g id="node7" class="node">
<title>n13129479</title>
<polygon fill="none" stroke="black" points="524.5,-324 421.5,-324 421.5,-288 524.5,-288 524.5,-324"/>
<text text-anchor="start" x="429.5" y="-303.3" font-family="Times,serif" font-size="14.00">sprinkler(</text>
<text text-anchor="start" x="499.5" y="-303.3" font-family="Times,serif" font-style="italic" font-size="14.00">B</text>
<text text-anchor="start" x="510.5" y="-303.3" font-family="Times,serif" font-size="14.00">)</text>
</g>
<!-- n13129479&#45;&gt;SUBSn13129479n36918661 -->
<g id="edge2" class="edge">
<title>n13129479&#45;&gt;SUBSn13129479n36918661</title>
<path fill="none" stroke="black" d="M452.73,-287.7C440.02,-276.85 423.7,-262.92 411.04,-252.1"/>
</g>
<!-- n13920282 -->
<g id="node8" class="node">
<title>n13920282</title>
<polygon fill="none" stroke="black" points="1092.5,-324 749.5,-324 749.5,-288 1092.5,-288 1092.5,-324"/>
<text text-anchor="start" x="757.5" y="-303.3" font-family="Times,serif" font-size="14.00">!rain(</text>
<text text-anchor="start" x="797.5" y="-303.3" font-family="Times,serif" font-weight="bold" font-size="14.00">t10</text>
<text text-anchor="start" x="824.5" y="-303.3" font-family="Times,serif" font-size="14.00">), !sprinkler(</text>
<text text-anchor="start" x="915.5" y="-303.3" font-family="Times,serif" font-weight="bold" font-size="14.00">t20</text>
<text text-anchor="start" x="942.5" y="-303.3" font-family="Times,serif" font-size="14.00">), !before(</text>
<text text-anchor="start" x="1014.5" y="-303.3" font-family="Times,serif" font-weight="bold" font-size="14.00">t10</text>
<text text-anchor="start" x="1041.5" y="-303.3" font-family="Times,serif" font-size="14.00">, </text>
<text text-anchor="start" x="1051.5" y="-303.3" font-family="Times,serif" font-weight="bold" font-size="14.00">t20</text>
<text text-anchor="start" x="1078.5" y="-303.3" font-family="Times,serif" font-size="14.00">)</text>
</g>
<!-- n68516961 -->
<g id="node9" class="node">
<title>n68516961</title>
<polygon fill="none" stroke="black" points="1217.5,-324 1110.5,-324 1110.5,-288 1217.5,-288 1217.5,-324"/>
<text text-anchor="start" x="1118.5" y="-303.3" font-family="Times,serif" font-size="14.00">before(</text>
<text text-anchor="start" x="1170.5" y="-303.3" font-family="Times,serif" font-style="italic" font-size="14.00">C</text>
<text text-anchor="start" x="1181.5" y="-303.3" font-family="Times,serif" font-size="14.00">, </text>
<text text-anchor="start" x="1191.5" y="-303.3" font-family="Times,serif" font-style="italic" font-size="14.00">D</text>
<text text-anchor="start" x="1203.5" y="-303.3" font-family="Times,serif" font-size="14.00">)</text>
</g>
<!-- n86759120 -->
<g id="node10" class="node">
<title>n86759120</title>
<polygon fill="none" stroke="black" points="1308.5,-324 1235.5,-324 1235.5,-288 1308.5,-288 1308.5,-324"/>
<text text-anchor="start" x="1243.5" y="-303.3" font-family="Times,serif" font-size="14.00">!rain(</text>
<text text-anchor="start" x="1283.5" y="-303.3" font-family="Times,serif" font-style="italic" font-size="14.00">C</text>
<text text-anchor="start" x="1294.5" y="-303.3" font-family="Times,serif" font-size="14.00">)</text>
</g>
<!-- n16551907 -->
<g id="node12" class="node">
<title>n16551907</title>
<ellipse fill="none" stroke="black" cx="391" cy="-162" rx="47.39" ry="18"/>
<text text-anchor="start" x="362.5" y="-159.3" font-family="Times,serif" font-size="14.00">!rain(</text>
<text text-anchor="start" x="402.5" y="-159.3" font-family="Times,serif" font-style="italic" font-size="14.00">B</text>
<text text-anchor="start" x="413.5" y="-159.3" font-family="Times,serif" font-size="14.00">)</text>
</g>
<!-- SUBSn13129479n36918661&#45;&gt;n16551907 -->
<g id="edge5" class="edge">
<title>SUBSn13129479n36918661&#45;&gt;n16551907</title>
<path fill="none" stroke="black" d="M391,-215.7C391,-207.98 391,-198.71 391,-190.11"/>
<polygon fill="black" stroke="black" points="394.5,-190.1 391,-180.1 387.5,-190.1 394.5,-190.1"/>
</g>
<!-- n16551907&#45;&gt;SUBSn16551907n16551906 -->
<g id="edge4" class="edge">
<title>n16551907&#45;&gt;SUBSn16551907n16551906</title>
<path fill="none" stroke="black" d="M379.15,-144.41C371.41,-133.58 361.32,-119.45 353.46,-108.45"/>
</g>
<!-- n00000000 -->
<g id="node14" class="node">
<title>n00000000</title>
<ellipse fill="none" stroke="black" cx="341" cy="-18" rx="41.69" ry="18"/>
<text text-anchor="start" x="317" y="-14.3" font-family="Times,serif" font-size="14.00">FALSE</text>
</g>
<!-- SUBSn16551907n16551906&#45;&gt;n00000000 -->
<g id="edge3" class="edge">
<title>SUBSn16551907n16551906&#45;&gt;n00000000</title>
<path fill="none" stroke="black" d="M341,-71.7C341,-63.98 341,-54.71 341,-46.11"/>
<polygon fill="black" stroke="black" points="344.5,-46.1 341,-36.1 337.5,-46.1 344.5,-46.1"/>
</g>
</g>
</svg>
