<?xml version="1.0" encoding="UTF-8" standalone="no"?>
<!DOCTYPE svg PUBLIC "-//W3C//DTD SVG 1.1//EN"
 "http://www.w3.org/Graphics/SVG/1.1/DTD/svg11.dtd">
<!-- Generated by graphviz version 2.43.0 (0)
 -->
<!-- Title: g Pages: 1 -->
<svg width="1538pt" height="332pt"
 viewBox="0.00 0.00 1537.54 332.00" xmlns="http://www.w3.org/2000/svg" xmlns:xlink="http://www.w3.org/1999/xlink">
<g id="graph0" class="graph" transform="scale(1 1) rotate(0) translate(4 328)">
<title>g</title>
<polygon fill="white" stroke="transparent" points="-4,4 -4,-328 1533.54,-328 1533.54,4 -4,4"/>
<!-- n16889397 -->
<g id="node1" class="node">
<title>n16889397</title>
<polygon fill="none" stroke="black" points="252,-324 164,-324 164,-288 252,-288 252,-324"/>
<text text-anchor="start" x="172" y="-302.3" font-family="Times,serif" font-size="14.00">!wet, !dry</text>
</g>
<!-- SUBSn16889397n39385795 -->
<g id="node10" class="node">
<title>SUBSn16889397n39385795</title>
<text text-anchor="start" x="215.5" y="-230.3" font-family="Times,serif" font-size="14.00">{}</text>
</g>
<!-- n16889397&#45;&gt;SUBSn16889397n39385795 -->
<g id="edge14" class="edge">
<title>n16889397&#45;&gt;SUBSn16889397n39385795</title>
<path fill="none" stroke="black" d="M212.2,-287.7C214.84,-276.85 218.22,-262.92 220.85,-252.1"/>
</g>
<!-- SUBSn16889397n31674515 -->
<g id="node17" class="node">
<title>SUBSn16889397n31674515</title>
<text text-anchor="start" x="75.5" y="-230.3" font-family="Times,serif" font-size="14.00">{}</text>
</g>
<!-- n16889397&#45;&gt;SUBSn16889397n31674515 -->
<g id="edge12" class="edge">
<title>n16889397&#45;&gt;SUBSn16889397n31674515</title>
<path fill="none" stroke="black" d="M177.91,-287.88C157.85,-276.46 131.71,-261.58 112.26,-250.51"/>
</g>
<!-- n48625274 -->
<g id="node2" class="node">
<title>n48625274</title>
<polygon fill="none" stroke="black" points="1206.5,-324 1117.5,-324 1117.5,-288 1206.5,-288 1206.5,-324"/>
<text text-anchor="start" x="1125.5" y="-302.3" font-family="Times,serif" font-size="14.00">night, day</text>
</g>
<!-- SUBSn49363734n48625274 -->
<g id="node12" class="node">
<title>SUBSn49363734n48625274</title>
<text text-anchor="start" x="1108.5" y="-230.3" font-family="Times,serif" font-size="14.00">{}</text>
</g>
<!-- n48625274&#45;&gt;SUBSn49363734n48625274 -->
<g id="edge16" class="edge">
<title>n48625274&#45;&gt;SUBSn49363734n48625274</title>
<path fill="none" stroke="black" d="M1151.12,-287.7C1144.3,-276.85 1135.55,-262.92 1128.75,-252.1"/>
</g>
<!-- SUBSn48625272n48625274 -->
<g id="node14" class="node">
<title>SUBSn48625272n48625274</title>
<text text-anchor="start" x="1310.5" y="-230.3" font-family="Times,serif" font-size="14.00">{}</text>
</g>
<!-- n48625274&#45;&gt;SUBSn48625272n48625274 -->
<g id="edge15" class="edge">
<title>n48625274&#45;&gt;SUBSn48625272n48625274</title>
<path fill="none" stroke="black" d="M1200.65,-287.88C1229.16,-275.25 1267.24,-258.38 1292.64,-247.12"/>
</g>
<!-- SUBSn65156863n48625274 -->
<g id="node20" class="node">
<title>SUBSn65156863n48625274</title>
<text text-anchor="start" x="1065.5" y="-86.3" font-family="Times,serif" font-size="14.00">{}</text>
</g>
<!-- n48625274&#45;&gt;SUBSn65156863n48625274 -->
<g id="edge26" class="edge">
<title>n48625274&#45;&gt;SUBSn65156863n48625274</title>
<path fill="none" stroke="black" d="M1178.22,-287.65C1205.24,-256.57 1253.46,-190.32 1221,-144 1194.07,-105.58 1136.3,-94.9 1102.05,-92"/>
</g>
<!-- SUBSn48625274n00357819 -->
<g id="node21" class="node">
<title>SUBSn48625274n00357819</title>
<text text-anchor="start" x="740.5" y="-230.3" font-family="Times,serif" font-size="14.00">{}</text>
</g>
<!-- n48625274&#45;&gt;SUBSn48625274n00357819 -->
<g id="edge25" class="edge">
<title>n48625274&#45;&gt;SUBSn48625274n00357819</title>
<path fill="none" stroke="black" d="M1117.12,-297.38C1031.41,-282.81 846.74,-251.44 777.22,-239.62"/>
</g>
<!-- n31674515 -->
<g id="node3" class="node">
<title>n31674515</title>
<polygon fill="none" stroke="black" points="86,-324 0,-324 0,-288 86,-288 86,-324"/>
<text text-anchor="start" x="8" y="-302.3" font-family="Times,serif" font-size="14.00">wet, !rain</text>
</g>
<!-- n31674515&#45;&gt;SUBSn16889397n31674515 -->
<g id="edge6" class="edge">
<title>n31674515&#45;&gt;SUBSn16889397n31674515</title>
<path fill="none" stroke="black" d="M53.38,-287.7C59.89,-276.85 68.25,-262.92 74.74,-252.1"/>
</g>
<!-- SUBSn31674515n76634190 -->
<g id="node26" class="node">
<title>SUBSn31674515n76634190</title>
<text text-anchor="start" x="103.5" y="-86.3" font-family="Times,serif" font-size="14.00">{}</text>
</g>
<!-- n31674515&#45;&gt;SUBSn31674515n76634190 -->
<g id="edge29" class="edge">
<title>n31674515&#45;&gt;SUBSn31674515n76634190</title>
<path fill="none" stroke="black" d="M33.64,-287.66C18.26,-256.59 -8.08,-190.36 19,-144 33.27,-119.57 63.41,-105.52 85.73,-98.11"/>
</g>
<!-- n48625272 -->
<g id="node4" class="node">
<title>n48625272</title>
<polygon fill="none" stroke="black" points="1370.5,-324 1269.5,-324 1269.5,-288 1370.5,-288 1370.5,-324"/>
<text text-anchor="start" x="1277.5" y="-302.3" font-family="Times,serif" font-size="14.00">!night, !day</text>
</g>
<!-- n48625272&#45;&gt;SUBSn48625272n48625274 -->
<g id="edge30" class="edge">
<title>n48625272&#45;&gt;SUBSn48625272n48625274</title>
<path fill="none" stroke="black" d="M1320,-287.7C1320,-276.85 1320,-262.92 1320,-252.1"/>
</g>
<!-- n49363734 -->
<g id="node5" class="node">
<title>n49363734</title>
<polygon fill="none" stroke="black" points="1020,-324 884,-324 884,-288 1020,-288 1020,-324"/>
<text text-anchor="start" x="892" y="-302.3" font-family="Times,serif" font-size="14.00">!dry, !day, bright</text>
</g>
<!-- SUBSn49363734n39385795 -->
<g id="node8" class="node">
<title>SUBSn49363734n39385795</title>
<text text-anchor="start" x="668.5" y="-230.3" font-family="Times,serif" font-size="14.00">{}</text>
</g>
<!-- n49363734&#45;&gt;SUBSn49363734n39385795 -->
<g id="edge1" class="edge">
<title>n49363734&#45;&gt;SUBSn49363734n39385795</title>
<path fill="none" stroke="black" d="M883.96,-294C835.75,-285.21 769.96,-271.18 714,-252 711.12,-251.01 708.17,-249.86 705.26,-248.64"/>
</g>
<!-- n49363734&#45;&gt;SUBSn49363734n48625274 -->
<g id="edge24" class="edge">
<title>n49363734&#45;&gt;SUBSn49363734n48625274</title>
<path fill="none" stroke="black" d="M992.61,-287.88C1023.13,-275 1064.11,-257.72 1090.78,-246.48"/>
</g>
<!-- n39385795 -->
<g id="node6" class="node">
<title>n39385795</title>
<polygon fill="none" stroke="black" points="555.5,-324 466.5,-324 466.5,-288 555.5,-288 555.5,-324"/>
<text text-anchor="start" x="474.5" y="-302.3" font-family="Times,serif" font-size="14.00">dry, !clear</text>
</g>
<!-- n39385795&#45;&gt;SUBSn49363734n39385795 -->
<g id="edge31" class="edge">
<title>n39385795&#45;&gt;SUBSn49363734n39385795</title>
<path fill="none" stroke="black" d="M551.85,-287.88C582.66,-274.96 624.04,-257.62 650.87,-246.37"/>
</g>
<!-- n39385795&#45;&gt;SUBSn16889397n39385795 -->
<g id="edge2" class="edge">
<title>n39385795&#45;&gt;SUBSn16889397n39385795</title>
<path fill="none" stroke="black" d="M466.31,-294.06C406.3,-279.37 301.51,-253.73 252.16,-241.65"/>
</g>
<!-- SUBSn86795557n39385795 -->
<g id="node22" class="node">
<title>SUBSn86795557n39385795</title>
<text text-anchor="start" x="611.5" y="-86.3" font-family="Times,serif" font-size="14.00">{}</text>
</g>
<!-- n39385795&#45;&gt;SUBSn86795557n39385795 -->
<g id="edge22" class="edge">
<title>n39385795&#45;&gt;SUBSn86795557n39385795</title>
<path fill="none" stroke="black" d="M519.16,-287.98C524,-277.66 530.11,-264.19 535,-252 553.96,-204.78 546.96,-187.72 573,-144 580.88,-130.77 592.38,-117.93 602.16,-108.19"/>
</g>
<!-- SUBSn00357819n39385795 -->
<g id="node27" class="node">
<title>SUBSn00357819n39385795</title>
<text text-anchor="start" x="489.5" y="-230.3" font-family="Times,serif" font-size="14.00">{}</text>
</g>
<!-- n39385795&#45;&gt;SUBSn00357819n39385795 -->
<g id="edge27" class="edge">
<title>n39385795&#45;&gt;SUBSn00357819n39385795</title>
<path fill="none" stroke="black" d="M508.03,-287.7C506.17,-276.85 503.79,-262.92 501.93,-252.1"/>
</g>
<!-- n00357819 -->
<g id="node7" class="node">
<title>n00357819</title>
<polygon fill="none" stroke="black" points="804,-324 648,-324 648,-288 804,-288 804,-324"/>
<text text-anchor="start" x="656" y="-302.3" font-family="Times,serif" font-size="14.00">!dry, !day, sprinkler</text>
</g>
<!-- n00357819&#45;&gt;SUBSn48625274n00357819 -->
<g id="edge13" class="edge">
<title>n00357819&#45;&gt;SUBSn48625274n00357819</title>
<path fill="none" stroke="black" d="M731.93,-287.7C735.65,-276.85 740.43,-262.92 744.14,-252.1"/>
</g>
<!-- n00357819&#45;&gt;SUBSn00357819n39385795 -->
<g id="edge28" class="edge">
<title>n00357819&#45;&gt;SUBSn00357819n39385795</title>
<path fill="none" stroke="black" d="M670.76,-287.97C624.96,-273.84 561.79,-254.36 526.21,-243.39"/>
</g>
<!-- n65156863 -->
<g id="node19" class="node">
<title>n65156863</title>
<ellipse fill="none" stroke="black" cx="910" cy="-162" rx="96.38" ry="18"/>
<text text-anchor="start" x="844" y="-158.3" font-family="Times,serif" font-size="14.00">!clear, !day, bright</text>
</g>
<!-- SUBSn49363734n39385795&#45;&gt;n65156863 -->
<g id="edge17" class="edge">
<title>SUBSn49363734n39385795&#45;&gt;n65156863</title>
<path fill="none" stroke="black" d="M705.3,-219.49C708.21,-218.24 711.15,-217.05 714,-216 755.15,-200.86 802.58,-187.92 840.48,-178.61"/>
<polygon fill="black" stroke="black" points="841.5,-181.97 850.4,-176.21 839.85,-175.16 841.5,-181.97"/>
</g>
<!-- n65025174 -->
<g id="node9" class="node">
<title>n65025174</title>
<ellipse fill="none" stroke="black" cx="1075" cy="-18" rx="102.88" ry="18"/>
<text text-anchor="start" x="1004" y="-14.3" font-family="Times,serif" font-size="14.00">bright, night, !clear</text>
</g>
<!-- n76634190 -->
<g id="node16" class="node">
<title>n76634190</title>
<ellipse fill="none" stroke="black" cx="225" cy="-162" rx="64.19" ry="18"/>
<text text-anchor="start" x="183.5" y="-158.3" font-family="Times,serif" font-size="14.00">!wet, !clear</text>
</g>
<!-- SUBSn16889397n39385795&#45;&gt;n76634190 -->
<g id="edge5" class="edge">
<title>SUBSn16889397n39385795&#45;&gt;n76634190</title>
<path fill="none" stroke="black" d="M225,-215.7C225,-207.98 225,-198.71 225,-190.11"/>
<polygon fill="black" stroke="black" points="228.5,-190.1 225,-180.1 221.5,-190.1 228.5,-190.1"/>
</g>
<!-- n86795557 -->
<g id="node11" class="node">
<title>n86795557</title>
<ellipse fill="none" stroke="black" cx="689" cy="-162" rx="106.68" ry="18"/>
<text text-anchor="start" x="615" y="-158.3" font-family="Times,serif" font-size="14.00">!dry, night, sprinkler</text>
</g>
<!-- n86795557&#45;&gt;SUBSn86795557n39385795 -->
<g id="edge21" class="edge">
<title>n86795557&#45;&gt;SUBSn86795557n39385795</title>
<path fill="none" stroke="black" d="M672.54,-144.05C662.01,-133.21 648.38,-119.18 637.78,-108.28"/>
</g>
<!-- n77892479 -->
<g id="node13" class="node">
<title>n77892479</title>
<ellipse fill="none" stroke="black" cx="1118" cy="-162" rx="93.68" ry="18"/>
<text text-anchor="start" x="1054" y="-158.3" font-family="Times,serif" font-size="14.00">!dry, night, bright</text>
</g>
<!-- SUBSn49363734n48625274&#45;&gt;n77892479 -->
<g id="edge3" class="edge">
<title>SUBSn49363734n48625274&#45;&gt;n77892479</title>
<path fill="none" stroke="black" d="M1118,-215.7C1118,-207.98 1118,-198.71 1118,-190.11"/>
<polygon fill="black" stroke="black" points="1121.5,-190.1 1118,-180.1 1114.5,-190.1 1121.5,-190.1"/>
</g>
<!-- n33406745 -->
<g id="node15" class="node">
<title>n33406745</title>
<ellipse fill="none" stroke="black" cx="1460" cy="-162" rx="69.59" ry="18"/>
<text text-anchor="start" x="1414.5" y="-158.3" font-family="Times,serif" font-size="14.00">!night, night</text>
</g>
<!-- SUBSn48625272n48625274&#45;&gt;n33406745 -->
<g id="edge4" class="edge">
<title>SUBSn48625272n48625274&#45;&gt;n33406745</title>
<path fill="none" stroke="black" d="M1347.33,-219.34C1368.12,-208.94 1397.04,-194.48 1420.37,-182.81"/>
<polygon fill="black" stroke="black" points="1421.96,-185.93 1429.34,-178.33 1418.83,-179.67 1421.96,-185.93"/>
</g>
<!-- n34799634 -->
<g id="node24" class="node">
<title>n34799634</title>
<ellipse fill="none" stroke="black" cx="1320" cy="-162" rx="51.99" ry="18"/>
<text text-anchor="start" x="1288" y="-158.3" font-family="Times,serif" font-size="14.00">!day, day</text>
</g>
<!-- SUBSn48625272n48625274&#45;&gt;n34799634 -->
<g id="edge11" class="edge">
<title>SUBSn48625272n48625274&#45;&gt;n34799634</title>
<path fill="none" stroke="black" d="M1320,-215.7C1320,-207.98 1320,-198.71 1320,-190.11"/>
<polygon fill="black" stroke="black" points="1323.5,-190.1 1320,-180.1 1316.5,-190.1 1323.5,-190.1"/>
</g>
<!-- n76634190&#45;&gt;SUBSn31674515n76634190 -->
<g id="edge23" class="edge">
<title>n76634190&#45;&gt;SUBSn31674515n76634190</title>
<path fill="none" stroke="black" d="M199.87,-145.29C182.06,-134.17 158.21,-119.26 140.01,-107.88"/>
</g>
<!-- n08120073 -->
<g id="node18" class="node">
<title>n08120073</title>
<ellipse fill="none" stroke="black" cx="85" cy="-162" rx="57.39" ry="18"/>
<text text-anchor="start" x="49" y="-158.3" font-family="Times,serif" font-size="14.00">!dry, !rain</text>
</g>
<!-- SUBSn16889397n31674515&#45;&gt;n08120073 -->
<g id="edge7" class="edge">
<title>SUBSn16889397n31674515&#45;&gt;n08120073</title>
<path fill="none" stroke="black" d="M85,-215.7C85,-207.98 85,-198.71 85,-190.11"/>
<polygon fill="black" stroke="black" points="88.5,-190.1 85,-180.1 81.5,-190.1 88.5,-190.1"/>
</g>
<!-- n65156863&#45;&gt;SUBSn65156863n48625274 -->
<g id="edge8" class="edge">
<title>n65156863&#45;&gt;SUBSn65156863n48625274</title>
<path fill="none" stroke="black" d="M947.03,-145.29C977.62,-132.31 1020.35,-114.18 1047.85,-102.52"/>
</g>
<!-- SUBSn65156863n48625274&#45;&gt;n65025174 -->
<g id="edge20" class="edge">
<title>SUBSn65156863n48625274&#45;&gt;n65025174</title>
<path fill="none" stroke="black" d="M1075,-71.7C1075,-63.98 1075,-54.71 1075,-46.11"/>
<polygon fill="black" stroke="black" points="1078.5,-46.1 1075,-36.1 1071.5,-46.1 1078.5,-46.1"/>
</g>
<!-- SUBSn48625274n00357819&#45;&gt;n86795557 -->
<g id="edge9" class="edge">
<title>SUBSn48625274n00357819&#45;&gt;n86795557</title>
<path fill="none" stroke="black" d="M734.92,-215.7C727.61,-207.3 718.69,-197.07 710.66,-187.86"/>
<polygon fill="black" stroke="black" points="713.11,-185.34 703.91,-180.1 707.84,-189.94 713.11,-185.34"/>
</g>
<!-- n27725040 -->
<g id="node23" class="node">
<title>n27725040</title>
<ellipse fill="none" stroke="black" cx="621" cy="-18" rx="114.28" ry="18"/>
<text text-anchor="start" x="541" y="-14.3" font-family="Times,serif" font-size="14.00">!clear, night, sprinkler</text>
</g>
<!-- SUBSn86795557n39385795&#45;&gt;n27725040 -->
<g id="edge10" class="edge">
<title>SUBSn86795557n39385795&#45;&gt;n27725040</title>
<path fill="none" stroke="black" d="M621,-71.7C621,-63.98 621,-54.71 621,-46.11"/>
<polygon fill="black" stroke="black" points="624.5,-46.1 621,-36.1 617.5,-46.1 624.5,-46.1"/>
</g>
<!-- n22640670 -->
<g id="node25" class="node">
<title>n22640670</title>
<ellipse fill="none" stroke="black" cx="113" cy="-18" rx="65.79" ry="18"/>
<text text-anchor="start" x="70.5" y="-14.3" font-family="Times,serif" font-size="14.00">!rain, !clear</text>
</g>
<!-- SUBSn31674515n76634190&#45;&gt;n22640670 -->
<g id="edge18" class="edge">
<title>SUBSn31674515n76634190&#45;&gt;n22640670</title>
<path fill="none" stroke="black" d="M113,-71.7C113,-63.98 113,-54.71 113,-46.11"/>
<polygon fill="black" stroke="black" points="116.5,-46.1 113,-36.1 109.5,-46.1 116.5,-46.1"/>
</g>
<!-- n99531173 -->
<g id="node28" class="node">
<title>n99531173</title>
<ellipse fill="none" stroke="black" cx="417" cy="-162" rx="109.38" ry="18"/>
<text text-anchor="start" x="341" y="-158.3" font-family="Times,serif" font-size="14.00">!clear, !day, sprinkler</text>
</g>
<!-- SUBSn00357819n39385795&#45;&gt;n99531173 -->
<g id="edge19" class="edge">
<title>SUBSn00357819n39385795&#45;&gt;n99531173</title>
<path fill="none" stroke="black" d="M478.73,-215.7C468.43,-206.9 455.75,-196.08 444.57,-186.54"/>
<polygon fill="black" stroke="black" points="446.63,-183.69 436.75,-179.86 442.09,-189.02 446.63,-183.69"/>
</g>
</g>
</svg>
