<?xml version="1.0" encoding="UTF-8" standalone="no"?>
<!DOCTYPE svg PUBLIC "-//W3C//DTD SVG 1.1//EN"
 "http://www.w3.org/Graphics/SVG/1.1/DTD/svg11.dtd">
<!-- Generated by graphviz version 2.43.0 (0)
 -->
<!-- Title: g Pages: 1 -->
<svg width="813pt" height="476pt"
 viewBox="0.00 0.00 812.50 476.00" xmlns="http://www.w3.org/2000/svg" xmlns:xlink="http://www.w3.org/1999/xlink">
<g id="graph0" class="graph" transform="scale(1 1) rotate(0) translate(4 472)">
<title>g</title>
<polygon fill="white" stroke="transparent" points="-4,4 -4,-472 808.5,-472 808.5,4 -4,4"/>
<!-- n43298481 -->
<g id="node1" class="node">
<title>n43298481</title>
<polygon fill="none" stroke="black" points="90,-324 0,-324 0,-288 90,-288 90,-324"/>
<text text-anchor="start" x="8" y="-302.3" font-family="Times,serif" font-size="14.00">!chocolate</text>
</g>
<!-- SUBSn43298481n90988712 -->
<g id="node15" class="node">
<title>SUBSn43298481n90988712</title>
<text text-anchor="start" x="184.5" y="-230.3" font-family="Times,serif" font-size="14.00">{}</text>
</g>
<!-- n43298481&#45;&gt;SUBSn43298481n90988712 -->
<g id="edge6" class="edge">
<title>n43298481&#45;&gt;SUBSn43298481n90988712</title>
<path fill="none" stroke="black" d="M81.45,-287.88C107.81,-275.49 142.87,-259.02 166.81,-247.78"/>
</g>
<!-- n77700530 -->
<g id="node2" class="node">
<title>n77700530</title>
<polygon fill="none" stroke="black" points="152,-468 90,-468 90,-432 152,-432 152,-468"/>
<text text-anchor="start" x="98" y="-446.3" font-family="Times,serif" font-size="14.00">brown</text>
</g>
<!-- SUBSn68063987n77700530 -->
<g id="node11" class="node">
<title>SUBSn68063987n77700530</title>
<text text-anchor="start" x="184.5" y="-374.3" font-family="Times,serif" font-size="14.00">{}</text>
</g>
<!-- n77700530&#45;&gt;SUBSn68063987n77700530 -->
<g id="edge9" class="edge">
<title>n77700530&#45;&gt;SUBSn68063987n77700530</title>
<path fill="none" stroke="black" d="M139.04,-431.7C150.36,-420.85 164.89,-406.92 176.16,-396.1"/>
</g>
<!-- n94205908 -->
<g id="node3" class="node">
<title>n94205908</title>
<polygon fill="none" stroke="black" points="500.5,-468 381.5,-468 381.5,-432 500.5,-432 500.5,-468"/>
<text text-anchor="start" x="389.5" y="-446.3" font-family="Times,serif" font-size="14.00">brown, !sweet</text>
</g>
<!-- n17490904 -->
<g id="node4" class="node">
<title>n17490904</title>
<polygon fill="none" stroke="black" points="417.5,-324 298.5,-324 298.5,-288 417.5,-288 417.5,-324"/>
<text text-anchor="start" x="306.5" y="-302.3" font-family="Times,serif" font-size="14.00">!sweet, !burnt</text>
</g>
<!-- SUBSn83494621n17490904 -->
<g id="node13" class="node">
<title>SUBSn83494621n17490904</title>
<text text-anchor="start" x="348.5" y="-230.3" font-family="Times,serif" font-size="14.00">{}</text>
</g>
<!-- n17490904&#45;&gt;SUBSn83494621n17490904 -->
<g id="edge7" class="edge">
<title>n17490904&#45;&gt;SUBSn83494621n17490904</title>
<path fill="none" stroke="black" d="M358,-287.7C358,-276.85 358,-262.92 358,-252.1"/>
</g>
<!-- n83494621 -->
<g id="node5" class="node">
<title>n83494621</title>
<polygon fill="none" stroke="black" points="494.5,-324 435.5,-324 435.5,-288 494.5,-288 494.5,-324"/>
<text text-anchor="start" x="443.5" y="-302.3" font-family="Times,serif" font-size="14.00">sweet</text>
</g>
<!-- n83494621&#45;&gt;SUBSn83494621n17490904 -->
<g id="edge8" class="edge">
<title>n83494621&#45;&gt;SUBSn83494621n17490904</title>
<path fill="none" stroke="black" d="M438.82,-287.88C422.24,-277.03 400.88,-263.05 384.28,-252.19"/>
</g>
<!-- n68063987 -->
<g id="node6" class="node">
<title>n68063987</title>
<polygon fill="none" stroke="black" points="363.5,-468 170.5,-468 170.5,-432 363.5,-432 363.5,-468"/>
<text text-anchor="start" x="178.5" y="-446.3" font-family="Times,serif" font-size="14.00">chocolate, !brown, burnt</text>
</g>
<!-- n68063987&#45;&gt;SUBSn68063987n77700530 -->
<g id="edge2" class="edge">
<title>n68063987&#45;&gt;SUBSn68063987n77700530</title>
<path fill="none" stroke="black" d="M248.96,-431.7C237.64,-420.85 223.11,-406.92 211.84,-396.1"/>
</g>
<!-- n31373245 -->
<g id="node7" class="node">
<title>n31373245</title>
<polygon fill="none" stroke="black" points="637.5,-468 518.5,-468 518.5,-432 637.5,-432 637.5,-468"/>
<text text-anchor="start" x="526.5" y="-446.3" font-family="Times,serif" font-size="14.00">!cookie, sweet</text>
</g>
<!-- n70319127 -->
<g id="node8" class="node">
<title>n70319127</title>
<polygon fill="none" stroke="black" points="804.5,-468 655.5,-468 655.5,-432 804.5,-432 804.5,-468"/>
<text text-anchor="start" x="663.5" y="-446.3" font-family="Times,serif" font-size="14.00">yummy, !chocolate</text>
</g>
<!-- n02466037 -->
<g id="node9" class="node">
<title>n02466037</title>
<ellipse fill="none" stroke="black" cx="341" cy="-162" rx="40.09" ry="18"/>
<text text-anchor="start" x="318" y="-158.3" font-family="Times,serif" font-size="14.00">!burnt</text>
</g>
<!-- SUBSn02466037n02466036 -->
<g id="node10" class="node">
<title>SUBSn02466037n02466036</title>
<text text-anchor="start" x="249.5" y="-86.3" font-family="Times,serif" font-size="14.00">{}</text>
</g>
<!-- n02466037&#45;&gt;SUBSn02466037n02466036 -->
<g id="edge1" class="edge">
<title>n02466037&#45;&gt;SUBSn02466037n02466036</title>
<path fill="none" stroke="black" d="M323.21,-145.81C310.21,-134.71 292.56,-119.65 279.06,-108.13"/>
</g>
<!-- n00000000 -->
<g id="node12" class="node">
<title>n00000000</title>
<ellipse fill="none" stroke="black" cx="259" cy="-18" rx="41.69" ry="18"/>
<text text-anchor="start" x="235" y="-14.3" font-family="Times,serif" font-size="14.00">FALSE</text>
</g>
<!-- SUBSn02466037n02466036&#45;&gt;n00000000 -->
<g id="edge3" class="edge">
<title>SUBSn02466037n02466036&#45;&gt;n00000000</title>
<path fill="none" stroke="black" d="M259,-71.7C259,-63.98 259,-54.71 259,-46.11"/>
<polygon fill="black" stroke="black" points="262.5,-46.1 259,-36.1 255.5,-46.1 262.5,-46.1"/>
</g>
<!-- n90988712 -->
<g id="node16" class="node">
<title>n90988712</title>
<ellipse fill="none" stroke="black" cx="194" cy="-306" rx="86.38" ry="18"/>
<text text-anchor="start" x="135.5" y="-302.3" font-family="Times,serif" font-size="14.00">chocolate, burnt</text>
</g>
<!-- SUBSn68063987n77700530&#45;&gt;n90988712 -->
<g id="edge12" class="edge">
<title>SUBSn68063987n77700530&#45;&gt;n90988712</title>
<path fill="none" stroke="black" d="M194,-359.7C194,-351.98 194,-342.71 194,-334.11"/>
<polygon fill="black" stroke="black" points="197.5,-334.1 194,-324.1 190.5,-334.1 197.5,-334.1"/>
</g>
<!-- SUBSn83494621n17490904&#45;&gt;n02466037 -->
<g id="edge5" class="edge">
<title>SUBSn83494621n17490904&#45;&gt;n02466037</title>
<path fill="none" stroke="black" d="M353.8,-215.7C351.9,-207.9 349.62,-198.51 347.52,-189.83"/>
<polygon fill="black" stroke="black" points="350.92,-189 345.15,-180.1 344.11,-190.65 350.92,-189"/>
</g>
<!-- n02466036 -->
<g id="node14" class="node">
<title>n02466036</title>
<ellipse fill="none" stroke="black" cx="212" cy="-162" rx="36.29" ry="18"/>
<text text-anchor="start" x="192" y="-158.3" font-family="Times,serif" font-size="14.00">burnt</text>
</g>
<!-- n02466036&#45;&gt;SUBSn02466037n02466036 -->
<g id="edge4" class="edge">
<title>n02466036&#45;&gt;SUBSn02466037n02466036</title>
<path fill="none" stroke="black" d="M222.9,-144.76C230.28,-133.78 240,-119.29 247.5,-108.12"/>
</g>
<!-- SUBSn43298481n90988712&#45;&gt;n02466036 -->
<g id="edge10" class="edge">
<title>SUBSn43298481n90988712&#45;&gt;n02466036</title>
<path fill="none" stroke="black" d="M198.45,-215.7C200.45,-207.9 202.87,-198.51 205.1,-189.83"/>
<polygon fill="black" stroke="black" points="208.5,-190.66 207.6,-180.1 201.72,-188.92 208.5,-190.66"/>
</g>
<!-- n90988712&#45;&gt;SUBSn43298481n90988712 -->
<g id="edge11" class="edge">
<title>n90988712&#45;&gt;SUBSn43298481n90988712</title>
<path fill="none" stroke="black" d="M194,-287.7C194,-276.85 194,-262.92 194,-252.1"/>
</g>
</g>
</svg>
