<?xml version="1.0" encoding="UTF-8" standalone="no"?>
<!DOCTYPE svg PUBLIC "-//W3C//DTD SVG 1.1//EN"
 "http://www.w3.org/Graphics/SVG/1.1/DTD/svg11.dtd">
<!-- Generated by graphviz version 2.43.0 (0)
 -->
<!-- Title: g Pages: 1 -->
<svg width="509pt" height="332pt"
 viewBox="0.00 0.00 508.50 332.00" xmlns="http://www.w3.org/2000/svg" xmlns:xlink="http://www.w3.org/1999/xlink">
<g id="graph0" class="graph" transform="scale(1 1) rotate(0) translate(4 328)">
<title>g</title>
<polygon fill="white" stroke="transparent" points="-4,4 -4,-328 504.5,-328 504.5,4 -4,4"/>
<!-- n93715681 -->
<g id="node1" class="node">
<title>n93715681</title>
<polygon fill="none" stroke="black" points="83,-180 0,-180 0,-144 83,-144 83,-180"/>
<text text-anchor="start" x="8" y="-159.3" font-family="Times,serif" font-size="14.00">dog(</text>
<text text-anchor="start" x="40" y="-159.3" font-family="Times,serif" font-style="italic" font-size="14.00">Kim</text>
<text text-anchor="start" x="69" y="-159.3" font-family="Times,serif" font-size="14.00">)</text>
</g>
<!-- SUBSn93715680n93715681 -->
<g id="node8" class="node">
<title>SUBSn93715680n93715681</title>
<text text-anchor="start" x="90" y="-86.3" font-family="Times,serif" font-size="14.00">{}</text>
</g>
<!-- n93715681&#45;&gt;SUBSn93715680n93715681 -->
<g id="edge3" class="edge">
<title>n93715681&#45;&gt;SUBSn93715680n93715681</title>
<path fill="none" stroke="black" d="M55.84,-143.7C64.83,-132.85 76.37,-118.92 85.33,-108.1"/>
</g>
<!-- n13107970 -->
<g id="node2" class="node">
<title>n13107970</title>
<polygon fill="none" stroke="black" points="136,-324 25,-324 25,-288 136,-288 136,-324"/>
<text text-anchor="start" x="33" y="-303.3" font-family="Times,serif" font-size="14.00">!animal(</text>
<text text-anchor="start" x="93" y="-303.3" font-family="Times,serif" font-style="italic" font-size="14.00">Kim</text>
<text text-anchor="start" x="122" y="-303.3" font-family="Times,serif" font-size="14.00">)</text>
</g>
<!-- SUBSn96830397n13107970 -->
<g id="node5" class="node">
<title>SUBSn96830397n13107970</title>
<text text-anchor="start" x="122" y="-230.3" font-family="Times,serif" font-size="14.00">{x0: Kim}</text>
</g>
<!-- n13107970&#45;&gt;SUBSn96830397n13107970 -->
<g id="edge4" class="edge">
<title>n13107970&#45;&gt;SUBSn96830397n13107970</title>
<path fill="none" stroke="black" d="M99.78,-287.7C111.87,-276.85 127.39,-262.92 139.44,-252.1"/>
</g>
<!-- n96830397 -->
<g id="node3" class="node">
<title>n96830397</title>
<polygon fill="none" stroke="black" points="320.5,-324 154.5,-324 154.5,-288 320.5,-288 320.5,-324"/>
<text text-anchor="start" x="162.5" y="-303.3" font-family="Times,serif" font-size="14.00">animal(</text>
<text text-anchor="start" x="216.5" y="-303.3" font-family="Times,serif" font-weight="bold" font-size="14.00">x0</text>
<text text-anchor="start" x="235.5" y="-303.3" font-family="Times,serif" font-size="14.00">), !dog(</text>
<text text-anchor="start" x="287.5" y="-303.3" font-family="Times,serif" font-weight="bold" font-size="14.00">x0</text>
<text text-anchor="start" x="306.5" y="-303.3" font-family="Times,serif" font-size="14.00">)</text>
</g>
<!-- n96830397&#45;&gt;SUBSn96830397n13107970 -->
<g id="edge2" class="edge">
<title>n96830397&#45;&gt;SUBSn96830397n13107970</title>
<path fill="none" stroke="black" d="M217.97,-287.7C205.73,-276.85 190.01,-262.92 177.8,-252.1"/>
</g>
<!-- n21526629 -->
<g id="node4" class="node">
<title>n21526629</title>
<polygon fill="none" stroke="black" points="500.5,-324 338.5,-324 338.5,-288 500.5,-288 500.5,-324"/>
<text text-anchor="start" x="346.5" y="-303.3" font-family="Times,serif" font-size="14.00">animal(</text>
<text text-anchor="start" x="400.5" y="-303.3" font-family="Times,serif" font-weight="bold" font-size="14.00">x1</text>
<text text-anchor="start" x="419.5" y="-303.3" font-family="Times,serif" font-size="14.00">), !cat(</text>
<text text-anchor="start" x="467.5" y="-303.3" font-family="Times,serif" font-weight="bold" font-size="14.00">x1</text>
<text text-anchor="start" x="486.5" y="-303.3" font-family="Times,serif" font-size="14.00">)</text>
</g>
<!-- n93715680 -->
<g id="node6" class="node">
<title>n93715680</title>
<ellipse fill="none" stroke="black" cx="158.5" cy="-162" rx="57.69" ry="18"/>
<text text-anchor="start" x="122" y="-159.3" font-family="Times,serif" font-size="14.00">!dog(</text>
<text text-anchor="start" x="160" y="-159.3" font-family="Times,serif" font-style="italic" font-size="14.00">Kim</text>
<text text-anchor="start" x="189" y="-159.3" font-family="Times,serif" font-size="14.00">)</text>
</g>
<!-- SUBSn96830397n13107970&#45;&gt;n93715680 -->
<g id="edge1" class="edge">
<title>SUBSn96830397n13107970&#45;&gt;n93715680</title>
<path fill="none" stroke="black" d="M158.5,-215.7C158.5,-207.98 158.5,-198.71 158.5,-190.11"/>
<polygon fill="black" stroke="black" points="162,-190.1 158.5,-180.1 155,-190.1 162,-190.1"/>
</g>
<!-- n93715680&#45;&gt;SUBSn93715680n93715681 -->
<g id="edge5" class="edge">
<title>n93715680&#45;&gt;SUBSn93715680n93715681</title>
<path fill="none" stroke="black" d="M144.52,-144.41C135.39,-133.58 123.48,-119.45 114.21,-108.45"/>
</g>
<!-- n00000000 -->
<g id="node7" class="node">
<title>n00000000</title>
<ellipse fill="none" stroke="black" cx="99.5" cy="-18" rx="41.69" ry="18"/>
<text text-anchor="start" x="75.5" y="-14.3" font-family="Times,serif" font-size="14.00">FALSE</text>
</g>
<!-- SUBSn93715680n93715681&#45;&gt;n00000000 -->
<g id="edge6" class="edge">
<title>SUBSn93715680n93715681&#45;&gt;n00000000</title>
<path fill="none" stroke="black" d="M99.5,-71.7C99.5,-63.98 99.5,-54.71 99.5,-46.11"/>
<polygon fill="black" stroke="black" points="103,-46.1 99.5,-36.1 96,-46.1 103,-46.1"/>
</g>
</g>
</svg>
