<?xml version="1.0" encoding="UTF-8" standalone="no"?>
<!DOCTYPE svg PUBLIC "-//W3C//DTD SVG 1.1//EN"
 "http://www.w3.org/Graphics/SVG/1.1/DTD/svg11.dtd">
<!-- Generated by graphviz version 2.43.0 (0)
 -->
<!-- Title: g Pages: 1 -->
<svg width="600pt" height="188pt"
 viewBox="0.00 0.00 599.50 188.00" xmlns="http://www.w3.org/2000/svg" xmlns:xlink="http://www.w3.org/1999/xlink">
<g id="graph0" class="graph" transform="scale(1 1) rotate(0) translate(4 184)">
<title>g</title>
<polygon fill="white" stroke="transparent" points="-4,4 -4,-184 595.5,-184 595.5,4 -4,4"/>
<!-- n75363175 -->
<g id="node1" class="node">
<title>n75363175</title>
<polygon fill="none" stroke="black" points="83,-180 0,-180 0,-144 83,-144 83,-180"/>
<text text-anchor="start" x="8" y="-159.3" font-family="Times,serif" font-size="14.00">dog(</text>
<text text-anchor="start" x="40" y="-159.3" font-family="Times,serif" font-style="italic" font-size="14.00">Kim</text>
<text text-anchor="start" x="69" y="-159.3" font-family="Times,serif" font-size="14.00">)</text>
</g>
<!-- SUBSn13585280n75363175 -->
<g id="node7" class="node">
<title>SUBSn13585280n75363175</title>
<text text-anchor="start" x="77" y="-86.3" font-family="Times,serif" font-size="14.00">{x0: Kim}</text>
</g>
<!-- n75363175&#45;&gt;SUBSn13585280n75363175 -->
<g id="edge7" class="edge">
<title>n75363175&#45;&gt;SUBSn13585280n75363175</title>
<path fill="none" stroke="black" d="M59.3,-143.7C70.46,-132.85 84.79,-118.92 95.91,-108.1"/>
</g>
<!-- n13585280 -->
<g id="node2" class="node">
<title>n13585280</title>
<polygon fill="none" stroke="black" points="267.5,-180 101.5,-180 101.5,-144 267.5,-144 267.5,-180"/>
<text text-anchor="start" x="109.5" y="-159.3" font-family="Times,serif" font-size="14.00">!dog(</text>
<text text-anchor="start" x="147.5" y="-159.3" font-family="Times,serif" font-weight="bold" font-size="14.00">x0</text>
<text text-anchor="start" x="166.5" y="-159.3" font-family="Times,serif" font-size="14.00">), animal(</text>
<text text-anchor="start" x="234.5" y="-159.3" font-family="Times,serif" font-weight="bold" font-size="14.00">x0</text>
<text text-anchor="start" x="253.5" y="-159.3" font-family="Times,serif" font-size="14.00">)</text>
</g>
<!-- SUBSn13585280n78918469 -->
<g id="node6" class="node">
<title>SUBSn13585280n78918469</title>
<text text-anchor="start" x="224.5" y="-86.3" font-family="Times,serif" font-size="14.00">{x0: Kelley}</text>
</g>
<!-- n13585280&#45;&gt;SUBSn13585280n78918469 -->
<g id="edge2" class="edge">
<title>n13585280&#45;&gt;SUBSn13585280n78918469</title>
<path fill="none" stroke="black" d="M205.26,-143.7C218.28,-132.85 235,-118.92 247.97,-108.1"/>
</g>
<!-- n13585280&#45;&gt;SUBSn13585280n75363175 -->
<g id="edge4" class="edge">
<title>n13585280&#45;&gt;SUBSn13585280n75363175</title>
<path fill="none" stroke="black" d="M166.95,-143.7C155.94,-132.85 141.82,-118.92 130.85,-108.1"/>
</g>
<!-- n78918469 -->
<g id="node3" class="node">
<title>n78918469</title>
<polygon fill="none" stroke="black" points="411.5,-180 285.5,-180 285.5,-144 411.5,-144 411.5,-180"/>
<text text-anchor="start" x="293.5" y="-159.3" font-family="Times,serif" font-size="14.00">!animal(</text>
<text text-anchor="start" x="353.5" y="-159.3" font-family="Times,serif" font-style="italic" font-size="14.00">Kelley</text>
<text text-anchor="start" x="397.5" y="-159.3" font-family="Times,serif" font-size="14.00">)</text>
</g>
<!-- SUBSn78918469n36127593 -->
<g id="node5" class="node">
<title>SUBSn78918469n36127593</title>
<text text-anchor="start" x="375.5" y="-86.3" font-family="Times,serif" font-size="14.00">{x1: Kelley}</text>
</g>
<!-- n78918469&#45;&gt;SUBSn78918469n36127593 -->
<g id="edge1" class="edge">
<title>n78918469&#45;&gt;SUBSn78918469n36127593</title>
<path fill="none" stroke="black" d="M366.05,-143.7C377.06,-132.85 391.18,-118.92 402.15,-108.1"/>
</g>
<!-- n78918469&#45;&gt;SUBSn13585280n78918469 -->
<g id="edge6" class="edge">
<title>n78918469&#45;&gt;SUBSn13585280n78918469</title>
<path fill="none" stroke="black" d="M328.72,-143.7C316.32,-132.85 300.4,-118.92 288.05,-108.1"/>
</g>
<!-- n36127593 -->
<g id="node4" class="node">
<title>n36127593</title>
<polygon fill="none" stroke="black" points="591.5,-180 429.5,-180 429.5,-144 591.5,-144 591.5,-180"/>
<text text-anchor="start" x="437.5" y="-159.3" font-family="Times,serif" font-size="14.00">animal(</text>
<text text-anchor="start" x="491.5" y="-159.3" font-family="Times,serif" font-weight="bold" font-size="14.00">x1</text>
<text text-anchor="start" x="510.5" y="-159.3" font-family="Times,serif" font-size="14.00">), !cat(</text>
<text text-anchor="start" x="558.5" y="-159.3" font-family="Times,serif" font-weight="bold" font-size="14.00">x1</text>
<text text-anchor="start" x="577.5" y="-159.3" font-family="Times,serif" font-size="14.00">)</text>
</g>
<!-- n36127593&#45;&gt;SUBSn78918469n36127593 -->
<g id="edge3" class="edge">
<title>n36127593&#45;&gt;SUBSn78918469n36127593</title>
<path fill="none" stroke="black" d="M488.01,-143.7C473.9,-132.85 455.79,-118.92 441.74,-108.1"/>
</g>
<!-- n83258571 -->
<g id="node10" class="node">
<title>n83258571</title>
<ellipse fill="none" stroke="black" cx="419.5" cy="-18" rx="64.99" ry="18"/>
<text text-anchor="start" x="377.5" y="-15.3" font-family="Times,serif" font-size="14.00">!cat(</text>
<text text-anchor="start" x="411.5" y="-15.3" font-family="Times,serif" font-style="italic" font-size="14.00">Kelley</text>
<text text-anchor="start" x="455.5" y="-15.3" font-family="Times,serif" font-size="14.00">)</text>
</g>
<!-- SUBSn78918469n36127593&#45;&gt;n83258571 -->
<g id="edge8" class="edge">
<title>SUBSn78918469n36127593&#45;&gt;n83258571</title>
<path fill="none" stroke="black" d="M419.5,-71.7C419.5,-63.98 419.5,-54.71 419.5,-46.11"/>
<polygon fill="black" stroke="black" points="423,-46.1 419.5,-36.1 416,-46.1 423,-46.1"/>
</g>
<!-- n09505007 -->
<g id="node9" class="node">
<title>n09505007</title>
<ellipse fill="none" stroke="black" cx="268.5" cy="-18" rx="67.69" ry="18"/>
<text text-anchor="start" x="224.5" y="-15.3" font-family="Times,serif" font-size="14.00">!dog(</text>
<text text-anchor="start" x="262.5" y="-15.3" font-family="Times,serif" font-style="italic" font-size="14.00">Kelley</text>
<text text-anchor="start" x="306.5" y="-15.3" font-family="Times,serif" font-size="14.00">)</text>
</g>
<!-- SUBSn13585280n78918469&#45;&gt;n09505007 -->
<g id="edge9" class="edge">
<title>SUBSn13585280n78918469&#45;&gt;n09505007</title>
<path fill="none" stroke="black" d="M268.5,-71.7C268.5,-63.98 268.5,-54.71 268.5,-46.11"/>
<polygon fill="black" stroke="black" points="272,-46.1 268.5,-36.1 265,-46.1 272,-46.1"/>
</g>
<!-- n23693118 -->
<g id="node8" class="node">
<title>n23693118</title>
<ellipse fill="none" stroke="black" cx="113.5" cy="-18" rx="68.49" ry="18"/>
<text text-anchor="start" x="69" y="-15.3" font-family="Times,serif" font-size="14.00">animal(</text>
<text text-anchor="start" x="123" y="-15.3" font-family="Times,serif" font-style="italic" font-size="14.00">Kim</text>
<text text-anchor="start" x="152" y="-15.3" font-family="Times,serif" font-size="14.00">)</text>
</g>
<!-- SUBSn13585280n75363175&#45;&gt;n23693118 -->
<g id="edge5" class="edge">
<title>SUBSn13585280n75363175&#45;&gt;n23693118</title>
<path fill="none" stroke="black" d="M113.5,-71.7C113.5,-63.98 113.5,-54.71 113.5,-46.11"/>
<polygon fill="black" stroke="black" points="117,-46.1 113.5,-36.1 110,-46.1 117,-46.1"/>
</g>
</g>
</svg>
