<?xml version="1.0" encoding="UTF-8" standalone="no"?>
<!DOCTYPE svg PUBLIC "-//W3C//DTD SVG 1.1//EN"
 "http://www.w3.org/Graphics/SVG/1.1/DTD/svg11.dtd">
<!-- Generated by graphviz version 2.43.0 (0)
 -->
<!-- Title: g Pages: 1 -->
<svg width="498pt" height="332pt"
 viewBox="0.00 0.00 498.00 332.00" xmlns="http://www.w3.org/2000/svg" xmlns:xlink="http://www.w3.org/1999/xlink">
<g id="graph0" class="graph" transform="scale(1 1) rotate(0) translate(4 328)">
<title>g</title>
<polygon fill="white" stroke="transparent" points="-4,4 -4,-328 494,-328 494,4 -4,4"/>
<!-- n35161035 -->
<g id="node1" class="node">
<title>n35161035</title>
<polygon fill="none" stroke="black" points="126,-324 0,-324 0,-288 126,-288 126,-324"/>
<text text-anchor="start" x="8" y="-303.3" font-family="Times,serif" font-size="14.00">!animal(</text>
<text text-anchor="start" x="68" y="-303.3" font-family="Times,serif" font-style="italic" font-size="14.00">Kelley</text>
<text text-anchor="start" x="112" y="-303.3" font-family="Times,serif" font-size="14.00">)</text>
</g>
<!-- SUBSn71559295n35161035 -->
<g id="node6" class="node">
<title>SUBSn71559295n35161035</title>
<text text-anchor="start" x="100" y="-230.3" font-family="Times,serif" font-size="14.00">{x1: Kelley}</text>
</g>
<!-- n35161035&#45;&gt;SUBSn71559295n35161035 -->
<g id="edge1" class="edge">
<title>n35161035&#45;&gt;SUBSn71559295n35161035</title>
<path fill="none" stroke="black" d="M83.02,-287.7C95.58,-276.85 111.7,-262.92 124.21,-252.1"/>
</g>
<!-- n71559295 -->
<g id="node2" class="node">
<title>n71559295</title>
<polygon fill="none" stroke="black" points="306,-324 144,-324 144,-288 306,-288 306,-324"/>
<text text-anchor="start" x="152" y="-303.3" font-family="Times,serif" font-size="14.00">!cat(</text>
<text text-anchor="start" x="186" y="-303.3" font-family="Times,serif" font-weight="bold" font-size="14.00">x1</text>
<text text-anchor="start" x="205" y="-303.3" font-family="Times,serif" font-size="14.00">), animal(</text>
<text text-anchor="start" x="273" y="-303.3" font-family="Times,serif" font-weight="bold" font-size="14.00">x1</text>
<text text-anchor="start" x="292" y="-303.3" font-family="Times,serif" font-size="14.00">)</text>
</g>
<!-- n71559295&#45;&gt;SUBSn71559295n35161035 -->
<g id="edge3" class="edge">
<title>n71559295&#45;&gt;SUBSn71559295n35161035</title>
<path fill="none" stroke="black" d="M204.98,-287.7C192.42,-276.85 176.3,-262.92 163.79,-252.1"/>
</g>
<!-- n38714090 -->
<g id="node3" class="node">
<title>n38714090</title>
<polygon fill="none" stroke="black" points="321,-180 227,-180 227,-144 321,-144 321,-180"/>
<text text-anchor="start" x="235" y="-159.3" font-family="Times,serif" font-size="14.00">cat(</text>
<text text-anchor="start" x="263" y="-159.3" font-family="Times,serif" font-style="italic" font-size="14.00">Kelley</text>
<text text-anchor="start" x="307" y="-159.3" font-family="Times,serif" font-size="14.00">)</text>
</g>
<!-- SUBSn38714089n38714090 -->
<g id="node8" class="node">
<title>SUBSn38714089n38714090</title>
<text text-anchor="start" x="199.5" y="-86.3" font-family="Times,serif" font-size="14.00">{}</text>
</g>
<!-- n38714090&#45;&gt;SUBSn38714089n38714090 -->
<g id="edge4" class="edge">
<title>n38714090&#45;&gt;SUBSn38714089n38714090</title>
<path fill="none" stroke="black" d="M257.93,-143.7C247.86,-132.85 234.92,-118.92 224.88,-108.1"/>
</g>
<!-- n71955067 -->
<g id="node4" class="node">
<title>n71955067</title>
<polygon fill="none" stroke="black" points="490,-324 324,-324 324,-288 490,-288 490,-324"/>
<text text-anchor="start" x="332" y="-303.3" font-family="Times,serif" font-size="14.00">animal(</text>
<text text-anchor="start" x="386" y="-303.3" font-family="Times,serif" font-weight="bold" font-size="14.00">x0</text>
<text text-anchor="start" x="405" y="-303.3" font-family="Times,serif" font-size="14.00">), !dog(</text>
<text text-anchor="start" x="457" y="-303.3" font-family="Times,serif" font-weight="bold" font-size="14.00">x0</text>
<text text-anchor="start" x="476" y="-303.3" font-family="Times,serif" font-size="14.00">)</text>
</g>
<!-- n00000000 -->
<g id="node5" class="node">
<title>n00000000</title>
<ellipse fill="none" stroke="black" cx="209" cy="-18" rx="41.69" ry="18"/>
<text text-anchor="start" x="185" y="-14.3" font-family="Times,serif" font-size="14.00">FALSE</text>
</g>
<!-- n38714089 -->
<g id="node7" class="node">
<title>n38714089</title>
<ellipse fill="none" stroke="black" cx="144" cy="-162" rx="64.99" ry="18"/>
<text text-anchor="start" x="102" y="-159.3" font-family="Times,serif" font-size="14.00">!cat(</text>
<text text-anchor="start" x="136" y="-159.3" font-family="Times,serif" font-style="italic" font-size="14.00">Kelley</text>
<text text-anchor="start" x="180" y="-159.3" font-family="Times,serif" font-size="14.00">)</text>
</g>
<!-- SUBSn71559295n35161035&#45;&gt;n38714089 -->
<g id="edge2" class="edge">
<title>SUBSn71559295n35161035&#45;&gt;n38714089</title>
<path fill="none" stroke="black" d="M144,-215.7C144,-207.98 144,-198.71 144,-190.11"/>
<polygon fill="black" stroke="black" points="147.5,-190.1 144,-180.1 140.5,-190.1 147.5,-190.1"/>
</g>
<!-- n38714089&#45;&gt;SUBSn38714089n38714090 -->
<g id="edge5" class="edge">
<title>n38714089&#45;&gt;SUBSn38714089n38714090</title>
<path fill="none" stroke="black" d="M159.4,-144.41C169.47,-133.58 182.58,-119.45 192.8,-108.45"/>
</g>
<!-- SUBSn38714089n38714090&#45;&gt;n00000000 -->
<g id="edge6" class="edge">
<title>SUBSn38714089n38714090&#45;&gt;n00000000</title>
<path fill="none" stroke="black" d="M209,-71.7C209,-63.98 209,-54.71 209,-46.11"/>
<polygon fill="black" stroke="black" points="212.5,-46.1 209,-36.1 205.5,-46.1 212.5,-46.1"/>
</g>
</g>
</svg>
