<?xml version="1.0" encoding="UTF-8" standalone="no"?>
<!DOCTYPE svg PUBLIC "-//W3C//DTD SVG 1.1//EN"
 "http://www.w3.org/Graphics/SVG/1.1/DTD/svg11.dtd">
<!-- Generated by graphviz version 2.43.0 (0)
 -->
<!-- Title: g Pages: 1 -->
<svg width="2023pt" height="332pt"
 viewBox="0.00 0.00 2023.19 332.00" xmlns="http://www.w3.org/2000/svg" xmlns:xlink="http://www.w3.org/1999/xlink">
<g id="graph0" class="graph" transform="scale(1 1) rotate(0) translate(4 328)">
<title>g</title>
<polygon fill="white" stroke="transparent" points="-4,4 -4,-328 2019.19,-328 2019.19,4 -4,4"/>
<!-- n00493592 -->
<g id="node1" class="node">
<title>n00493592</title>
<polygon fill="none" stroke="black" points="315.69,-324 128.69,-324 128.69,-288 315.69,-288 315.69,-324"/>
<text text-anchor="start" x="136.69" y="-303.3" font-family="Times,serif" font-size="14.00">!sprinkler(</text>
<text text-anchor="start" x="212.69" y="-303.3" font-family="Times,serif" font-weight="bold" font-size="14.00">t0</text>
<text text-anchor="start" x="229.69" y="-303.3" font-family="Times,serif" font-size="14.00">), !rain(</text>
<text text-anchor="start" x="284.69" y="-303.3" font-family="Times,serif" font-weight="bold" font-size="14.00">t0</text>
<text text-anchor="start" x="301.69" y="-303.3" font-family="Times,serif" font-size="14.00">)</text>
</g>
<!-- SUBSn46191365n00493592 -->
<g id="node20" class="node">
<title>SUBSn46191365n00493592</title>
<text text-anchor="start" x="152.19" y="-230.3" font-family="Times,serif" font-size="14.00">{t0: A}</text>
</g>
<!-- n00493592&#45;&gt;SUBSn46191365n00493592 -->
<g id="edge19" class="edge">
<title>n00493592&#45;&gt;SUBSn46191365n00493592</title>
<path fill="none" stroke="black" d="M211.32,-287.7C204.5,-276.85 195.74,-262.92 188.95,-252.1"/>
</g>
<!-- SUBSn32992520n00493592 -->
<g id="node26" class="node">
<title>SUBSn32992520n00493592</title>
<text text-anchor="start" x="238.69" y="-230.3" font-family="Times,serif" font-size="14.00">{t0: B}</text>
</g>
<!-- n00493592&#45;&gt;SUBSn32992520n00493592 -->
<g id="edge24" class="edge">
<title>n00493592&#45;&gt;SUBSn32992520n00493592</title>
<path fill="none" stroke="black" d="M232.82,-287.7C239.49,-276.85 248.04,-262.92 254.69,-252.1"/>
</g>
<!-- n43661275 -->
<g id="node2" class="node">
<title>n43661275</title>
<polygon fill="none" stroke="black" points="1717.19,-324 1611.19,-324 1611.19,-288 1717.19,-288 1717.19,-324"/>
<text text-anchor="start" x="1619.19" y="-303.3" font-family="Times,serif" font-size="14.00">before(</text>
<text text-anchor="start" x="1671.19" y="-303.3" font-family="Times,serif" font-style="italic" font-size="14.00">B</text>
<text text-anchor="start" x="1682.19" y="-303.3" font-family="Times,serif" font-size="14.00">, </text>
<text text-anchor="start" x="1692.19" y="-303.3" font-family="Times,serif" font-style="italic" font-size="14.00">C</text>
<text text-anchor="start" x="1703.19" y="-303.3" font-family="Times,serif" font-size="14.00">)</text>
</g>
<!-- SUBSn43661275n09566145 -->
<g id="node15" class="node">
<title>SUBSn43661275n09566145</title>
<text text-anchor="start" x="1535.69" y="-230.3" font-family="Times,serif" font-size="14.00">{t10: B, t20: C}</text>
</g>
<!-- n43661275&#45;&gt;SUBSn43661275n09566145 -->
<g id="edge10" class="edge">
<title>n43661275&#45;&gt;SUBSn43661275n09566145</title>
<path fill="none" stroke="black" d="M1646.64,-287.7C1635.64,-276.85 1621.51,-262.92 1610.54,-252.1"/>
</g>
<!-- SUBSn43661275n17795044 -->
<g id="node19" class="node">
<title>SUBSn43661275n17795044</title>
<text text-anchor="start" x="1242.19" y="-86.3" font-family="Times,serif" font-size="14.00">{t20: C}</text>
</g>
<!-- n43661275&#45;&gt;SUBSn43661275n17795044 -->
<g id="edge5" class="edge">
<title>n43661275&#45;&gt;SUBSn43661275n17795044</title>
<path fill="none" stroke="black" d="M1679.34,-287.75C1705.66,-255.65 1753.63,-186.18 1716.19,-144 1689.55,-113.98 1415.7,-97.83 1312.37,-92.77"/>
</g>
<!-- n07593046 -->
<g id="node3" class="node">
<title>n07593046</title>
<polygon fill="none" stroke="black" points="1808.69,-324 1735.69,-324 1735.69,-288 1808.69,-288 1808.69,-324"/>
<text text-anchor="start" x="1743.69" y="-303.3" font-family="Times,serif" font-size="14.00">!rain(</text>
<text text-anchor="start" x="1783.69" y="-303.3" font-family="Times,serif" font-style="italic" font-size="14.00">C</text>
<text text-anchor="start" x="1794.69" y="-303.3" font-family="Times,serif" font-size="14.00">)</text>
</g>
<!-- n94937043 -->
<g id="node4" class="node">
<title>n94937043</title>
<polygon fill="none" stroke="black" points="911.69,-324 806.69,-324 806.69,-288 911.69,-288 911.69,-324"/>
<text text-anchor="start" x="814.69" y="-303.3" font-family="Times,serif" font-size="14.00">before(</text>
<text text-anchor="start" x="866.69" y="-303.3" font-family="Times,serif" font-style="italic" font-size="14.00">A</text>
<text text-anchor="start" x="876.69" y="-303.3" font-family="Times,serif" font-size="14.00">, </text>
<text text-anchor="start" x="886.69" y="-303.3" font-family="Times,serif" font-style="italic" font-size="14.00">B</text>
<text text-anchor="start" x="897.69" y="-303.3" font-family="Times,serif" font-size="14.00">)</text>
</g>
<!-- SUBSn94937043n09566145 -->
<g id="node11" class="node">
<title>SUBSn94937043n09566145</title>
<text text-anchor="start" x="1045.19" y="-230.3" font-family="Times,serif" font-size="14.00">{t10: A, t20: B}</text>
</g>
<!-- n94937043&#45;&gt;SUBSn94937043n09566145 -->
<g id="edge12" class="edge">
<title>n94937043&#45;&gt;SUBSn94937043n09566145</title>
<path fill="none" stroke="black" d="M911.92,-289.81C950.59,-278.67 1003.11,-263.54 1043.17,-252"/>
</g>
<!-- n33976089 -->
<g id="node5" class="node">
<title>n33976089</title>
<polygon fill="none" stroke="black" points="1923.19,-324 1827.19,-324 1827.19,-288 1923.19,-288 1923.19,-324"/>
<text text-anchor="start" x="1835.19" y="-303.3" font-family="Times,serif" font-size="14.00">prinkler(</text>
<text text-anchor="start" x="1898.19" y="-303.3" font-family="Times,serif" font-style="italic" font-size="14.00">C</text>
<text text-anchor="start" x="1909.19" y="-303.3" font-family="Times,serif" font-size="14.00">)</text>
</g>
<!-- n60344842 -->
<g id="node6" class="node">
<title>n60344842</title>
<polygon fill="none" stroke="black" points="2015.19,-324 1941.19,-324 1941.19,-288 2015.19,-288 2015.19,-324"/>
<text text-anchor="start" x="1949.19" y="-303.3" font-family="Times,serif" font-size="14.00">!rain(</text>
<text text-anchor="start" x="1989.19" y="-303.3" font-family="Times,serif" font-style="italic" font-size="14.00">D</text>
<text text-anchor="start" x="2001.19" y="-303.3" font-family="Times,serif" font-size="14.00">)</text>
</g>
<!-- n32992520 -->
<g id="node7" class="node">
<title>n32992520</title>
<polygon fill="none" stroke="black" points="655.69,-324 588.69,-324 588.69,-288 655.69,-288 655.69,-324"/>
<text text-anchor="start" x="596.69" y="-303.3" font-family="Times,serif" font-size="14.00">rain(</text>
<text text-anchor="start" x="630.69" y="-303.3" font-family="Times,serif" font-style="italic" font-size="14.00">B</text>
<text text-anchor="start" x="641.69" y="-303.3" font-family="Times,serif" font-size="14.00">)</text>
</g>
<!-- SUBSn32992520n09566145 -->
<g id="node13" class="node">
<title>SUBSn32992520n09566145</title>
<text text-anchor="start" x="781.19" y="-230.3" font-family="Times,serif" font-size="14.00">{t10: B}</text>
</g>
<!-- n32992520&#45;&gt;SUBSn32992520n09566145 -->
<g id="edge2" class="edge">
<title>n32992520&#45;&gt;SUBSn32992520n09566145</title>
<path fill="none" stroke="black" d="M655.72,-292.65C688.54,-280.56 738.49,-262.15 773.1,-249.4"/>
</g>
<!-- n32992520&#45;&gt;SUBSn32992520n00493592 -->
<g id="edge18" class="edge">
<title>n32992520&#45;&gt;SUBSn32992520n00493592</title>
<path fill="none" stroke="black" d="M588.61,-298.41C520.83,-285.12 368.31,-255.22 299.74,-241.77"/>
</g>
<!-- n02615001 -->
<g id="node8" class="node">
<title>n02615001</title>
<polygon fill="none" stroke="black" points="1400.69,-324 1293.69,-324 1293.69,-288 1400.69,-288 1400.69,-324"/>
<text text-anchor="start" x="1301.69" y="-303.3" font-family="Times,serif" font-size="14.00">before(</text>
<text text-anchor="start" x="1353.69" y="-303.3" font-family="Times,serif" font-style="italic" font-size="14.00">C</text>
<text text-anchor="start" x="1364.69" y="-303.3" font-family="Times,serif" font-size="14.00">, </text>
<text text-anchor="start" x="1374.69" y="-303.3" font-family="Times,serif" font-style="italic" font-size="14.00">D</text>
<text text-anchor="start" x="1386.69" y="-303.3" font-family="Times,serif" font-size="14.00">)</text>
</g>
<!-- SUBSn02615001n09566145 -->
<g id="node22" class="node">
<title>SUBSn02615001n09566145</title>
<text text-anchor="start" x="1289.69" y="-230.3" font-family="Times,serif" font-size="14.00">{t10: C, t20: D}</text>
</g>
<!-- n02615001&#45;&gt;SUBSn02615001n09566145 -->
<g id="edge13" class="edge">
<title>n02615001&#45;&gt;SUBSn02615001n09566145</title>
<path fill="none" stroke="black" d="M1347.19,-287.7C1347.19,-276.85 1347.19,-262.92 1347.19,-252.1"/>
</g>
<!-- n46191365 -->
<g id="node9" class="node">
<title>n46191365</title>
<polygon fill="none" stroke="black" points="437.19,-324 371.19,-324 371.19,-288 437.19,-288 437.19,-324"/>
<text text-anchor="start" x="379.19" y="-303.3" font-family="Times,serif" font-size="14.00">rain(</text>
<text text-anchor="start" x="413.19" y="-303.3" font-family="Times,serif" font-style="italic" font-size="14.00">A</text>
<text text-anchor="start" x="423.19" y="-303.3" font-family="Times,serif" font-size="14.00">)</text>
</g>
<!-- SUBSn46191365n09566145 -->
<g id="node18" class="node">
<title>SUBSn46191365n09566145</title>
<text text-anchor="start" x="445.69" y="-230.3" font-family="Times,serif" font-size="14.00">{t10: A}</text>
</g>
<!-- n46191365&#45;&gt;SUBSn46191365n09566145 -->
<g id="edge4" class="edge">
<title>n46191365&#45;&gt;SUBSn46191365n09566145</title>
<path fill="none" stroke="black" d="M421.99,-287.7C433.15,-276.85 447.48,-262.92 458.6,-252.1"/>
</g>
<!-- n46191365&#45;&gt;SUBSn46191365n00493592 -->
<g id="edge17" class="edge">
<title>n46191365&#45;&gt;SUBSn46191365n00493592</title>
<path fill="none" stroke="black" d="M371.17,-296.45C334.3,-286.66 273,-269.7 221.19,-252 218.31,-251.01 215.33,-249.95 212.35,-248.84"/>
</g>
<!-- n09566145 -->
<g id="node10" class="node">
<title>n09566145</title>
<polygon fill="none" stroke="black" points="1274.19,-324 930.19,-324 930.19,-288 1274.19,-288 1274.19,-324"/>
<text text-anchor="start" x="938.19" y="-303.3" font-family="Times,serif" font-size="14.00">!before(</text>
<text text-anchor="start" x="996.19" y="-303.3" font-family="Times,serif" font-weight="bold" font-size="14.00">t10</text>
<text text-anchor="start" x="1023.19" y="-303.3" font-family="Times,serif" font-size="14.00">, </text>
<text text-anchor="start" x="1033.19" y="-303.3" font-family="Times,serif" font-weight="bold" font-size="14.00">t20</text>
<text text-anchor="start" x="1060.19" y="-303.3" font-family="Times,serif" font-size="14.00">), !sprinkler(</text>
<text text-anchor="start" x="1151.19" y="-303.3" font-family="Times,serif" font-weight="bold" font-size="14.00">t20</text>
<text text-anchor="start" x="1178.19" y="-303.3" font-family="Times,serif" font-size="14.00">), !rain(</text>
<text text-anchor="start" x="1233.19" y="-303.3" font-family="Times,serif" font-weight="bold" font-size="14.00">t10</text>
<text text-anchor="start" x="1260.19" y="-303.3" font-family="Times,serif" font-size="14.00">)</text>
</g>
<!-- n09566145&#45;&gt;SUBSn94937043n09566145 -->
<g id="edge9" class="edge">
<title>n09566145&#45;&gt;SUBSn94937043n09566145</title>
<path fill="none" stroke="black" d="M1102.19,-287.7C1102.19,-276.85 1102.19,-262.92 1102.19,-252.1"/>
</g>
<!-- n09566145&#45;&gt;SUBSn32992520n09566145 -->
<g id="edge22" class="edge">
<title>n09566145&#45;&gt;SUBSn32992520n09566145</title>
<path fill="none" stroke="black" d="M1031.62,-287.97C974.95,-274.29 897.48,-255.59 851.36,-244.45"/>
</g>
<!-- n09566145&#45;&gt;SUBSn43661275n09566145 -->
<g id="edge14" class="edge">
<title>n09566145&#45;&gt;SUBSn43661275n09566145</title>
<path fill="none" stroke="black" d="M1221.68,-287.97C1317.91,-274.25 1449.58,-255.48 1527.57,-244.36"/>
</g>
<!-- n09566145&#45;&gt;SUBSn46191365n09566145 -->
<g id="edge11" class="edge">
<title>n09566145&#45;&gt;SUBSn46191365n09566145</title>
<path fill="none" stroke="black" d="M949.86,-287.97C805.82,-271.86 599.5,-248.79 514.76,-239.31"/>
</g>
<!-- n09566145&#45;&gt;SUBSn02615001n09566145 -->
<g id="edge7" class="edge">
<title>n09566145&#45;&gt;SUBSn02615001n09566145</title>
<path fill="none" stroke="black" d="M1161.81,-287.97C1199.92,-277.08 1249.15,-263.01 1287.31,-252.11"/>
</g>
<!-- n85652138 -->
<g id="node12" class="node">
<title>n85652138</title>
<ellipse fill="none" stroke="black" cx="1102.19" cy="-162" rx="113.18" ry="18"/>
<text text-anchor="start" x="1023.19" y="-159.3" font-family="Times,serif" font-size="14.00">!rain(</text>
<text text-anchor="start" x="1063.19" y="-159.3" font-family="Times,serif" font-style="italic" font-size="14.00">A</text>
<text text-anchor="start" x="1073.19" y="-159.3" font-family="Times,serif" font-size="14.00">), !sprinkler(</text>
<text text-anchor="start" x="1164.19" y="-159.3" font-family="Times,serif" font-style="italic" font-size="14.00">B</text>
<text text-anchor="start" x="1175.19" y="-159.3" font-family="Times,serif" font-size="14.00">)</text>
</g>
<!-- SUBSn94937043n09566145&#45;&gt;n85652138 -->
<g id="edge1" class="edge">
<title>SUBSn94937043n09566145&#45;&gt;n85652138</title>
<path fill="none" stroke="black" d="M1102.19,-215.7C1102.19,-207.98 1102.19,-198.71 1102.19,-190.11"/>
<polygon fill="black" stroke="black" points="1105.69,-190.1 1102.19,-180.1 1098.69,-190.1 1105.69,-190.1"/>
</g>
<!-- n17795044 -->
<g id="node25" class="node">
<title>n17795044</title>
<ellipse fill="none" stroke="black" cx="812.19" cy="-162" rx="159.47" ry="18"/>
<text text-anchor="start" x="697.69" y="-159.3" font-family="Times,serif" font-size="14.00">!sprinkler(</text>
<text text-anchor="start" x="773.69" y="-159.3" font-family="Times,serif" font-weight="bold" font-size="14.00">t20</text>
<text text-anchor="start" x="800.69" y="-159.3" font-family="Times,serif" font-size="14.00">), !before(</text>
<text text-anchor="start" x="872.69" y="-159.3" font-family="Times,serif" font-style="italic" font-size="14.00">B</text>
<text text-anchor="start" x="883.69" y="-159.3" font-family="Times,serif" font-size="14.00">, </text>
<text text-anchor="start" x="893.69" y="-159.3" font-family="Times,serif" font-weight="bold" font-size="14.00">t20</text>
<text text-anchor="start" x="920.69" y="-159.3" font-family="Times,serif" font-size="14.00">)</text>
</g>
<!-- SUBSn32992520n09566145&#45;&gt;n17795044 -->
<g id="edge15" class="edge">
<title>SUBSn32992520n09566145&#45;&gt;n17795044</title>
<path fill="none" stroke="black" d="M812.19,-215.7C812.19,-207.98 812.19,-198.71 812.19,-190.11"/>
<polygon fill="black" stroke="black" points="815.69,-190.1 812.19,-180.1 808.69,-190.1 815.69,-190.1"/>
</g>
<!-- n60539226 -->
<g id="node14" class="node">
<title>n60539226</title>
<ellipse fill="none" stroke="black" cx="229.19" cy="-162" rx="70.69" ry="18"/>
<text text-anchor="start" x="182.69" y="-159.3" font-family="Times,serif" font-size="14.00">!sprinkler(</text>
<text text-anchor="start" x="258.69" y="-159.3" font-family="Times,serif" font-style="italic" font-size="14.00">B</text>
<text text-anchor="start" x="269.69" y="-159.3" font-family="Times,serif" font-size="14.00">)</text>
</g>
<!-- n52946180 -->
<g id="node16" class="node">
<title>n52946180</title>
<ellipse fill="none" stroke="black" cx="1593.19" cy="-162" rx="113.98" ry="18"/>
<text text-anchor="start" x="1513.69" y="-159.3" font-family="Times,serif" font-size="14.00">!sprinkler(</text>
<text text-anchor="start" x="1589.69" y="-159.3" font-family="Times,serif" font-style="italic" font-size="14.00">C</text>
<text text-anchor="start" x="1600.69" y="-159.3" font-family="Times,serif" font-size="14.00">), !rain(</text>
<text text-anchor="start" x="1655.69" y="-159.3" font-family="Times,serif" font-style="italic" font-size="14.00">B</text>
<text text-anchor="start" x="1666.69" y="-159.3" font-family="Times,serif" font-size="14.00">)</text>
</g>
<!-- SUBSn43661275n09566145&#45;&gt;n52946180 -->
<g id="edge3" class="edge">
<title>SUBSn43661275n09566145&#45;&gt;n52946180</title>
<path fill="none" stroke="black" d="M1593.19,-215.7C1593.19,-207.98 1593.19,-198.71 1593.19,-190.11"/>
<polygon fill="black" stroke="black" points="1596.69,-190.1 1593.19,-180.1 1589.69,-190.1 1596.69,-190.1"/>
</g>
<!-- n88100094 -->
<g id="node17" class="node">
<title>n88100094</title>
<ellipse fill="none" stroke="black" cx="1347.19" cy="-162" rx="114.28" ry="18"/>
<text text-anchor="start" x="1267.19" y="-159.3" font-family="Times,serif" font-size="14.00">!sprinkler(</text>
<text text-anchor="start" x="1343.19" y="-159.3" font-family="Times,serif" font-style="italic" font-size="14.00">D</text>
<text text-anchor="start" x="1355.19" y="-159.3" font-family="Times,serif" font-size="14.00">), !rain(</text>
<text text-anchor="start" x="1410.19" y="-159.3" font-family="Times,serif" font-style="italic" font-size="14.00">C</text>
<text text-anchor="start" x="1421.19" y="-159.3" font-family="Times,serif" font-size="14.00">)</text>
</g>
<!-- n59372003 -->
<g id="node23" class="node">
<title>n59372003</title>
<ellipse fill="none" stroke="black" cx="476.19" cy="-162" rx="158.67" ry="18"/>
<text text-anchor="start" x="362.19" y="-159.3" font-family="Times,serif" font-size="14.00">!sprinkler(</text>
<text text-anchor="start" x="438.19" y="-159.3" font-family="Times,serif" font-weight="bold" font-size="14.00">t20</text>
<text text-anchor="start" x="465.19" y="-159.3" font-family="Times,serif" font-size="14.00">), !before(</text>
<text text-anchor="start" x="537.19" y="-159.3" font-family="Times,serif" font-style="italic" font-size="14.00">A</text>
<text text-anchor="start" x="547.19" y="-159.3" font-family="Times,serif" font-size="14.00">, </text>
<text text-anchor="start" x="557.19" y="-159.3" font-family="Times,serif" font-weight="bold" font-size="14.00">t20</text>
<text text-anchor="start" x="584.19" y="-159.3" font-family="Times,serif" font-size="14.00">)</text>
</g>
<!-- SUBSn46191365n09566145&#45;&gt;n59372003 -->
<g id="edge8" class="edge">
<title>SUBSn46191365n09566145&#45;&gt;n59372003</title>
<path fill="none" stroke="black" d="M476.19,-215.7C476.19,-207.98 476.19,-198.71 476.19,-190.11"/>
<polygon fill="black" stroke="black" points="479.69,-190.1 476.19,-180.1 472.69,-190.1 479.69,-190.1"/>
</g>
<!-- n85938699 -->
<g id="node24" class="node">
<title>n85938699</title>
<ellipse fill="none" stroke="black" cx="1273.19" cy="-18" rx="70.69" ry="18"/>
<text text-anchor="start" x="1226.69" y="-15.3" font-family="Times,serif" font-size="14.00">!sprinkler(</text>
<text text-anchor="start" x="1302.69" y="-15.3" font-family="Times,serif" font-style="italic" font-size="14.00">C</text>
<text text-anchor="start" x="1313.69" y="-15.3" font-family="Times,serif" font-size="14.00">)</text>
</g>
<!-- SUBSn43661275n17795044&#45;&gt;n85938699 -->
<g id="edge21" class="edge">
<title>SUBSn43661275n17795044&#45;&gt;n85938699</title>
<path fill="none" stroke="black" d="M1273.19,-71.7C1273.19,-63.98 1273.19,-54.71 1273.19,-46.11"/>
<polygon fill="black" stroke="black" points="1276.69,-46.1 1273.19,-36.1 1269.69,-46.1 1276.69,-46.1"/>
</g>
<!-- n02116185 -->
<g id="node21" class="node">
<title>n02116185</title>
<ellipse fill="none" stroke="black" cx="70.19" cy="-162" rx="70.39" ry="18"/>
<text text-anchor="start" x="24.19" y="-159.3" font-family="Times,serif" font-size="14.00">!sprinkler(</text>
<text text-anchor="start" x="100.19" y="-159.3" font-family="Times,serif" font-style="italic" font-size="14.00">A</text>
<text text-anchor="start" x="110.19" y="-159.3" font-family="Times,serif" font-size="14.00">)</text>
</g>
<!-- SUBSn46191365n00493592&#45;&gt;n02116185 -->
<g id="edge6" class="edge">
<title>SUBSn46191365n00493592&#45;&gt;n02116185</title>
<path fill="none" stroke="black" d="M151.77,-215.88C137.26,-206.47 119.12,-194.71 103.63,-184.67"/>
<polygon fill="black" stroke="black" points="105.16,-181.49 94.86,-178.99 101.35,-187.36 105.16,-181.49"/>
</g>
<!-- SUBSn02615001n09566145&#45;&gt;n88100094 -->
<g id="edge20" class="edge">
<title>SUBSn02615001n09566145&#45;&gt;n88100094</title>
<path fill="none" stroke="black" d="M1347.19,-215.7C1347.19,-207.98 1347.19,-198.71 1347.19,-190.11"/>
<polygon fill="black" stroke="black" points="1350.69,-190.1 1347.19,-180.1 1343.69,-190.1 1350.69,-190.1"/>
</g>
<!-- n17795044&#45;&gt;SUBSn43661275n17795044 -->
<g id="edge23" class="edge">
<title>n17795044&#45;&gt;SUBSn43661275n17795044</title>
<path fill="none" stroke="black" d="M903,-147.21C1003.59,-131.94 1161.19,-108.01 1233.95,-96.96"/>
</g>
<!-- SUBSn32992520n00493592&#45;&gt;n60539226 -->
<g id="edge16" class="edge">
<title>SUBSn32992520n00493592&#45;&gt;n60539226</title>
<path fill="none" stroke="black" d="M256.29,-215.7C252.2,-207.73 247.24,-198.1 242.7,-189.26"/>
<polygon fill="black" stroke="black" points="245.68,-187.4 237.99,-180.1 239.45,-190.6 245.68,-187.4"/>
</g>
</g>
</svg>
