<?xml version="1.0" encoding="UTF-8" standalone="no"?>
<!DOCTYPE svg PUBLIC "-//W3C//DTD SVG 1.1//EN"
 "http://www.w3.org/Graphics/SVG/1.1/DTD/svg11.dtd">
<!-- Generated by graphviz version 2.43.0 (0)
 -->
<!-- Title: g Pages: 1 -->
<svg width="1413pt" height="476pt"
 viewBox="0.00 0.00 1413.00 476.00" xmlns="http://www.w3.org/2000/svg" xmlns:xlink="http://www.w3.org/1999/xlink">
<g id="graph0" class="graph" transform="scale(1 1) rotate(0) translate(4 472)">
<title>g</title>
<polygon fill="white" stroke="transparent" points="-4,4 -4,-472 1409,-472 1409,4 -4,4"/>
<!-- n84151511 -->
<g id="node1" class="node">
<title>n84151511</title>
<polygon fill="none" stroke="black" points="66,-468 0,-468 0,-432 66,-432 66,-468"/>
<text text-anchor="start" x="8" y="-447.3" font-family="Times,serif" font-size="14.00">rain(</text>
<text text-anchor="start" x="42" y="-447.3" font-family="Times,serif" font-style="italic" font-size="14.00">A</text>
<text text-anchor="start" x="52" y="-447.3" font-family="Times,serif" font-size="14.00">)</text>
</g>
<!-- SUBSn84151511n28674699 -->
<g id="node15" class="node">
<title>SUBSn84151511n28674699</title>
<text text-anchor="start" x="79" y="-374.3" font-family="Times,serif" font-size="14.00">{t0: A}</text>
</g>
<!-- n84151511&#45;&gt;SUBSn84151511n28674699 -->
<g id="edge10" class="edge">
<title>n84151511&#45;&gt;SUBSn84151511n28674699</title>
<path fill="none" stroke="black" d="M50.8,-431.7C61.96,-420.85 76.29,-406.92 87.41,-396.1"/>
</g>
<!-- n88886160 -->
<g id="node2" class="node">
<title>n88886160</title>
<polygon fill="none" stroke="black" points="612,-468 506,-468 506,-432 612,-432 612,-468"/>
<text text-anchor="start" x="514" y="-447.3" font-family="Times,serif" font-size="14.00">before(</text>
<text text-anchor="start" x="566" y="-447.3" font-family="Times,serif" font-style="italic" font-size="14.00">B</text>
<text text-anchor="start" x="577" y="-447.3" font-family="Times,serif" font-size="14.00">, </text>
<text text-anchor="start" x="587" y="-447.3" font-family="Times,serif" font-style="italic" font-size="14.00">C</text>
<text text-anchor="start" x="598" y="-447.3" font-family="Times,serif" font-size="14.00">)</text>
</g>
<!-- n37199469 -->
<g id="node3" class="node">
<title>n37199469</title>
<polygon fill="none" stroke="black" points="737.5,-468 630.5,-468 630.5,-432 737.5,-432 737.5,-468"/>
<text text-anchor="start" x="638.5" y="-447.3" font-family="Times,serif" font-size="14.00">before(</text>
<text text-anchor="start" x="690.5" y="-447.3" font-family="Times,serif" font-style="italic" font-size="14.00">C</text>
<text text-anchor="start" x="701.5" y="-447.3" font-family="Times,serif" font-size="14.00">, </text>
<text text-anchor="start" x="711.5" y="-447.3" font-family="Times,serif" font-style="italic" font-size="14.00">D</text>
<text text-anchor="start" x="723.5" y="-447.3" font-family="Times,serif" font-size="14.00">)</text>
</g>
<!-- n72574782 -->
<g id="node4" class="node">
<title>n72574782</title>
<polygon fill="none" stroke="black" points="488,-468 290,-468 290,-432 488,-432 488,-468"/>
<text text-anchor="start" x="298" y="-447.3" font-family="Times,serif" font-size="14.00">sprinkler(</text>
<text text-anchor="start" x="368" y="-447.3" font-family="Times,serif" font-style="italic" font-size="14.00">B</text>
<text text-anchor="start" x="379" y="-447.3" font-family="Times,serif" font-size="14.00">), sprinkler(</text>
<text text-anchor="start" x="464" y="-447.3" font-family="Times,serif" font-style="italic" font-size="14.00">A</text>
<text text-anchor="start" x="474" y="-447.3" font-family="Times,serif" font-size="14.00">)</text>
</g>
<!-- SUBSn28674699n72574782 -->
<g id="node14" class="node">
<title>SUBSn28674699n72574782</title>
<text text-anchor="start" x="275.5" y="-374.3" font-family="Times,serif" font-size="14.00">{t0: B}</text>
</g>
<!-- n72574782&#45;&gt;SUBSn28674699n72574782 -->
<g id="edge2" class="edge">
<title>n72574782&#45;&gt;SUBSn28674699n72574782</title>
<path fill="none" stroke="black" d="M367.49,-431.7C354.01,-420.85 336.7,-406.92 323.26,-396.1"/>
</g>
<!-- n02057657 -->
<g id="node5" class="node">
<title>n02057657</title>
<polygon fill="none" stroke="black" points="860.5,-468 755.5,-468 755.5,-432 860.5,-432 860.5,-468"/>
<text text-anchor="start" x="763.5" y="-447.3" font-family="Times,serif" font-size="14.00">before(</text>
<text text-anchor="start" x="815.5" y="-447.3" font-family="Times,serif" font-style="italic" font-size="14.00">A</text>
<text text-anchor="start" x="825.5" y="-447.3" font-family="Times,serif" font-size="14.00">, </text>
<text text-anchor="start" x="835.5" y="-447.3" font-family="Times,serif" font-style="italic" font-size="14.00">B</text>
<text text-anchor="start" x="846.5" y="-447.3" font-family="Times,serif" font-size="14.00">)</text>
</g>
<!-- n09651911 -->
<g id="node6" class="node">
<title>n09651911</title>
<polygon fill="none" stroke="black" points="1221.5,-468 878.5,-468 878.5,-432 1221.5,-432 1221.5,-468"/>
<text text-anchor="start" x="886.5" y="-447.3" font-family="Times,serif" font-size="14.00">!rain(</text>
<text text-anchor="start" x="926.5" y="-447.3" font-family="Times,serif" font-weight="bold" font-size="14.00">t10</text>
<text text-anchor="start" x="953.5" y="-447.3" font-family="Times,serif" font-size="14.00">), !before(</text>
<text text-anchor="start" x="1025.5" y="-447.3" font-family="Times,serif" font-weight="bold" font-size="14.00">t10</text>
<text text-anchor="start" x="1052.5" y="-447.3" font-family="Times,serif" font-size="14.00">, </text>
<text text-anchor="start" x="1062.5" y="-447.3" font-family="Times,serif" font-weight="bold" font-size="14.00">t20</text>
<text text-anchor="start" x="1089.5" y="-447.3" font-family="Times,serif" font-size="14.00">), !sprinkler(</text>
<text text-anchor="start" x="1180.5" y="-447.3" font-family="Times,serif" font-weight="bold" font-size="14.00">t20</text>
<text text-anchor="start" x="1207.5" y="-447.3" font-family="Times,serif" font-size="14.00">)</text>
</g>
<!-- n63383409 -->
<g id="node7" class="node">
<title>n63383409</title>
<polygon fill="none" stroke="black" points="335.5,-180 268.5,-180 268.5,-144 335.5,-144 335.5,-180"/>
<text text-anchor="start" x="276.5" y="-159.3" font-family="Times,serif" font-size="14.00">rain(</text>
<text text-anchor="start" x="310.5" y="-159.3" font-family="Times,serif" font-style="italic" font-size="14.00">B</text>
<text text-anchor="start" x="321.5" y="-159.3" font-family="Times,serif" font-size="14.00">)</text>
</g>
<!-- SUBSn63383410n63383409 -->
<g id="node13" class="node">
<title>SUBSn63383410n63383409</title>
<text text-anchor="start" x="242.5" y="-86.3" font-family="Times,serif" font-size="14.00">{}</text>
</g>
<!-- n63383409&#45;&gt;SUBSn63383410n63383409 -->
<g id="edge12" class="edge">
<title>n63383409&#45;&gt;SUBSn63383410n63383409</title>
<path fill="none" stroke="black" d="M289.64,-143.7C281.89,-132.85 271.94,-118.92 264.22,-108.1"/>
</g>
<!-- n24710911 -->
<g id="node8" class="node">
<title>n24710911</title>
<polygon fill="none" stroke="black" points="1312.5,-468 1239.5,-468 1239.5,-432 1312.5,-432 1312.5,-468"/>
<text text-anchor="start" x="1247.5" y="-447.3" font-family="Times,serif" font-size="14.00">!rain(</text>
<text text-anchor="start" x="1287.5" y="-447.3" font-family="Times,serif" font-style="italic" font-size="14.00">C</text>
<text text-anchor="start" x="1298.5" y="-447.3" font-family="Times,serif" font-size="14.00">)</text>
</g>
<!-- n12317801 -->
<g id="node9" class="node">
<title>n12317801</title>
<polygon fill="none" stroke="black" points="1405,-468 1331,-468 1331,-432 1405,-432 1405,-468"/>
<text text-anchor="start" x="1339" y="-447.3" font-family="Times,serif" font-size="14.00">!rain(</text>
<text text-anchor="start" x="1379" y="-447.3" font-family="Times,serif" font-style="italic" font-size="14.00">D</text>
<text text-anchor="start" x="1391" y="-447.3" font-family="Times,serif" font-size="14.00">)</text>
</g>
<!-- n28674699 -->
<g id="node10" class="node">
<title>n28674699</title>
<polygon fill="none" stroke="black" points="271.5,-468 84.5,-468 84.5,-432 271.5,-432 271.5,-468"/>
<text text-anchor="start" x="92.5" y="-447.3" font-family="Times,serif" font-size="14.00">!rain(</text>
<text text-anchor="start" x="132.5" y="-447.3" font-family="Times,serif" font-weight="bold" font-size="14.00">t0</text>
<text text-anchor="start" x="149.5" y="-447.3" font-family="Times,serif" font-size="14.00">), !sprinkler(</text>
<text text-anchor="start" x="240.5" y="-447.3" font-family="Times,serif" font-weight="bold" font-size="14.00">t0</text>
<text text-anchor="start" x="257.5" y="-447.3" font-family="Times,serif" font-size="14.00">)</text>
</g>
<!-- n28674699&#45;&gt;SUBSn28674699n72574782 -->
<g id="edge3" class="edge">
<title>n28674699&#45;&gt;SUBSn28674699n72574782</title>
<path fill="none" stroke="black" d="M208.33,-431.88C227.55,-421.03 252.31,-407.05 271.55,-396.19"/>
</g>
<!-- n28674699&#45;&gt;SUBSn84151511n28674699 -->
<g id="edge9" class="edge">
<title>n28674699&#45;&gt;SUBSn84151511n28674699</title>
<path fill="none" stroke="black" d="M159.96,-431.7C148.64,-420.85 134.11,-406.92 122.84,-396.1"/>
</g>
<!-- SUBSn25903339n37480070 -->
<g id="node11" class="node">
<title>SUBSn25903339n37480070</title>
<text text-anchor="start" x="193.5" y="-230.3" font-family="Times,serif" font-size="14.00">{}</text>
</g>
<!-- n63383410 -->
<g id="node12" class="node">
<title>n63383410</title>
<ellipse fill="none" stroke="black" cx="203" cy="-162" rx="47.39" ry="18"/>
<text text-anchor="start" x="174.5" y="-159.3" font-family="Times,serif" font-size="14.00">!rain(</text>
<text text-anchor="start" x="214.5" y="-159.3" font-family="Times,serif" font-style="italic" font-size="14.00">B</text>
<text text-anchor="start" x="225.5" y="-159.3" font-family="Times,serif" font-size="14.00">)</text>
</g>
<!-- SUBSn25903339n37480070&#45;&gt;n63383410 -->
<g id="edge5" class="edge">
<title>SUBSn25903339n37480070&#45;&gt;n63383410</title>
<path fill="none" stroke="black" d="M203,-215.7C203,-207.98 203,-198.71 203,-190.11"/>
<polygon fill="black" stroke="black" points="206.5,-190.1 203,-180.1 199.5,-190.1 206.5,-190.1"/>
</g>
<!-- n63383410&#45;&gt;SUBSn63383410n63383409 -->
<g id="edge1" class="edge">
<title>n63383410&#45;&gt;SUBSn63383410n63383409</title>
<path fill="none" stroke="black" d="M214.61,-144.41C222.2,-133.58 232.09,-119.45 239.79,-108.45"/>
</g>
<!-- n00000000 -->
<g id="node17" class="node">
<title>n00000000</title>
<ellipse fill="none" stroke="black" cx="252" cy="-18" rx="41.69" ry="18"/>
<text text-anchor="start" x="228" y="-14.3" font-family="Times,serif" font-size="14.00">FALSE</text>
</g>
<!-- SUBSn63383410n63383409&#45;&gt;n00000000 -->
<g id="edge8" class="edge">
<title>SUBSn63383410n63383409&#45;&gt;n00000000</title>
<path fill="none" stroke="black" d="M252,-71.7C252,-63.98 252,-54.71 252,-46.11"/>
<polygon fill="black" stroke="black" points="255.5,-46.1 252,-36.1 248.5,-46.1 255.5,-46.1"/>
</g>
<!-- n37480070 -->
<g id="node18" class="node">
<title>n37480070</title>
<ellipse fill="none" stroke="black" cx="302" cy="-306" rx="109.38" ry="18"/>
<text text-anchor="start" x="226" y="-303.3" font-family="Times,serif" font-size="14.00">sprinkler(</text>
<text text-anchor="start" x="296" y="-303.3" font-family="Times,serif" font-style="italic" font-size="14.00">A</text>
<text text-anchor="start" x="306" y="-303.3" font-family="Times,serif" font-size="14.00">), !rain(</text>
<text text-anchor="start" x="361" y="-303.3" font-family="Times,serif" font-style="italic" font-size="14.00">B</text>
<text text-anchor="start" x="372" y="-303.3" font-family="Times,serif" font-size="14.00">)</text>
</g>
<!-- SUBSn28674699n72574782&#45;&gt;n37480070 -->
<g id="edge11" class="edge">
<title>SUBSn28674699n72574782&#45;&gt;n37480070</title>
<path fill="none" stroke="black" d="M302,-359.7C302,-351.98 302,-342.71 302,-334.11"/>
<polygon fill="black" stroke="black" points="305.5,-334.1 302,-324.1 298.5,-334.1 305.5,-334.1"/>
</g>
<!-- n25903339 -->
<g id="node16" class="node">
<title>n25903339</title>
<ellipse fill="none" stroke="black" cx="105" cy="-306" rx="70.39" ry="18"/>
<text text-anchor="start" x="59" y="-303.3" font-family="Times,serif" font-size="14.00">!sprinkler(</text>
<text text-anchor="start" x="135" y="-303.3" font-family="Times,serif" font-style="italic" font-size="14.00">A</text>
<text text-anchor="start" x="145" y="-303.3" font-family="Times,serif" font-size="14.00">)</text>
</g>
<!-- SUBSn84151511n28674699&#45;&gt;n25903339 -->
<g id="edge4" class="edge">
<title>SUBSn84151511n28674699&#45;&gt;n25903339</title>
<path fill="none" stroke="black" d="M105,-359.7C105,-351.98 105,-342.71 105,-334.11"/>
<polygon fill="black" stroke="black" points="108.5,-334.1 105,-324.1 101.5,-334.1 108.5,-334.1"/>
</g>
<!-- n25903339&#45;&gt;SUBSn25903339n37480070 -->
<g id="edge6" class="edge">
<title>n25903339&#45;&gt;SUBSn25903339n37480070</title>
<path fill="none" stroke="black" d="M127.73,-288.76C143.11,-277.78 163.39,-263.29 179.03,-252.12"/>
</g>
<!-- n37480070&#45;&gt;SUBSn25903339n37480070 -->
<g id="edge7" class="edge">
<title>n37480070&#45;&gt;SUBSn25903339n37480070</title>
<path fill="none" stroke="black" d="M278.54,-288.41C263.1,-277.49 242.94,-263.24 227.33,-252.2"/>
</g>
</g>
</svg>
