<?xml version="1.0" encoding="UTF-8" standalone="no"?>
<!DOCTYPE svg PUBLIC "-//W3C//DTD SVG 1.1//EN"
 "http://www.w3.org/Graphics/SVG/1.1/DTD/svg11.dtd">
<!-- Generated by graphviz version 2.43.0 (0)
 -->
<!-- Title: g Pages: 1 -->
<svg width="3102pt" height="476pt"
 viewBox="0.00 0.00 3101.74 476.00" xmlns="http://www.w3.org/2000/svg" xmlns:xlink="http://www.w3.org/1999/xlink">
<g id="graph0" class="graph" transform="scale(1 1) rotate(0) translate(4 472)">
<title>g</title>
<polygon fill="white" stroke="transparent" points="-4,4 -4,-472 3097.74,-472 3097.74,4 -4,4"/>
<!-- n36780467 -->
<g id="node1" class="node">
<title>n36780467</title>
<polygon fill="none" stroke="black" points="1051,-468 862,-468 862,-432 1051,-432 1051,-468"/>
<text text-anchor="start" x="870" y="-447.3" font-family="Times,serif" font-size="14.00">animal(</text>
<text text-anchor="start" x="924" y="-447.3" font-family="Times,serif" font-weight="bold" font-size="14.00">x4</text>
<text text-anchor="start" x="943" y="-447.3" font-family="Times,serif" font-size="14.00">), !person(</text>
<text text-anchor="start" x="1018" y="-447.3" font-family="Times,serif" font-weight="bold" font-size="14.00">x4</text>
<text text-anchor="start" x="1037" y="-447.3" font-family="Times,serif" font-size="14.00">)</text>
</g>
<!-- SUBSn36780467n57817465 -->
<g id="node19" class="node">
<title>SUBSn36780467n57817465</title>
<text text-anchor="start" x="410" y="-374.3" font-family="Times,serif" font-size="14.00">{x4: B794, x3: B794}</text>
</g>
<!-- n36780467&#45;&gt;SUBSn36780467n57817465 -->
<g id="edge19" class="edge">
<title>n36780467&#45;&gt;SUBSn36780467n57817465</title>
<path fill="none" stroke="black" d="M861.87,-434.88C777.45,-422.28 654.92,-403.99 573.3,-391.81"/>
</g>
<!-- SUBSn36780467n49962364 -->
<g id="node20" class="node">
<title>SUBSn36780467n49962364</title>
<text text-anchor="start" x="735.5" y="-230.3" font-family="Times,serif" font-size="14.00">{x4: SK0}</text>
</g>
<!-- n36780467&#45;&gt;SUBSn36780467n49962364 -->
<g id="edge5" class="edge">
<title>n36780467&#45;&gt;SUBSn36780467n49962364</title>
<path fill="none" stroke="black" d="M959.97,-431.67C965.36,-399.42 971.84,-329.72 937.5,-288 908.43,-252.69 855.72,-240.63 817.68,-236.65"/>
</g>
<!-- SUBSn36780467n09955873 -->
<g id="node22" class="node">
<title>SUBSn36780467n09955873</title>
<text text-anchor="start" x="1525" y="-86.3" font-family="Times,serif" font-size="14.00">{x4: SKF0(Kim)}</text>
</g>
<!-- n36780467&#45;&gt;SUBSn36780467n09955873 -->
<g id="edge37" class="edge">
<title>n36780467&#45;&gt;SUBSn36780467n09955873</title>
<path fill="none" stroke="black" d="M964.8,-431.68C969.41,-421.49 974.91,-408.24 978.5,-396 989.83,-357.44 994.5,-347.19 994.5,-307 994.5,-307 994.5,-307 994.5,-233 994.5,-192.55 983.26,-170.86 1013.5,-144 1050.42,-111.2 1372.21,-97.45 1516.74,-92.89"/>
</g>
<!-- SUBSn57817465n36780467 -->
<g id="node27" class="node">
<title>SUBSn57817465n36780467</title>
<text text-anchor="start" x="710" y="-374.3" font-family="Times,serif" font-size="14.00">{x3: B793, x4: B793}</text>
</g>
<!-- n36780467&#45;&gt;SUBSn57817465n36780467 -->
<g id="edge40" class="edge">
<title>n36780467&#45;&gt;SUBSn57817465n36780467</title>
<path fill="none" stroke="black" d="M915.16,-431.88C888.87,-420.99 854.97,-406.95 828.71,-396.07"/>
</g>
<!-- SUBSn79711987n36780467 -->
<g id="node31" class="node">
<title>SUBSn79711987n36780467</title>
<text text-anchor="start" x="1421.5" y="-374.3" font-family="Times,serif" font-size="14.00">{x4: SKF0(x1)}</text>
</g>
<!-- n36780467&#45;&gt;SUBSn79711987n36780467 -->
<g id="edge44" class="edge">
<title>n36780467&#45;&gt;SUBSn79711987n36780467</title>
<path fill="none" stroke="black" d="M1051.15,-436.28C1156.18,-422.17 1322.78,-399.79 1413.49,-387.6"/>
</g>
<!-- n95418964 -->
<g id="node2" class="node">
<title>n95418964</title>
<polygon fill="none" stroke="black" points="2800,-468 2701,-468 2701,-432 2800,-432 2800,-468"/>
<text text-anchor="start" x="2709" y="-447.3" font-family="Times,serif" font-size="14.00">angry(</text>
<text text-anchor="start" x="2756" y="-447.3" font-family="Times,serif" font-style="italic" font-size="14.00">SK0</text>
<text text-anchor="start" x="2786" y="-447.3" font-family="Times,serif" font-size="14.00">)</text>
</g>
<!-- n79711987 -->
<g id="node3" class="node">
<title>n79711987</title>
<polygon fill="none" stroke="black" points="1905.5,-468 1585.5,-468 1585.5,-432 1905.5,-432 1905.5,-468"/>
<text text-anchor="start" x="1593.5" y="-447.3" font-family="Times,serif" font-size="14.00">person(</text>
<text text-anchor="start" x="1648.5" y="-447.3" font-family="Times,serif" font-style="italic" font-size="14.00">SKF0</text>
<text text-anchor="start" x="1688.5" y="-447.3" font-family="Times,serif" font-size="14.00">(</text>
<text text-anchor="start" x="1694.5" y="-447.3" font-family="Times,serif" font-weight="bold" font-size="14.00">x1</text>
<text text-anchor="start" x="1713.5" y="-447.3" font-family="Times,serif" font-size="14.00">)), !dog(</text>
<text text-anchor="start" x="1771.5" y="-447.3" font-family="Times,serif" font-weight="bold" font-size="14.00">x1</text>
<text text-anchor="start" x="1790.5" y="-447.3" font-family="Times,serif" font-size="14.00">), !friendly(</text>
<text text-anchor="start" x="1872.5" y="-447.3" font-family="Times,serif" font-weight="bold" font-size="14.00">x1</text>
<text text-anchor="start" x="1891.5" y="-447.3" font-family="Times,serif" font-size="14.00">)</text>
</g>
<!-- SUBSn79711987n37896974 -->
<g id="node16" class="node">
<title>SUBSn79711987n37896974</title>
<text text-anchor="start" x="1933" y="-374.3" font-family="Times,serif" font-size="14.00">{x1: Kim}</text>
</g>
<!-- n79711987&#45;&gt;SUBSn79711987n37896974 -->
<g id="edge27" class="edge">
<title>n79711987&#45;&gt;SUBSn79711987n37896974</title>
<path fill="none" stroke="black" d="M1800.01,-431.97C1838.34,-419.99 1889,-404.16 1924.92,-392.93"/>
</g>
<!-- SUBSn79711987n21395108 -->
<g id="node18" class="node">
<title>SUBSn79711987n21395108</title>
<text text-anchor="start" x="1849" y="-230.3" font-family="Times,serif" font-size="14.00">{x1: Kim}</text>
</g>
<!-- n79711987&#45;&gt;SUBSn79711987n21395108 -->
<g id="edge22" class="edge">
<title>n79711987&#45;&gt;SUBSn79711987n21395108</title>
<path fill="none" stroke="black" d="M1748.29,-431.76C1754.11,-400.28 1770.07,-332.61 1805.5,-288 1817.31,-273.13 1834.47,-260.99 1849.87,-252.1"/>
</g>
<!-- n79711987&#45;&gt;SUBSn79711987n36780467 -->
<g id="edge41" class="edge">
<title>n79711987&#45;&gt;SUBSn79711987n36780467</title>
<path fill="none" stroke="black" d="M1680.28,-431.97C1638.14,-420.96 1583.54,-406.7 1541.62,-395.75"/>
</g>
<!-- n85317042 -->
<g id="node4" class="node">
<title>n85317042</title>
<polygon fill="none" stroke="black" points="2683.5,-468 2347.5,-468 2347.5,-432 2683.5,-432 2683.5,-468"/>
<text text-anchor="start" x="2355.5" y="-447.3" font-family="Times,serif" font-size="14.00">!dog(</text>
<text text-anchor="start" x="2393.5" y="-447.3" font-family="Times,serif" font-weight="bold" font-size="14.00">x2</text>
<text text-anchor="start" x="2412.5" y="-447.3" font-family="Times,serif" font-size="14.00">), loves(</text>
<text text-anchor="start" x="2469.5" y="-447.3" font-family="Times,serif" font-style="italic" font-size="14.00">SKF0</text>
<text text-anchor="start" x="2509.5" y="-447.3" font-family="Times,serif" font-size="14.00">(</text>
<text text-anchor="start" x="2515.5" y="-447.3" font-family="Times,serif" font-weight="bold" font-size="14.00">x2</text>
<text text-anchor="start" x="2534.5" y="-447.3" font-family="Times,serif" font-size="14.00">), </text>
<text text-anchor="start" x="2549.5" y="-447.3" font-family="Times,serif" font-weight="bold" font-size="14.00">x2</text>
<text text-anchor="start" x="2568.5" y="-447.3" font-family="Times,serif" font-size="14.00">), !friendly(</text>
<text text-anchor="start" x="2650.5" y="-447.3" font-family="Times,serif" font-weight="bold" font-size="14.00">x2</text>
<text text-anchor="start" x="2669.5" y="-447.3" font-family="Times,serif" font-size="14.00">)</text>
</g>
<!-- SUBSn85317042n21395108 -->
<g id="node32" class="node">
<title>SUBSn85317042n21395108</title>
<text text-anchor="start" x="2579" y="-230.3" font-family="Times,serif" font-size="14.00">{x2: Kim}</text>
</g>
<!-- n85317042&#45;&gt;SUBSn85317042n21395108 -->
<g id="edge28" class="edge">
<title>n85317042&#45;&gt;SUBSn85317042n21395108</title>
<path fill="none" stroke="black" d="M2529.5,-431.93C2547.69,-408.87 2579.18,-365.81 2596.5,-324 2606.35,-300.21 2611.36,-270.63 2613.7,-252.28"/>
</g>
<!-- SUBSn85317042n37896974 -->
<g id="node37" class="node">
<title>SUBSn85317042n37896974</title>
<text text-anchor="start" x="2379" y="-374.3" font-family="Times,serif" font-size="14.00">{x2: Kim}</text>
</g>
<!-- n85317042&#45;&gt;SUBSn85317042n37896974 -->
<g id="edge21" class="edge">
<title>n85317042&#45;&gt;SUBSn85317042n37896974</title>
<path fill="none" stroke="black" d="M2491.04,-431.88C2475.54,-421.03 2455.57,-407.05 2440.06,-396.19"/>
</g>
<!-- n57817465 -->
<g id="node5" class="node">
<title>n57817465</title>
<polygon fill="none" stroke="black" points="553.5,-468 381.5,-468 381.5,-432 553.5,-432 553.5,-468"/>
<text text-anchor="start" x="389.5" y="-447.3" font-family="Times,serif" font-size="14.00">!man(</text>
<text text-anchor="start" x="432.5" y="-447.3" font-family="Times,serif" font-weight="bold" font-size="14.00">x3</text>
<text text-anchor="start" x="451.5" y="-447.3" font-family="Times,serif" font-size="14.00">), person(</text>
<text text-anchor="start" x="520.5" y="-447.3" font-family="Times,serif" font-weight="bold" font-size="14.00">x3</text>
<text text-anchor="start" x="539.5" y="-447.3" font-family="Times,serif" font-size="14.00">)</text>
</g>
<!-- n57817465&#45;&gt;SUBSn36780467n57817465 -->
<g id="edge4" class="edge">
<title>n57817465&#45;&gt;SUBSn36780467n57817465</title>
<path fill="none" stroke="black" d="M472.44,-431.7C475.54,-420.85 479.52,-406.92 482.61,-396.1"/>
</g>
<!-- n57817465&#45;&gt;SUBSn57817465n36780467 -->
<g id="edge23" class="edge">
<title>n57817465&#45;&gt;SUBSn57817465n36780467</title>
<path fill="none" stroke="black" d="M545.37,-431.97C595.23,-421.06 659.69,-406.96 709.56,-396.05"/>
</g>
<!-- SUBSn57817465n69060050 -->
<g id="node40" class="node">
<title>SUBSn57817465n69060050</title>
<text text-anchor="start" x="261.5" y="-374.3" font-family="Times,serif" font-size="14.00">{x3: SK0}</text>
</g>
<!-- n57817465&#45;&gt;SUBSn57817465n69060050 -->
<g id="edge18" class="edge">
<title>n57817465&#45;&gt;SUBSn57817465n69060050</title>
<path fill="none" stroke="black" d="M426.16,-431.88C399.87,-420.99 365.97,-406.95 339.71,-396.07"/>
</g>
<!-- SUBSn57817465n67597851 -->
<g id="node42" class="node">
<title>SUBSn57817465n67597851</title>
<text text-anchor="start" x="57.5" y="-374.3" font-family="Times,serif" font-size="14.00">{x3: Mike}</text>
</g>
<!-- n57817465&#45;&gt;SUBSn57817465n67597851 -->
<g id="edge29" class="edge">
<title>n57817465&#45;&gt;SUBSn57817465n67597851</title>
<path fill="none" stroke="black" d="M381.22,-432.68C307.87,-418.8 205.24,-399.38 145.63,-388.11"/>
</g>
<!-- n21395108 -->
<g id="node6" class="node">
<title>n21395108</title>
<polygon fill="none" stroke="black" points="2225,-324 2142,-324 2142,-288 2225,-288 2225,-324"/>
<text text-anchor="start" x="2150" y="-303.3" font-family="Times,serif" font-size="14.00">dog(</text>
<text text-anchor="start" x="2182" y="-303.3" font-family="Times,serif" font-style="italic" font-size="14.00">Kim</text>
<text text-anchor="start" x="2211" y="-303.3" font-family="Times,serif" font-size="14.00">)</text>
</g>
<!-- SUBSn37274841n21395108 -->
<g id="node12" class="node">
<title>SUBSn37274841n21395108</title>
<text text-anchor="start" x="2406" y="-230.3" font-family="Times,serif" font-size="14.00">{}</text>
</g>
<!-- n21395108&#45;&gt;SUBSn37274841n21395108 -->
<g id="edge49" class="edge">
<title>n21395108&#45;&gt;SUBSn37274841n21395108</title>
<path fill="none" stroke="black" d="M2225.21,-290.96C2228.35,-289.94 2231.47,-288.95 2234.5,-288 2288.87,-270.98 2352.95,-252.61 2388.42,-242.59"/>
</g>
<!-- SUBSn80626695n21395108 -->
<g id="node14" class="node">
<title>SUBSn80626695n21395108</title>
<text text-anchor="start" x="1501" y="-230.3" font-family="Times,serif" font-size="14.00">{x1: Kim}</text>
</g>
<!-- n21395108&#45;&gt;SUBSn80626695n21395108 -->
<g id="edge32" class="edge">
<title>n21395108&#45;&gt;SUBSn80626695n21395108</title>
<path fill="none" stroke="black" d="M2141.97,-290.05C2139.12,-289.28 2136.28,-288.59 2133.5,-288 2028.05,-265.72 1701.98,-244.74 1582.22,-237.59"/>
</g>
<!-- n21395108&#45;&gt;SUBSn79711987n21395108 -->
<g id="edge8" class="edge">
<title>n21395108&#45;&gt;SUBSn79711987n21395108</title>
<path fill="none" stroke="black" d="M2141.87,-290.44C2139.05,-289.58 2136.24,-288.76 2133.5,-288 2063.26,-268.62 1980.19,-252.15 1930.23,-242.92"/>
</g>
<!-- SUBSn47514428n21395108 -->
<g id="node25" class="node">
<title>SUBSn47514428n21395108</title>
<text text-anchor="start" x="2841" y="-230.3" font-family="Times,serif" font-size="14.00">{x0: Kim}</text>
</g>
<!-- n21395108&#45;&gt;SUBSn47514428n21395108 -->
<g id="edge33" class="edge">
<title>n21395108&#45;&gt;SUBSn47514428n21395108</title>
<path fill="none" stroke="black" d="M2225.03,-290.26C2228.21,-289.4 2231.39,-288.64 2234.5,-288 2238.18,-287.25 2687.64,-250.5 2832.83,-238.65"/>
</g>
<!-- SUBSn31350982n21395108 -->
<g id="node29" class="node">
<title>SUBSn31350982n21395108</title>
<text text-anchor="start" x="2170" y="-230.3" font-family="Times,serif" font-size="14.00">{}</text>
</g>
<!-- n21395108&#45;&gt;SUBSn31350982n21395108 -->
<g id="edge24" class="edge">
<title>n21395108&#45;&gt;SUBSn31350982n21395108</title>
<path fill="none" stroke="black" d="M2182.51,-287.7C2181.89,-276.85 2181.1,-262.92 2180.48,-252.1"/>
</g>
<!-- n21395108&#45;&gt;SUBSn85317042n21395108 -->
<g id="edge38" class="edge">
<title>n21395108&#45;&gt;SUBSn85317042n21395108</title>
<path fill="none" stroke="black" d="M2225.07,-290.45C2228.24,-289.55 2231.41,-288.72 2234.5,-288 2297.65,-273.21 2484.33,-250.35 2570.71,-240.18"/>
</g>
<!-- n12199498 -->
<g id="node7" class="node">
<title>n12199498</title>
<polygon fill="none" stroke="black" points="2958.5,-468 2818.5,-468 2818.5,-432 2958.5,-432 2958.5,-468"/>
<text text-anchor="start" x="2826.5" y="-447.3" font-family="Times,serif" font-size="14.00">loves(</text>
<text text-anchor="start" x="2869.5" y="-447.3" font-family="Times,serif" font-style="italic" font-size="14.00">Mike</text>
<text text-anchor="start" x="2905.5" y="-447.3" font-family="Times,serif" font-size="14.00">, </text>
<text text-anchor="start" x="2915.5" y="-447.3" font-family="Times,serif" font-style="italic" font-size="14.00">Kim</text>
<text text-anchor="start" x="2944.5" y="-447.3" font-family="Times,serif" font-size="14.00">)</text>
</g>
<!-- n37896974 -->
<g id="node8" class="node">
<title>n37896974</title>
<polygon fill="none" stroke="black" points="2035.5,-468 1923.5,-468 1923.5,-432 2035.5,-432 2035.5,-468"/>
<text text-anchor="start" x="1931.5" y="-447.3" font-family="Times,serif" font-size="14.00">friendly(</text>
<text text-anchor="start" x="1992.5" y="-447.3" font-family="Times,serif" font-style="italic" font-size="14.00">Kim</text>
<text text-anchor="start" x="2021.5" y="-447.3" font-family="Times,serif" font-size="14.00">)</text>
</g>
<!-- n37896974&#45;&gt;SUBSn79711987n37896974 -->
<g id="edge7" class="edge">
<title>n37896974&#45;&gt;SUBSn79711987n37896974</title>
<path fill="none" stroke="black" d="M1977.03,-431.7C1975.48,-420.85 1973.49,-406.92 1971.94,-396.1"/>
</g>
<!-- n37896974&#45;&gt;SUBSn85317042n37896974 -->
<g id="edge16" class="edge">
<title>n37896974&#45;&gt;SUBSn85317042n37896974</title>
<path fill="none" stroke="black" d="M2035.61,-439.99C2123.23,-425.92 2290.81,-399.02 2370.83,-386.17"/>
</g>
<!-- SUBSn80626695n37896974 -->
<g id="node39" class="node">
<title>SUBSn80626695n37896974</title>
<text text-anchor="start" x="1394" y="-230.3" font-family="Times,serif" font-size="14.00">{x1: Kim}</text>
</g>
<!-- n37896974&#45;&gt;SUBSn80626695n37896974 -->
<g id="edge20" class="edge">
<title>n37896974&#45;&gt;SUBSn80626695n37896974</title>
<path fill="none" stroke="black" d="M1955.63,-431.75C1908.2,-398.38 1797.67,-324.99 1693.5,-288 1604.27,-256.31 1575.48,-274.52 1483.5,-252 1480.78,-251.33 1477.99,-250.6 1475.19,-249.82"/>
</g>
<!-- n67597851 -->
<g id="node9" class="node">
<title>n67597851</title>
<polygon fill="none" stroke="black" points="95,-468 0,-468 0,-432 95,-432 95,-468"/>
<text text-anchor="start" x="8" y="-447.3" font-family="Times,serif" font-size="14.00">man(</text>
<text text-anchor="start" x="45" y="-447.3" font-family="Times,serif" font-style="italic" font-size="14.00">Mike</text>
<text text-anchor="start" x="81" y="-447.3" font-family="Times,serif" font-size="14.00">)</text>
</g>
<!-- n67597851&#45;&gt;SUBSn57817465n67597851 -->
<g id="edge46" class="edge">
<title>n67597851&#45;&gt;SUBSn57817465n67597851</title>
<path fill="none" stroke="black" d="M59.86,-431.7C67.61,-420.85 77.56,-406.92 85.28,-396.1"/>
</g>
<!-- SUBSn67597851n88095933 -->
<g id="node44" class="node">
<title>SUBSn67597851n88095933</title>
<text text-anchor="start" x="192.5" y="-230.3" font-family="Times,serif" font-size="14.00">{B794: Mike}</text>
</g>
<!-- n67597851&#45;&gt;SUBSn67597851n88095933 -->
<g id="edge43" class="edge">
<title>n67597851&#45;&gt;SUBSn67597851n88095933</title>
<path fill="none" stroke="black" d="M36.12,-431.88C16.5,-399.99 -18.51,-330.86 15.5,-288 36.22,-261.88 124.29,-247.43 184.44,-240.45"/>
</g>
<!-- n47514428 -->
<g id="node10" class="node">
<title>n47514428</title>
<polygon fill="none" stroke="black" points="2960.5,-324 2794.5,-324 2794.5,-288 2960.5,-288 2960.5,-324"/>
<text text-anchor="start" x="2802.5" y="-303.3" font-family="Times,serif" font-size="14.00">!dog(</text>
<text text-anchor="start" x="2840.5" y="-303.3" font-family="Times,serif" font-weight="bold" font-size="14.00">x0</text>
<text text-anchor="start" x="2859.5" y="-303.3" font-family="Times,serif" font-size="14.00">), animal(</text>
<text text-anchor="start" x="2927.5" y="-303.3" font-family="Times,serif" font-weight="bold" font-size="14.00">x0</text>
<text text-anchor="start" x="2946.5" y="-303.3" font-family="Times,serif" font-size="14.00">)</text>
</g>
<!-- n47514428&#45;&gt;SUBSn47514428n21395108 -->
<g id="edge50" class="edge">
<title>n47514428&#45;&gt;SUBSn47514428n21395108</title>
<path fill="none" stroke="black" d="M2877.5,-287.7C2877.5,-276.85 2877.5,-262.92 2877.5,-252.1"/>
</g>
<!-- n69060050 -->
<g id="node11" class="node">
<title>n69060050</title>
<polygon fill="none" stroke="black" points="343,-468 254,-468 254,-432 343,-432 343,-468"/>
<text text-anchor="start" x="262" y="-447.3" font-family="Times,serif" font-size="14.00">man(</text>
<text text-anchor="start" x="299" y="-447.3" font-family="Times,serif" font-style="italic" font-size="14.00">SK0</text>
<text text-anchor="start" x="329" y="-447.3" font-family="Times,serif" font-size="14.00">)</text>
</g>
<!-- n69060050&#45;&gt;SUBSn57817465n69060050 -->
<g id="edge45" class="edge">
<title>n69060050&#45;&gt;SUBSn57817465n69060050</title>
<path fill="none" stroke="black" d="M298.5,-431.7C298.5,-420.85 298.5,-406.92 298.5,-396.1"/>
</g>
<!-- n15879732 -->
<g id="node35" class="node">
<title>n15879732</title>
<ellipse fill="none" stroke="black" cx="2419.5" cy="-162" rx="119.68" ry="18"/>
<text text-anchor="start" x="2335.5" y="-159.3" font-family="Times,serif" font-size="14.00">loves(</text>
<text text-anchor="start" x="2378.5" y="-159.3" font-family="Times,serif" font-style="italic" font-size="14.00">SKF0</text>
<text text-anchor="start" x="2418.5" y="-159.3" font-family="Times,serif" font-size="14.00">(</text>
<text text-anchor="start" x="2424.5" y="-159.3" font-family="Times,serif" font-style="italic" font-size="14.00">Kim</text>
<text text-anchor="start" x="2453.5" y="-159.3" font-family="Times,serif" font-size="14.00">), </text>
<text text-anchor="start" x="2468.5" y="-159.3" font-family="Times,serif" font-style="italic" font-size="14.00">Kim</text>
<text text-anchor="start" x="2497.5" y="-159.3" font-family="Times,serif" font-size="14.00">)</text>
</g>
<!-- SUBSn37274841n21395108&#45;&gt;n15879732 -->
<g id="edge30" class="edge">
<title>SUBSn37274841n21395108&#45;&gt;n15879732</title>
<path fill="none" stroke="black" d="M2416.49,-215.7C2416.93,-207.98 2417.46,-198.71 2417.95,-190.11"/>
<polygon fill="black" stroke="black" points="2421.45,-190.29 2418.52,-180.1 2414.46,-189.89 2421.45,-190.29"/>
</g>
<!-- n80626695 -->
<g id="node13" class="node">
<title>n80626695</title>
<ellipse fill="none" stroke="black" cx="1477.5" cy="-306" rx="206.86" ry="18"/>
<text text-anchor="start" x="1326.5" y="-303.3" font-family="Times,serif" font-size="14.00">!dog(</text>
<text text-anchor="start" x="1364.5" y="-303.3" font-family="Times,serif" font-weight="bold" font-size="14.00">x1</text>
<text text-anchor="start" x="1383.5" y="-303.3" font-family="Times,serif" font-size="14.00">), !friendly(</text>
<text text-anchor="start" x="1465.5" y="-303.3" font-family="Times,serif" font-weight="bold" font-size="14.00">x1</text>
<text text-anchor="start" x="1484.5" y="-303.3" font-family="Times,serif" font-size="14.00">), animal(</text>
<text text-anchor="start" x="1552.5" y="-303.3" font-family="Times,serif" font-style="italic" font-size="14.00">SKF0</text>
<text text-anchor="start" x="1592.5" y="-303.3" font-family="Times,serif" font-size="14.00">(</text>
<text text-anchor="start" x="1598.5" y="-303.3" font-family="Times,serif" font-weight="bold" font-size="14.00">x1</text>
<text text-anchor="start" x="1617.5" y="-303.3" font-family="Times,serif" font-size="14.00">))</text>
</g>
<!-- n80626695&#45;&gt;SUBSn80626695n21395108 -->
<g id="edge1" class="edge">
<title>n80626695&#45;&gt;SUBSn80626695n21395108</title>
<path fill="none" stroke="black" d="M1492.33,-287.7C1501.63,-276.85 1513.57,-262.92 1522.84,-252.1"/>
</g>
<!-- n80626695&#45;&gt;SUBSn80626695n37896974 -->
<g id="edge17" class="edge">
<title>n80626695&#45;&gt;SUBSn80626695n37896974</title>
<path fill="none" stroke="black" d="M1465.88,-287.7C1458.6,-276.85 1449.24,-262.92 1441.98,-252.1"/>
</g>
<!-- n46938140 -->
<g id="node36" class="node">
<title>n46938140</title>
<ellipse fill="none" stroke="black" cx="1521.5" cy="-162" rx="172.77" ry="18"/>
<text text-anchor="start" x="1396.5" y="-159.3" font-family="Times,serif" font-size="14.00">!friendly(</text>
<text text-anchor="start" x="1463.5" y="-159.3" font-family="Times,serif" font-style="italic" font-size="14.00">Kim</text>
<text text-anchor="start" x="1492.5" y="-159.3" font-family="Times,serif" font-size="14.00">), animal(</text>
<text text-anchor="start" x="1560.5" y="-159.3" font-family="Times,serif" font-style="italic" font-size="14.00">SKF0</text>
<text text-anchor="start" x="1600.5" y="-159.3" font-family="Times,serif" font-size="14.00">(</text>
<text text-anchor="start" x="1606.5" y="-159.3" font-family="Times,serif" font-style="italic" font-size="14.00">Kim</text>
<text text-anchor="start" x="1635.5" y="-159.3" font-family="Times,serif" font-size="14.00">))</text>
</g>
<!-- SUBSn80626695n21395108&#45;&gt;n46938140 -->
<g id="edge15" class="edge">
<title>SUBSn80626695n21395108&#45;&gt;n46938140</title>
<path fill="none" stroke="black" d="M1533.54,-215.7C1531.78,-207.98 1529.66,-198.71 1527.7,-190.11"/>
<polygon fill="black" stroke="black" points="1531.05,-189.07 1525.41,-180.1 1524.23,-190.63 1531.05,-189.07"/>
</g>
<!-- n37274841 -->
<g id="node15" class="node">
<title>n37274841</title>
<ellipse fill="none" stroke="black" cx="2415.5" cy="-306" rx="172.47" ry="18"/>
<text text-anchor="start" x="2291" y="-303.3" font-family="Times,serif" font-size="14.00">!dog(</text>
<text text-anchor="start" x="2329" y="-303.3" font-family="Times,serif" font-style="italic" font-size="14.00">Kim</text>
<text text-anchor="start" x="2358" y="-303.3" font-family="Times,serif" font-size="14.00">), loves(</text>
<text text-anchor="start" x="2415" y="-303.3" font-family="Times,serif" font-style="italic" font-size="14.00">SKF0</text>
<text text-anchor="start" x="2455" y="-303.3" font-family="Times,serif" font-size="14.00">(</text>
<text text-anchor="start" x="2461" y="-303.3" font-family="Times,serif" font-style="italic" font-size="14.00">Kim</text>
<text text-anchor="start" x="2490" y="-303.3" font-family="Times,serif" font-size="14.00">), </text>
<text text-anchor="start" x="2505" y="-303.3" font-family="Times,serif" font-style="italic" font-size="14.00">Kim</text>
<text text-anchor="start" x="2534" y="-303.3" font-family="Times,serif" font-size="14.00">)</text>
</g>
<!-- n37274841&#45;&gt;SUBSn37274841n21395108 -->
<g id="edge2" class="edge">
<title>n37274841&#45;&gt;SUBSn37274841n21395108</title>
<path fill="none" stroke="black" d="M2415.5,-287.7C2415.5,-276.85 2415.5,-262.92 2415.5,-252.1"/>
</g>
<!-- n31350982 -->
<g id="node17" class="node">
<title>n31350982</title>
<ellipse fill="none" stroke="black" cx="1969.5" cy="-306" rx="154.87" ry="18"/>
<text text-anchor="start" x="1858.5" y="-303.3" font-family="Times,serif" font-size="14.00">!dog(</text>
<text text-anchor="start" x="1896.5" y="-303.3" font-family="Times,serif" font-style="italic" font-size="14.00">Kim</text>
<text text-anchor="start" x="1925.5" y="-303.3" font-family="Times,serif" font-size="14.00">), person(</text>
<text text-anchor="start" x="1994.5" y="-303.3" font-family="Times,serif" font-style="italic" font-size="14.00">SKF0</text>
<text text-anchor="start" x="2034.5" y="-303.3" font-family="Times,serif" font-size="14.00">(</text>
<text text-anchor="start" x="2040.5" y="-303.3" font-family="Times,serif" font-style="italic" font-size="14.00">Kim</text>
<text text-anchor="start" x="2069.5" y="-303.3" font-family="Times,serif" font-size="14.00">))</text>
</g>
<!-- SUBSn79711987n37896974&#45;&gt;n31350982 -->
<g id="edge3" class="edge">
<title>SUBSn79711987n37896974&#45;&gt;n31350982</title>
<path fill="none" stroke="black" d="M1969.5,-359.7C1969.5,-351.98 1969.5,-342.71 1969.5,-334.11"/>
<polygon fill="black" stroke="black" points="1973,-334.1 1969.5,-324.1 1966,-334.1 1973,-334.1"/>
</g>
<!-- n31350982&#45;&gt;SUBSn31350982n21395108 -->
<g id="edge13" class="edge">
<title>n31350982&#45;&gt;SUBSn31350982n21395108</title>
<path fill="none" stroke="black" d="M2017.94,-288.85C2059.73,-274.92 2118.56,-255.31 2152.49,-244"/>
</g>
<!-- n47852848 -->
<g id="node41" class="node">
<title>n47852848</title>
<ellipse fill="none" stroke="black" cx="1885.5" cy="-162" rx="173.57" ry="18"/>
<text text-anchor="start" x="1760" y="-159.3" font-family="Times,serif" font-size="14.00">!friendly(</text>
<text text-anchor="start" x="1827" y="-159.3" font-family="Times,serif" font-style="italic" font-size="14.00">Kim</text>
<text text-anchor="start" x="1856" y="-159.3" font-family="Times,serif" font-size="14.00">), person(</text>
<text text-anchor="start" x="1925" y="-159.3" font-family="Times,serif" font-style="italic" font-size="14.00">SKF0</text>
<text text-anchor="start" x="1965" y="-159.3" font-family="Times,serif" font-size="14.00">(</text>
<text text-anchor="start" x="1971" y="-159.3" font-family="Times,serif" font-style="italic" font-size="14.00">Kim</text>
<text text-anchor="start" x="2000" y="-159.3" font-family="Times,serif" font-size="14.00">))</text>
</g>
<!-- SUBSn79711987n21395108&#45;&gt;n47852848 -->
<g id="edge31" class="edge">
<title>SUBSn79711987n21395108&#45;&gt;n47852848</title>
<path fill="none" stroke="black" d="M1885.5,-215.7C1885.5,-207.98 1885.5,-198.71 1885.5,-190.11"/>
<polygon fill="black" stroke="black" points="1889,-190.1 1885.5,-180.1 1882,-190.1 1889,-190.1"/>
</g>
<!-- n88095933 -->
<g id="node45" class="node">
<title>n88095933</title>
<ellipse fill="none" stroke="black" cx="487.5" cy="-306" rx="141.07" ry="18"/>
<text text-anchor="start" x="387" y="-303.3" font-family="Times,serif" font-size="14.00">!man(</text>
<text text-anchor="start" x="430" y="-303.3" font-family="Times,serif" font-weight="bold" font-size="14.00">B794</text>
<text text-anchor="start" x="472" y="-303.3" font-family="Times,serif" font-size="14.00">), animal(</text>
<text text-anchor="start" x="540" y="-303.3" font-family="Times,serif" font-weight="bold" font-size="14.00">B794</text>
<text text-anchor="start" x="582" y="-303.3" font-family="Times,serif" font-size="14.00">)</text>
</g>
<!-- SUBSn36780467n57817465&#45;&gt;n88095933 -->
<g id="edge42" class="edge">
<title>SUBSn36780467n57817465&#45;&gt;n88095933</title>
<path fill="none" stroke="black" d="M487.5,-359.7C487.5,-351.98 487.5,-342.71 487.5,-334.11"/>
<polygon fill="black" stroke="black" points="491,-334.1 487.5,-324.1 484,-334.1 491,-334.1"/>
</g>
<!-- n49122928 -->
<g id="node30" class="node">
<title>n49122928</title>
<ellipse fill="none" stroke="black" cx="772.5" cy="-162" rx="68.79" ry="18"/>
<text text-anchor="start" x="727.5" y="-159.3" font-family="Times,serif" font-size="14.00">animal(</text>
<text text-anchor="start" x="781.5" y="-159.3" font-family="Times,serif" font-style="italic" font-size="14.00">SK0</text>
<text text-anchor="start" x="811.5" y="-159.3" font-family="Times,serif" font-size="14.00">)</text>
</g>
<!-- SUBSn36780467n49962364&#45;&gt;n49122928 -->
<g id="edge10" class="edge">
<title>SUBSn36780467n49962364&#45;&gt;n49122928</title>
<path fill="none" stroke="black" d="M772.5,-215.7C772.5,-207.98 772.5,-198.71 772.5,-190.11"/>
<polygon fill="black" stroke="black" points="776,-190.1 772.5,-180.1 769,-190.1 776,-190.1"/>
</g>
<!-- n09955873 -->
<g id="node21" class="node">
<title>n09955873</title>
<ellipse fill="none" stroke="black" cx="2179.5" cy="-162" rx="102.08" ry="18"/>
<text text-anchor="start" x="2109" y="-159.3" font-family="Times,serif" font-size="14.00">person(</text>
<text text-anchor="start" x="2164" y="-159.3" font-family="Times,serif" font-style="italic" font-size="14.00">SKF0</text>
<text text-anchor="start" x="2204" y="-159.3" font-family="Times,serif" font-size="14.00">(</text>
<text text-anchor="start" x="2210" y="-159.3" font-family="Times,serif" font-style="italic" font-size="14.00">Kim</text>
<text text-anchor="start" x="2239" y="-159.3" font-family="Times,serif" font-size="14.00">))</text>
</g>
<!-- n09955873&#45;&gt;SUBSn36780467n09955873 -->
<g id="edge6" class="edge">
<title>n09955873&#45;&gt;SUBSn36780467n09955873</title>
<path fill="none" stroke="black" d="M2106.42,-149.36C2093.79,-147.47 2080.77,-145.61 2068.5,-144 1922.02,-124.74 1749.85,-106.98 1656.05,-97.71"/>
</g>
<!-- n09041165 -->
<g id="node23" class="node">
<title>n09041165</title>
<ellipse fill="none" stroke="black" cx="1586.5" cy="-18" rx="101.28" ry="18"/>
<text text-anchor="start" x="1516.5" y="-15.3" font-family="Times,serif" font-size="14.00">animal(</text>
<text text-anchor="start" x="1570.5" y="-15.3" font-family="Times,serif" font-style="italic" font-size="14.00">SKF0</text>
<text text-anchor="start" x="1610.5" y="-15.3" font-family="Times,serif" font-size="14.00">(</text>
<text text-anchor="start" x="1616.5" y="-15.3" font-family="Times,serif" font-style="italic" font-size="14.00">Kim</text>
<text text-anchor="start" x="1645.5" y="-15.3" font-family="Times,serif" font-size="14.00">))</text>
</g>
<!-- SUBSn36780467n09955873&#45;&gt;n09041165 -->
<g id="edge25" class="edge">
<title>SUBSn36780467n09955873&#45;&gt;n09041165</title>
<path fill="none" stroke="black" d="M1586.5,-71.7C1586.5,-63.98 1586.5,-54.71 1586.5,-46.11"/>
<polygon fill="black" stroke="black" points="1590,-46.1 1586.5,-36.1 1583,-46.1 1590,-46.1"/>
</g>
<!-- n50585127 -->
<g id="node24" class="node">
<title>n50585127</title>
<ellipse fill="none" stroke="black" cx="242.5" cy="-162" rx="72.59" ry="18"/>
<text text-anchor="start" x="194.5" y="-159.3" font-family="Times,serif" font-size="14.00">animal(</text>
<text text-anchor="start" x="248.5" y="-159.3" font-family="Times,serif" font-style="italic" font-size="14.00">Mike</text>
<text text-anchor="start" x="284.5" y="-159.3" font-family="Times,serif" font-size="14.00">)</text>
</g>
<!-- n27294743 -->
<g id="node43" class="node">
<title>n27294743</title>
<ellipse fill="none" stroke="black" cx="3025.5" cy="-162" rx="68.49" ry="18"/>
<text text-anchor="start" x="2981" y="-159.3" font-family="Times,serif" font-size="14.00">animal(</text>
<text text-anchor="start" x="3035" y="-159.3" font-family="Times,serif" font-style="italic" font-size="14.00">Kim</text>
<text text-anchor="start" x="3064" y="-159.3" font-family="Times,serif" font-size="14.00">)</text>
</g>
<!-- SUBSn47514428n21395108&#45;&gt;n27294743 -->
<g id="edge34" class="edge">
<title>SUBSn47514428n21395108&#45;&gt;n27294743</title>
<path fill="none" stroke="black" d="M2913.7,-215.88C2935.12,-205.75 2962.31,-192.89 2984.51,-182.39"/>
<polygon fill="black" stroke="black" points="2986.15,-185.49 2993.69,-178.05 2983.15,-179.16 2986.15,-185.49"/>
</g>
<!-- n51499835 -->
<g id="node26" class="node">
<title>n51499835</title>
<ellipse fill="none" stroke="black" cx="97.5" cy="-306" rx="73.39" ry="18"/>
<text text-anchor="start" x="49" y="-303.3" font-family="Times,serif" font-size="14.00">person(</text>
<text text-anchor="start" x="104" y="-303.3" font-family="Times,serif" font-style="italic" font-size="14.00">Mike</text>
<text text-anchor="start" x="140" y="-303.3" font-family="Times,serif" font-size="14.00">)</text>
</g>
<!-- n63979819 -->
<g id="node28" class="node">
<title>n63979819</title>
<ellipse fill="none" stroke="black" cx="787.5" cy="-306" rx="141.07" ry="18"/>
<text text-anchor="start" x="687" y="-303.3" font-family="Times,serif" font-size="14.00">animal(</text>
<text text-anchor="start" x="741" y="-303.3" font-family="Times,serif" font-weight="bold" font-size="14.00">B793</text>
<text text-anchor="start" x="783" y="-303.3" font-family="Times,serif" font-size="14.00">), !man(</text>
<text text-anchor="start" x="840" y="-303.3" font-family="Times,serif" font-weight="bold" font-size="14.00">B793</text>
<text text-anchor="start" x="882" y="-303.3" font-family="Times,serif" font-size="14.00">)</text>
</g>
<!-- SUBSn57817465n36780467&#45;&gt;n63979819 -->
<g id="edge26" class="edge">
<title>SUBSn57817465n36780467&#45;&gt;n63979819</title>
<path fill="none" stroke="black" d="M787.5,-359.7C787.5,-351.98 787.5,-342.71 787.5,-334.11"/>
<polygon fill="black" stroke="black" points="791,-334.1 787.5,-324.1 784,-334.1 791,-334.1"/>
</g>
<!-- SUBSn31350982n21395108&#45;&gt;n09955873 -->
<g id="edge9" class="edge">
<title>SUBSn31350982n21395108&#45;&gt;n09955873</title>
<path fill="none" stroke="black" d="M2179.5,-215.7C2179.5,-207.98 2179.5,-198.71 2179.5,-190.11"/>
<polygon fill="black" stroke="black" points="2183,-190.1 2179.5,-180.1 2176,-190.1 2183,-190.1"/>
</g>
<!-- SUBSn79711987n36780467&#45;&gt;n80626695 -->
<g id="edge11" class="edge">
<title>SUBSn79711987n36780467&#45;&gt;n80626695</title>
<path fill="none" stroke="black" d="M1477.5,-359.7C1477.5,-351.98 1477.5,-342.71 1477.5,-334.11"/>
<polygon fill="black" stroke="black" points="1481,-334.1 1477.5,-324.1 1474,-334.1 1481,-334.1"/>
</g>
<!-- n53776707 -->
<g id="node33" class="node">
<title>n53776707</title>
<ellipse fill="none" stroke="black" cx="2748.5" cy="-162" rx="191.17" ry="18"/>
<text text-anchor="start" x="2609.5" y="-159.3" font-family="Times,serif" font-size="14.00">!friendly(</text>
<text text-anchor="start" x="2676.5" y="-159.3" font-family="Times,serif" font-style="italic" font-size="14.00">Kim</text>
<text text-anchor="start" x="2705.5" y="-159.3" font-family="Times,serif" font-size="14.00">), loves(</text>
<text text-anchor="start" x="2762.5" y="-159.3" font-family="Times,serif" font-style="italic" font-size="14.00">SKF0</text>
<text text-anchor="start" x="2802.5" y="-159.3" font-family="Times,serif" font-size="14.00">(</text>
<text text-anchor="start" x="2808.5" y="-159.3" font-family="Times,serif" font-style="italic" font-size="14.00">Kim</text>
<text text-anchor="start" x="2837.5" y="-159.3" font-family="Times,serif" font-size="14.00">), </text>
<text text-anchor="start" x="2852.5" y="-159.3" font-family="Times,serif" font-style="italic" font-size="14.00">Kim</text>
<text text-anchor="start" x="2881.5" y="-159.3" font-family="Times,serif" font-size="14.00">)</text>
</g>
<!-- SUBSn85317042n21395108&#45;&gt;n53776707 -->
<g id="edge12" class="edge">
<title>SUBSn85317042n21395108&#45;&gt;n53776707</title>
<path fill="none" stroke="black" d="M2648.04,-215.88C2665.88,-206.48 2688.18,-194.75 2707.24,-184.72"/>
<polygon fill="black" stroke="black" points="2709.08,-187.7 2716.3,-179.95 2705.82,-181.51 2709.08,-187.7"/>
</g>
<!-- n49962364 -->
<g id="node34" class="node">
<title>n49962364</title>
<ellipse fill="none" stroke="black" cx="258.5" cy="-306" rx="69.59" ry="18"/>
<text text-anchor="start" x="213" y="-303.3" font-family="Times,serif" font-size="14.00">person(</text>
<text text-anchor="start" x="268" y="-303.3" font-family="Times,serif" font-style="italic" font-size="14.00">SK0</text>
<text text-anchor="start" x="298" y="-303.3" font-family="Times,serif" font-size="14.00">)</text>
</g>
<!-- n49962364&#45;&gt;SUBSn36780467n49962364 -->
<g id="edge14" class="edge">
<title>n49962364&#45;&gt;SUBSn36780467n49962364</title>
<path fill="none" stroke="black" d="M308.94,-293.43C318.4,-291.47 328.23,-289.56 337.5,-288 478.92,-264.22 647.93,-246.72 727.22,-239.15"/>
</g>
<!-- SUBSn85317042n37896974&#45;&gt;n37274841 -->
<g id="edge39" class="edge">
<title>SUBSn85317042n37896974&#45;&gt;n37274841</title>
<path fill="none" stroke="black" d="M2415.5,-359.7C2415.5,-351.98 2415.5,-342.71 2415.5,-334.11"/>
<polygon fill="black" stroke="black" points="2419,-334.1 2415.5,-324.1 2412,-334.1 2419,-334.1"/>
</g>
<!-- n75660470 -->
<g id="node38" class="node">
<title>n75660470</title>
<ellipse fill="none" stroke="black" cx="1176.5" cy="-162" rx="154.07" ry="18"/>
<text text-anchor="start" x="1066" y="-159.3" font-family="Times,serif" font-size="14.00">!dog(</text>
<text text-anchor="start" x="1104" y="-159.3" font-family="Times,serif" font-style="italic" font-size="14.00">Kim</text>
<text text-anchor="start" x="1133" y="-159.3" font-family="Times,serif" font-size="14.00">), animal(</text>
<text text-anchor="start" x="1201" y="-159.3" font-family="Times,serif" font-style="italic" font-size="14.00">SKF0</text>
<text text-anchor="start" x="1241" y="-159.3" font-family="Times,serif" font-size="14.00">(</text>
<text text-anchor="start" x="1247" y="-159.3" font-family="Times,serif" font-style="italic" font-size="14.00">Kim</text>
<text text-anchor="start" x="1276" y="-159.3" font-family="Times,serif" font-size="14.00">))</text>
</g>
<!-- SUBSn80626695n37896974&#45;&gt;n75660470 -->
<g id="edge48" class="edge">
<title>SUBSn80626695n37896974&#45;&gt;n75660470</title>
<path fill="none" stroke="black" d="M1385.97,-220.73C1346.6,-209.88 1288.6,-193.89 1243.61,-181.5"/>
<polygon fill="black" stroke="black" points="1244.5,-178.11 1233.93,-178.83 1242.64,-184.86 1244.5,-178.11"/>
</g>
<!-- SUBSn57817465n69060050&#45;&gt;n49962364 -->
<g id="edge35" class="edge">
<title>SUBSn57817465n69060050&#45;&gt;n49962364</title>
<path fill="none" stroke="black" d="M288.61,-359.7C284.01,-351.64 278.44,-341.89 273.35,-332.98"/>
<polygon fill="black" stroke="black" points="276.27,-331.05 268.27,-324.1 270.2,-334.52 276.27,-331.05"/>
</g>
<!-- SUBSn57817465n67597851&#45;&gt;n51499835 -->
<g id="edge47" class="edge">
<title>SUBSn57817465n67597851&#45;&gt;n51499835</title>
<path fill="none" stroke="black" d="M97.5,-359.7C97.5,-351.98 97.5,-342.71 97.5,-334.11"/>
<polygon fill="black" stroke="black" points="101,-334.1 97.5,-324.1 94,-334.1 101,-334.1"/>
</g>
<!-- SUBSn67597851n88095933&#45;&gt;n50585127 -->
<g id="edge36" class="edge">
<title>SUBSn67597851n88095933&#45;&gt;n50585127</title>
<path fill="none" stroke="black" d="M242.5,-215.7C242.5,-207.98 242.5,-198.71 242.5,-190.11"/>
<polygon fill="black" stroke="black" points="246,-190.1 242.5,-180.1 239,-190.1 246,-190.1"/>
</g>
<!-- n88095933&#45;&gt;SUBSn67597851n88095933 -->
<g id="edge51" class="edge">
<title>n88095933&#45;&gt;SUBSn67597851n88095933</title>
<path fill="none" stroke="black" d="M432.82,-289.38C393.62,-278.18 340.88,-263.11 300.86,-251.67"/>
</g>
</g>
</svg>
