<?xml version="1.0" encoding="UTF-8" standalone="no"?>
<!DOCTYPE svg PUBLIC "-//W3C//DTD SVG 1.1//EN"
 "http://www.w3.org/Graphics/SVG/1.1/DTD/svg11.dtd">
<!-- Generated by graphviz version 2.43.0 (0)
 -->
<!-- Title: g Pages: 1 -->
<svg width="1739pt" height="476pt"
 viewBox="0.00 0.00 1738.58 476.00" xmlns="http://www.w3.org/2000/svg" xmlns:xlink="http://www.w3.org/1999/xlink">
<g id="graph0" class="graph" transform="scale(1 1) rotate(0) translate(4 472)">
<title>g</title>
<polygon fill="white" stroke="transparent" points="-4,4 -4,-472 1734.58,-472 1734.58,4 -4,4"/>
<!-- n04532762 -->
<g id="node1" class="node">
<title>n04532762</title>
<polygon fill="none" stroke="black" points="119.58,-468 36.58,-468 36.58,-432 119.58,-432 119.58,-468"/>
<text text-anchor="start" x="44.58" y="-447.3" font-family="Times,serif" font-size="14.00">dog(</text>
<text text-anchor="start" x="76.58" y="-447.3" font-family="Times,serif" font-style="italic" font-size="14.00">Kim</text>
<text text-anchor="start" x="105.58" y="-447.3" font-family="Times,serif" font-size="14.00">)</text>
</g>
<!-- SUBSn04532762n89017679 -->
<g id="node14" class="node">
<title>SUBSn04532762n89017679</title>
<text text-anchor="start" x="154.58" y="-374.3" font-family="Times,serif" font-size="14.00">{x2: Kim}</text>
</g>
<!-- n04532762&#45;&gt;SUBSn04532762n89017679 -->
<g id="edge5" class="edge">
<title>n04532762&#45;&gt;SUBSn04532762n89017679</title>
<path fill="none" stroke="black" d="M105.73,-431.88C123.24,-421.03 145.8,-407.05 163.33,-396.19"/>
</g>
<!-- n89150530 -->
<g id="node2" class="node">
<title>n89150530</title>
<polygon fill="none" stroke="black" points="680.58,-468 491.58,-468 491.58,-432 680.58,-432 680.58,-468"/>
<text text-anchor="start" x="499.58" y="-447.3" font-family="Times,serif" font-size="14.00">animal(</text>
<text text-anchor="start" x="553.58" y="-447.3" font-family="Times,serif" font-weight="bold" font-size="14.00">x4</text>
<text text-anchor="start" x="572.58" y="-447.3" font-family="Times,serif" font-size="14.00">), !person(</text>
<text text-anchor="start" x="647.58" y="-447.3" font-family="Times,serif" font-weight="bold" font-size="14.00">x4</text>
<text text-anchor="start" x="666.58" y="-447.3" font-family="Times,serif" font-size="14.00">)</text>
</g>
<!-- n93974452 -->
<g id="node3" class="node">
<title>n93974452</title>
<polygon fill="none" stroke="black" points="512.08,-324 400.08,-324 400.08,-288 512.08,-288 512.08,-324"/>
<text text-anchor="start" x="408.08" y="-303.3" font-family="Times,serif" font-size="14.00">friendly(</text>
<text text-anchor="start" x="469.08" y="-303.3" font-family="Times,serif" font-style="italic" font-size="14.00">Kim</text>
<text text-anchor="start" x="498.08" y="-303.3" font-family="Times,serif" font-size="14.00">)</text>
</g>
<!-- SUBSn92290186n93974452 -->
<g id="node12" class="node">
<title>SUBSn92290186n93974452</title>
<text text-anchor="start" x="313.58" y="-230.3" font-family="Times,serif" font-size="14.00">{}</text>
</g>
<!-- n93974452&#45;&gt;SUBSn92290186n93974452 -->
<g id="edge1" class="edge">
<title>n93974452&#45;&gt;SUBSn92290186n93974452</title>
<path fill="none" stroke="black" d="M423.55,-287.88C401.09,-276.06 371.57,-260.52 350.35,-249.35"/>
</g>
<!-- n89017679 -->
<g id="node4" class="node">
<title>n89017679</title>
<polygon fill="none" stroke="black" points="473.08,-468 137.08,-468 137.08,-432 473.08,-432 473.08,-468"/>
<text text-anchor="start" x="145.08" y="-447.3" font-family="Times,serif" font-size="14.00">!dog(</text>
<text text-anchor="start" x="183.08" y="-447.3" font-family="Times,serif" font-weight="bold" font-size="14.00">x2</text>
<text text-anchor="start" x="202.08" y="-447.3" font-family="Times,serif" font-size="14.00">), loves(</text>
<text text-anchor="start" x="259.08" y="-447.3" font-family="Times,serif" font-style="italic" font-size="14.00">SKF0</text>
<text text-anchor="start" x="299.08" y="-447.3" font-family="Times,serif" font-size="14.00">(</text>
<text text-anchor="start" x="305.08" y="-447.3" font-family="Times,serif" font-weight="bold" font-size="14.00">x2</text>
<text text-anchor="start" x="324.08" y="-447.3" font-family="Times,serif" font-size="14.00">), </text>
<text text-anchor="start" x="339.08" y="-447.3" font-family="Times,serif" font-weight="bold" font-size="14.00">x2</text>
<text text-anchor="start" x="358.08" y="-447.3" font-family="Times,serif" font-size="14.00">), !friendly(</text>
<text text-anchor="start" x="440.08" y="-447.3" font-family="Times,serif" font-weight="bold" font-size="14.00">x2</text>
<text text-anchor="start" x="459.08" y="-447.3" font-family="Times,serif" font-size="14.00">)</text>
</g>
<!-- n89017679&#45;&gt;SUBSn04532762n89017679 -->
<g id="edge4" class="edge">
<title>n89017679&#45;&gt;SUBSn04532762n89017679</title>
<path fill="none" stroke="black" d="M277.2,-431.88C259.53,-421.03 236.76,-407.05 219.08,-396.19"/>
</g>
<!-- n63883523 -->
<g id="node5" class="node">
<title>n63883523</title>
<polygon fill="none" stroke="black" points="589.58,-180 460.58,-180 460.58,-144 589.58,-144 589.58,-180"/>
<text text-anchor="start" x="468.58" y="-159.3" font-family="Times,serif" font-size="14.00">!loves(</text>
<text text-anchor="start" x="517.58" y="-159.3" font-family="Times,serif" font-weight="bold" font-size="14.00">x5</text>
<text text-anchor="start" x="536.58" y="-159.3" font-family="Times,serif" font-size="14.00">, </text>
<text text-anchor="start" x="546.58" y="-159.3" font-family="Times,serif" font-style="italic" font-size="14.00">Kim</text>
<text text-anchor="start" x="575.58" y="-159.3" font-family="Times,serif" font-size="14.00">)</text>
</g>
<!-- SUBSn63883523n86264639 -->
<g id="node17" class="node">
<title>SUBSn63883523n86264639</title>
<text text-anchor="start" x="362.58" y="-86.3" font-family="Times,serif" font-size="14.00">{x5: SKF0(Kim)}</text>
</g>
<!-- n63883523&#45;&gt;SUBSn63883523n86264639 -->
<g id="edge7" class="edge">
<title>n63883523&#45;&gt;SUBSn63883523n86264639</title>
<path fill="none" stroke="black" d="M500.38,-143.88C484.72,-133.03 464.55,-119.05 448.89,-108.19"/>
</g>
<!-- n34421922 -->
<g id="node6" class="node">
<title>n34421922</title>
<polygon fill="none" stroke="black" points="865.08,-468 699.08,-468 699.08,-432 865.08,-432 865.08,-468"/>
<text text-anchor="start" x="707.08" y="-447.3" font-family="Times,serif" font-size="14.00">animal(</text>
<text text-anchor="start" x="761.08" y="-447.3" font-family="Times,serif" font-weight="bold" font-size="14.00">x0</text>
<text text-anchor="start" x="780.08" y="-447.3" font-family="Times,serif" font-size="14.00">), !dog(</text>
<text text-anchor="start" x="832.08" y="-447.3" font-family="Times,serif" font-weight="bold" font-size="14.00">x0</text>
<text text-anchor="start" x="851.08" y="-447.3" font-family="Times,serif" font-size="14.00">)</text>
</g>
<!-- n20047836 -->
<g id="node7" class="node">
<title>n20047836</title>
<polygon fill="none" stroke="black" points="982.58,-468 883.58,-468 883.58,-432 982.58,-432 982.58,-468"/>
<text text-anchor="start" x="891.58" y="-447.3" font-family="Times,serif" font-size="14.00">angry(</text>
<text text-anchor="start" x="938.58" y="-447.3" font-family="Times,serif" font-style="italic" font-size="14.00">SK0</text>
<text text-anchor="start" x="968.58" y="-447.3" font-family="Times,serif" font-size="14.00">)</text>
</g>
<!-- n02277320 -->
<g id="node8" class="node">
<title>n02277320</title>
<polygon fill="none" stroke="black" points="1173.08,-468 1001.08,-468 1001.08,-432 1173.08,-432 1173.08,-468"/>
<text text-anchor="start" x="1009.08" y="-447.3" font-family="Times,serif" font-size="14.00">person(</text>
<text text-anchor="start" x="1064.08" y="-447.3" font-family="Times,serif" font-weight="bold" font-size="14.00">x3</text>
<text text-anchor="start" x="1083.08" y="-447.3" font-family="Times,serif" font-size="14.00">), !man(</text>
<text text-anchor="start" x="1140.08" y="-447.3" font-family="Times,serif" font-weight="bold" font-size="14.00">x3</text>
<text text-anchor="start" x="1159.08" y="-447.3" font-family="Times,serif" font-size="14.00">)</text>
</g>
<!-- n39467558 -->
<g id="node9" class="node">
<title>n39467558</title>
<polygon fill="none" stroke="black" points="1510.58,-468 1191.58,-468 1191.58,-432 1510.58,-432 1510.58,-468"/>
<text text-anchor="start" x="1199.58" y="-447.3" font-family="Times,serif" font-size="14.00">!friendly(</text>
<text text-anchor="start" x="1266.58" y="-447.3" font-family="Times,serif" font-weight="bold" font-size="14.00">x1</text>
<text text-anchor="start" x="1285.58" y="-447.3" font-family="Times,serif" font-size="14.00">), person(</text>
<text text-anchor="start" x="1354.58" y="-447.3" font-family="Times,serif" font-style="italic" font-size="14.00">SKF0</text>
<text text-anchor="start" x="1394.58" y="-447.3" font-family="Times,serif" font-size="14.00">(</text>
<text text-anchor="start" x="1400.58" y="-447.3" font-family="Times,serif" font-weight="bold" font-size="14.00">x1</text>
<text text-anchor="start" x="1419.58" y="-447.3" font-family="Times,serif" font-size="14.00">)), !dog(</text>
<text text-anchor="start" x="1477.58" y="-447.3" font-family="Times,serif" font-weight="bold" font-size="14.00">x1</text>
<text text-anchor="start" x="1496.58" y="-447.3" font-family="Times,serif" font-size="14.00">)</text>
</g>
<!-- n92560159 -->
<g id="node10" class="node">
<title>n92560159</title>
<polygon fill="none" stroke="black" points="1617.58,-468 1528.58,-468 1528.58,-432 1617.58,-432 1617.58,-468"/>
<text text-anchor="start" x="1536.58" y="-447.3" font-family="Times,serif" font-size="14.00">man(</text>
<text text-anchor="start" x="1573.58" y="-447.3" font-family="Times,serif" font-style="italic" font-size="14.00">SK0</text>
<text text-anchor="start" x="1603.58" y="-447.3" font-family="Times,serif" font-size="14.00">)</text>
</g>
<!-- n69271980 -->
<g id="node11" class="node">
<title>n69271980</title>
<polygon fill="none" stroke="black" points="1730.58,-468 1635.58,-468 1635.58,-432 1730.58,-432 1730.58,-468"/>
<text text-anchor="start" x="1643.58" y="-447.3" font-family="Times,serif" font-size="14.00">man(</text>
<text text-anchor="start" x="1680.58" y="-447.3" font-family="Times,serif" font-style="italic" font-size="14.00">Mike</text>
<text text-anchor="start" x="1716.58" y="-447.3" font-family="Times,serif" font-size="14.00">)</text>
</g>
<!-- n86264639 -->
<g id="node13" class="node">
<title>n86264639</title>
<ellipse fill="none" stroke="black" cx="323.08" cy="-162" rx="119.68" ry="18"/>
<text text-anchor="start" x="239.08" y="-159.3" font-family="Times,serif" font-size="14.00">loves(</text>
<text text-anchor="start" x="282.08" y="-159.3" font-family="Times,serif" font-style="italic" font-size="14.00">SKF0</text>
<text text-anchor="start" x="322.08" y="-159.3" font-family="Times,serif" font-size="14.00">(</text>
<text text-anchor="start" x="328.08" y="-159.3" font-family="Times,serif" font-style="italic" font-size="14.00">Kim</text>
<text text-anchor="start" x="357.08" y="-159.3" font-family="Times,serif" font-size="14.00">), </text>
<text text-anchor="start" x="372.08" y="-159.3" font-family="Times,serif" font-style="italic" font-size="14.00">Kim</text>
<text text-anchor="start" x="401.08" y="-159.3" font-family="Times,serif" font-size="14.00">)</text>
</g>
<!-- SUBSn92290186n93974452&#45;&gt;n86264639 -->
<g id="edge2" class="edge">
<title>SUBSn92290186n93974452&#45;&gt;n86264639</title>
<path fill="none" stroke="black" d="M323.08,-215.7C323.08,-207.98 323.08,-198.71 323.08,-190.11"/>
<polygon fill="black" stroke="black" points="326.58,-190.1 323.08,-180.1 319.58,-190.1 326.58,-190.1"/>
</g>
<!-- n86264639&#45;&gt;SUBSn63883523n86264639 -->
<g id="edge9" class="edge">
<title>n86264639&#45;&gt;SUBSn63883523n86264639</title>
<path fill="none" stroke="black" d="M347.28,-144.23C363.03,-133.31 383.53,-119.11 399.39,-108.12"/>
</g>
<!-- n92290186 -->
<g id="node15" class="node">
<title>n92290186</title>
<ellipse fill="none" stroke="black" cx="191.08" cy="-306" rx="191.17" ry="18"/>
<text text-anchor="start" x="52.08" y="-303.3" font-family="Times,serif" font-size="14.00">!friendly(</text>
<text text-anchor="start" x="119.08" y="-303.3" font-family="Times,serif" font-style="italic" font-size="14.00">Kim</text>
<text text-anchor="start" x="148.08" y="-303.3" font-family="Times,serif" font-size="14.00">), loves(</text>
<text text-anchor="start" x="205.08" y="-303.3" font-family="Times,serif" font-style="italic" font-size="14.00">SKF0</text>
<text text-anchor="start" x="245.08" y="-303.3" font-family="Times,serif" font-size="14.00">(</text>
<text text-anchor="start" x="251.08" y="-303.3" font-family="Times,serif" font-style="italic" font-size="14.00">Kim</text>
<text text-anchor="start" x="280.08" y="-303.3" font-family="Times,serif" font-size="14.00">), </text>
<text text-anchor="start" x="295.08" y="-303.3" font-family="Times,serif" font-style="italic" font-size="14.00">Kim</text>
<text text-anchor="start" x="324.08" y="-303.3" font-family="Times,serif" font-size="14.00">)</text>
</g>
<!-- SUBSn04532762n89017679&#45;&gt;n92290186 -->
<g id="edge3" class="edge">
<title>SUBSn04532762n89017679&#45;&gt;n92290186</title>
<path fill="none" stroke="black" d="M191.08,-359.7C191.08,-351.98 191.08,-342.71 191.08,-334.11"/>
<polygon fill="black" stroke="black" points="194.58,-334.1 191.08,-324.1 187.58,-334.1 194.58,-334.1"/>
</g>
<!-- n92290186&#45;&gt;SUBSn92290186n93974452 -->
<g id="edge8" class="edge">
<title>n92290186&#45;&gt;SUBSn92290186n93974452</title>
<path fill="none" stroke="black" d="M222.7,-288.23C244.97,-276.42 274.49,-260.77 295.75,-249.5"/>
</g>
<!-- n00000000 -->
<g id="node16" class="node">
<title>n00000000</title>
<ellipse fill="none" stroke="black" cx="424.08" cy="-18" rx="41.69" ry="18"/>
<text text-anchor="start" x="400.08" y="-14.3" font-family="Times,serif" font-size="14.00">FALSE</text>
</g>
<!-- SUBSn63883523n86264639&#45;&gt;n00000000 -->
<g id="edge6" class="edge">
<title>SUBSn63883523n86264639&#45;&gt;n00000000</title>
<path fill="none" stroke="black" d="M424.08,-71.7C424.08,-63.98 424.08,-54.71 424.08,-46.11"/>
<polygon fill="black" stroke="black" points="427.58,-46.1 424.08,-36.1 420.58,-46.1 427.58,-46.1"/>
</g>
</g>
</svg>
