<?xml version="1.0" encoding="UTF-8" standalone="no"?>
<!DOCTYPE svg PUBLIC "-//W3C//DTD SVG 1.1//EN"
 "http://www.w3.org/Graphics/SVG/1.1/DTD/svg11.dtd">
<!-- Generated by graphviz version 2.43.0 (0)
 -->
<!-- Title: g Pages: 1 -->
<svg width="2299pt" height="332pt"
 viewBox="0.00 0.00 2299.00 332.00" xmlns="http://www.w3.org/2000/svg" xmlns:xlink="http://www.w3.org/1999/xlink">
<g id="graph0" class="graph" transform="scale(1 1) rotate(0) translate(4 328)">
<title>g</title>
<polygon fill="white" stroke="transparent" points="-4,4 -4,-328 2295,-328 2295,4 -4,4"/>
<!-- n41054066 -->
<g id="node1" class="node">
<title>n41054066</title>
<polygon fill="none" stroke="black" points="112,-324 0,-324 0,-288 112,-288 112,-324"/>
<text text-anchor="start" x="8" y="-303.3" font-family="Times,serif" font-size="14.00">friendly(</text>
<text text-anchor="start" x="69" y="-303.3" font-family="Times,serif" font-style="italic" font-size="14.00">Kim</text>
<text text-anchor="start" x="98" y="-303.3" font-family="Times,serif" font-size="14.00">)</text>
</g>
<!-- n24465394 -->
<g id="node2" class="node">
<title>n24465394</title>
<polygon fill="none" stroke="black" points="229.5,-324 130.5,-324 130.5,-288 229.5,-288 229.5,-324"/>
<text text-anchor="start" x="138.5" y="-303.3" font-family="Times,serif" font-size="14.00">angry(</text>
<text text-anchor="start" x="185.5" y="-303.3" font-family="Times,serif" font-style="italic" font-size="14.00">SK0</text>
<text text-anchor="start" x="215.5" y="-303.3" font-family="Times,serif" font-size="14.00">)</text>
</g>
<!-- n75973572 -->
<g id="node3" class="node">
<title>n75973572</title>
<polygon fill="none" stroke="black" points="324,-324 248,-324 248,-288 324,-288 324,-324"/>
<text text-anchor="start" x="256" y="-303.3" font-family="Times,serif" font-size="14.00">!tail(</text>
<text text-anchor="start" x="291" y="-303.3" font-family="Times,serif" font-weight="bold" font-size="14.00">x7</text>
<text text-anchor="start" x="310" y="-303.3" font-family="Times,serif" font-size="14.00">)</text>
</g>
<!-- SUBSn75973572n75447405 -->
<g id="node15" class="node">
<title>SUBSn75973572n75447405</title>
<text text-anchor="start" x="306" y="-230.3" font-family="Times,serif" font-size="14.00">{x7: SKF1(x4)}</text>
</g>
<!-- n75973572&#45;&gt;SUBSn75973572n75447405 -->
<g id="edge4" class="edge">
<title>n75973572&#45;&gt;SUBSn75973572n75447405</title>
<path fill="none" stroke="black" d="M304.79,-287.7C316.57,-276.85 331.69,-262.92 343.43,-252.1"/>
</g>
<!-- n85414883 -->
<g id="node4" class="node">
<title>n85414883</title>
<polygon fill="none" stroke="black" points="742.5,-324 553.5,-324 553.5,-288 742.5,-288 742.5,-324"/>
<text text-anchor="start" x="561.5" y="-303.3" font-family="Times,serif" font-size="14.00">!person(</text>
<text text-anchor="start" x="622.5" y="-303.3" font-family="Times,serif" font-weight="bold" font-size="14.00">x6</text>
<text text-anchor="start" x="641.5" y="-303.3" font-family="Times,serif" font-size="14.00">), animal(</text>
<text text-anchor="start" x="709.5" y="-303.3" font-family="Times,serif" font-weight="bold" font-size="14.00">x6</text>
<text text-anchor="start" x="728.5" y="-303.3" font-family="Times,serif" font-size="14.00">)</text>
</g>
<!-- n81859160 -->
<g id="node5" class="node">
<title>n81859160</title>
<polygon fill="none" stroke="black" points="855.5,-324 760.5,-324 760.5,-288 855.5,-288 855.5,-324"/>
<text text-anchor="start" x="768.5" y="-303.3" font-family="Times,serif" font-size="14.00">man(</text>
<text text-anchor="start" x="805.5" y="-303.3" font-family="Times,serif" font-style="italic" font-size="14.00">Mike</text>
<text text-anchor="start" x="841.5" y="-303.3" font-family="Times,serif" font-size="14.00">)</text>
</g>
<!-- n50282653 -->
<g id="node6" class="node">
<title>n50282653</title>
<polygon fill="none" stroke="black" points="1208.5,-324 873.5,-324 873.5,-288 1208.5,-288 1208.5,-324"/>
<text text-anchor="start" x="881.5" y="-303.3" font-family="Times,serif" font-size="14.00">!friendly(</text>
<text text-anchor="start" x="948.5" y="-303.3" font-family="Times,serif" font-weight="bold" font-size="14.00">x2</text>
<text text-anchor="start" x="967.5" y="-303.3" font-family="Times,serif" font-size="14.00">), loves(</text>
<text text-anchor="start" x="1024.5" y="-303.3" font-family="Times,serif" font-style="italic" font-size="14.00">SKF0</text>
<text text-anchor="start" x="1064.5" y="-303.3" font-family="Times,serif" font-size="14.00">(</text>
<text text-anchor="start" x="1070.5" y="-303.3" font-family="Times,serif" font-weight="bold" font-size="14.00">x2</text>
<text text-anchor="start" x="1089.5" y="-303.3" font-family="Times,serif" font-size="14.00">), </text>
<text text-anchor="start" x="1104.5" y="-303.3" font-family="Times,serif" font-weight="bold" font-size="14.00">x2</text>
<text text-anchor="start" x="1123.5" y="-303.3" font-family="Times,serif" font-size="14.00">), !dog(</text>
<text text-anchor="start" x="1175.5" y="-303.3" font-family="Times,serif" font-weight="bold" font-size="14.00">x2</text>
<text text-anchor="start" x="1194.5" y="-303.3" font-family="Times,serif" font-size="14.00">)</text>
</g>
<!-- n72565405 -->
<g id="node7" class="node">
<title>n72565405</title>
<polygon fill="none" stroke="black" points="1393,-324 1227,-324 1227,-288 1393,-288 1393,-324"/>
<text text-anchor="start" x="1235" y="-303.3" font-family="Times,serif" font-size="14.00">!dog(</text>
<text text-anchor="start" x="1273" y="-303.3" font-family="Times,serif" font-weight="bold" font-size="14.00">x0</text>
<text text-anchor="start" x="1292" y="-303.3" font-family="Times,serif" font-size="14.00">), animal(</text>
<text text-anchor="start" x="1360" y="-303.3" font-family="Times,serif" font-weight="bold" font-size="14.00">x0</text>
<text text-anchor="start" x="1379" y="-303.3" font-family="Times,serif" font-size="14.00">)</text>
</g>
<!-- n78436710 -->
<g id="node8" class="node">
<title>n78436710</title>
<polygon fill="none" stroke="black" points="514.5,-180 431.5,-180 431.5,-144 514.5,-144 514.5,-180"/>
<text text-anchor="start" x="439.5" y="-159.3" font-family="Times,serif" font-size="14.00">dog(</text>
<text text-anchor="start" x="471.5" y="-159.3" font-family="Times,serif" font-style="italic" font-size="14.00">Kim</text>
<text text-anchor="start" x="500.5" y="-159.3" font-family="Times,serif" font-size="14.00">)</text>
</g>
<!-- SUBSn90838211n78436710 -->
<g id="node16" class="node">
<title>SUBSn90838211n78436710</title>
<text text-anchor="start" x="380.5" y="-86.3" font-family="Times,serif" font-size="14.00">{x4: Kim}</text>
</g>
<!-- n78436710&#45;&gt;SUBSn90838211n78436710 -->
<g id="edge2" class="edge">
<title>n78436710&#45;&gt;SUBSn90838211n78436710</title>
<path fill="none" stroke="black" d="M459.16,-143.7C450.48,-132.85 439.33,-118.92 430.68,-108.1"/>
</g>
<!-- n75447405 -->
<g id="node9" class="node">
<title>n75447405</title>
<polygon fill="none" stroke="black" points="535.5,-324 342.5,-324 342.5,-288 535.5,-288 535.5,-324"/>
<text text-anchor="start" x="350.5" y="-303.3" font-family="Times,serif" font-size="14.00">tail(</text>
<text text-anchor="start" x="379.5" y="-303.3" font-family="Times,serif" font-style="italic" font-size="14.00">SKF1</text>
<text text-anchor="start" x="419.5" y="-303.3" font-family="Times,serif" font-size="14.00">(</text>
<text text-anchor="start" x="425.5" y="-303.3" font-family="Times,serif" font-weight="bold" font-size="14.00">x4</text>
<text text-anchor="start" x="444.5" y="-303.3" font-family="Times,serif" font-size="14.00">)), !dog(</text>
<text text-anchor="start" x="502.5" y="-303.3" font-family="Times,serif" font-weight="bold" font-size="14.00">x4</text>
<text text-anchor="start" x="521.5" y="-303.3" font-family="Times,serif" font-size="14.00">)</text>
</g>
<!-- n75447405&#45;&gt;SUBSn75973572n75447405 -->
<g id="edge1" class="edge">
<title>n75447405&#45;&gt;SUBSn75973572n75447405</title>
<path fill="none" stroke="black" d="M419.97,-287.7C408.03,-276.85 392.71,-262.92 380.81,-252.1"/>
</g>
<!-- n28105590 -->
<g id="node10" class="node">
<title>n28105590</title>
<polygon fill="none" stroke="black" points="1730.5,-324 1411.5,-324 1411.5,-288 1730.5,-288 1730.5,-324"/>
<text text-anchor="start" x="1419.5" y="-303.3" font-family="Times,serif" font-size="14.00">!friendly(</text>
<text text-anchor="start" x="1486.5" y="-303.3" font-family="Times,serif" font-weight="bold" font-size="14.00">x1</text>
<text text-anchor="start" x="1505.5" y="-303.3" font-family="Times,serif" font-size="14.00">), person(</text>
<text text-anchor="start" x="1574.5" y="-303.3" font-family="Times,serif" font-style="italic" font-size="14.00">SKF0</text>
<text text-anchor="start" x="1614.5" y="-303.3" font-family="Times,serif" font-size="14.00">(</text>
<text text-anchor="start" x="1620.5" y="-303.3" font-family="Times,serif" font-weight="bold" font-size="14.00">x1</text>
<text text-anchor="start" x="1639.5" y="-303.3" font-family="Times,serif" font-size="14.00">)), !dog(</text>
<text text-anchor="start" x="1697.5" y="-303.3" font-family="Times,serif" font-weight="bold" font-size="14.00">x1</text>
<text text-anchor="start" x="1716.5" y="-303.3" font-family="Times,serif" font-size="14.00">)</text>
</g>
<!-- n11246691 -->
<g id="node11" class="node">
<title>n11246691</title>
<polygon fill="none" stroke="black" points="1993.5,-324 1748.5,-324 1748.5,-288 1993.5,-288 1993.5,-324"/>
<text text-anchor="start" x="1756.5" y="-303.3" font-family="Times,serif" font-size="14.00">partOf(</text>
<text text-anchor="start" x="1808.5" y="-303.3" font-family="Times,serif" font-weight="bold" font-size="14.00">x3</text>
<text text-anchor="start" x="1827.5" y="-303.3" font-family="Times,serif" font-size="14.00">, </text>
<text text-anchor="start" x="1837.5" y="-303.3" font-family="Times,serif" font-style="italic" font-size="14.00">SKF1</text>
<text text-anchor="start" x="1877.5" y="-303.3" font-family="Times,serif" font-size="14.00">(</text>
<text text-anchor="start" x="1883.5" y="-303.3" font-family="Times,serif" font-weight="bold" font-size="14.00">x3</text>
<text text-anchor="start" x="1902.5" y="-303.3" font-family="Times,serif" font-size="14.00">)), !dog(</text>
<text text-anchor="start" x="1960.5" y="-303.3" font-family="Times,serif" font-weight="bold" font-size="14.00">x3</text>
<text text-anchor="start" x="1979.5" y="-303.3" font-family="Times,serif" font-size="14.00">)</text>
</g>
<!-- n51887906 -->
<g id="node12" class="node">
<title>n51887906</title>
<polygon fill="none" stroke="black" points="2100.5,-324 2011.5,-324 2011.5,-288 2100.5,-288 2100.5,-324"/>
<text text-anchor="start" x="2019.5" y="-303.3" font-family="Times,serif" font-size="14.00">man(</text>
<text text-anchor="start" x="2056.5" y="-303.3" font-family="Times,serif" font-style="italic" font-size="14.00">SK0</text>
<text text-anchor="start" x="2086.5" y="-303.3" font-family="Times,serif" font-size="14.00">)</text>
</g>
<!-- n97400073 -->
<g id="node13" class="node">
<title>n97400073</title>
<polygon fill="none" stroke="black" points="2291,-324 2119,-324 2119,-288 2291,-288 2291,-324"/>
<text text-anchor="start" x="2127" y="-303.3" font-family="Times,serif" font-size="14.00">person(</text>
<text text-anchor="start" x="2182" y="-303.3" font-family="Times,serif" font-weight="bold" font-size="14.00">x5</text>
<text text-anchor="start" x="2201" y="-303.3" font-family="Times,serif" font-size="14.00">), !man(</text>
<text text-anchor="start" x="2258" y="-303.3" font-family="Times,serif" font-weight="bold" font-size="14.00">x5</text>
<text text-anchor="start" x="2277" y="-303.3" font-family="Times,serif" font-size="14.00">)</text>
</g>
<!-- n90838211 -->
<g id="node14" class="node">
<title>n90838211</title>
<ellipse fill="none" stroke="black" cx="362" cy="-162" rx="51.19" ry="18"/>
<text text-anchor="start" x="330.5" y="-159.3" font-family="Times,serif" font-size="14.00">!dog(</text>
<text text-anchor="start" x="368.5" y="-159.3" font-family="Times,serif" font-weight="bold" font-size="14.00">x4</text>
<text text-anchor="start" x="387.5" y="-159.3" font-family="Times,serif" font-size="14.00">)</text>
</g>
<!-- n90838211&#45;&gt;SUBSn90838211n78436710 -->
<g id="edge6" class="edge">
<title>n90838211&#45;&gt;SUBSn90838211n78436710</title>
<path fill="none" stroke="black" d="M375.03,-144.41C383.55,-133.58 394.65,-119.45 403.29,-108.45"/>
</g>
<!-- SUBSn75973572n75447405&#45;&gt;n90838211 -->
<g id="edge3" class="edge">
<title>SUBSn75973572n75447405&#45;&gt;n90838211</title>
<path fill="none" stroke="black" d="M362,-215.7C362,-207.98 362,-198.71 362,-190.11"/>
<polygon fill="black" stroke="black" points="365.5,-190.1 362,-180.1 358.5,-190.1 365.5,-190.1"/>
</g>
<!-- n00000000 -->
<g id="node17" class="node">
<title>n00000000</title>
<ellipse fill="none" stroke="black" cx="417" cy="-18" rx="41.69" ry="18"/>
<text text-anchor="start" x="393" y="-14.3" font-family="Times,serif" font-size="14.00">FALSE</text>
</g>
<!-- SUBSn90838211n78436710&#45;&gt;n00000000 -->
<g id="edge5" class="edge">
<title>SUBSn90838211n78436710&#45;&gt;n00000000</title>
<path fill="none" stroke="black" d="M417,-71.7C417,-63.98 417,-54.71 417,-46.11"/>
<polygon fill="black" stroke="black" points="420.5,-46.1 417,-36.1 413.5,-46.1 420.5,-46.1"/>
</g>
</g>
</svg>
