<?xml version="1.0" encoding="UTF-8" standalone="no"?>
<!DOCTYPE svg PUBLIC "-//W3C//DTD SVG 1.1//EN"
 "http://www.w3.org/Graphics/SVG/1.1/DTD/svg11.dtd">
<!-- Generated by graphviz version 2.43.0 (0)
 -->
<!-- Title: g Pages: 1 -->
<svg width="296pt" height="188pt"
 viewBox="0.00 0.00 295.50 188.00" xmlns="http://www.w3.org/2000/svg" xmlns:xlink="http://www.w3.org/1999/xlink">
<g id="graph0" class="graph" transform="scale(1 1) rotate(0) translate(4 184)">
<title>g</title>
<polygon fill="white" stroke="transparent" points="-4,4 -4,-184 291.5,-184 291.5,4 -4,4"/>
<!-- n27725531 -->
<g id="node1" class="node">
<title>n27725531</title>
<polygon fill="none" stroke="black" points="186,-180 0,-180 0,-144 186,-144 186,-180"/>
<text text-anchor="start" x="8" y="-159.3" font-family="Times,serif" font-size="14.00">animal(</text>
<text text-anchor="start" x="62" y="-159.3" font-family="Times,serif" font-style="italic" font-size="14.00">Kim</text>
<text text-anchor="start" x="91" y="-159.3" font-family="Times,serif" font-size="14.00">), !dog(</text>
<text text-anchor="start" x="143" y="-159.3" font-family="Times,serif" font-style="italic" font-size="14.00">Kim</text>
<text text-anchor="start" x="172" y="-159.3" font-family="Times,serif" font-size="14.00">)</text>
</g>
<!-- SUBSn75791052n27725531 -->
<g id="node3" class="node">
<title>SUBSn75791052n27725531</title>
<text text-anchor="start" x="159.5" y="-86.3" font-family="Times,serif" font-size="14.00">{}</text>
</g>
<!-- n27725531&#45;&gt;SUBSn75791052n27725531 -->
<g id="edge1" class="edge">
<title>n27725531&#45;&gt;SUBSn75791052n27725531</title>
<path fill="none" stroke="black" d="M111.79,-143.7C123.57,-132.85 138.69,-118.92 150.43,-108.1"/>
</g>
<!-- n75791052 -->
<g id="node2" class="node">
<title>n75791052</title>
<polygon fill="none" stroke="black" points="287.5,-180 204.5,-180 204.5,-144 287.5,-144 287.5,-180"/>
<text text-anchor="start" x="212.5" y="-159.3" font-family="Times,serif" font-size="14.00">dog(</text>
<text text-anchor="start" x="244.5" y="-159.3" font-family="Times,serif" font-style="italic" font-size="14.00">Kim</text>
<text text-anchor="start" x="273.5" y="-159.3" font-family="Times,serif" font-size="14.00">)</text>
</g>
<!-- n75791052&#45;&gt;SUBSn75791052n27725531 -->
<g id="edge2" class="edge">
<title>n75791052&#45;&gt;SUBSn75791052n27725531</title>
<path fill="none" stroke="black" d="M226.97,-143.7C215.03,-132.85 199.71,-118.92 187.81,-108.1"/>
</g>
<!-- n51934478 -->
<g id="node4" class="node">
<title>n51934478</title>
<ellipse fill="none" stroke="black" cx="169" cy="-18" rx="68.49" ry="18"/>
<text text-anchor="start" x="124.5" y="-15.3" font-family="Times,serif" font-size="14.00">animal(</text>
<text text-anchor="start" x="178.5" y="-15.3" font-family="Times,serif" font-style="italic" font-size="14.00">Kim</text>
<text text-anchor="start" x="207.5" y="-15.3" font-family="Times,serif" font-size="14.00">)</text>
</g>
<!-- SUBSn75791052n27725531&#45;&gt;n51934478 -->
<g id="edge3" class="edge">
<title>SUBSn75791052n27725531&#45;&gt;n51934478</title>
<path fill="none" stroke="black" d="M169,-71.7C169,-63.98 169,-54.71 169,-46.11"/>
<polygon fill="black" stroke="black" points="172.5,-46.1 169,-36.1 165.5,-46.1 172.5,-46.1"/>
</g>
</g>
</svg>
