<?xml version="1.0" encoding="UTF-8" standalone="no"?>
<!DOCTYPE svg PUBLIC "-//W3C//DTD SVG 1.1//EN"
 "http://www.w3.org/Graphics/SVG/1.1/DTD/svg11.dtd">
<!-- Generated by graphviz version 2.43.0 (0)
 -->
<!-- Title: g Pages: 1 -->
<svg width="461pt" height="44pt"
 viewBox="0.00 0.00 461.00 44.00" xmlns="http://www.w3.org/2000/svg" xmlns:xlink="http://www.w3.org/1999/xlink">
<g id="graph0" class="graph" transform="scale(1 1) rotate(0) translate(4 40)">
<title>g</title>
<polygon fill="white" stroke="transparent" points="-4,4 -4,-40 457,-40 457,4 -4,4"/>
<!-- n17132587 -->
<g id="node1" class="node">
<title>n17132587</title>
<polygon fill="none" stroke="black" points="129,-36 0,-36 0,0 129,0 129,-36"/>
<text text-anchor="start" x="8" y="-15.3" font-family="Times,serif" font-size="14.00">!animal(</text>
<text text-anchor="start" x="68" y="-15.3" font-family="Times,serif" font-style="italic" font-size="14.00">Jonsey</text>
<text text-anchor="start" x="115" y="-15.3" font-family="Times,serif" font-size="14.00">)</text>
</g>
<!-- n03745663 -->
<g id="node2" class="node">
<title>n03745663</title>
<polygon fill="none" stroke="black" points="333.5,-36 147.5,-36 147.5,0 333.5,0 333.5,-36"/>
<text text-anchor="start" x="155.5" y="-15.3" font-family="Times,serif" font-size="14.00">animal(</text>
<text text-anchor="start" x="209.5" y="-15.3" font-family="Times,serif" font-style="italic" font-size="14.00">Kim</text>
<text text-anchor="start" x="238.5" y="-15.3" font-family="Times,serif" font-size="14.00">), !dog(</text>
<text text-anchor="start" x="290.5" y="-15.3" font-family="Times,serif" font-style="italic" font-size="14.00">Kim</text>
<text text-anchor="start" x="319.5" y="-15.3" font-family="Times,serif" font-size="14.00">)</text>
</g>
<!-- n33781008 -->
<g id="node3" class="node">
<title>n33781008</title>
<polygon fill="none" stroke="black" points="453,-36 352,-36 352,0 453,0 453,-36"/>
<text text-anchor="start" x="360" y="-15.3" font-family="Times,serif" font-size="14.00">dog(</text>
<text text-anchor="start" x="392" y="-15.3" font-family="Times,serif" font-style="italic" font-size="14.00">Jonsey</text>
<text text-anchor="start" x="439" y="-15.3" font-family="Times,serif" font-size="14.00">)</text>
</g>
</g>
</svg>
