<?xml version="1.0" encoding="UTF-8" standalone="no"?>
<!DOCTYPE svg PUBLIC "-//W3C//DTD SVG 1.1//EN"
 "http://www.w3.org/Graphics/SVG/1.1/DTD/svg11.dtd">
<!-- Generated by graphviz version 2.43.0 (0)
 -->
<!-- Title: g Pages: 1 -->
<svg width="375pt" height="332pt"
 viewBox="0.00 0.00 374.50 332.00" xmlns="http://www.w3.org/2000/svg" xmlns:xlink="http://www.w3.org/1999/xlink">
<g id="graph0" class="graph" transform="scale(1 1) rotate(0) translate(4 328)">
<title>g</title>
<polygon fill="white" stroke="transparent" points="-4,4 -4,-328 370.5,-328 370.5,4 -4,4"/>
<!-- n13511527 -->
<g id="node1" class="node">
<title>n13511527</title>
<polygon fill="none" stroke="black" points="186,-324 0,-324 0,-288 186,-288 186,-324"/>
<text text-anchor="start" x="8" y="-303.3" font-family="Times,serif" font-size="14.00">animal(</text>
<text text-anchor="start" x="62" y="-303.3" font-family="Times,serif" font-style="italic" font-size="14.00">Kim</text>
<text text-anchor="start" x="91" y="-303.3" font-family="Times,serif" font-size="14.00">), !dog(</text>
<text text-anchor="start" x="143" y="-303.3" font-family="Times,serif" font-style="italic" font-size="14.00">Kim</text>
<text text-anchor="start" x="172" y="-303.3" font-family="Times,serif" font-size="14.00">)</text>
</g>
<!-- SUBSn13511527n67835522 -->
<g id="node6" class="node">
<title>SUBSn13511527n67835522</title>
<text text-anchor="start" x="159.5" y="-230.3" font-family="Times,serif" font-size="14.00">{}</text>
</g>
<!-- n13511527&#45;&gt;SUBSn13511527n67835522 -->
<g id="edge6" class="edge">
<title>n13511527&#45;&gt;SUBSn13511527n67835522</title>
<path fill="none" stroke="black" d="M111.79,-287.7C123.57,-276.85 138.69,-262.92 150.43,-252.1"/>
</g>
<!-- n45676005 -->
<g id="node2" class="node">
<title>n45676005</title>
<polygon fill="none" stroke="black" points="366.5,-180 255.5,-180 255.5,-144 366.5,-144 366.5,-180"/>
<text text-anchor="start" x="263.5" y="-159.3" font-family="Times,serif" font-size="14.00">!animal(</text>
<text text-anchor="start" x="323.5" y="-159.3" font-family="Times,serif" font-style="italic" font-size="14.00">Kim</text>
<text text-anchor="start" x="352.5" y="-159.3" font-family="Times,serif" font-size="14.00">)</text>
</g>
<!-- SUBSn45676005n45676004 -->
<g id="node4" class="node">
<title>SUBSn45676005n45676004</title>
<text text-anchor="start" x="230.5" y="-86.3" font-family="Times,serif" font-size="14.00">{}</text>
</g>
<!-- n45676005&#45;&gt;SUBSn45676005n45676004 -->
<g id="edge5" class="edge">
<title>n45676005&#45;&gt;SUBSn45676005n45676004</title>
<path fill="none" stroke="black" d="M293.45,-143.7C282.44,-132.85 268.32,-118.92 257.35,-108.1"/>
</g>
<!-- n67835522 -->
<g id="node3" class="node">
<title>n67835522</title>
<polygon fill="none" stroke="black" points="287.5,-324 204.5,-324 204.5,-288 287.5,-288 287.5,-324"/>
<text text-anchor="start" x="212.5" y="-303.3" font-family="Times,serif" font-size="14.00">dog(</text>
<text text-anchor="start" x="244.5" y="-303.3" font-family="Times,serif" font-style="italic" font-size="14.00">Kim</text>
<text text-anchor="start" x="273.5" y="-303.3" font-family="Times,serif" font-size="14.00">)</text>
</g>
<!-- n67835522&#45;&gt;SUBSn13511527n67835522 -->
<g id="edge2" class="edge">
<title>n67835522&#45;&gt;SUBSn13511527n67835522</title>
<path fill="none" stroke="black" d="M226.97,-287.7C215.03,-276.85 199.71,-262.92 187.81,-252.1"/>
</g>
<!-- n00000000 -->
<g id="node5" class="node">
<title>n00000000</title>
<ellipse fill="none" stroke="black" cx="240" cy="-18" rx="41.69" ry="18"/>
<text text-anchor="start" x="216" y="-14.3" font-family="Times,serif" font-size="14.00">FALSE</text>
</g>
<!-- SUBSn45676005n45676004&#45;&gt;n00000000 -->
<g id="edge1" class="edge">
<title>SUBSn45676005n45676004&#45;&gt;n00000000</title>
<path fill="none" stroke="black" d="M240,-71.7C240,-63.98 240,-54.71 240,-46.11"/>
<polygon fill="black" stroke="black" points="243.5,-46.1 240,-36.1 236.5,-46.1 243.5,-46.1"/>
</g>
<!-- n45676004 -->
<g id="node7" class="node">
<title>n45676004</title>
<ellipse fill="none" stroke="black" cx="169" cy="-162" rx="68.49" ry="18"/>
<text text-anchor="start" x="124.5" y="-159.3" font-family="Times,serif" font-size="14.00">animal(</text>
<text text-anchor="start" x="178.5" y="-159.3" font-family="Times,serif" font-style="italic" font-size="14.00">Kim</text>
<text text-anchor="start" x="207.5" y="-159.3" font-family="Times,serif" font-size="14.00">)</text>
</g>
<!-- SUBSn13511527n67835522&#45;&gt;n45676004 -->
<g id="edge4" class="edge">
<title>SUBSn13511527n67835522&#45;&gt;n45676004</title>
<path fill="none" stroke="black" d="M169,-215.7C169,-207.98 169,-198.71 169,-190.11"/>
<polygon fill="black" stroke="black" points="172.5,-190.1 169,-180.1 165.5,-190.1 172.5,-190.1"/>
</g>
<!-- n45676004&#45;&gt;SUBSn45676005n45676004 -->
<g id="edge3" class="edge">
<title>n45676004&#45;&gt;SUBSn45676005n45676004</title>
<path fill="none" stroke="black" d="M185.83,-144.41C196.9,-133.49 211.36,-119.24 222.55,-108.2"/>
</g>
</g>
</svg>
