<?xml version="1.0" encoding="UTF-8" standalone="no"?>
<!DOCTYPE svg PUBLIC "-//W3C//DTD SVG 1.1//EN"
 "http://www.w3.org/Graphics/SVG/1.1/DTD/svg11.dtd">
<!-- Generated by graphviz version 2.43.0 (0)
 -->
<!-- Title: g Pages: 1 -->
<svg width="443pt" height="188pt"
 viewBox="0.00 0.00 442.50 188.00" xmlns="http://www.w3.org/2000/svg" xmlns:xlink="http://www.w3.org/1999/xlink">
<g id="graph0" class="graph" transform="scale(1 1) rotate(0) translate(4 184)">
<title>g</title>
<polygon fill="white" stroke="transparent" points="-4,4 -4,-184 438.5,-184 438.5,4 -4,4"/>
<!-- n69671493 -->
<g id="node1" class="node">
<title>n69671493</title>
<polygon fill="none" stroke="black" points="101,-180 0,-180 0,-144 101,-144 101,-180"/>
<text text-anchor="start" x="8" y="-159.3" font-family="Times,serif" font-size="14.00">dog(</text>
<text text-anchor="start" x="40" y="-159.3" font-family="Times,serif" font-style="italic" font-size="14.00">Jonsey</text>
<text text-anchor="start" x="87" y="-159.3" font-family="Times,serif" font-size="14.00">)</text>
</g>
<!-- n67154876 -->
<g id="node2" class="node">
<title>n67154876</title>
<polygon fill="none" stroke="black" points="230,-180 119,-180 119,-144 230,-144 230,-180"/>
<text text-anchor="start" x="127" y="-159.3" font-family="Times,serif" font-size="14.00">!animal(</text>
<text text-anchor="start" x="187" y="-159.3" font-family="Times,serif" font-style="italic" font-size="14.00">Kim</text>
<text text-anchor="start" x="216" y="-159.3" font-family="Times,serif" font-size="14.00">)</text>
</g>
<!-- SUBSn67154876n89374286 -->
<g id="node4" class="node">
<title>SUBSn67154876n89374286</title>
<text text-anchor="start" x="248" y="-86.3" font-family="Times,serif" font-size="14.00">{}</text>
</g>
<!-- n67154876&#45;&gt;SUBSn67154876n89374286 -->
<g id="edge3" class="edge">
<title>n67154876&#45;&gt;SUBSn67154876n89374286</title>
<path fill="none" stroke="black" d="M195.02,-143.7C207.88,-132.85 224.4,-118.92 237.22,-108.1"/>
</g>
<!-- n89374286 -->
<g id="node3" class="node">
<title>n89374286</title>
<polygon fill="none" stroke="black" points="434.5,-180 248.5,-180 248.5,-144 434.5,-144 434.5,-180"/>
<text text-anchor="start" x="256.5" y="-159.3" font-family="Times,serif" font-size="14.00">!dog(</text>
<text text-anchor="start" x="294.5" y="-159.3" font-family="Times,serif" font-style="italic" font-size="14.00">Kim</text>
<text text-anchor="start" x="323.5" y="-159.3" font-family="Times,serif" font-size="14.00">), animal(</text>
<text text-anchor="start" x="391.5" y="-159.3" font-family="Times,serif" font-style="italic" font-size="14.00">Kim</text>
<text text-anchor="start" x="420.5" y="-159.3" font-family="Times,serif" font-size="14.00">)</text>
</g>
<!-- n89374286&#45;&gt;SUBSn67154876n89374286 -->
<g id="edge2" class="edge">
<title>n89374286&#45;&gt;SUBSn67154876n89374286</title>
<path fill="none" stroke="black" d="M320.74,-143.7C307.72,-132.85 291,-118.92 278.03,-108.1"/>
</g>
<!-- n77780591 -->
<g id="node5" class="node">
<title>n77780591</title>
<ellipse fill="none" stroke="black" cx="257.5" cy="-18" rx="57.69" ry="18"/>
<text text-anchor="start" x="221" y="-15.3" font-family="Times,serif" font-size="14.00">!dog(</text>
<text text-anchor="start" x="259" y="-15.3" font-family="Times,serif" font-style="italic" font-size="14.00">Kim</text>
<text text-anchor="start" x="288" y="-15.3" font-family="Times,serif" font-size="14.00">)</text>
</g>
<!-- SUBSn67154876n89374286&#45;&gt;n77780591 -->
<g id="edge1" class="edge">
<title>SUBSn67154876n89374286&#45;&gt;n77780591</title>
<path fill="none" stroke="black" d="M257.5,-71.7C257.5,-63.98 257.5,-54.71 257.5,-46.11"/>
<polygon fill="black" stroke="black" points="261,-46.1 257.5,-36.1 254,-46.1 261,-46.1"/>
</g>
</g>
</svg>
