<?xml version="1.0" encoding="UTF-8" standalone="no"?>
<!DOCTYPE svg PUBLIC "-//W3C//DTD SVG 1.1//EN"
 "http://www.w3.org/Graphics/SVG/1.1/DTD/svg11.dtd">
<!-- Generated by graphviz version 2.43.0 (0)
 -->
<!-- Title: g Pages: 1 -->
<svg width="754pt" height="476pt"
 viewBox="0.00 0.00 753.50 476.00" xmlns="http://www.w3.org/2000/svg" xmlns:xlink="http://www.w3.org/1999/xlink">
<g id="graph0" class="graph" transform="scale(1 1) rotate(0) translate(4 472)">
<title>g</title>
<polygon fill="white" stroke="transparent" points="-4,4 -4,-472 749.5,-472 749.5,4 -4,4"/>
<!-- n48213195 -->
<g id="node1" class="node">
<title>n48213195</title>
<polygon fill="none" stroke="black" points="157,-468 0,-468 0,-432 157,-432 157,-468"/>
<text text-anchor="start" x="8" y="-446.3" font-family="Times,serif" font-size="14.00">sprinkler, !dry, !day</text>
</g>
<!-- n54765543 -->
<g id="node2" class="node">
<title>n54765543</title>
<polygon fill="none" stroke="black" points="261.5,-468 175.5,-468 175.5,-432 261.5,-432 261.5,-468"/>
<text text-anchor="start" x="183.5" y="-446.3" font-family="Times,serif" font-size="14.00">!dry, !wet</text>
</g>
<!-- SUBSn00600920n54765543 -->
<g id="node10" class="node">
<title>SUBSn00600920n54765543</title>
<text text-anchor="start" x="261" y="-374.3" font-family="Times,serif" font-size="14.00">{}</text>
</g>
<!-- n54765543&#45;&gt;SUBSn00600920n54765543 -->
<g id="edge9" class="edge">
<title>n54765543&#45;&gt;SUBSn00600920n54765543</title>
<path fill="none" stroke="black" d="M231.35,-431.7C239.41,-420.85 249.76,-406.92 257.79,-396.1"/>
</g>
<!-- n00600920 -->
<g id="node3" class="node">
<title>n00600920</title>
<polygon fill="none" stroke="black" points="365.5,-468 279.5,-468 279.5,-432 365.5,-432 365.5,-468"/>
<text text-anchor="start" x="287.5" y="-446.3" font-family="Times,serif" font-size="14.00">!rain, wet</text>
</g>
<!-- n00600920&#45;&gt;SUBSn00600920n54765543 -->
<g id="edge11" class="edge">
<title>n00600920&#45;&gt;SUBSn00600920n54765543</title>
<path fill="none" stroke="black" d="M309.65,-431.7C301.59,-420.85 291.24,-406.92 283.21,-396.1"/>
</g>
<!-- n51322846 -->
<g id="node4" class="node">
<title>n51322846</title>
<polygon fill="none" stroke="black" points="473,-468 384,-468 384,-432 473,-432 473,-468"/>
<text text-anchor="start" x="392" y="-446.3" font-family="Times,serif" font-size="14.00">night, day</text>
</g>
<!-- n49102481 -->
<g id="node5" class="node">
<title>n49102481</title>
<polygon fill="none" stroke="black" points="400.5,-324 346.5,-324 346.5,-288 400.5,-288 400.5,-324"/>
<text text-anchor="start" x="359" y="-302.3" font-family="Times,serif" font-size="14.00">rain</text>
</g>
<!-- SUBSn49102481n38123368 -->
<g id="node16" class="node">
<title>SUBSn49102481n38123368</title>
<text text-anchor="start" x="364" y="-230.3" font-family="Times,serif" font-size="14.00">{}</text>
</g>
<!-- n49102481&#45;&gt;SUBSn49102481n38123368 -->
<g id="edge12" class="edge">
<title>n49102481&#45;&gt;SUBSn49102481n38123368</title>
<path fill="none" stroke="black" d="M373.5,-287.7C373.5,-276.85 373.5,-262.92 373.5,-252.1"/>
</g>
<!-- n44185041 -->
<g id="node6" class="node">
<title>n44185041</title>
<polygon fill="none" stroke="black" points="629.5,-468 491.5,-468 491.5,-432 629.5,-432 629.5,-468"/>
<text text-anchor="start" x="499.5" y="-446.3" font-family="Times,serif" font-size="14.00">bright, !dry, !day</text>
</g>
<!-- n06339842 -->
<g id="node7" class="node">
<title>n06339842</title>
<polygon fill="none" stroke="black" points="508,-324 419,-324 419,-288 508,-288 508,-324"/>
<text text-anchor="start" x="427" y="-302.3" font-family="Times,serif" font-size="14.00">dry, !clear</text>
</g>
<!-- SUBSn19113994n06339842 -->
<g id="node11" class="node">
<title>SUBSn19113994n06339842</title>
<text text-anchor="start" x="454" y="-230.3" font-family="Times,serif" font-size="14.00">{}</text>
</g>
<!-- n06339842&#45;&gt;SUBSn19113994n06339842 -->
<g id="edge1" class="edge">
<title>n06339842&#45;&gt;SUBSn19113994n06339842</title>
<path fill="none" stroke="black" d="M463.5,-287.7C463.5,-276.85 463.5,-262.92 463.5,-252.1"/>
</g>
<!-- n19113994 -->
<g id="node8" class="node">
<title>n19113994</title>
<polygon fill="none" stroke="black" points="580.5,-324 526.5,-324 526.5,-288 580.5,-288 580.5,-324"/>
<text text-anchor="start" x="535.5" y="-302.3" font-family="Times,serif" font-size="14.00">clear</text>
</g>
<!-- n19113994&#45;&gt;SUBSn19113994n06339842 -->
<g id="edge7" class="edge">
<title>n19113994&#45;&gt;SUBSn19113994n06339842</title>
<path fill="none" stroke="black" d="M531.25,-287.7C517.3,-276.85 499.39,-262.92 485.49,-252.1"/>
</g>
<!-- n51322848 -->
<g id="node9" class="node">
<title>n51322848</title>
<polygon fill="none" stroke="black" points="745.5,-468 647.5,-468 647.5,-432 745.5,-432 745.5,-468"/>
<text text-anchor="start" x="655.5" y="-446.3" font-family="Times,serif" font-size="14.00">!day, !night</text>
</g>
<!-- n38123368 -->
<g id="node15" class="node">
<title>n38123368</title>
<ellipse fill="none" stroke="black" cx="270.5" cy="-306" rx="58.49" ry="18"/>
<text text-anchor="start" x="233.5" y="-302.3" font-family="Times,serif" font-size="14.00">!rain, !dry</text>
</g>
<!-- SUBSn00600920n54765543&#45;&gt;n38123368 -->
<g id="edge10" class="edge">
<title>SUBSn00600920n54765543&#45;&gt;n38123368</title>
<path fill="none" stroke="black" d="M270.5,-359.7C270.5,-351.98 270.5,-342.71 270.5,-334.11"/>
<polygon fill="black" stroke="black" points="274,-334.1 270.5,-324.1 267,-334.1 274,-334.1"/>
</g>
<!-- n87225847 -->
<g id="node12" class="node">
<title>n87225847</title>
<ellipse fill="none" stroke="black" cx="460.5" cy="-162" rx="27" ry="18"/>
<text text-anchor="start" x="448" y="-158.3" font-family="Times,serif" font-size="14.00">dry</text>
</g>
<!-- SUBSn19113994n06339842&#45;&gt;n87225847 -->
<g id="edge5" class="edge">
<title>SUBSn19113994n06339842&#45;&gt;n87225847</title>
<path fill="none" stroke="black" d="M462.76,-215.7C462.43,-207.98 462.03,-198.71 461.66,-190.11"/>
<polygon fill="black" stroke="black" points="465.16,-189.95 461.23,-180.1 458.16,-190.25 465.16,-189.95"/>
</g>
<!-- SUBSn87225847n87225848 -->
<g id="node13" class="node">
<title>SUBSn87225847n87225848</title>
<text text-anchor="start" x="406" y="-86.3" font-family="Times,serif" font-size="14.00">{}</text>
</g>
<!-- n87225847&#45;&gt;SUBSn87225847n87225848 -->
<g id="edge2" class="edge">
<title>n87225847&#45;&gt;SUBSn87225847n87225848</title>
<path fill="none" stroke="black" d="M450.29,-145.12C443.24,-134.14 433.86,-119.56 426.62,-108.29"/>
</g>
<!-- n00000000 -->
<g id="node17" class="node">
<title>n00000000</title>
<ellipse fill="none" stroke="black" cx="415.5" cy="-18" rx="41.69" ry="18"/>
<text text-anchor="start" x="391.5" y="-14.3" font-family="Times,serif" font-size="14.00">FALSE</text>
</g>
<!-- SUBSn87225847n87225848&#45;&gt;n00000000 -->
<g id="edge6" class="edge">
<title>SUBSn87225847n87225848&#45;&gt;n00000000</title>
<path fill="none" stroke="black" d="M415.5,-71.7C415.5,-63.98 415.5,-54.71 415.5,-46.11"/>
<polygon fill="black" stroke="black" points="419,-46.1 415.5,-36.1 412,-46.1 419,-46.1"/>
</g>
<!-- n87225848 -->
<g id="node14" class="node">
<title>n87225848</title>
<ellipse fill="none" stroke="black" cx="377.5" cy="-162" rx="30.59" ry="18"/>
<text text-anchor="start" x="362" y="-158.3" font-family="Times,serif" font-size="14.00">!dry</text>
</g>
<!-- n87225848&#45;&gt;SUBSn87225847n87225848 -->
<g id="edge3" class="edge">
<title>n87225848&#45;&gt;SUBSn87225847n87225848</title>
<path fill="none" stroke="black" d="M386.31,-144.76C392.28,-133.78 400.14,-119.29 406.2,-108.12"/>
</g>
<!-- n38123368&#45;&gt;SUBSn49102481n38123368 -->
<g id="edge4" class="edge">
<title>n38123368&#45;&gt;SUBSn49102481n38123368</title>
<path fill="none" stroke="black" d="M293.62,-289.29C309.87,-278.25 331.6,-263.47 348.3,-252.13"/>
</g>
<!-- SUBSn49102481n38123368&#45;&gt;n87225848 -->
<g id="edge8" class="edge">
<title>SUBSn49102481n38123368&#45;&gt;n87225848</title>
<path fill="none" stroke="black" d="M374.49,-215.7C374.93,-207.98 375.46,-198.71 375.95,-190.11"/>
<polygon fill="black" stroke="black" points="379.45,-190.29 376.52,-180.1 372.46,-189.89 379.45,-190.29"/>
</g>
</g>
</svg>
