<?xml version="1.0" encoding="UTF-8" standalone="no"?>
<!DOCTYPE svg PUBLIC "-//W3C//DTD SVG 1.1//EN"
 "http://www.w3.org/Graphics/SVG/1.1/DTD/svg11.dtd">
<!-- Generated by graphviz version 2.43.0 (0)
 -->
<!-- Title: g Pages: 1 -->
<svg width="2191pt" height="476pt"
 viewBox="0.00 0.00 2191.19 476.00" xmlns="http://www.w3.org/2000/svg" xmlns:xlink="http://www.w3.org/1999/xlink">
<g id="graph0" class="graph" transform="scale(1 1) rotate(0) translate(4 472)">
<title>g</title>
<polygon fill="white" stroke="transparent" points="-4,4 -4,-472 2187.19,-472 2187.19,4 -4,4"/>
<!-- n96858525 -->
<g id="node1" class="node">
<title>n96858525</title>
<polygon fill="none" stroke="black" points="173.19,-324 87.19,-324 87.19,-288 173.19,-288 173.19,-324"/>
<text text-anchor="start" x="95.19" y="-302.3" font-family="Times,serif" font-size="14.00">!rain, wet</text>
</g>
<!-- SUBSn51080513n96858525 -->
<g id="node34" class="node">
<title>SUBSn51080513n96858525</title>
<text text-anchor="start" x="49.69" y="-230.3" font-family="Times,serif" font-size="14.00">{}</text>
</g>
<!-- n96858525&#45;&gt;SUBSn51080513n96858525 -->
<g id="edge14" class="edge">
<title>n96858525&#45;&gt;SUBSn51080513n96858525</title>
<path fill="none" stroke="black" d="M112.64,-287.7C101.64,-276.85 87.51,-262.92 76.54,-252.1"/>
</g>
<!-- SUBSn65328989n96858525 -->
<g id="node39" class="node">
<title>SUBSn65328989n96858525</title>
<text text-anchor="start" x="305.69" y="-230.3" font-family="Times,serif" font-size="14.00">{}</text>
</g>
<!-- n96858525&#45;&gt;SUBSn65328989n96858525 -->
<g id="edge41" class="edge">
<title>n96858525&#45;&gt;SUBSn65328989n96858525</title>
<path fill="none" stroke="black" d="M173.57,-288.59C209.03,-275.17 258.05,-256.62 288.14,-245.24"/>
</g>
<!-- SUBSn57444755n96858525 -->
<g id="node49" class="node">
<title>SUBSn57444755n96858525</title>
<text text-anchor="start" x="188.69" y="-230.3" font-family="Times,serif" font-size="14.00">{}</text>
</g>
<!-- n96858525&#45;&gt;SUBSn57444755n96858525 -->
<g id="edge55" class="edge">
<title>n96858525&#45;&gt;SUBSn57444755n96858525</title>
<path fill="none" stroke="black" d="M147,-287.7C157.54,-276.85 171.08,-262.92 181.58,-252.1"/>
</g>
<!-- n15001518 -->
<g id="node2" class="node">
<title>n15001518</title>
<polygon fill="none" stroke="black" points="817.69,-468 660.69,-468 660.69,-432 817.69,-432 817.69,-468"/>
<text text-anchor="start" x="668.69" y="-446.3" font-family="Times,serif" font-size="14.00">!day, sprinkler, !dry</text>
</g>
<!-- SUBSn15001518n77867291 -->
<g id="node13" class="node">
<title>SUBSn15001518n77867291</title>
<text text-anchor="start" x="729.69" y="-374.3" font-family="Times,serif" font-size="14.00">{}</text>
</g>
<!-- n15001518&#45;&gt;SUBSn15001518n77867291 -->
<g id="edge8" class="edge">
<title>n15001518&#45;&gt;SUBSn15001518n77867291</title>
<path fill="none" stroke="black" d="M739.19,-431.7C739.19,-420.85 739.19,-406.92 739.19,-396.1"/>
</g>
<!-- SUBSn15001518n97499450 -->
<g id="node19" class="node">
<title>SUBSn15001518n97499450</title>
<text text-anchor="start" x="1070.69" y="-374.3" font-family="Times,serif" font-size="14.00">{}</text>
</g>
<!-- n15001518&#45;&gt;SUBSn15001518n97499450 -->
<g id="edge37" class="edge">
<title>n15001518&#45;&gt;SUBSn15001518n97499450</title>
<path fill="none" stroke="black" d="M817.86,-432.85C893.19,-417.39 1002.61,-394.93 1052.97,-384.59"/>
</g>
<!-- SUBSn48152329n15001518 -->
<g id="node27" class="node">
<title>SUBSn48152329n15001518</title>
<text text-anchor="start" x="419.69" y="-230.3" font-family="Times,serif" font-size="14.00">{}</text>
</g>
<!-- n15001518&#45;&gt;SUBSn48152329n15001518 -->
<g id="edge35" class="edge">
<title>n15001518&#45;&gt;SUBSn48152329n15001518</title>
<path fill="none" stroke="black" d="M660.4,-435.85C593.89,-420.54 501.25,-388.58 448.19,-324 431.35,-303.49 428.43,-271.57 428.41,-252.05"/>
</g>
<!-- SUBSn14248475n15001518 -->
<g id="node50" class="node">
<title>SUBSn14248475n15001518</title>
<text text-anchor="start" x="867.69" y="-374.3" font-family="Times,serif" font-size="14.00">{}</text>
</g>
<!-- n15001518&#45;&gt;SUBSn14248475n15001518 -->
<g id="edge46" class="edge">
<title>n15001518&#45;&gt;SUBSn14248475n15001518</title>
<path fill="none" stroke="black" d="M772.95,-431.88C796.57,-419.9 827.72,-404.09 849.8,-392.9"/>
</g>
<!-- n77867291 -->
<g id="node3" class="node">
<title>n77867291</title>
<polygon fill="none" stroke="black" points="924.69,-468 835.69,-468 835.69,-432 924.69,-432 924.69,-468"/>
<text text-anchor="start" x="843.69" y="-446.3" font-family="Times,serif" font-size="14.00">dry, !clear</text>
</g>
<!-- SUBSn51080513n77867291 -->
<g id="node11" class="node">
<title>SUBSn51080513n77867291</title>
<text text-anchor="start" x="266.69" y="-374.3" font-family="Times,serif" font-size="14.00">{}</text>
</g>
<!-- n77867291&#45;&gt;SUBSn51080513n77867291 -->
<g id="edge16" class="edge">
<title>n77867291&#45;&gt;SUBSn51080513n77867291</title>
<path fill="none" stroke="black" d="M835.57,-433.86C832.75,-433.16 829.95,-432.53 827.19,-432 611.08,-390.09 549.72,-435.69 333.19,-396 323.34,-394.19 312.77,-391.32 303.44,-388.44"/>
</g>
<!-- n77867291&#45;&gt;SUBSn15001518n77867291 -->
<g id="edge64" class="edge">
<title>n77867291&#45;&gt;SUBSn15001518n77867291</title>
<path fill="none" stroke="black" d="M845.7,-431.88C821.24,-419.73 788.88,-403.67 766.27,-392.44"/>
</g>
<!-- SUBSn66370833n77867291 -->
<g id="node40" class="node">
<title>SUBSn66370833n77867291</title>
<text text-anchor="start" x="1260.69" y="-374.3" font-family="Times,serif" font-size="14.00">{}</text>
</g>
<!-- n77867291&#45;&gt;SUBSn66370833n77867291 -->
<g id="edge48" class="edge">
<title>n77867291&#45;&gt;SUBSn66370833n77867291</title>
<path fill="none" stroke="black" d="M924.81,-434.26C927.97,-433.43 931.12,-432.67 934.19,-432 1063.29,-404.05 1101.46,-429.6 1229.19,-396 1233.67,-394.82 1238.29,-393.26 1242.76,-391.57"/>
</g>
<!-- SUBSn77867291n98325046 -->
<g id="node41" class="node">
<title>SUBSn77867291n98325046</title>
<text text-anchor="start" x="1517.69" y="-230.3" font-family="Times,serif" font-size="14.00">{}</text>
</g>
<!-- n77867291&#45;&gt;SUBSn77867291n98325046 -->
<g id="edge43" class="edge">
<title>n77867291&#45;&gt;SUBSn77867291n98325046</title>
<path fill="none" stroke="black" d="M924.88,-434.52C928.02,-433.63 931.15,-432.78 934.19,-432 1014.08,-411.59 1042.46,-432.91 1116.19,-396 1158.97,-374.59 1161.05,-356.45 1196.19,-324 1213.29,-308.22 1213.44,-298.51 1234.19,-288 1323.9,-242.58 1446.43,-235.59 1500.12,-234.84"/>
</g>
<!-- n48152329 -->
<g id="node4" class="node">
<title>n48152329</title>
<polygon fill="none" stroke="black" points="544.69,-324 457.69,-324 457.69,-288 544.69,-288 544.69,-324"/>
<text text-anchor="start" x="465.69" y="-302.3" font-family="Times,serif" font-size="14.00">!sprinkler</text>
</g>
<!-- SUBSn64554115n48152329 -->
<g id="node15" class="node">
<title>SUBSn64554115n48152329</title>
<text text-anchor="start" x="1069.69" y="-86.3" font-family="Times,serif" font-size="14.00">{}</text>
</g>
<!-- n48152329&#45;&gt;SUBSn64554115n48152329 -->
<g id="edge15" class="edge">
<title>n48152329&#45;&gt;SUBSn64554115n48152329</title>
<path fill="none" stroke="black" d="M505.16,-287.88C514.25,-250.25 537.59,-162.24 561.19,-144 580.84,-128.81 948.45,-100.65 1052.16,-92.97"/>
</g>
<!-- SUBSn48152329n29249994 -->
<g id="node18" class="node">
<title>SUBSn48152329n29249994</title>
<text text-anchor="start" x="734.69" y="-230.3" font-family="Times,serif" font-size="14.00">{}</text>
</g>
<!-- n48152329&#45;&gt;SUBSn48152329n29249994 -->
<g id="edge63" class="edge">
<title>n48152329&#45;&gt;SUBSn48152329n29249994</title>
<path fill="none" stroke="black" d="M544.83,-290.86C547.99,-289.88 551.14,-288.92 554.19,-288 611.93,-270.7 680.08,-252.13 717.04,-242.22"/>
</g>
<!-- SUBSn48152329n50305639 -->
<g id="node24" class="node">
<title>SUBSn48152329n50305639</title>
<text text-anchor="start" x="844.69" y="-230.3" font-family="Times,serif" font-size="14.00">{}</text>
</g>
<!-- n48152329&#45;&gt;SUBSn48152329n50305639 -->
<g id="edge58" class="edge">
<title>n48152329&#45;&gt;SUBSn48152329n50305639</title>
<path fill="none" stroke="black" d="M544.72,-290.46C547.91,-289.57 551.09,-288.74 554.19,-288 653.13,-264.4 680.35,-271.4 780.19,-252 795.72,-248.98 812.95,-245.06 826.88,-241.74"/>
</g>
<!-- n48152329&#45;&gt;SUBSn48152329n15001518 -->
<g id="edge20" class="edge">
<title>n48152329&#45;&gt;SUBSn48152329n15001518</title>
<path fill="none" stroke="black" d="M483.4,-287.7C472.24,-276.85 457.91,-262.92 446.79,-252.1"/>
</g>
<!-- SUBSn66589956n48152329 -->
<g id="node35" class="node">
<title>SUBSn66589956n48152329</title>
<text text-anchor="start" x="622.69" y="-230.3" font-family="Times,serif" font-size="14.00">{}</text>
</g>
<!-- n48152329&#45;&gt;SUBSn66589956n48152329 -->
<g id="edge38" class="edge">
<title>n48152329&#45;&gt;SUBSn66589956n48152329</title>
<path fill="none" stroke="black" d="M533.24,-287.88C555.21,-276.14 584.04,-260.73 604.91,-249.58"/>
</g>
<!-- SUBSn48152329n56669881 -->
<g id="node37" class="node">
<title>SUBSn48152329n56669881</title>
<text text-anchor="start" x="765.69" y="-86.3" font-family="Times,serif" font-size="14.00">{}</text>
</g>
<!-- n48152329&#45;&gt;SUBSn48152329n56669881 -->
<g id="edge30" class="edge">
<title>n48152329&#45;&gt;SUBSn48152329n56669881</title>
<path fill="none" stroke="black" d="M498.46,-287.99C494.27,-255.34 490.3,-183.65 528.19,-144 558.27,-112.53 690.21,-98 747.96,-93.06"/>
</g>
<!-- n14248475 -->
<g id="node5" class="node">
<title>n14248475</title>
<polygon fill="none" stroke="black" points="997.19,-468 943.19,-468 943.19,-432 997.19,-432 997.19,-468"/>
<text text-anchor="start" x="957.69" y="-446.3" font-family="Times,serif" font-size="14.00">dry</text>
</g>
<!-- SUBSn51080513n14248475 -->
<g id="node22" class="node">
<title>SUBSn51080513n14248475</title>
<text text-anchor="start" x="359.69" y="-374.3" font-family="Times,serif" font-size="14.00">{}</text>
</g>
<!-- n14248475&#45;&gt;SUBSn51080513n14248475 -->
<g id="edge5" class="edge">
<title>n14248475&#45;&gt;SUBSn51080513n14248475</title>
<path fill="none" stroke="black" d="M943.05,-434.99C940.12,-433.83 937.13,-432.8 934.19,-432 830.74,-403.66 494.5,-385.19 396.34,-380.3"/>
</g>
<!-- SUBSn14248475n66370833 -->
<g id="node29" class="node">
<title>SUBSn14248475n66370833</title>
<text text-anchor="start" x="1332.69" y="-374.3" font-family="Times,serif" font-size="14.00">{}</text>
</g>
<!-- n14248475&#45;&gt;SUBSn14248475n66370833 -->
<g id="edge54" class="edge">
<title>n14248475&#45;&gt;SUBSn14248475n66370833</title>
<path fill="none" stroke="black" d="M997.35,-447.34C1055.27,-443.24 1194.73,-430.34 1306.19,-396 1309.1,-395.1 1312.07,-394.01 1315,-392.82"/>
</g>
<!-- n14248475&#45;&gt;SUBSn14248475n15001518 -->
<g id="edge36" class="edge">
<title>n14248475&#45;&gt;SUBSn14248475n15001518</title>
<path fill="none" stroke="black" d="M947.21,-431.7C932.79,-420.85 914.28,-406.92 899.92,-396.1"/>
</g>
<!-- n51080513 -->
<g id="node6" class="node">
<title>n51080513</title>
<polygon fill="none" stroke="black" points="319.19,-468 233.19,-468 233.19,-432 319.19,-432 319.19,-468"/>
<text text-anchor="start" x="241.19" y="-446.3" font-family="Times,serif" font-size="14.00">!dry, !wet</text>
</g>
<!-- n51080513&#45;&gt;SUBSn51080513n77867291 -->
<g id="edge67" class="edge">
<title>n51080513&#45;&gt;SUBSn51080513n77867291</title>
<path fill="none" stroke="black" d="M276.19,-431.7C276.19,-420.85 276.19,-406.92 276.19,-396.1"/>
</g>
<!-- n51080513&#45;&gt;SUBSn51080513n14248475 -->
<g id="edge61" class="edge">
<title>n51080513&#45;&gt;SUBSn51080513n14248475</title>
<path fill="none" stroke="black" d="M299.18,-431.7C313.6,-420.85 332.11,-406.92 346.47,-396.1"/>
</g>
<!-- n51080513&#45;&gt;SUBSn51080513n96858525 -->
<g id="edge62" class="edge">
<title>n51080513&#45;&gt;SUBSn51080513n96858525</title>
<path fill="none" stroke="black" d="M233.05,-433.53C187.3,-414.82 116.45,-378.85 78.19,-324 63.19,-302.49 59.66,-271.45 59.03,-252.29"/>
</g>
<!-- n97499450 -->
<g id="node7" class="node">
<title>n97499450</title>
<polygon fill="none" stroke="black" points="1633.19,-468 1547.19,-468 1547.19,-432 1633.19,-432 1633.19,-468"/>
<text text-anchor="start" x="1555.19" y="-446.3" font-family="Times,serif" font-size="14.00">day, night</text>
</g>
<!-- SUBSn97499448n97499450 -->
<g id="node12" class="node">
<title>SUBSn97499448n97499450</title>
<text text-anchor="start" x="1981.69" y="-374.3" font-family="Times,serif" font-size="14.00">{}</text>
</g>
<!-- n97499450&#45;&gt;SUBSn97499448n97499450 -->
<g id="edge28" class="edge">
<title>n97499450&#45;&gt;SUBSn97499448n97499450</title>
<path fill="none" stroke="black" d="M1633.35,-442.26C1694.42,-432.62 1809.53,-414.04 1907.19,-396 1926.22,-392.49 1947.58,-388.16 1964,-384.75"/>
</g>
<!-- n97499450&#45;&gt;SUBSn15001518n97499450 -->
<g id="edge3" class="edge">
<title>n97499450&#45;&gt;SUBSn15001518n97499450</title>
<path fill="none" stroke="black" d="M1547.15,-443.09C1445.09,-429.08 1190.72,-394.17 1107.22,-382.71"/>
</g>
<!-- SUBSn80619309n97499450 -->
<g id="node20" class="node">
<title>SUBSn80619309n97499450</title>
<text text-anchor="start" x="1837.69" y="-230.3" font-family="Times,serif" font-size="14.00">{}</text>
</g>
<!-- n97499450&#45;&gt;SUBSn80619309n97499450 -->
<g id="edge26" class="edge">
<title>n97499450&#45;&gt;SUBSn80619309n97499450</title>
<path fill="none" stroke="black" d="M1633.2,-444.68C1698.73,-435.5 1821.51,-407.48 1874.19,-324 1888.41,-301.47 1873.09,-271.01 1860.39,-252.2"/>
</g>
<!-- SUBSn97499450n29249994 -->
<g id="node31" class="node">
<title>SUBSn97499450n29249994</title>
<text text-anchor="start" x="1253.69" y="-230.3" font-family="Times,serif" font-size="14.00">{}</text>
</g>
<!-- n97499450&#45;&gt;SUBSn97499450n29249994 -->
<g id="edge45" class="edge">
<title>n97499450&#45;&gt;SUBSn97499450n29249994</title>
<path fill="none" stroke="black" d="M1614.64,-432C1656.06,-401.19 1731.7,-334.97 1690.19,-288 1676.84,-272.89 1382.03,-245.55 1290.23,-237.37"/>
</g>
<!-- SUBSn66370833n97499450 -->
<g id="node32" class="node">
<title>SUBSn66370833n97499450</title>
<text text-anchor="start" x="1404.69" y="-374.3" font-family="Times,serif" font-size="14.00">{}</text>
</g>
<!-- n97499450&#45;&gt;SUBSn66370833n97499450 -->
<g id="edge21" class="edge">
<title>n97499450&#45;&gt;SUBSn66370833n97499450</title>
<path fill="none" stroke="black" d="M1546.95,-432.26C1520.42,-421.93 1485.78,-408.34 1455.19,-396 1450.76,-394.21 1446.08,-392.29 1441.51,-390.41"/>
</g>
<!-- SUBSn66589956n97499450 -->
<g id="node45" class="node">
<title>SUBSn66589956n97499450</title>
<text text-anchor="start" x="1037.69" y="-230.3" font-family="Times,serif" font-size="14.00">{}</text>
</g>
<!-- n97499450&#45;&gt;SUBSn66589956n97499450 -->
<g id="edge49" class="edge">
<title>n97499450&#45;&gt;SUBSn66589956n97499450</title>
<path fill="none" stroke="black" d="M1575.91,-431.71C1542.91,-391.98 1462.93,-296.86 1446.19,-288 1413.3,-270.6 1158.93,-245.46 1074.4,-237.51"/>
</g>
<!-- n24979921 -->
<g id="node8" class="node">
<title>n24979921</title>
<polygon fill="none" stroke="black" points="2130.19,-468 2058.19,-468 2058.19,-432 2130.19,-432 2130.19,-468"/>
<text text-anchor="start" x="2066.19" y="-446.3" font-family="Times,serif" font-size="14.00">!Nnight</text>
</g>
<!-- n66370833 -->
<g id="node9" class="node">
<title>n66370833</title>
<polygon fill="none" stroke="black" points="1410.19,-468 1274.19,-468 1274.19,-432 1410.19,-432 1410.19,-468"/>
<text text-anchor="start" x="1282.19" y="-446.3" font-family="Times,serif" font-size="14.00">!day, !dry, bright</text>
</g>
<!-- n66370833&#45;&gt;SUBSn14248475n66370833 -->
<g id="edge22" class="edge">
<title>n66370833&#45;&gt;SUBSn14248475n66370833</title>
<path fill="none" stroke="black" d="M1342.19,-431.7C1342.19,-420.85 1342.19,-406.92 1342.19,-396.1"/>
</g>
<!-- n66370833&#45;&gt;SUBSn66370833n97499450 -->
<g id="edge17" class="edge">
<title>n66370833&#45;&gt;SUBSn66370833n97499450</title>
<path fill="none" stroke="black" d="M1359.99,-431.7C1371.15,-420.85 1385.48,-406.92 1396.6,-396.1"/>
</g>
<!-- n66370833&#45;&gt;SUBSn66370833n77867291 -->
<g id="edge52" class="edge">
<title>n66370833&#45;&gt;SUBSn66370833n77867291</title>
<path fill="none" stroke="black" d="M1324.4,-431.7C1313.24,-420.85 1298.91,-406.92 1287.79,-396.1"/>
</g>
<!-- n97499448 -->
<g id="node10" class="node">
<title>n97499448</title>
<polygon fill="none" stroke="black" points="2040.19,-468 1942.19,-468 1942.19,-432 2040.19,-432 2040.19,-468"/>
<text text-anchor="start" x="1950.19" y="-446.3" font-family="Times,serif" font-size="14.00">!day, !night</text>
</g>
<!-- n97499448&#45;&gt;SUBSn97499448n97499450 -->
<g id="edge11" class="edge">
<title>n97499448&#45;&gt;SUBSn97499448n97499450</title>
<path fill="none" stroke="black" d="M1991.19,-431.7C1991.19,-420.85 1991.19,-406.92 1991.19,-396.1"/>
</g>
<!-- n57444755 -->
<g id="node52" class="node">
<title>n57444755</title>
<ellipse fill="none" stroke="black" cx="255.19" cy="-306" rx="64.19" ry="18"/>
<text text-anchor="start" x="213.69" y="-302.3" font-family="Times,serif" font-size="14.00">!wet, !clear</text>
</g>
<!-- SUBSn51080513n77867291&#45;&gt;n57444755 -->
<g id="edge39" class="edge">
<title>SUBSn51080513n77867291&#45;&gt;n57444755</title>
<path fill="none" stroke="black" d="M271,-359.7C268.66,-351.9 265.85,-342.51 263.24,-333.83"/>
<polygon fill="black" stroke="black" points="266.55,-332.68 260.33,-324.1 259.85,-334.69 266.55,-332.68"/>
</g>
<!-- n62195329 -->
<g id="node47" class="node">
<title>n62195329</title>
<ellipse fill="none" stroke="black" cx="2131.19" cy="-306" rx="51.99" ry="18"/>
<text text-anchor="start" x="2099.19" y="-302.3" font-family="Times,serif" font-size="14.00">!day, day</text>
</g>
<!-- SUBSn97499448n97499450&#45;&gt;n62195329 -->
<g id="edge60" class="edge">
<title>SUBSn97499448n97499450&#45;&gt;n62195329</title>
<path fill="none" stroke="black" d="M2018.52,-363.34C2039.88,-352.66 2069.8,-337.7 2093.45,-325.87"/>
<polygon fill="black" stroke="black" points="2095.12,-328.95 2102.49,-321.35 2091.98,-322.69 2095.12,-328.95"/>
</g>
<!-- n32803569 -->
<g id="node55" class="node">
<title>n32803569</title>
<ellipse fill="none" stroke="black" cx="1991.19" cy="-306" rx="69.59" ry="18"/>
<text text-anchor="start" x="1945.69" y="-302.3" font-family="Times,serif" font-size="14.00">!night, night</text>
</g>
<!-- SUBSn97499448n97499450&#45;&gt;n32803569 -->
<g id="edge66" class="edge">
<title>SUBSn97499448n97499450&#45;&gt;n32803569</title>
<path fill="none" stroke="black" d="M1991.19,-359.7C1991.19,-351.98 1991.19,-342.71 1991.19,-334.11"/>
<polygon fill="black" stroke="black" points="1994.7,-334.1 1991.19,-324.1 1987.7,-334.1 1994.7,-334.1"/>
</g>
<!-- n66589956 -->
<g id="node44" class="node">
<title>n66589956</title>
<ellipse fill="none" stroke="black" cx="672.19" cy="-306" rx="109.38" ry="18"/>
<text text-anchor="start" x="596.19" y="-302.3" font-family="Times,serif" font-size="14.00">!day, sprinkler, !clear</text>
</g>
<!-- SUBSn15001518n77867291&#45;&gt;n66589956 -->
<g id="edge65" class="edge">
<title>SUBSn15001518n77867291&#45;&gt;n66589956</title>
<path fill="none" stroke="black" d="M722.63,-359.7C714.52,-351.22 704.61,-340.86 695.72,-331.58"/>
<polygon fill="black" stroke="black" points="698.01,-328.91 688.57,-324.1 692.95,-333.75 698.01,-328.91"/>
</g>
<!-- n08517551 -->
<g id="node14" class="node">
<title>n08517551</title>
<ellipse fill="none" stroke="black" cx="775.19" cy="-18" rx="67.69" ry="18"/>
<text text-anchor="start" x="731.19" y="-14.3" font-family="Times,serif" font-size="14.00">night, !clear</text>
</g>
<!-- n16401785 -->
<g id="node16" class="node">
<title>n16401785</title>
<ellipse fill="none" stroke="black" cx="1079.19" cy="-18" rx="35.19" ry="18"/>
<text text-anchor="start" x="1060.19" y="-14.3" font-family="Times,serif" font-size="14.00">night</text>
</g>
<!-- SUBSn64554115n48152329&#45;&gt;n16401785 -->
<g id="edge1" class="edge">
<title>SUBSn64554115n48152329&#45;&gt;n16401785</title>
<path fill="none" stroke="black" d="M1079.19,-71.7C1079.19,-63.98 1079.19,-54.71 1079.19,-46.11"/>
<polygon fill="black" stroke="black" points="1082.7,-46.1 1079.19,-36.1 1075.7,-46.1 1082.7,-46.1"/>
</g>
<!-- n29249994 -->
<g id="node17" class="node">
<title>n29249994</title>
<ellipse fill="none" stroke="black" cx="877.19" cy="-306" rx="77.19" ry="18"/>
<text text-anchor="start" x="825.69" y="-302.3" font-family="Times,serif" font-size="14.00">!day, sprinkler</text>
</g>
<!-- n29249994&#45;&gt;SUBSn48152329n29249994 -->
<g id="edge2" class="edge">
<title>n29249994&#45;&gt;SUBSn48152329n29249994</title>
<path fill="none" stroke="black" d="M847.35,-289.29C824.52,-277.28 793.32,-260.86 771.23,-249.23"/>
</g>
<!-- n29249994&#45;&gt;SUBSn97499450n29249994 -->
<g id="edge10" class="edge">
<title>n29249994&#45;&gt;SUBSn97499450n29249994</title>
<path fill="none" stroke="black" d="M934.26,-293.7C944.23,-291.77 954.51,-289.8 964.19,-288 1064.22,-269.36 1183.37,-248.7 1235.96,-239.66"/>
</g>
<!-- n81097664 -->
<g id="node26" class="node">
<title>n81097664</title>
<ellipse fill="none" stroke="black" cx="744.19" cy="-162" rx="31.4" ry="18"/>
<text text-anchor="start" x="728.19" y="-158.3" font-family="Times,serif" font-size="14.00">!day</text>
</g>
<!-- SUBSn48152329n29249994&#45;&gt;n81097664 -->
<g id="edge51" class="edge">
<title>SUBSn48152329n29249994&#45;&gt;n81097664</title>
<path fill="none" stroke="black" d="M744.19,-215.7C744.19,-207.98 744.19,-198.71 744.19,-190.11"/>
<polygon fill="black" stroke="black" points="747.7,-190.1 744.19,-180.1 740.7,-190.1 747.7,-190.1"/>
</g>
<!-- n50305639 -->
<g id="node54" class="node">
<title>n50305639</title>
<ellipse fill="none" stroke="black" cx="1080.19" cy="-306" rx="107.48" ry="18"/>
<text text-anchor="start" x="1005.69" y="-302.3" font-family="Times,serif" font-size="14.00">night, sprinkler, !dry</text>
</g>
<!-- SUBSn15001518n97499450&#45;&gt;n50305639 -->
<g id="edge57" class="edge">
<title>SUBSn15001518n97499450&#45;&gt;n50305639</title>
<path fill="none" stroke="black" d="M1080.19,-359.7C1080.19,-351.98 1080.19,-342.71 1080.19,-334.11"/>
<polygon fill="black" stroke="black" points="1083.7,-334.1 1080.19,-324.1 1076.7,-334.1 1083.7,-334.1"/>
</g>
<!-- n84076570 -->
<g id="node21" class="node">
<title>n84076570</title>
<ellipse fill="none" stroke="black" cx="1847.19" cy="-162" rx="69.59" ry="18"/>
<text text-anchor="start" x="1801.69" y="-158.3" font-family="Times,serif" font-size="14.00">night, bright</text>
</g>
<!-- SUBSn80619309n97499450&#45;&gt;n84076570 -->
<g id="edge4" class="edge">
<title>SUBSn80619309n97499450&#45;&gt;n84076570</title>
<path fill="none" stroke="black" d="M1847.19,-215.7C1847.19,-207.98 1847.19,-198.71 1847.19,-190.11"/>
<polygon fill="black" stroke="black" points="1850.7,-190.1 1847.19,-180.1 1843.7,-190.1 1850.7,-190.1"/>
</g>
<!-- n65328989 -->
<g id="node38" class="node">
<title>n65328989</title>
<ellipse fill="none" stroke="black" cx="369.19" cy="-306" rx="31.7" ry="18"/>
<text text-anchor="start" x="352.69" y="-302.3" font-family="Times,serif" font-size="14.00">!wet</text>
</g>
<!-- SUBSn51080513n14248475&#45;&gt;n65328989 -->
<g id="edge50" class="edge">
<title>SUBSn51080513n14248475&#45;&gt;n65328989</title>
<path fill="none" stroke="black" d="M369.19,-359.7C369.19,-351.98 369.19,-342.71 369.19,-334.11"/>
<polygon fill="black" stroke="black" points="372.7,-334.1 369.19,-324.1 365.7,-334.1 372.7,-334.1"/>
</g>
<!-- n73213430 -->
<g id="node23" class="node">
<title>n73213430</title>
<ellipse fill="none" stroke="black" cx="632.19" cy="-162" rx="62.29" ry="18"/>
<text text-anchor="start" x="592.19" y="-158.3" font-family="Times,serif" font-size="14.00">!day, !clear</text>
</g>
<!-- n02153309 -->
<g id="node25" class="node">
<title>n02153309</title>
<ellipse fill="none" stroke="black" cx="854.19" cy="-162" rx="60.39" ry="18"/>
<text text-anchor="start" x="815.69" y="-158.3" font-family="Times,serif" font-size="14.00">night, !dry</text>
</g>
<!-- SUBSn48152329n50305639&#45;&gt;n02153309 -->
<g id="edge6" class="edge">
<title>SUBSn48152329n50305639&#45;&gt;n02153309</title>
<path fill="none" stroke="black" d="M854.19,-215.7C854.19,-207.98 854.19,-198.71 854.19,-190.11"/>
<polygon fill="black" stroke="black" points="857.7,-190.1 854.19,-180.1 850.7,-190.1 857.7,-190.1"/>
</g>
<!-- n66849188 -->
<g id="node28" class="node">
<title>n66849188</title>
<ellipse fill="none" stroke="black" cx="421.19" cy="-162" rx="55.49" ry="18"/>
<text text-anchor="start" x="386.69" y="-158.3" font-family="Times,serif" font-size="14.00">!day, !dry</text>
</g>
<!-- SUBSn48152329n15001518&#45;&gt;n66849188 -->
<g id="edge7" class="edge">
<title>SUBSn48152329n15001518&#45;&gt;n66849188</title>
<path fill="none" stroke="black" d="M427.22,-215.7C426.34,-207.98 425.28,-198.71 424.29,-190.11"/>
<polygon fill="black" stroke="black" points="427.76,-189.64 423.15,-180.1 420.81,-190.44 427.76,-189.64"/>
</g>
<!-- n80619309 -->
<g id="node30" class="node">
<title>n80619309</title>
<ellipse fill="none" stroke="black" cx="1801.19" cy="-306" rx="64.19" ry="18"/>
<text text-anchor="start" x="1759.69" y="-302.3" font-family="Times,serif" font-size="14.00">!day, bright</text>
</g>
<!-- SUBSn14248475n66370833&#45;&gt;n80619309 -->
<g id="edge9" class="edge">
<title>SUBSn14248475n66370833&#45;&gt;n80619309</title>
<path fill="none" stroke="black" d="M1369.35,-363.05C1372.29,-361.88 1375.27,-360.83 1378.19,-360 1512.42,-321.69 1551.85,-342.57 1690.19,-324 1705.19,-321.99 1721.29,-319.63 1736.45,-317.33"/>
<polygon fill="black" stroke="black" points="1737.42,-320.72 1746.77,-315.75 1736.36,-313.8 1737.42,-320.72"/>
</g>
<!-- n80619309&#45;&gt;SUBSn80619309n97499450 -->
<g id="edge13" class="edge">
<title>n80619309&#45;&gt;SUBSn80619309n97499450</title>
<path fill="none" stroke="black" d="M1812.33,-288.05C1819.46,-277.21 1828.67,-263.18 1835.84,-252.28"/>
</g>
<!-- n64554115 -->
<g id="node46" class="node">
<title>n64554115</title>
<ellipse fill="none" stroke="black" cx="1263.19" cy="-162" rx="83.39" ry="18"/>
<text text-anchor="start" x="1207.19" y="-158.3" font-family="Times,serif" font-size="14.00">night, sprinkler</text>
</g>
<!-- SUBSn97499450n29249994&#45;&gt;n64554115 -->
<g id="edge29" class="edge">
<title>SUBSn97499450n29249994&#45;&gt;n64554115</title>
<path fill="none" stroke="black" d="M1263.19,-215.7C1263.19,-207.98 1263.19,-198.71 1263.19,-190.11"/>
<polygon fill="black" stroke="black" points="1266.7,-190.1 1263.19,-180.1 1259.7,-190.1 1266.7,-190.1"/>
</g>
<!-- n98325046 -->
<g id="node33" class="node">
<title>n98325046</title>
<ellipse fill="none" stroke="black" cx="1587.19" cy="-306" rx="93.68" ry="18"/>
<text text-anchor="start" x="1523.19" y="-302.3" font-family="Times,serif" font-size="14.00">night, !dry, bright</text>
</g>
<!-- SUBSn66370833n97499450&#45;&gt;n98325046 -->
<g id="edge12" class="edge">
<title>SUBSn66370833n97499450&#45;&gt;n98325046</title>
<path fill="none" stroke="black" d="M1441.23,-366.06C1467.41,-355.47 1507.68,-339.18 1539.29,-326.38"/>
<polygon fill="black" stroke="black" points="1540.84,-329.53 1548.8,-322.54 1538.22,-323.04 1540.84,-329.53"/>
</g>
<!-- n98325046&#45;&gt;SUBSn77867291n98325046 -->
<g id="edge59" class="edge">
<title>n98325046&#45;&gt;SUBSn77867291n98325046</title>
<path fill="none" stroke="black" d="M1572.67,-288.05C1563.38,-277.21 1551.35,-263.18 1542,-252.28"/>
</g>
<!-- n76435991 -->
<g id="node53" class="node">
<title>n76435991</title>
<ellipse fill="none" stroke="black" cx="57.19" cy="-162" rx="57.39" ry="18"/>
<text text-anchor="start" x="21.19" y="-158.3" font-family="Times,serif" font-size="14.00">!dry, !rain</text>
</g>
<!-- SUBSn51080513n96858525&#45;&gt;n76435991 -->
<g id="edge44" class="edge">
<title>SUBSn51080513n96858525&#45;&gt;n76435991</title>
<path fill="none" stroke="black" d="M58.7,-215.7C58.48,-207.98 58.22,-198.71 57.97,-190.11"/>
<polygon fill="black" stroke="black" points="61.47,-190 57.68,-180.1 54.47,-190.2 61.47,-190"/>
</g>
<!-- SUBSn66589956n48152329&#45;&gt;n73213430 -->
<g id="edge18" class="edge">
<title>SUBSn66589956n48152329&#45;&gt;n73213430</title>
<path fill="none" stroke="black" d="M632.19,-215.7C632.19,-207.98 632.19,-198.71 632.19,-190.11"/>
<polygon fill="black" stroke="black" points="635.7,-190.1 632.19,-180.1 628.7,-190.1 635.7,-190.1"/>
</g>
<!-- n56669881 -->
<g id="node36" class="node">
<title>n56669881</title>
<ellipse fill="none" stroke="black" cx="1047.19" cy="-162" rx="114.28" ry="18"/>
<text text-anchor="start" x="967.19" y="-158.3" font-family="Times,serif" font-size="14.00">night, sprinkler, !clear</text>
</g>
<!-- n56669881&#45;&gt;SUBSn48152329n56669881 -->
<g id="edge19" class="edge">
<title>n56669881&#45;&gt;SUBSn48152329n56669881</title>
<path fill="none" stroke="black" d="M990.17,-146.33C932.54,-131.49 845.93,-109.2 802.33,-97.98"/>
</g>
<!-- SUBSn48152329n56669881&#45;&gt;n08517551 -->
<g id="edge31" class="edge">
<title>SUBSn48152329n56669881&#45;&gt;n08517551</title>
<path fill="none" stroke="black" d="M775.19,-71.7C775.19,-63.98 775.19,-54.71 775.19,-46.11"/>
<polygon fill="black" stroke="black" points="778.7,-46.1 775.19,-36.1 771.7,-46.1 778.7,-46.1"/>
</g>
<!-- n65328989&#45;&gt;SUBSn65328989n96858525 -->
<g id="edge23" class="edge">
<title>n65328989&#45;&gt;SUBSn65328989n96858525</title>
<path fill="none" stroke="black" d="M356.94,-289.12C348.48,-278.14 337.22,-263.56 328.53,-252.29"/>
</g>
<!-- n62187515 -->
<g id="node51" class="node">
<title>n62187515</title>
<ellipse fill="none" stroke="black" cx="315.19" cy="-162" rx="33.29" ry="18"/>
<text text-anchor="start" x="297.69" y="-158.3" font-family="Times,serif" font-size="14.00">!rain</text>
</g>
<!-- SUBSn65328989n96858525&#45;&gt;n62187515 -->
<g id="edge42" class="edge">
<title>SUBSn65328989n96858525&#45;&gt;n62187515</title>
<path fill="none" stroke="black" d="M315.19,-215.7C315.19,-207.98 315.19,-198.71 315.19,-190.11"/>
<polygon fill="black" stroke="black" points="318.7,-190.1 315.19,-180.1 311.7,-190.1 318.7,-190.1"/>
</g>
<!-- n72735075 -->
<g id="node43" class="node">
<title>n72735075</title>
<ellipse fill="none" stroke="black" cx="1340.19" cy="-306" rx="96.68" ry="18"/>
<text text-anchor="start" x="1273.69" y="-302.3" font-family="Times,serif" font-size="14.00">!day, bright, !clear</text>
</g>
<!-- SUBSn66370833n77867291&#45;&gt;n72735075 -->
<g id="edge25" class="edge">
<title>SUBSn66370833n77867291&#45;&gt;n72735075</title>
<path fill="none" stroke="black" d="M1287.5,-359.7C1296.06,-351.14 1306.54,-340.66 1315.89,-331.3"/>
<polygon fill="black" stroke="black" points="1318.49,-333.65 1323.09,-324.1 1313.54,-328.7 1318.49,-333.65"/>
</g>
<!-- n08039196 -->
<g id="node42" class="node">
<title>n08039196</title>
<ellipse fill="none" stroke="black" cx="1527.19" cy="-162" rx="102.88" ry="18"/>
<text text-anchor="start" x="1456.19" y="-158.3" font-family="Times,serif" font-size="14.00">night, bright, !clear</text>
</g>
<!-- SUBSn77867291n98325046&#45;&gt;n08039196 -->
<g id="edge24" class="edge">
<title>SUBSn77867291n98325046&#45;&gt;n08039196</title>
<path fill="none" stroke="black" d="M1527.19,-215.7C1527.19,-207.98 1527.19,-198.71 1527.19,-190.11"/>
<polygon fill="black" stroke="black" points="1530.7,-190.1 1527.19,-180.1 1523.7,-190.1 1530.7,-190.1"/>
</g>
<!-- n66589956&#45;&gt;SUBSn66589956n48152329 -->
<g id="edge56" class="edge">
<title>n66589956&#45;&gt;SUBSn66589956n48152329</title>
<path fill="none" stroke="black" d="M662.51,-288.05C656.32,-277.21 648.3,-263.18 642.07,-252.28"/>
</g>
<!-- n66589956&#45;&gt;SUBSn66589956n97499450 -->
<g id="edge27" class="edge">
<title>n66589956&#45;&gt;SUBSn66589956n97499450</title>
<path fill="none" stroke="black" d="M741.85,-292C825.73,-276.34 962.52,-250.81 1020.19,-240.04"/>
</g>
<!-- SUBSn66589956n97499450&#45;&gt;n56669881 -->
<g id="edge33" class="edge">
<title>SUBSn66589956n97499450&#45;&gt;n56669881</title>
<path fill="none" stroke="black" d="M1047.19,-215.7C1047.19,-207.98 1047.19,-198.71 1047.19,-190.11"/>
<polygon fill="black" stroke="black" points="1050.7,-190.1 1047.19,-180.1 1043.7,-190.1 1050.7,-190.1"/>
</g>
<!-- n64554115&#45;&gt;SUBSn64554115n48152329 -->
<g id="edge32" class="edge">
<title>n64554115&#45;&gt;SUBSn64554115n48152329</title>
<path fill="none" stroke="black" d="M1223.72,-145.98C1188.35,-132.53 1137.39,-113.14 1106.39,-101.34"/>
</g>
<!-- n70071749 -->
<g id="node48" class="node">
<title>n70071749</title>
<ellipse fill="none" stroke="black" cx="198.19" cy="-162" rx="65.79" ry="18"/>
<text text-anchor="start" x="155.69" y="-158.3" font-family="Times,serif" font-size="14.00">!rain, !clear</text>
</g>
<!-- SUBSn57444755n96858525&#45;&gt;n70071749 -->
<g id="edge34" class="edge">
<title>SUBSn57444755n96858525&#45;&gt;n70071749</title>
<path fill="none" stroke="black" d="M198.19,-215.7C198.19,-207.98 198.19,-198.71 198.19,-190.11"/>
<polygon fill="black" stroke="black" points="201.7,-190.1 198.19,-180.1 194.7,-190.1 201.7,-190.1"/>
</g>
<!-- SUBSn14248475n15001518&#45;&gt;n29249994 -->
<g id="edge40" class="edge">
<title>SUBSn14248475n15001518&#45;&gt;n29249994</title>
<path fill="none" stroke="black" d="M877.19,-359.7C877.19,-351.98 877.19,-342.71 877.19,-334.11"/>
<polygon fill="black" stroke="black" points="880.7,-334.1 877.19,-324.1 873.7,-334.1 880.7,-334.1"/>
</g>
<!-- n57444755&#45;&gt;SUBSn57444755n96858525 -->
<g id="edge53" class="edge">
<title>n57444755&#45;&gt;SUBSn57444755n96858525</title>
<path fill="none" stroke="black" d="M241.4,-288.05C232.57,-277.21 221.14,-263.18 212.26,-252.28"/>
</g>
<!-- n50305639&#45;&gt;SUBSn48152329n50305639 -->
<g id="edge47" class="edge">
<title>n50305639&#45;&gt;SUBSn48152329n50305639</title>
<path fill="none" stroke="black" d="M1031.43,-289.9C985.5,-275.67 918.36,-254.87 881.29,-243.39"/>
</g>
</g>
</svg>
