<?xml version="1.0" encoding="UTF-8" standalone="no"?>
<!DOCTYPE svg PUBLIC "-//W3C//DTD SVG 1.1//EN"
 "http://www.w3.org/Graphics/SVG/1.1/DTD/svg11.dtd">
<!-- Generated by graphviz version 2.43.0 (0)
 -->
<!-- Title: g Pages: 1 -->
<svg width="910pt" height="476pt"
 viewBox="0.00 0.00 910.00 476.00" xmlns="http://www.w3.org/2000/svg" xmlns:xlink="http://www.w3.org/1999/xlink">
<g id="graph0" class="graph" transform="scale(1 1) rotate(0) translate(4 472)">
<title>g</title>
<polygon fill="white" stroke="transparent" points="-4,4 -4,-472 906,-472 906,4 -4,4"/>
<!-- n90096397 -->
<g id="node1" class="node">
<title>n90096397</title>
<polygon fill="none" stroke="black" points="98,-468 0,-468 0,-432 98,-432 98,-468"/>
<text text-anchor="start" x="8" y="-446.3" font-family="Times,serif" font-size="14.00">!day, !night</text>
</g>
<!-- n90096399 -->
<g id="node2" class="node">
<title>n90096399</title>
<polygon fill="none" stroke="black" points="127,-324 41,-324 41,-288 127,-288 127,-324"/>
<text text-anchor="start" x="49" y="-302.3" font-family="Times,serif" font-size="14.00">day, night</text>
</g>
<!-- SUBSn15087221n90096399 -->
<g id="node18" class="node">
<title>SUBSn15087221n90096399</title>
<text text-anchor="start" x="165.5" y="-230.3" font-family="Times,serif" font-size="14.00">{}</text>
</g>
<!-- n90096399&#45;&gt;SUBSn15087221n90096399 -->
<g id="edge13" class="edge">
<title>n90096399&#45;&gt;SUBSn15087221n90096399</title>
<path fill="none" stroke="black" d="M106.49,-287.7C120.6,-276.85 138.71,-262.92 152.76,-252.1"/>
</g>
<!-- n91072343 -->
<g id="node3" class="node">
<title>n91072343</title>
<polygon fill="none" stroke="black" points="622,-468 536,-468 536,-432 622,-432 622,-468"/>
<text text-anchor="start" x="544" y="-446.3" font-family="Times,serif" font-size="14.00">!rain, wet</text>
</g>
<!-- n55219460 -->
<g id="node4" class="node">
<title>n55219460</title>
<polygon fill="none" stroke="black" points="183.5,-468 116.5,-468 116.5,-432 183.5,-432 183.5,-468"/>
<text text-anchor="start" x="124.5" y="-446.3" font-family="Times,serif" font-size="14.00">!bright</text>
</g>
<!-- SUBSn55219460n66678911 -->
<g id="node20" class="node">
<title>SUBSn55219460n66678911</title>
<text text-anchor="start" x="260.5" y="-374.3" font-family="Times,serif" font-size="14.00">{}</text>
</g>
<!-- n55219460&#45;&gt;SUBSn55219460n66678911 -->
<g id="edge6" class="edge">
<title>n55219460&#45;&gt;SUBSn55219460n66678911</title>
<path fill="none" stroke="black" d="M179.36,-431.88C198.78,-420.54 224.07,-405.79 243,-394.75"/>
</g>
<!-- n15087221 -->
<g id="node5" class="node">
<title>n15087221</title>
<polygon fill="none" stroke="black" points="205,-324 145,-324 145,-288 205,-288 205,-324"/>
<text text-anchor="start" x="153" y="-302.3" font-family="Times,serif" font-size="14.00">!night</text>
</g>
<!-- n15087221&#45;&gt;SUBSn15087221n90096399 -->
<g id="edge15" class="edge">
<title>n15087221&#45;&gt;SUBSn15087221n90096399</title>
<path fill="none" stroke="black" d="M175,-287.7C175,-276.85 175,-262.92 175,-252.1"/>
</g>
<!-- n66678911 -->
<g id="node6" class="node">
<title>n66678911</title>
<polygon fill="none" stroke="black" points="338,-468 202,-468 202,-432 338,-432 338,-468"/>
<text text-anchor="start" x="210" y="-446.3" font-family="Times,serif" font-size="14.00">!dry, !day, bright</text>
</g>
<!-- n66678911&#45;&gt;SUBSn55219460n66678911 -->
<g id="edge11" class="edge">
<title>n66678911&#45;&gt;SUBSn55219460n66678911</title>
<path fill="none" stroke="black" d="M270,-431.7C270,-420.85 270,-406.92 270,-396.1"/>
</g>
<!-- n18154241 -->
<g id="node7" class="node">
<title>n18154241</title>
<polygon fill="none" stroke="black" points="445.5,-468 356.5,-468 356.5,-432 445.5,-432 445.5,-468"/>
<text text-anchor="start" x="364.5" y="-446.3" font-family="Times,serif" font-size="14.00">dry, !clear</text>
</g>
<!-- SUBSn24430073n18154241 -->
<g id="node16" class="node">
<title>SUBSn24430073n18154241</title>
<text text-anchor="start" x="391.5" y="-374.3" font-family="Times,serif" font-size="14.00">{}</text>
</g>
<!-- n18154241&#45;&gt;SUBSn24430073n18154241 -->
<g id="edge9" class="edge">
<title>n18154241&#45;&gt;SUBSn24430073n18154241</title>
<path fill="none" stroke="black" d="M401,-431.7C401,-420.85 401,-406.92 401,-396.1"/>
</g>
<!-- n78280430 -->
<g id="node8" class="node">
<title>n78280430</title>
<polygon fill="none" stroke="black" points="797.5,-468 640.5,-468 640.5,-432 797.5,-432 797.5,-468"/>
<text text-anchor="start" x="648.5" y="-446.3" font-family="Times,serif" font-size="14.00">sprinkler, !dry, !day</text>
</g>
<!-- n48554439 -->
<g id="node9" class="node">
<title>n48554439</title>
<polygon fill="none" stroke="black" points="902,-468 816,-468 816,-432 902,-432 902,-468"/>
<text text-anchor="start" x="824" y="-446.3" font-family="Times,serif" font-size="14.00">!dry, !wet</text>
</g>
<!-- n24430073 -->
<g id="node10" class="node">
<title>n24430073</title>
<polygon fill="none" stroke="black" points="518,-468 464,-468 464,-432 518,-432 518,-468"/>
<text text-anchor="start" x="473" y="-446.3" font-family="Times,serif" font-size="14.00">clear</text>
</g>
<!-- n24430073&#45;&gt;SUBSn24430073n18154241 -->
<g id="edge10" class="edge">
<title>n24430073&#45;&gt;SUBSn24430073n18154241</title>
<path fill="none" stroke="black" d="M468.75,-431.7C454.8,-420.85 436.89,-406.92 422.99,-396.1"/>
</g>
<!-- SUBSn05183618n05183619 -->
<g id="node11" class="node">
<title>SUBSn05183618n05183619</title>
<text text-anchor="start" x="210.5" y="-86.3" font-family="Times,serif" font-size="14.00">{}</text>
</g>
<!-- n00000000 -->
<g id="node12" class="node">
<title>n00000000</title>
<ellipse fill="none" stroke="black" cx="220" cy="-18" rx="41.69" ry="18"/>
<text text-anchor="start" x="196" y="-14.3" font-family="Times,serif" font-size="14.00">FALSE</text>
</g>
<!-- SUBSn05183618n05183619&#45;&gt;n00000000 -->
<g id="edge1" class="edge">
<title>SUBSn05183618n05183619&#45;&gt;n00000000</title>
<path fill="none" stroke="black" d="M220,-71.7C220,-63.98 220,-54.71 220,-46.11"/>
<polygon fill="black" stroke="black" points="223.5,-46.1 220,-36.1 216.5,-46.1 223.5,-46.1"/>
</g>
<!-- SUBSn93724167n11459450 -->
<g id="node13" class="node">
<title>SUBSn93724167n11459450</title>
<text text-anchor="start" x="268.5" y="-230.3" font-family="Times,serif" font-size="14.00">{}</text>
</g>
<!-- n05183618 -->
<g id="node14" class="node">
<title>n05183618</title>
<ellipse fill="none" stroke="black" cx="271" cy="-162" rx="31.4" ry="18"/>
<text text-anchor="start" x="255" y="-158.3" font-family="Times,serif" font-size="14.00">!day</text>
</g>
<!-- SUBSn93724167n11459450&#45;&gt;n05183618 -->
<g id="edge2" class="edge">
<title>SUBSn93724167n11459450&#45;&gt;n05183618</title>
<path fill="none" stroke="black" d="M276.27,-215.7C275.5,-207.98 274.57,-198.71 273.71,-190.11"/>
<polygon fill="black" stroke="black" points="277.19,-189.71 272.71,-180.1 270.22,-190.4 277.19,-189.71"/>
</g>
<!-- n05183618&#45;&gt;SUBSn05183618n05183619 -->
<g id="edge12" class="edge">
<title>n05183618&#45;&gt;SUBSn05183618n05183619</title>
<path fill="none" stroke="black" d="M259.43,-145.12C251.43,-134.14 240.81,-119.56 232.6,-108.29"/>
</g>
<!-- n11459450 -->
<g id="node15" class="node">
<title>n11459450</title>
<ellipse fill="none" stroke="black" cx="278" cy="-306" rx="55.49" ry="18"/>
<text text-anchor="start" x="243.5" y="-302.3" font-family="Times,serif" font-size="14.00">!dry, !day</text>
</g>
<!-- n11459450&#45;&gt;SUBSn93724167n11459450 -->
<g id="edge3" class="edge">
<title>n11459450&#45;&gt;SUBSn93724167n11459450</title>
<path fill="none" stroke="black" d="M278,-287.7C278,-276.85 278,-262.92 278,-252.1"/>
</g>
<!-- n93724167 -->
<g id="node17" class="node">
<title>n93724167</title>
<ellipse fill="none" stroke="black" cx="386" cy="-306" rx="27" ry="18"/>
<text text-anchor="start" x="373.5" y="-302.3" font-family="Times,serif" font-size="14.00">dry</text>
</g>
<!-- SUBSn24430073n18154241&#45;&gt;n93724167 -->
<g id="edge4" class="edge">
<title>SUBSn24430073n18154241&#45;&gt;n93724167</title>
<path fill="none" stroke="black" d="M397.29,-359.7C395.64,-351.98 393.65,-342.71 391.81,-334.11"/>
<polygon fill="black" stroke="black" points="395.18,-333.15 389.67,-324.1 388.34,-334.62 395.18,-333.15"/>
</g>
<!-- n93724167&#45;&gt;SUBSn93724167n11459450 -->
<g id="edge7" class="edge">
<title>n93724167&#45;&gt;SUBSn93724167n11459450</title>
<path fill="none" stroke="black" d="M367.19,-292.81C349.78,-281.53 323.74,-264.65 304.28,-252.03"/>
</g>
<!-- n05183619 -->
<g id="node19" class="node">
<title>n05183619</title>
<ellipse fill="none" stroke="black" cx="182" cy="-162" rx="27.1" ry="18"/>
<text text-anchor="start" x="169" y="-158.3" font-family="Times,serif" font-size="14.00">day</text>
</g>
<!-- SUBSn15087221n90096399&#45;&gt;n05183619 -->
<g id="edge5" class="edge">
<title>SUBSn15087221n90096399&#45;&gt;n05183619</title>
<path fill="none" stroke="black" d="M176.73,-215.7C177.5,-207.98 178.43,-198.71 179.29,-190.11"/>
<polygon fill="black" stroke="black" points="182.78,-190.4 180.29,-180.1 175.81,-189.71 182.78,-190.4"/>
</g>
<!-- n05183619&#45;&gt;SUBSn05183618n05183619 -->
<g id="edge8" class="edge">
<title>n05183619&#45;&gt;SUBSn05183618n05183619</title>
<path fill="none" stroke="black" d="M190.81,-144.76C196.78,-133.78 204.64,-119.29 210.7,-108.12"/>
</g>
<!-- SUBSn55219460n66678911&#45;&gt;n11459450 -->
<g id="edge14" class="edge">
<title>SUBSn55219460n66678911&#45;&gt;n11459450</title>
<path fill="none" stroke="black" d="M271.98,-359.7C272.86,-351.98 273.92,-342.71 274.9,-334.11"/>
<polygon fill="black" stroke="black" points="278.39,-334.44 276.05,-324.1 271.43,-333.64 278.39,-334.44"/>
</g>
</g>
</svg>
