<?xml version="1.0" encoding="UTF-8" standalone="no"?>
<!DOCTYPE svg PUBLIC "-//W3C//DTD SVG 1.1//EN"
 "http://www.w3.org/Graphics/SVG/1.1/DTD/svg11.dtd">
<!-- Generated by graphviz version 2.43.0 (0)
 -->
<!-- Title: g Pages: 1 -->
<svg width="156pt" height="188pt"
 viewBox="0.00 0.00 155.99 188.00" xmlns="http://www.w3.org/2000/svg" xmlns:xlink="http://www.w3.org/1999/xlink">
<g id="graph0" class="graph" transform="scale(1 1) rotate(0) translate(4 184)">
<title>g</title>
<polygon fill="white" stroke="transparent" points="-4,4 -4,-184 151.99,-184 151.99,4 -4,4"/>
<!-- n67147382 -->
<g id="node1" class="node">
<title>n67147382</title>
<polygon fill="none" stroke="black" points="65.5,-180 9.5,-180 9.5,-144 65.5,-144 65.5,-180"/>
<text text-anchor="start" x="17.5" y="-158.3" font-family="Times,serif" font-size="14.00">!p, !q</text>
</g>
<!-- SUBSn67147384n67147382 -->
<g id="node3" class="node">
<title>SUBSn67147384n67147382</title>
<text text-anchor="start" x="64" y="-86.3" font-family="Times,serif" font-size="14.00">{}</text>
</g>
<!-- n67147382&#45;&gt;SUBSn67147384n67147382 -->
<g id="edge3" class="edge">
<title>n67147382&#45;&gt;SUBSn67147384n67147382</title>
<path fill="none" stroke="black" d="M46.4,-143.7C51.98,-132.85 59.14,-118.92 64.7,-108.1"/>
</g>
<!-- n67147384 -->
<g id="node2" class="node">
<title>n67147384</title>
<polygon fill="none" stroke="black" points="137.5,-180 83.5,-180 83.5,-144 137.5,-144 137.5,-180"/>
<text text-anchor="start" x="96.5" y="-158.3" font-family="Times,serif" font-size="14.00">p, q</text>
</g>
<!-- n67147384&#45;&gt;SUBSn67147384n67147382 -->
<g id="edge4" class="edge">
<title>n67147384&#45;&gt;SUBSn67147384n67147382</title>
<path fill="none" stroke="black" d="M101.35,-143.7C95.62,-132.85 88.25,-118.92 82.54,-108.1"/>
</g>
<!-- n15472693 -->
<g id="node4" class="node">
<title>n15472693</title>
<ellipse fill="none" stroke="black" cx="32.5" cy="-18" rx="32.49" ry="18"/>
<text text-anchor="start" x="15.5" y="-14.3" font-family="Times,serif" font-size="14.00">!p, p</text>
</g>
<!-- SUBSn67147384n67147382&#45;&gt;n15472693 -->
<g id="edge1" class="edge">
<title>SUBSn67147384n67147382&#45;&gt;n15472693</title>
<path fill="none" stroke="black" d="M63.36,-71.7C58.52,-63.44 52.64,-53.39 47.32,-44.3"/>
<polygon fill="black" stroke="black" points="50.31,-42.48 42.23,-35.62 44.27,-46.02 50.31,-42.48"/>
</g>
<!-- n81177927 -->
<g id="node5" class="node">
<title>n81177927</title>
<ellipse fill="none" stroke="black" cx="115.5" cy="-18" rx="32.49" ry="18"/>
<text text-anchor="start" x="98.5" y="-14.3" font-family="Times,serif" font-size="14.00">!q, q</text>
</g>
<!-- SUBSn67147384n67147382&#45;&gt;n81177927 -->
<g id="edge2" class="edge">
<title>SUBSn67147384n67147382&#45;&gt;n81177927</title>
<path fill="none" stroke="black" d="M83.88,-71.7C88.83,-63.44 94.86,-53.39 100.32,-44.3"/>
<polygon fill="black" stroke="black" points="103.38,-46 105.52,-35.62 97.38,-42.4 103.38,-46"/>
</g>
</g>
</svg>
