<?xml version="1.0" encoding="UTF-8" standalone="no"?>
<!DOCTYPE svg PUBLIC "-//W3C//DTD SVG 1.1//EN"
 "http://www.w3.org/Graphics/SVG/1.1/DTD/svg11.dtd">
<!-- Generated by graphviz version 2.43.0 (0)
 -->
<!-- Title: g Pages: 1 -->
<svg width="1575pt" height="476pt"
 viewBox="0.00 0.00 1574.69 476.00" xmlns="http://www.w3.org/2000/svg" xmlns:xlink="http://www.w3.org/1999/xlink">
<g id="graph0" class="graph" transform="scale(1 1) rotate(0) translate(4 472)">
<title>g</title>
<polygon fill="white" stroke="transparent" points="-4,4 -4,-472 1570.69,-472 1570.69,4 -4,4"/>
<!-- n79475847 -->
<g id="node1" class="node">
<title>n79475847</title>
<polygon fill="none" stroke="black" points="945,-468 826,-468 826,-432 945,-432 945,-468"/>
<text text-anchor="start" x="834" y="-446.3" font-family="Times,serif" font-size="14.00">sweet, !cookie</text>
</g>
<!-- SUBSn83915438n79475847 -->
<g id="node8" class="node">
<title>SUBSn83915438n79475847</title>
<text text-anchor="start" x="529" y="-374.3" font-family="Times,serif" font-size="14.00">{}</text>
</g>
<!-- n79475847&#45;&gt;SUBSn83915438n79475847 -->
<g id="edge1" class="edge">
<title>n79475847&#45;&gt;SUBSn83915438n79475847</title>
<path fill="none" stroke="black" d="M825.85,-436.97C749.7,-421.6 621.15,-395.67 565.51,-384.45"/>
</g>
<!-- SUBSn98289528n79475847 -->
<g id="node9" class="node">
<title>SUBSn98289528n79475847</title>
<text text-anchor="start" x="1186" y="-374.3" font-family="Times,serif" font-size="14.00">{}</text>
</g>
<!-- n79475847&#45;&gt;SUBSn98289528n79475847 -->
<g id="edge7" class="edge">
<title>n79475847&#45;&gt;SUBSn98289528n79475847</title>
<path fill="none" stroke="black" d="M945.27,-435.5C1012.48,-420.33 1118.69,-396.34 1168.3,-385.14"/>
</g>
<!-- SUBSn24430978n79475847 -->
<g id="node21" class="node">
<title>SUBSn24430978n79475847</title>
<text text-anchor="start" x="1085" y="-86.3" font-family="Times,serif" font-size="14.00">{}</text>
</g>
<!-- n79475847&#45;&gt;SUBSn24430978n79475847 -->
<g id="edge20" class="edge">
<title>n79475847&#45;&gt;SUBSn24430978n79475847</title>
<path fill="none" stroke="black" d="M885.5,-431.95C885.5,-405.29 885.5,-352.11 885.5,-307 885.5,-307 885.5,-307 885.5,-233 885.5,-192.55 876.8,-173.47 904.5,-144 947.43,-98.34 1026.07,-90.88 1067.43,-90.33"/>
</g>
<!-- SUBSn98289529n79475847 -->
<g id="node24" class="node">
<title>SUBSn98289529n79475847</title>
<text text-anchor="start" x="979" y="-230.3" font-family="Times,serif" font-size="14.00">{}</text>
</g>
<!-- n79475847&#45;&gt;SUBSn98289529n79475847 -->
<g id="edge17" class="edge">
<title>n79475847&#45;&gt;SUBSn98289529n79475847</title>
<path fill="none" stroke="black" d="M890.68,-431.86C901.71,-395.8 927.72,-313.36 942.5,-288 950.11,-274.95 961.14,-262.1 970.49,-252.33"/>
</g>
<!-- SUBSn17543314n79475847 -->
<g id="node32" class="node">
<title>SUBSn17543314n79475847</title>
<text text-anchor="start" x="734" y="-230.3" font-family="Times,serif" font-size="14.00">{}</text>
</g>
<!-- n79475847&#45;&gt;SUBSn17543314n79475847 -->
<g id="edge25" class="edge">
<title>n79475847&#45;&gt;SUBSn17543314n79475847</title>
<path fill="none" stroke="black" d="M880.95,-431.75C871.05,-395.1 846.93,-310.94 828.5,-288 813.25,-269.02 789.26,-254.95 770.65,-246.09"/>
</g>
<!-- n98289528 -->
<g id="node2" class="node">
<title>n98289528</title>
<polygon fill="none" stroke="black" points="1349,-468 1230,-468 1230,-432 1349,-432 1349,-468"/>
<text text-anchor="start" x="1238" y="-446.3" font-family="Times,serif" font-size="14.00">!burnt, !sweet</text>
</g>
<!-- n98289528&#45;&gt;SUBSn98289528n79475847 -->
<g id="edge2" class="edge">
<title>n98289528&#45;&gt;SUBSn98289528n79475847</title>
<path fill="none" stroke="black" d="M1266.26,-431.7C1251.69,-420.85 1232.99,-406.92 1218.47,-396.1"/>
</g>
<!-- SUBSn98289529n98289528 -->
<g id="node13" class="node">
<title>SUBSn98289529n98289528</title>
<text text-anchor="start" x="1293" y="-230.3" font-family="Times,serif" font-size="14.00">{}</text>
</g>
<!-- n98289528&#45;&gt;SUBSn98289529n98289528 -->
<g id="edge13" class="edge">
<title>n98289528&#45;&gt;SUBSn98289529n98289528</title>
<path fill="none" stroke="black" d="M1290.54,-431.85C1292.98,-391.78 1299.01,-292.38 1301.45,-252.23"/>
</g>
<!-- SUBSn98289528n15506716 -->
<g id="node27" class="node">
<title>SUBSn98289528n15506716</title>
<text text-anchor="start" x="1402" y="-374.3" font-family="Times,serif" font-size="14.00">{}</text>
</g>
<!-- n98289528&#45;&gt;SUBSn98289528n15506716 -->
<g id="edge14" class="edge">
<title>n98289528&#45;&gt;SUBSn98289528n15506716</title>
<path fill="none" stroke="black" d="M1319.34,-431.88C1339.24,-420.46 1365.17,-405.58 1384.46,-394.51"/>
</g>
<!-- n15506716 -->
<g id="node3" class="node">
<title>n15506716</title>
<polygon fill="none" stroke="black" points="1483.5,-468 1367.5,-468 1367.5,-432 1483.5,-432 1483.5,-468"/>
<text text-anchor="start" x="1375.5" y="-446.3" font-family="Times,serif" font-size="14.00">burnt, !brown</text>
</g>
<!-- SUBSn47884570n15506716 -->
<g id="node16" class="node">
<title>SUBSn47884570n15506716</title>
<text text-anchor="start" x="1474" y="-230.3" font-family="Times,serif" font-size="14.00">{}</text>
</g>
<!-- n15506716&#45;&gt;SUBSn47884570n15506716 -->
<g id="edge26" class="edge">
<title>n15506716&#45;&gt;SUBSn47884570n15506716</title>
<path fill="none" stroke="black" d="M1440.23,-431.84C1458.75,-409.01 1489.58,-366.55 1501.5,-324 1508.39,-299.41 1499.35,-270.3 1491.78,-252.24"/>
</g>
<!-- SUBSn83915438n15506716 -->
<g id="node23" class="node">
<title>SUBSn83915438n15506716</title>
<text text-anchor="start" x="1015" y="-374.3" font-family="Times,serif" font-size="14.00">{}</text>
</g>
<!-- n15506716&#45;&gt;SUBSn83915438n15506716 -->
<g id="edge24" class="edge">
<title>n15506716&#45;&gt;SUBSn83915438n15506716</title>
<path fill="none" stroke="black" d="M1367.47,-433.93C1364.44,-433.25 1361.44,-432.6 1358.5,-432 1245.5,-408.75 1109.19,-389.97 1051.93,-382.49"/>
</g>
<!-- n15506716&#45;&gt;SUBSn98289528n15506716 -->
<g id="edge15" class="edge">
<title>n15506716&#45;&gt;SUBSn98289528n15506716</title>
<path fill="none" stroke="black" d="M1422.04,-431.7C1419.87,-420.85 1417.08,-406.92 1414.92,-396.1"/>
</g>
<!-- n83915438 -->
<g id="node4" class="node">
<title>n83915438</title>
<polygon fill="none" stroke="black" points="499,-468 380,-468 380,-432 499,-432 499,-468"/>
<text text-anchor="start" x="388" y="-446.3" font-family="Times,serif" font-size="14.00">!sweet, brown</text>
</g>
<!-- n83915438&#45;&gt;SUBSn83915438n79475847 -->
<g id="edge38" class="edge">
<title>n83915438&#45;&gt;SUBSn83915438n79475847</title>
<path fill="none" stroke="black" d="M463.72,-431.88C479.06,-421.03 498.83,-407.05 514.19,-396.19"/>
</g>
<!-- SUBSn65979882n83915438 -->
<g id="node10" class="node">
<title>SUBSn65979882n83915438</title>
<text text-anchor="start" x="278" y="-230.3" font-family="Times,serif" font-size="14.00">{}</text>
</g>
<!-- n83915438&#45;&gt;SUBSn65979882n83915438 -->
<g id="edge3" class="edge">
<title>n83915438&#45;&gt;SUBSn65979882n83915438</title>
<path fill="none" stroke="black" d="M395.66,-431.86C353.36,-412.67 291.84,-377.12 264.5,-324 252.52,-300.73 265.33,-270.75 276.08,-252.2"/>
</g>
<!-- n83915438&#45;&gt;SUBSn83915438n15506716 -->
<g id="edge10" class="edge">
<title>n83915438&#45;&gt;SUBSn83915438n15506716</title>
<path fill="none" stroke="black" d="M499.08,-441.87C623.85,-426.94 908.41,-392.89 997.39,-382.24"/>
</g>
<!-- SUBSn83915438n47403205 -->
<g id="node30" class="node">
<title>SUBSn83915438n47403205</title>
<text text-anchor="start" x="230" y="-374.3" font-family="Times,serif" font-size="14.00">{}</text>
</g>
<!-- n83915438&#45;&gt;SUBSn83915438n47403205 -->
<g id="edge21" class="edge">
<title>n83915438&#45;&gt;SUBSn83915438n47403205</title>
<path fill="none" stroke="black" d="M385.07,-431.92C354.21,-421.97 314.98,-408.88 280.5,-396 276.02,-394.33 271.31,-392.47 266.74,-390.61"/>
</g>
<!-- n99607758 -->
<g id="node5" class="node">
<title>n99607758</title>
<polygon fill="none" stroke="black" points="149,-468 0,-468 0,-432 149,-432 149,-468"/>
<text text-anchor="start" x="8" y="-446.3" font-family="Times,serif" font-size="14.00">yummy, !chocolate</text>
</g>
<!-- SUBSn99607758n47403205 -->
<g id="node19" class="node">
<title>SUBSn99607758n47403205</title>
<text text-anchor="start" x="158" y="-374.3" font-family="Times,serif" font-size="14.00">{}</text>
</g>
<!-- n99607758&#45;&gt;SUBSn99607758n47403205 -->
<g id="edge29" class="edge">
<title>n99607758&#45;&gt;SUBSn99607758n47403205</title>
<path fill="none" stroke="black" d="M97.49,-431.7C111.9,-420.85 130.41,-406.92 144.78,-396.1"/>
</g>
<!-- n47403205 -->
<g id="node6" class="node">
<title>n47403205</title>
<polygon fill="none" stroke="black" points="311.5,-468 167.5,-468 167.5,-432 311.5,-432 311.5,-468"/>
<text text-anchor="start" x="175.5" y="-446.3" font-family="Times,serif" font-size="14.00">chocolate, !brown</text>
</g>
<!-- n47403205&#45;&gt;SUBSn99607758n47403205 -->
<g id="edge8" class="edge">
<title>n47403205&#45;&gt;SUBSn99607758n47403205</title>
<path fill="none" stroke="black" d="M221.7,-431.7C210.54,-420.85 196.21,-406.92 185.09,-396.1"/>
</g>
<!-- n47403205&#45;&gt;SUBSn83915438n47403205 -->
<g id="edge41" class="edge">
<title>n47403205&#45;&gt;SUBSn83915438n47403205</title>
<path fill="none" stroke="black" d="M239.5,-431.7C239.5,-420.85 239.5,-406.92 239.5,-396.1"/>
</g>
<!-- n56018686 -->
<g id="node7" class="node">
<title>n56018686</title>
<ellipse fill="none" stroke="black" cx="743.5" cy="-162" rx="93.68" ry="18"/>
<text text-anchor="start" x="679.5" y="-158.3" font-family="Times,serif" font-size="14.00">chocolate, !cookie</text>
</g>
<!-- n89646562 -->
<g id="node34" class="node">
<title>n89646562</title>
<ellipse fill="none" stroke="black" cx="538.5" cy="-306" rx="79.09" ry="18"/>
<text text-anchor="start" x="485.5" y="-302.3" font-family="Times,serif" font-size="14.00">brown, !cookie</text>
</g>
<!-- SUBSn83915438n79475847&#45;&gt;n89646562 -->
<g id="edge34" class="edge">
<title>SUBSn83915438n79475847&#45;&gt;n89646562</title>
<path fill="none" stroke="black" d="M538.5,-359.7C538.5,-351.98 538.5,-342.71 538.5,-334.11"/>
<polygon fill="black" stroke="black" points="542,-334.1 538.5,-324.1 535,-334.1 542,-334.1"/>
</g>
<!-- n47884570 -->
<g id="node26" class="node">
<title>n47884570</title>
<ellipse fill="none" stroke="black" cx="1195.5" cy="-306" rx="79.09" ry="18"/>
<text text-anchor="start" x="1142.5" y="-302.3" font-family="Times,serif" font-size="14.00">!burnt, !cookie</text>
</g>
<!-- SUBSn98289528n79475847&#45;&gt;n47884570 -->
<g id="edge16" class="edge">
<title>SUBSn98289528n79475847&#45;&gt;n47884570</title>
<path fill="none" stroke="black" d="M1195.5,-359.7C1195.5,-351.98 1195.5,-342.71 1195.5,-334.11"/>
<polygon fill="black" stroke="black" points="1199,-334.1 1195.5,-324.1 1192,-334.1 1199,-334.1"/>
</g>
<!-- n48762695 -->
<g id="node25" class="node">
<title>n48762695</title>
<ellipse fill="none" stroke="black" cx="287.5" cy="-162" rx="81.79" ry="18"/>
<text text-anchor="start" x="232.5" y="-158.3" font-family="Times,serif" font-size="14.00">!sweet, yummy</text>
</g>
<!-- SUBSn65979882n83915438&#45;&gt;n48762695 -->
<g id="edge22" class="edge">
<title>SUBSn65979882n83915438&#45;&gt;n48762695</title>
<path fill="none" stroke="black" d="M287.5,-215.7C287.5,-207.98 287.5,-198.71 287.5,-190.11"/>
<polygon fill="black" stroke="black" points="291,-190.1 287.5,-180.1 284,-190.1 291,-190.1"/>
</g>
<!-- n79475848 -->
<g id="node11" class="node">
<title>n79475848</title>
<ellipse fill="none" stroke="black" cx="1163.5" cy="-162" rx="81.49" ry="18"/>
<text text-anchor="start" x="1109" y="-158.3" font-family="Times,serif" font-size="14.00">!sweet, !cookie</text>
</g>
<!-- n02588597 -->
<g id="node12" class="node">
<title>n02588597</title>
<ellipse fill="none" stroke="black" cx="522.5" cy="-162" rx="83.69" ry="18"/>
<text text-anchor="start" x="466" y="-158.3" font-family="Times,serif" font-size="14.00">!cookie, yummy</text>
</g>
<!-- n24430978 -->
<g id="node14" class="node">
<title>n24430978</title>
<ellipse fill="none" stroke="black" cx="1304.5" cy="-162" rx="42.49" ry="18"/>
<text text-anchor="start" x="1280" y="-158.3" font-family="Times,serif" font-size="14.00">!sweet</text>
</g>
<!-- SUBSn98289529n98289528&#45;&gt;n24430978 -->
<g id="edge4" class="edge">
<title>SUBSn98289529n98289528&#45;&gt;n24430978</title>
<path fill="none" stroke="black" d="M1302.99,-215.7C1303.21,-207.98 1303.48,-198.71 1303.73,-190.11"/>
<polygon fill="black" stroke="black" points="1307.22,-190.2 1304.01,-180.1 1300.23,-190 1307.22,-190.2"/>
</g>
<!-- n24430978&#45;&gt;SUBSn24430978n79475847 -->
<g id="edge9" class="edge">
<title>n24430978&#45;&gt;SUBSn24430978n79475847</title>
<path fill="none" stroke="black" d="M1272.15,-150.22C1230.84,-136.45 1160.12,-112.87 1121.54,-100.01"/>
</g>
<!-- n47884569 -->
<g id="node15" class="node">
<title>n47884569</title>
<ellipse fill="none" stroke="black" cx="988.5" cy="-162" rx="75.29" ry="18"/>
<text text-anchor="start" x="938.5" y="-158.3" font-family="Times,serif" font-size="14.00">burnt, !cookie</text>
</g>
<!-- n89646563 -->
<g id="node17" class="node">
<title>n89646563</title>
<ellipse fill="none" stroke="black" cx="1483.5" cy="-162" rx="83.39" ry="18"/>
<text text-anchor="start" x="1427.5" y="-158.3" font-family="Times,serif" font-size="14.00">!brown, !cookie</text>
</g>
<!-- SUBSn47884570n15506716&#45;&gt;n89646563 -->
<g id="edge5" class="edge">
<title>SUBSn47884570n15506716&#45;&gt;n89646563</title>
<path fill="none" stroke="black" d="M1483.5,-215.7C1483.5,-207.98 1483.5,-198.71 1483.5,-190.11"/>
<polygon fill="black" stroke="black" points="1487,-190.1 1483.5,-180.1 1480,-190.1 1487,-190.1"/>
</g>
<!-- n65979882 -->
<g id="node18" class="node">
<title>n65979882</title>
<ellipse fill="none" stroke="black" cx="357.5" cy="-306" rx="83.69" ry="18"/>
<text text-anchor="start" x="301" y="-302.3" font-family="Times,serif" font-size="14.00">!brown, yummy</text>
</g>
<!-- n65979882&#45;&gt;SUBSn65979882n83915438 -->
<g id="edge6" class="edge">
<title>n65979882&#45;&gt;SUBSn65979882n83915438</title>
<path fill="none" stroke="black" d="M340.55,-288.05C329.71,-277.21 315.68,-263.18 304.78,-252.28"/>
</g>
<!-- SUBSn65979882n89646562 -->
<g id="node28" class="node">
<title>SUBSn65979882n89646562</title>
<text text-anchor="start" x="513" y="-230.3" font-family="Times,serif" font-size="14.00">{}</text>
</g>
<!-- n65979882&#45;&gt;SUBSn65979882n89646562 -->
<g id="edge32" class="edge">
<title>n65979882&#45;&gt;SUBSn65979882n89646562</title>
<path fill="none" stroke="black" d="M393.71,-289.64C424.35,-276.64 467.59,-258.3 495.33,-246.53"/>
</g>
<!-- SUBSn99607758n47403205&#45;&gt;n65979882 -->
<g id="edge19" class="edge">
<title>SUBSn99607758n47403205&#45;&gt;n65979882</title>
<path fill="none" stroke="black" d="M194.88,-363.69C197.77,-362.4 200.68,-361.15 203.5,-360 235.74,-346.89 272.58,-334.13 302.14,-324.42"/>
<polygon fill="black" stroke="black" points="303.45,-327.68 311.87,-321.25 301.28,-321.02 303.45,-327.68"/>
</g>
<!-- n03906826 -->
<g id="node20" class="node">
<title>n03906826</title>
<ellipse fill="none" stroke="black" cx="1094.5" cy="-18" rx="44.39" ry="18"/>
<text text-anchor="start" x="1068.5" y="-14.3" font-family="Times,serif" font-size="14.00">!cookie</text>
</g>
<!-- SUBSn24430978n79475847&#45;&gt;n03906826 -->
<g id="edge36" class="edge">
<title>SUBSn24430978n79475847&#45;&gt;n03906826</title>
<path fill="none" stroke="black" d="M1094.5,-71.7C1094.5,-63.98 1094.5,-54.71 1094.5,-46.11"/>
<polygon fill="black" stroke="black" points="1098,-46.1 1094.5,-36.1 1091,-46.1 1098,-46.1"/>
</g>
<!-- SUBSn98289529n47884570 -->
<g id="node22" class="node">
<title>SUBSn98289529n47884570</title>
<text text-anchor="start" x="1154" y="-230.3" font-family="Times,serif" font-size="14.00">{}</text>
</g>
<!-- SUBSn98289529n47884570&#45;&gt;n79475848 -->
<g id="edge18" class="edge">
<title>SUBSn98289529n47884570&#45;&gt;n79475848</title>
<path fill="none" stroke="black" d="M1163.5,-215.7C1163.5,-207.98 1163.5,-198.71 1163.5,-190.11"/>
<polygon fill="black" stroke="black" points="1167,-190.1 1163.5,-180.1 1160,-190.1 1167,-190.1"/>
</g>
<!-- n98289529 -->
<g id="node31" class="node">
<title>n98289529</title>
<ellipse fill="none" stroke="black" cx="1024.5" cy="-306" rx="73.39" ry="18"/>
<text text-anchor="start" x="976" y="-302.3" font-family="Times,serif" font-size="14.00">burnt, !sweet</text>
</g>
<!-- SUBSn83915438n15506716&#45;&gt;n98289529 -->
<g id="edge23" class="edge">
<title>SUBSn83915438n15506716&#45;&gt;n98289529</title>
<path fill="none" stroke="black" d="M1024.5,-359.7C1024.5,-351.98 1024.5,-342.71 1024.5,-334.11"/>
<polygon fill="black" stroke="black" points="1028,-334.1 1024.5,-324.1 1021,-334.1 1028,-334.1"/>
</g>
<!-- SUBSn98289529n79475847&#45;&gt;n47884569 -->
<g id="edge11" class="edge">
<title>SUBSn98289529n79475847&#45;&gt;n47884569</title>
<path fill="none" stroke="black" d="M988.5,-215.7C988.5,-207.98 988.5,-198.71 988.5,-190.11"/>
<polygon fill="black" stroke="black" points="992,-190.1 988.5,-180.1 985,-190.1 992,-190.1"/>
</g>
<!-- n47884570&#45;&gt;SUBSn47884570n15506716 -->
<g id="edge12" class="edge">
<title>n47884570&#45;&gt;SUBSn47884570n15506716</title>
<path fill="none" stroke="black" d="M1247.65,-292.32C1309.09,-277.39 1408.8,-253.16 1456.46,-241.57"/>
</g>
<!-- n47884570&#45;&gt;SUBSn98289529n47884570 -->
<g id="edge27" class="edge">
<title>n47884570&#45;&gt;SUBSn98289529n47884570</title>
<path fill="none" stroke="black" d="M1187.75,-288.05C1182.8,-277.21 1176.38,-263.18 1171.4,-252.28"/>
</g>
<!-- n83915437 -->
<g id="node29" class="node">
<title>n83915437</title>
<ellipse fill="none" stroke="black" cx="1411.5" cy="-306" rx="81.49" ry="18"/>
<text text-anchor="start" x="1357" y="-302.3" font-family="Times,serif" font-size="14.00">!sweet, !brown</text>
</g>
<!-- SUBSn98289528n15506716&#45;&gt;n83915437 -->
<g id="edge37" class="edge">
<title>SUBSn98289528n15506716&#45;&gt;n83915437</title>
<path fill="none" stroke="black" d="M1411.5,-359.7C1411.5,-351.98 1411.5,-342.71 1411.5,-334.11"/>
<polygon fill="black" stroke="black" points="1415,-334.1 1411.5,-324.1 1408,-334.1 1415,-334.1"/>
</g>
<!-- SUBSn65979882n89646562&#45;&gt;n02588597 -->
<g id="edge28" class="edge">
<title>SUBSn65979882n89646562&#45;&gt;n02588597</title>
<path fill="none" stroke="black" d="M522.5,-215.7C522.5,-207.98 522.5,-198.71 522.5,-190.11"/>
<polygon fill="black" stroke="black" points="526,-190.1 522.5,-180.1 519,-190.1 526,-190.1"/>
</g>
<!-- n17543314 -->
<g id="node33" class="node">
<title>n17543314</title>
<ellipse fill="none" stroke="black" cx="727.5" cy="-306" rx="91.78" ry="18"/>
<text text-anchor="start" x="665" y="-302.3" font-family="Times,serif" font-size="14.00">chocolate, !sweet</text>
</g>
<!-- SUBSn83915438n47403205&#45;&gt;n17543314 -->
<g id="edge31" class="edge">
<title>SUBSn83915438n47403205&#45;&gt;n17543314</title>
<path fill="none" stroke="black" d="M266.75,-373.56C330.03,-365.51 491.75,-344.56 626.5,-324 634.5,-322.78 642.84,-321.46 651.16,-320.1"/>
<polygon fill="black" stroke="black" points="651.96,-323.52 661.27,-318.45 650.83,-316.61 651.96,-323.52"/>
</g>
<!-- n98289529&#45;&gt;SUBSn98289529n98289528 -->
<g id="edge42" class="edge">
<title>n98289529&#45;&gt;SUBSn98289529n98289528</title>
<path fill="none" stroke="black" d="M1073.88,-292.57C1132.7,-277.75 1228.85,-253.54 1275.47,-241.81"/>
</g>
<!-- n98289529&#45;&gt;SUBSn98289529n47884570 -->
<g id="edge35" class="edge">
<title>n98289529&#45;&gt;SUBSn98289529n47884570</title>
<path fill="none" stroke="black" d="M1055.35,-289.46C1079.66,-277.22 1113.23,-260.32 1136.49,-248.6"/>
</g>
<!-- n98289529&#45;&gt;SUBSn98289529n79475847 -->
<g id="edge33" class="edge">
<title>n98289529&#45;&gt;SUBSn98289529n79475847</title>
<path fill="none" stroke="black" d="M1015.79,-288.05C1010.21,-277.21 1002.99,-263.18 997.38,-252.28"/>
</g>
<!-- SUBSn17543314n79475847&#45;&gt;n56018686 -->
<g id="edge40" class="edge">
<title>SUBSn17543314n79475847&#45;&gt;n56018686</title>
<path fill="none" stroke="black" d="M743.5,-215.7C743.5,-207.98 743.5,-198.71 743.5,-190.11"/>
<polygon fill="black" stroke="black" points="747,-190.1 743.5,-180.1 740,-190.1 747,-190.1"/>
</g>
<!-- n17543314&#45;&gt;SUBSn17543314n79475847 -->
<g id="edge30" class="edge">
<title>n17543314&#45;&gt;SUBSn17543314n79475847</title>
<path fill="none" stroke="black" d="M731.46,-287.7C733.94,-276.85 737.12,-262.92 739.59,-252.1"/>
</g>
<!-- n89646562&#45;&gt;SUBSn65979882n89646562 -->
<g id="edge39" class="edge">
<title>n89646562&#45;&gt;SUBSn65979882n89646562</title>
<path fill="none" stroke="black" d="M534.54,-287.7C532.06,-276.85 528.88,-262.92 526.41,-252.1"/>
</g>
</g>
</svg>
