<?xml version="1.0" encoding="UTF-8" standalone="no"?>
<!DOCTYPE svg PUBLIC "-//W3C//DTD SVG 1.1//EN"
 "http://www.w3.org/Graphics/SVG/1.1/DTD/svg11.dtd">
<!-- Generated by graphviz version 2.43.0 (0)
 -->
<!-- Title: g Pages: 1 -->
<svg width="796pt" height="476pt"
 viewBox="0.00 0.00 796.00 476.00" xmlns="http://www.w3.org/2000/svg" xmlns:xlink="http://www.w3.org/1999/xlink">
<g id="graph0" class="graph" transform="scale(1 1) rotate(0) translate(4 472)">
<title>g</title>
<polygon fill="white" stroke="transparent" points="-4,4 -4,-472 792,-472 792,4 -4,4"/>
<!-- n27211916 -->
<g id="node1" class="node">
<title>n27211916</title>
<polygon fill="none" stroke="black" points="222,-468 73,-468 73,-432 222,-432 222,-468"/>
<text text-anchor="start" x="81" y="-446.3" font-family="Times,serif" font-size="14.00">yummy, !chocolate</text>
</g>
<!-- n78382407 -->
<g id="node2" class="node">
<title>n78382407</title>
<polygon fill="none" stroke="black" points="119,-324 0,-324 0,-288 119,-288 119,-324"/>
<text text-anchor="start" x="8" y="-302.3" font-family="Times,serif" font-size="14.00">!burnt, !sweet</text>
</g>
<!-- SUBSn78382407n56290215 -->
<g id="node14" class="node">
<title>SUBSn78382407n56290215</title>
<text text-anchor="start" x="156" y="-230.3" font-family="Times,serif" font-size="14.00">{}</text>
</g>
<!-- n78382407&#45;&gt;SUBSn78382407n56290215 -->
<g id="edge4" class="edge">
<title>n78382407&#45;&gt;SUBSn78382407n56290215</title>
<path fill="none" stroke="black" d="M85.43,-287.88C101.86,-277.03 123.02,-263.05 139.47,-252.19"/>
</g>
<!-- n56290215 -->
<g id="node3" class="node">
<title>n56290215</title>
<polygon fill="none" stroke="black" points="196,-324 137,-324 137,-288 196,-288 196,-324"/>
<text text-anchor="start" x="145" y="-302.3" font-family="Times,serif" font-size="14.00">sweet</text>
</g>
<!-- n56290215&#45;&gt;SUBSn78382407n56290215 -->
<g id="edge6" class="edge">
<title>n56290215&#45;&gt;SUBSn78382407n56290215</title>
<path fill="none" stroke="black" d="M166.25,-287.7C166.1,-276.85 165.9,-262.92 165.74,-252.1"/>
</g>
<!-- n14126433 -->
<g id="node4" class="node">
<title>n14126433</title>
<polygon fill="none" stroke="black" points="651,-468 532,-468 532,-432 651,-432 651,-468"/>
<text text-anchor="start" x="540" y="-446.3" font-family="Times,serif" font-size="14.00">brown, !sweet</text>
</g>
<!-- n99867471 -->
<g id="node5" class="node">
<title>n99867471</title>
<polygon fill="none" stroke="black" points="788,-468 669,-468 669,-432 788,-432 788,-468"/>
<text text-anchor="start" x="677" y="-446.3" font-family="Times,serif" font-size="14.00">!cookie, sweet</text>
</g>
<!-- n30135095 -->
<g id="node6" class="node">
<title>n30135095</title>
<polygon fill="none" stroke="black" points="433,-468 240,-468 240,-432 433,-432 433,-468"/>
<text text-anchor="start" x="248" y="-446.3" font-family="Times,serif" font-size="14.00">burnt, !brown, chocolate</text>
</g>
<!-- SUBSn30135095n26305974 -->
<g id="node13" class="node">
<title>SUBSn30135095n26305974</title>
<text text-anchor="start" x="400" y="-374.3" font-family="Times,serif" font-size="14.00">{}</text>
</g>
<!-- n30135095&#45;&gt;SUBSn30135095n26305974 -->
<g id="edge10" class="edge">
<title>n30135095&#45;&gt;SUBSn30135095n26305974</title>
<path fill="none" stroke="black" d="M354.54,-431.7C365.86,-420.85 380.39,-406.92 391.66,-396.1"/>
</g>
<!-- n47003018 -->
<g id="node7" class="node">
<title>n47003018</title>
<polygon fill="none" stroke="black" points="305.5,-324 215.5,-324 215.5,-288 305.5,-288 305.5,-324"/>
<text text-anchor="start" x="223.5" y="-302.3" font-family="Times,serif" font-size="14.00">!chocolate</text>
</g>
<!-- SUBSn29053166n47003018 -->
<g id="node10" class="node">
<title>SUBSn29053166n47003018</title>
<text text-anchor="start" x="251" y="-230.3" font-family="Times,serif" font-size="14.00">{}</text>
</g>
<!-- n47003018&#45;&gt;SUBSn29053166n47003018 -->
<g id="edge7" class="edge">
<title>n47003018&#45;&gt;SUBSn29053166n47003018</title>
<path fill="none" stroke="black" d="M260.5,-287.7C260.5,-276.85 260.5,-262.92 260.5,-252.1"/>
</g>
<!-- n26305974 -->
<g id="node8" class="node">
<title>n26305974</title>
<polygon fill="none" stroke="black" points="513.5,-468 451.5,-468 451.5,-432 513.5,-432 513.5,-468"/>
<text text-anchor="start" x="459.5" y="-446.3" font-family="Times,serif" font-size="14.00">brown</text>
</g>
<!-- n26305974&#45;&gt;SUBSn30135095n26305974 -->
<g id="edge2" class="edge">
<title>n26305974&#45;&gt;SUBSn30135095n26305974</title>
<path fill="none" stroke="black" d="M464.46,-431.7C453.14,-420.85 438.61,-406.92 427.34,-396.1"/>
</g>
<!-- n29053166 -->
<g id="node9" class="node">
<title>n29053166</title>
<ellipse fill="none" stroke="black" cx="409.5" cy="-306" rx="86.38" ry="18"/>
<text text-anchor="start" x="351" y="-302.3" font-family="Times,serif" font-size="14.00">burnt, chocolate</text>
</g>
<!-- n29053166&#45;&gt;SUBSn29053166n47003018 -->
<g id="edge3" class="edge">
<title>n29053166&#45;&gt;SUBSn29053166n47003018</title>
<path fill="none" stroke="black" d="M376.06,-289.29C349.46,-276.79 312.71,-259.53 287.85,-247.85"/>
</g>
<!-- n77907806 -->
<g id="node11" class="node">
<title>n77907806</title>
<ellipse fill="none" stroke="black" cx="260.5" cy="-162" rx="36.29" ry="18"/>
<text text-anchor="start" x="240.5" y="-158.3" font-family="Times,serif" font-size="14.00">burnt</text>
</g>
<!-- SUBSn29053166n47003018&#45;&gt;n77907806 -->
<g id="edge1" class="edge">
<title>SUBSn29053166n47003018&#45;&gt;n77907806</title>
<path fill="none" stroke="black" d="M260.5,-215.7C260.5,-207.98 260.5,-198.71 260.5,-190.11"/>
<polygon fill="black" stroke="black" points="264,-190.1 260.5,-180.1 257,-190.1 264,-190.1"/>
</g>
<!-- SUBSn77907807n77907806 -->
<g id="node16" class="node">
<title>SUBSn77907807n77907806</title>
<text text-anchor="start" x="203" y="-86.3" font-family="Times,serif" font-size="14.00">{}</text>
</g>
<!-- n77907806&#45;&gt;SUBSn77907807n77907806 -->
<g id="edge9" class="edge">
<title>n77907806&#45;&gt;SUBSn77907807n77907806</title>
<path fill="none" stroke="black" d="M249.37,-144.76C241.83,-133.78 231.9,-119.29 224.24,-108.12"/>
</g>
<!-- n00000000 -->
<g id="node12" class="node">
<title>n00000000</title>
<ellipse fill="none" stroke="black" cx="212.5" cy="-18" rx="41.69" ry="18"/>
<text text-anchor="start" x="188.5" y="-14.3" font-family="Times,serif" font-size="14.00">FALSE</text>
</g>
<!-- SUBSn30135095n26305974&#45;&gt;n29053166 -->
<g id="edge8" class="edge">
<title>SUBSn30135095n26305974&#45;&gt;n29053166</title>
<path fill="none" stroke="black" d="M409.5,-359.7C409.5,-351.98 409.5,-342.71 409.5,-334.11"/>
<polygon fill="black" stroke="black" points="413,-334.1 409.5,-324.1 406,-334.1 413,-334.1"/>
</g>
<!-- n77907807 -->
<g id="node15" class="node">
<title>n77907807</title>
<ellipse fill="none" stroke="black" cx="165.5" cy="-162" rx="40.09" ry="18"/>
<text text-anchor="start" x="142.5" y="-158.3" font-family="Times,serif" font-size="14.00">!burnt</text>
</g>
<!-- SUBSn78382407n56290215&#45;&gt;n77907807 -->
<g id="edge5" class="edge">
<title>SUBSn78382407n56290215&#45;&gt;n77907807</title>
<path fill="none" stroke="black" d="M165.5,-215.7C165.5,-207.98 165.5,-198.71 165.5,-190.11"/>
<polygon fill="black" stroke="black" points="169,-190.1 165.5,-180.1 162,-190.1 169,-190.1"/>
</g>
<!-- n77907807&#45;&gt;SUBSn77907807n77907806 -->
<g id="edge11" class="edge">
<title>n77907807&#45;&gt;SUBSn77907807n77907806</title>
<path fill="none" stroke="black" d="M176.64,-144.41C183.91,-133.58 193.4,-119.45 200.79,-108.45"/>
</g>
<!-- SUBSn77907807n77907806&#45;&gt;n00000000 -->
<g id="edge12" class="edge">
<title>SUBSn77907807n77907806&#45;&gt;n00000000</title>
<path fill="none" stroke="black" d="M212.5,-71.7C212.5,-63.98 212.5,-54.71 212.5,-46.11"/>
<polygon fill="black" stroke="black" points="216,-46.1 212.5,-36.1 209,-46.1 216,-46.1"/>
</g>
</g>
</svg>
