<?xml version="1.0" encoding="UTF-8" standalone="no"?>
<!DOCTYPE svg PUBLIC "-//W3C//DTD SVG 1.1//EN"
 "http://www.w3.org/Graphics/SVG/1.1/DTD/svg11.dtd">
<!-- Generated by graphviz version 2.43.0 (0)
 -->
<!-- Title: g Pages: 1 -->
<svg width="752pt" height="476pt"
 viewBox="0.00 0.00 752.00 476.00" xmlns="http://www.w3.org/2000/svg" xmlns:xlink="http://www.w3.org/1999/xlink">
<g id="graph0" class="graph" transform="scale(1 1) rotate(0) translate(4 472)">
<title>g</title>
<polygon fill="white" stroke="transparent" points="-4,4 -4,-472 748,-472 748,4 -4,4"/>
<!-- n96532663 -->
<g id="node1" class="node">
<title>n96532663</title>
<polygon fill="none" stroke="black" points="92,-468 0,-468 0,-432 92,-432 92,-468"/>
<text text-anchor="start" x="8" y="-446.3" font-family="Times,serif" font-size="14.00">!Rain, Wet</text>
</g>
<!-- SUBSn41086153n96532663 -->
<g id="node16" class="node">
<title>SUBSn41086153n96532663</title>
<text text-anchor="start" x="81.5" y="-374.3" font-family="Times,serif" font-size="14.00">{}</text>
</g>
<!-- n96532663&#45;&gt;SUBSn41086153n96532663 -->
<g id="edge3" class="edge">
<title>n96532663&#45;&gt;SUBSn41086153n96532663</title>
<path fill="none" stroke="black" d="M57.12,-431.7C64.1,-420.85 73.05,-406.92 80,-396.1"/>
</g>
<!-- n15334846 -->
<g id="node2" class="node">
<title>n15334846</title>
<polygon fill="none" stroke="black" points="299.5,-324 244.5,-324 244.5,-288 299.5,-288 299.5,-324"/>
<text text-anchor="start" x="252.5" y="-302.3" font-family="Times,serif" font-size="14.00">Clear</text>
</g>
<!-- SUBSn45128048n15334846 -->
<g id="node17" class="node">
<title>SUBSn45128048n15334846</title>
<text text-anchor="start" x="262.5" y="-230.3" font-family="Times,serif" font-size="14.00">{}</text>
</g>
<!-- n15334846&#45;&gt;SUBSn45128048n15334846 -->
<g id="edge8" class="edge">
<title>n15334846&#45;&gt;SUBSn45128048n15334846</title>
<path fill="none" stroke="black" d="M272,-287.7C272,-276.85 272,-262.92 272,-252.1"/>
</g>
<!-- n53709467 -->
<g id="node3" class="node">
<title>n53709467</title>
<polygon fill="none" stroke="black" points="226.5,-324 137.5,-324 137.5,-288 226.5,-288 226.5,-324"/>
<text text-anchor="start" x="145.5" y="-302.3" font-family="Times,serif" font-size="14.00">!Dry, !Wet</text>
</g>
<!-- SUBSn53709467n44553489 -->
<g id="node11" class="node">
<title>SUBSn53709467n44553489</title>
<text text-anchor="start" x="172.5" y="-230.3" font-family="Times,serif" font-size="14.00">{}</text>
</g>
<!-- n53709467&#45;&gt;SUBSn53709467n44553489 -->
<g id="edge7" class="edge">
<title>n53709467&#45;&gt;SUBSn53709467n44553489</title>
<path fill="none" stroke="black" d="M182,-287.7C182,-276.85 182,-262.92 182,-252.1"/>
</g>
<!-- n11091782 -->
<g id="node4" class="node">
<title>n11091782</title>
<polygon fill="none" stroke="black" points="346,-468 182,-468 182,-432 346,-432 346,-468"/>
<text text-anchor="start" x="190" y="-446.3" font-family="Times,serif" font-size="14.00">Sprinkler, !Day, !Dry</text>
</g>
<!-- n39188723 -->
<g id="node5" class="node">
<title>n39188723</title>
<polygon fill="none" stroke="black" points="470,-468 364,-468 364,-432 470,-432 470,-468"/>
<text text-anchor="start" x="372" y="-446.3" font-family="Times,serif" font-size="14.00">!Night, !Day</text>
</g>
<!-- n45128048 -->
<g id="node6" class="node">
<title>n45128048</title>
<polygon fill="none" stroke="black" points="412.5,-324 317.5,-324 317.5,-288 412.5,-288 412.5,-324"/>
<text text-anchor="start" x="325.5" y="-302.3" font-family="Times,serif" font-size="14.00">!Clear, Dry</text>
</g>
<!-- n45128048&#45;&gt;SUBSn45128048n15334846 -->
<g id="edge4" class="edge">
<title>n45128048&#45;&gt;SUBSn45128048n15334846</title>
<path fill="none" stroke="black" d="M342.01,-287.7C327.6,-276.85 309.09,-262.92 294.72,-252.1"/>
</g>
<!-- n39188721 -->
<g id="node7" class="node">
<title>n39188721</title>
<polygon fill="none" stroke="black" points="582,-468 488,-468 488,-432 582,-432 582,-468"/>
<text text-anchor="start" x="496" y="-446.3" font-family="Times,serif" font-size="14.00">Night, Day</text>
</g>
<!-- n41086153 -->
<g id="node8" class="node">
<title>n41086153</title>
<polygon fill="none" stroke="black" points="164,-468 110,-468 110,-432 164,-432 164,-468"/>
<text text-anchor="start" x="120.5" y="-446.3" font-family="Times,serif" font-size="14.00">Rain</text>
</g>
<!-- n41086153&#45;&gt;SUBSn41086153n96532663 -->
<g id="edge10" class="edge">
<title>n41086153&#45;&gt;SUBSn41086153n96532663</title>
<path fill="none" stroke="black" d="M125.63,-431.7C118.5,-420.85 109.35,-406.92 102.24,-396.1"/>
</g>
<!-- n72738641 -->
<g id="node9" class="node">
<title>n72738641</title>
<polygon fill="none" stroke="black" points="744,-468 600,-468 600,-432 744,-432 744,-468"/>
<text text-anchor="start" x="608" y="-446.3" font-family="Times,serif" font-size="14.00">Bright, !Dry, !Day</text>
</g>
<!-- n00000000 -->
<g id="node10" class="node">
<title>n00000000</title>
<ellipse fill="none" stroke="black" cx="224" cy="-18" rx="41.69" ry="18"/>
<text text-anchor="start" x="200" y="-14.3" font-family="Times,serif" font-size="14.00">FALSE</text>
</g>
<!-- n98262957 -->
<g id="node12" class="node">
<title>n98262957</title>
<ellipse fill="none" stroke="black" cx="185" cy="-162" rx="31.7" ry="18"/>
<text text-anchor="start" x="168.5" y="-158.3" font-family="Times,serif" font-size="14.00">!Dry</text>
</g>
<!-- SUBSn53709467n44553489&#45;&gt;n98262957 -->
<g id="edge5" class="edge">
<title>SUBSn53709467n44553489&#45;&gt;n98262957</title>
<path fill="none" stroke="black" d="M182.74,-215.7C183.07,-207.98 183.47,-198.71 183.84,-190.11"/>
<polygon fill="black" stroke="black" points="187.34,-190.25 184.27,-180.1 180.34,-189.95 187.34,-190.25"/>
</g>
<!-- SUBSn98262957n98262958 -->
<g id="node13" class="node">
<title>SUBSn98262957n98262958</title>
<text text-anchor="start" x="214.5" y="-86.3" font-family="Times,serif" font-size="14.00">{}</text>
</g>
<!-- n98262957&#45;&gt;SUBSn98262957n98262958 -->
<g id="edge1" class="edge">
<title>n98262957&#45;&gt;SUBSn98262957n98262958</title>
<path fill="none" stroke="black" d="M194.24,-144.41C200.28,-133.58 208.15,-119.45 214.28,-108.45"/>
</g>
<!-- SUBSn98262957n98262958&#45;&gt;n00000000 -->
<g id="edge12" class="edge">
<title>SUBSn98262957n98262958&#45;&gt;n00000000</title>
<path fill="none" stroke="black" d="M224,-71.7C224,-63.98 224,-54.71 224,-46.11"/>
<polygon fill="black" stroke="black" points="227.5,-46.1 224,-36.1 220.5,-46.1 227.5,-46.1"/>
</g>
<!-- n98262958 -->
<g id="node14" class="node">
<title>n98262958</title>
<ellipse fill="none" stroke="black" cx="269" cy="-162" rx="27.9" ry="18"/>
<text text-anchor="start" x="255.5" y="-158.3" font-family="Times,serif" font-size="14.00">Dry</text>
</g>
<!-- n98262958&#45;&gt;SUBSn98262957n98262958 -->
<g id="edge2" class="edge">
<title>n98262958&#45;&gt;SUBSn98262957n98262958</title>
<path fill="none" stroke="black" d="M258.79,-145.12C251.74,-134.14 242.36,-119.56 235.12,-108.29"/>
</g>
<!-- n44553489 -->
<g id="node15" class="node">
<title>n44553489</title>
<ellipse fill="none" stroke="black" cx="91" cy="-306" rx="28.7" ry="18"/>
<text text-anchor="start" x="77" y="-302.3" font-family="Times,serif" font-size="14.00">Wet</text>
</g>
<!-- n44553489&#45;&gt;SUBSn53709467n44553489 -->
<g id="edge11" class="edge">
<title>n44553489&#45;&gt;SUBSn53709467n44553489</title>
<path fill="none" stroke="black" d="M108.55,-291.5C123.11,-280.3 143.91,-264.3 159.67,-252.18"/>
</g>
<!-- SUBSn41086153n96532663&#45;&gt;n44553489 -->
<g id="edge6" class="edge">
<title>SUBSn41086153n96532663&#45;&gt;n44553489</title>
<path fill="none" stroke="black" d="M91,-359.7C91,-351.98 91,-342.71 91,-334.11"/>
<polygon fill="black" stroke="black" points="94.5,-334.1 91,-324.1 87.5,-334.1 94.5,-334.1"/>
</g>
<!-- SUBSn45128048n15334846&#45;&gt;n98262958 -->
<g id="edge9" class="edge">
<title>SUBSn45128048n15334846&#45;&gt;n98262958</title>
<path fill="none" stroke="black" d="M271.26,-215.7C270.93,-207.98 270.53,-198.71 270.16,-190.11"/>
<polygon fill="black" stroke="black" points="273.66,-189.95 269.73,-180.1 266.66,-190.25 273.66,-189.95"/>
</g>
</g>
</svg>
