<?xml version="1.0" encoding="UTF-8" standalone="no"?>
<!DOCTYPE svg PUBLIC "-//W3C//DTD SVG 1.1//EN"
 "http://www.w3.org/Graphics/SVG/1.1/DTD/svg11.dtd">
<!-- Generated by graphviz version 2.43.0 (0)
 -->
<!-- Title: g Pages: 1 -->
<svg width="942pt" height="476pt"
 viewBox="0.00 0.00 942.00 476.00" xmlns="http://www.w3.org/2000/svg" xmlns:xlink="http://www.w3.org/1999/xlink">
<g id="graph0" class="graph" transform="scale(1 1) rotate(0) translate(4 472)">
<title>g</title>
<polygon fill="white" stroke="transparent" points="-4,4 -4,-472 938,-472 938,4 -4,4"/>
<!-- n01729442 -->
<g id="node1" class="node">
<title>n01729442</title>
<polygon fill="none" stroke="black" points="68,-468 0,-468 0,-432 68,-432 68,-468"/>
<text text-anchor="start" x="8" y="-446.3" font-family="Times,serif" font-size="14.00">!Bright</text>
</g>
<!-- SUBSn01729442n36324468 -->
<g id="node14" class="node">
<title>SUBSn01729442n36324468</title>
<text text-anchor="start" x="147.5" y="-374.3" font-family="Times,serif" font-size="14.00">{}</text>
</g>
<!-- n01729442&#45;&gt;SUBSn01729442n36324468 -->
<g id="edge2" class="edge">
<title>n01729442&#45;&gt;SUBSn01729442n36324468</title>
<path fill="none" stroke="black" d="M64.09,-431.88C84.15,-420.46 110.29,-405.58 129.74,-394.51"/>
</g>
<!-- n82938563 -->
<g id="node2" class="node">
<title>n82938563</title>
<polygon fill="none" stroke="black" points="520.5,-468 431.5,-468 431.5,-432 520.5,-432 520.5,-468"/>
<text text-anchor="start" x="439.5" y="-446.3" font-family="Times,serif" font-size="14.00">!Dry, !Wet</text>
</g>
<!-- n24332885 -->
<g id="node3" class="node">
<title>n24332885</title>
<polygon fill="none" stroke="black" points="340,-468 246,-468 246,-432 340,-432 340,-468"/>
<text text-anchor="start" x="254" y="-446.3" font-family="Times,serif" font-size="14.00">Dry, !Clear</text>
</g>
<!-- SUBSn24332885n44094813 -->
<g id="node19" class="node">
<title>SUBSn24332885n44094813</title>
<text text-anchor="start" x="283.5" y="-374.3" font-family="Times,serif" font-size="14.00">{}</text>
</g>
<!-- n24332885&#45;&gt;SUBSn24332885n44094813 -->
<g id="edge10" class="edge">
<title>n24332885&#45;&gt;SUBSn24332885n44094813</title>
<path fill="none" stroke="black" d="M293,-431.7C293,-420.85 293,-406.92 293,-396.1"/>
</g>
<!-- n36324468 -->
<g id="node4" class="node">
<title>n36324468</title>
<polygon fill="none" stroke="black" points="228,-468 86,-468 86,-432 228,-432 228,-468"/>
<text text-anchor="start" x="94" y="-446.3" font-family="Times,serif" font-size="14.00">!Dry, !Day, Bright</text>
</g>
<!-- n36324468&#45;&gt;SUBSn01729442n36324468 -->
<g id="edge13" class="edge">
<title>n36324468&#45;&gt;SUBSn01729442n36324468</title>
<path fill="none" stroke="black" d="M157,-431.7C157,-420.85 157,-406.92 157,-396.1"/>
</g>
<!-- n44094813 -->
<g id="node5" class="node">
<title>n44094813</title>
<polygon fill="none" stroke="black" points="413.5,-468 358.5,-468 358.5,-432 413.5,-432 413.5,-468"/>
<text text-anchor="start" x="366.5" y="-446.3" font-family="Times,serif" font-size="14.00">Clear</text>
</g>
<!-- n44094813&#45;&gt;SUBSn24332885n44094813 -->
<g id="edge15" class="edge">
<title>n44094813&#45;&gt;SUBSn24332885n44094813</title>
<path fill="none" stroke="black" d="M363.01,-431.7C348.6,-420.85 330.09,-406.92 315.72,-396.1"/>
</g>
<!-- n70028688 -->
<g id="node6" class="node">
<title>n70028688</title>
<polygon fill="none" stroke="black" points="701.5,-468 538.5,-468 538.5,-432 701.5,-432 701.5,-468"/>
<text text-anchor="start" x="546.5" y="-446.3" font-family="Times,serif" font-size="14.00">!Dry, !Day, Sprinkler</text>
</g>
<!-- n78522896 -->
<g id="node7" class="node">
<title>n78522896</title>
<polygon fill="none" stroke="black" points="812,-468 720,-468 720,-432 812,-432 812,-468"/>
<text text-anchor="start" x="728" y="-446.3" font-family="Times,serif" font-size="14.00">!Rain, Wet</text>
</g>
<!-- n75180764 -->
<g id="node8" class="node">
<title>n75180764</title>
<polygon fill="none" stroke="black" points="394.5,-324 331.5,-324 331.5,-288 394.5,-288 394.5,-324"/>
<text text-anchor="start" x="339.5" y="-302.3" font-family="Times,serif" font-size="14.00">!Night</text>
</g>
<!-- SUBSn75180764n75033848 -->
<g id="node15" class="node">
<title>SUBSn75180764n75033848</title>
<text text-anchor="start" x="353.5" y="-230.3" font-family="Times,serif" font-size="14.00">{}</text>
</g>
<!-- n75180764&#45;&gt;SUBSn75180764n75033848 -->
<g id="edge12" class="edge">
<title>n75180764&#45;&gt;SUBSn75180764n75033848</title>
<path fill="none" stroke="black" d="M363,-287.7C363,-276.85 363,-262.92 363,-252.1"/>
</g>
<!-- n75033848 -->
<g id="node9" class="node">
<title>n75033848</title>
<polygon fill="none" stroke="black" points="505,-324 413,-324 413,-288 505,-288 505,-324"/>
<text text-anchor="start" x="421" y="-302.3" font-family="Times,serif" font-size="14.00">Day, Night</text>
</g>
<!-- n75033848&#45;&gt;SUBSn75180764n75033848 -->
<g id="edge3" class="edge">
<title>n75033848&#45;&gt;SUBSn75180764n75033848</title>
<path fill="none" stroke="black" d="M435.27,-287.7C420.39,-276.85 401.29,-262.92 386.46,-252.1"/>
</g>
<!-- n75033846 -->
<g id="node10" class="node">
<title>n75033846</title>
<polygon fill="none" stroke="black" points="934,-468 830,-468 830,-432 934,-432 934,-468"/>
<text text-anchor="start" x="838" y="-446.3" font-family="Times,serif" font-size="14.00">!Day, !Night</text>
</g>
<!-- n50214611 -->
<g id="node11" class="node">
<title>n50214611</title>
<ellipse fill="none" stroke="black" cx="363" cy="-162" rx="28.7" ry="18"/>
<text text-anchor="start" x="349" y="-158.3" font-family="Times,serif" font-size="14.00">Day</text>
</g>
<!-- SUBSn50214610n50214611 -->
<g id="node18" class="node">
<title>SUBSn50214610n50214611</title>
<text text-anchor="start" x="313.5" y="-86.3" font-family="Times,serif" font-size="14.00">{}</text>
</g>
<!-- n50214611&#45;&gt;SUBSn50214610n50214611 -->
<g id="edge14" class="edge">
<title>n50214611&#45;&gt;SUBSn50214610n50214611</title>
<path fill="none" stroke="black" d="M353.72,-144.76C347.45,-133.78 339.17,-119.29 332.79,-108.12"/>
</g>
<!-- n80238073 -->
<g id="node12" class="node">
<title>n80238073</title>
<ellipse fill="none" stroke="black" cx="285" cy="-306" rx="27.9" ry="18"/>
<text text-anchor="start" x="271.5" y="-302.3" font-family="Times,serif" font-size="14.00">Dry</text>
</g>
<!-- SUBSn30452682n80238073 -->
<g id="node13" class="node">
<title>SUBSn30452682n80238073</title>
<text text-anchor="start" x="274.5" y="-230.3" font-family="Times,serif" font-size="14.00">{}</text>
</g>
<!-- n80238073&#45;&gt;SUBSn30452682n80238073 -->
<g id="edge1" class="edge">
<title>n80238073&#45;&gt;SUBSn30452682n80238073</title>
<path fill="none" stroke="black" d="M284.75,-287.7C284.6,-276.85 284.4,-262.92 284.24,-252.1"/>
</g>
<!-- n50214610 -->
<g id="node17" class="node">
<title>n50214610</title>
<ellipse fill="none" stroke="black" cx="284" cy="-162" rx="32.49" ry="18"/>
<text text-anchor="start" x="267" y="-158.3" font-family="Times,serif" font-size="14.00">!Day</text>
</g>
<!-- SUBSn30452682n80238073&#45;&gt;n50214610 -->
<g id="edge8" class="edge">
<title>SUBSn30452682n80238073&#45;&gt;n50214610</title>
<path fill="none" stroke="black" d="M284,-215.7C284,-207.98 284,-198.71 284,-190.11"/>
<polygon fill="black" stroke="black" points="287.5,-190.1 284,-180.1 280.5,-190.1 287.5,-190.1"/>
</g>
<!-- n30452682 -->
<g id="node16" class="node">
<title>n30452682</title>
<ellipse fill="none" stroke="black" cx="165" cy="-306" rx="57.69" ry="18"/>
<text text-anchor="start" x="128.5" y="-302.3" font-family="Times,serif" font-size="14.00">!Dry, !Day</text>
</g>
<!-- SUBSn01729442n36324468&#45;&gt;n30452682 -->
<g id="edge6" class="edge">
<title>SUBSn01729442n36324468&#45;&gt;n30452682</title>
<path fill="none" stroke="black" d="M158.98,-359.7C159.86,-351.98 160.92,-342.71 161.9,-334.11"/>
<polygon fill="black" stroke="black" points="165.39,-334.44 163.05,-324.1 158.43,-333.64 165.39,-334.44"/>
</g>
<!-- SUBSn75180764n75033848&#45;&gt;n50214611 -->
<g id="edge9" class="edge">
<title>SUBSn75180764n75033848&#45;&gt;n50214611</title>
<path fill="none" stroke="black" d="M363,-215.7C363,-207.98 363,-198.71 363,-190.11"/>
<polygon fill="black" stroke="black" points="366.5,-190.1 363,-180.1 359.5,-190.1 366.5,-190.1"/>
</g>
<!-- n30452682&#45;&gt;SUBSn30452682n80238073 -->
<g id="edge4" class="edge">
<title>n30452682&#45;&gt;SUBSn30452682n80238073</title>
<path fill="none" stroke="black" d="M190.82,-289.81C210.37,-278.31 237.15,-262.56 256.99,-250.89"/>
</g>
<!-- n50214610&#45;&gt;SUBSn50214610n50214611 -->
<g id="edge5" class="edge">
<title>n50214610&#45;&gt;SUBSn50214610n50214611</title>
<path fill="none" stroke="black" d="M293.24,-144.41C299.28,-133.58 307.15,-119.45 313.28,-108.45"/>
</g>
<!-- n00000000 -->
<g id="node20" class="node">
<title>n00000000</title>
<ellipse fill="none" stroke="black" cx="323" cy="-18" rx="41.69" ry="18"/>
<text text-anchor="start" x="299" y="-14.3" font-family="Times,serif" font-size="14.00">FALSE</text>
</g>
<!-- SUBSn50214610n50214611&#45;&gt;n00000000 -->
<g id="edge11" class="edge">
<title>SUBSn50214610n50214611&#45;&gt;n00000000</title>
<path fill="none" stroke="black" d="M323,-71.7C323,-63.98 323,-54.71 323,-46.11"/>
<polygon fill="black" stroke="black" points="326.5,-46.1 323,-36.1 319.5,-46.1 326.5,-46.1"/>
</g>
<!-- SUBSn24332885n44094813&#45;&gt;n80238073 -->
<g id="edge7" class="edge">
<title>SUBSn24332885n44094813&#45;&gt;n80238073</title>
<path fill="none" stroke="black" d="M291.02,-359.7C290.14,-351.98 289.08,-342.71 288.1,-334.11"/>
<polygon fill="black" stroke="black" points="291.57,-333.64 286.95,-324.1 284.61,-334.44 291.57,-333.64"/>
</g>
</g>
</svg>
