<?xml version="1.0" encoding="UTF-8" standalone="no"?>
<!DOCTYPE svg PUBLIC "-//W3C//DTD SVG 1.1//EN"
 "http://www.w3.org/Graphics/SVG/1.1/DTD/svg11.dtd">
<!-- Generated by graphviz version 2.43.0 (0)
 -->
<!-- Title: g Pages: 1 -->
<svg width="1478pt" height="476pt"
 viewBox="0.00 0.00 1477.50 476.00" xmlns="http://www.w3.org/2000/svg" xmlns:xlink="http://www.w3.org/1999/xlink">
<g id="graph0" class="graph" transform="scale(1 1) rotate(0) translate(4 472)">
<title>g</title>
<polygon fill="white" stroke="transparent" points="-4,4 -4,-472 1473.5,-472 1473.5,4 -4,4"/>
<!-- n18648219 -->
<g id="node1" class="node">
<title>n18648219</title>
<polygon fill="none" stroke="black" points="243.5,-180 166.5,-180 166.5,-144 243.5,-144 243.5,-180"/>
<text text-anchor="start" x="174.5" y="-159.3" font-family="Times,serif" font-size="14.00">Rain(</text>
<text text-anchor="start" x="212.5" y="-159.3" font-family="Times,serif" font-weight="bold" font-size="14.00">t7</text>
<text text-anchor="start" x="229.5" y="-159.3" font-family="Times,serif" font-size="14.00">)</text>
</g>
<!-- SUBSn73303555n18648219 -->
<g id="node12" class="node">
<title>SUBSn73303555n18648219</title>
<text text-anchor="start" x="182.5" y="-86.3" font-family="Times,serif" font-size="14.00">{A363: T374, t7: T374}</text>
</g>
<!-- n18648219&#45;&gt;SUBSn73303555n18648219 -->
<g id="edge9" class="edge">
<title>n18648219&#45;&gt;SUBSn73303555n18648219</title>
<path fill="none" stroke="black" d="M220.33,-143.7C229.94,-132.85 242.27,-118.92 251.85,-108.1"/>
</g>
<!-- n71172237 -->
<g id="node2" class="node">
<title>n71172237</title>
<polygon fill="none" stroke="black" points="498,-468 346,-468 346,-432 498,-432 498,-468"/>
<text text-anchor="start" x="354" y="-447.3" font-family="Times,serif" font-size="14.00">!Clear(</text>
<text text-anchor="start" x="404" y="-447.3" font-family="Times,serif" font-weight="bold" font-size="14.00">t2</text>
<text text-anchor="start" x="421" y="-447.3" font-family="Times,serif" font-size="14.00">), Dry(</text>
<text text-anchor="start" x="467" y="-447.3" font-family="Times,serif" font-weight="bold" font-size="14.00">t2</text>
<text text-anchor="start" x="484" y="-447.3" font-family="Times,serif" font-size="14.00">)</text>
</g>
<!-- SUBSn71172237n72975763 -->
<g id="node14" class="node">
<title>SUBSn71172237n72975763</title>
<text text-anchor="start" x="354.5" y="-374.3" font-family="Times,serif" font-size="14.00">{t2: F189, t8: F189}</text>
</g>
<!-- n71172237&#45;&gt;SUBSn71172237n72975763 -->
<g id="edge4" class="edge">
<title>n71172237&#45;&gt;SUBSn71172237n72975763</title>
<path fill="none" stroke="black" d="M423.73,-431.7C424.82,-420.85 426.21,-406.92 427.29,-396.1"/>
</g>
<!-- n82633819 -->
<g id="node3" class="node">
<title>n82633819</title>
<polygon fill="none" stroke="black" points="148,-468 0,-468 0,-432 148,-432 148,-468"/>
<text text-anchor="start" x="8" y="-447.3" font-family="Times,serif" font-size="14.00">!Dry(</text>
<text text-anchor="start" x="46" y="-447.3" font-family="Times,serif" font-weight="bold" font-size="14.00">t6</text>
<text text-anchor="start" x="63" y="-447.3" font-family="Times,serif" font-size="14.00">), !Wet(</text>
<text text-anchor="start" x="117" y="-447.3" font-family="Times,serif" font-weight="bold" font-size="14.00">t6</text>
<text text-anchor="start" x="134" y="-447.3" font-family="Times,serif" font-size="14.00">)</text>
</g>
<!-- SUBSn56209566n82633819 -->
<g id="node13" class="node">
<title>SUBSn56209566n82633819</title>
<text text-anchor="start" x="165" y="-374.3" font-family="Times,serif" font-size="14.00">{t5: G28, t6: G28}</text>
</g>
<!-- n82633819&#45;&gt;SUBSn56209566n82633819 -->
<g id="edge2" class="edge">
<title>n82633819&#45;&gt;SUBSn56209566n82633819</title>
<path fill="none" stroke="black" d="M112.65,-431.88C137.23,-420.99 168.92,-406.95 193.47,-396.07"/>
</g>
<!-- n91372973 -->
<g id="node4" class="node">
<title>n91372973</title>
<polygon fill="none" stroke="black" points="870,-468 618,-468 618,-432 870,-432 870,-468"/>
<text text-anchor="start" x="626" y="-447.3" font-family="Times,serif" font-size="14.00">Sprinkler(</text>
<text text-anchor="start" x="699" y="-447.3" font-family="Times,serif" font-weight="bold" font-size="14.00">t3</text>
<text text-anchor="start" x="716" y="-447.3" font-family="Times,serif" font-size="14.00">), !Dry(</text>
<text text-anchor="start" x="768" y="-447.3" font-family="Times,serif" font-weight="bold" font-size="14.00">t3</text>
<text text-anchor="start" x="785" y="-447.3" font-family="Times,serif" font-size="14.00">), !Day(</text>
<text text-anchor="start" x="839" y="-447.3" font-family="Times,serif" font-weight="bold" font-size="14.00">t3</text>
<text text-anchor="start" x="856" y="-447.3" font-family="Times,serif" font-size="14.00">)</text>
</g>
<!-- n60792020 -->
<g id="node5" class="node">
<title>n60792020</title>
<polygon fill="none" stroke="black" points="1039.5,-468 888.5,-468 888.5,-432 1039.5,-432 1039.5,-468"/>
<text text-anchor="start" x="896.5" y="-447.3" font-family="Times,serif" font-size="14.00">Day(</text>
<text text-anchor="start" x="930.5" y="-447.3" font-family="Times,serif" font-weight="bold" font-size="14.00">t1</text>
<text text-anchor="start" x="947.5" y="-447.3" font-family="Times,serif" font-size="14.00">), Night(</text>
<text text-anchor="start" x="1008.5" y="-447.3" font-family="Times,serif" font-weight="bold" font-size="14.00">t1</text>
<text text-anchor="start" x="1025.5" y="-447.3" font-family="Times,serif" font-size="14.00">)</text>
</g>
<!-- n56209566 -->
<g id="node6" class="node">
<title>n56209566</title>
<polygon fill="none" stroke="black" points="314,-468 166,-468 166,-432 314,-432 314,-468"/>
<text text-anchor="start" x="174" y="-447.3" font-family="Times,serif" font-size="14.00">!Rain(</text>
<text text-anchor="start" x="218" y="-447.3" font-family="Times,serif" font-weight="bold" font-size="14.00">t5</text>
<text text-anchor="start" x="235" y="-447.3" font-family="Times,serif" font-size="14.00">), Wet(</text>
<text text-anchor="start" x="283" y="-447.3" font-family="Times,serif" font-weight="bold" font-size="14.00">t5</text>
<text text-anchor="start" x="300" y="-447.3" font-family="Times,serif" font-size="14.00">)</text>
</g>
<!-- n56209566&#45;&gt;SUBSn56209566n82633819 -->
<g id="edge3" class="edge">
<title>n56209566&#45;&gt;SUBSn56209566n82633819</title>
<path fill="none" stroke="black" d="M238.02,-431.7C236.78,-420.85 235.19,-406.92 233.95,-396.1"/>
</g>
<!-- n72975763 -->
<g id="node7" class="node">
<title>n72975763</title>
<polygon fill="none" stroke="black" points="599.5,-468 516.5,-468 516.5,-432 599.5,-432 599.5,-468"/>
<text text-anchor="start" x="524.5" y="-447.3" font-family="Times,serif" font-size="14.00">Clear(</text>
<text text-anchor="start" x="568.5" y="-447.3" font-family="Times,serif" font-weight="bold" font-size="14.00">t8</text>
<text text-anchor="start" x="585.5" y="-447.3" font-family="Times,serif" font-size="14.00">)</text>
</g>
<!-- n72975763&#45;&gt;SUBSn71172237n72975763 -->
<g id="edge5" class="edge">
<title>n72975763&#45;&gt;SUBSn71172237n72975763</title>
<path fill="none" stroke="black" d="M526.44,-431.88C506.45,-421.03 480.69,-407.05 460.68,-396.19"/>
</g>
<!-- n63726941 -->
<g id="node8" class="node">
<title>n63726941</title>
<polygon fill="none" stroke="black" points="1220.5,-468 1057.5,-468 1057.5,-432 1220.5,-432 1220.5,-468"/>
<text text-anchor="start" x="1065.5" y="-447.3" font-family="Times,serif" font-size="14.00">!Day(</text>
<text text-anchor="start" x="1105.5" y="-447.3" font-family="Times,serif" font-weight="bold" font-size="14.00">t0</text>
<text text-anchor="start" x="1122.5" y="-447.3" font-family="Times,serif" font-size="14.00">), !Night(</text>
<text text-anchor="start" x="1189.5" y="-447.3" font-family="Times,serif" font-weight="bold" font-size="14.00">t0</text>
<text text-anchor="start" x="1206.5" y="-447.3" font-family="Times,serif" font-size="14.00">)</text>
</g>
<!-- n05548375 -->
<g id="node9" class="node">
<title>n05548375</title>
<polygon fill="none" stroke="black" points="1469.5,-468 1238.5,-468 1238.5,-432 1469.5,-432 1469.5,-468"/>
<text text-anchor="start" x="1246.5" y="-447.3" font-family="Times,serif" font-size="14.00">Bright(</text>
<text text-anchor="start" x="1298.5" y="-447.3" font-family="Times,serif" font-weight="bold" font-size="14.00">t4</text>
<text text-anchor="start" x="1315.5" y="-447.3" font-family="Times,serif" font-size="14.00">), !Dry(</text>
<text text-anchor="start" x="1367.5" y="-447.3" font-family="Times,serif" font-weight="bold" font-size="14.00">t4</text>
<text text-anchor="start" x="1384.5" y="-447.3" font-family="Times,serif" font-size="14.00">), !Day(</text>
<text text-anchor="start" x="1438.5" y="-447.3" font-family="Times,serif" font-weight="bold" font-size="14.00">t4</text>
<text text-anchor="start" x="1455.5" y="-447.3" font-family="Times,serif" font-size="14.00">)</text>
</g>
<!-- SUBSn10240076n25139178 -->
<g id="node10" class="node">
<title>SUBSn10240076n25139178</title>
<text text-anchor="start" x="237.5" y="-230.3" font-family="Times,serif" font-size="14.00">{F189: A363, G28: A363}</text>
</g>
<!-- n73303555 -->
<g id="node11" class="node">
<title>n73303555</title>
<ellipse fill="none" stroke="black" cx="330" cy="-162" rx="68.79" ry="18"/>
<text text-anchor="start" x="285" y="-159.3" font-family="Times,serif" font-size="14.00">!Rain(</text>
<text text-anchor="start" x="329" y="-159.3" font-family="Times,serif" font-weight="bold" font-size="14.00">A363</text>
<text text-anchor="start" x="369" y="-159.3" font-family="Times,serif" font-size="14.00">)</text>
</g>
<!-- SUBSn10240076n25139178&#45;&gt;n73303555 -->
<g id="edge7" class="edge">
<title>SUBSn10240076n25139178&#45;&gt;n73303555</title>
<path fill="none" stroke="black" d="M330,-215.7C330,-207.98 330,-198.71 330,-190.11"/>
<polygon fill="black" stroke="black" points="333.5,-190.1 330,-180.1 326.5,-190.1 333.5,-190.1"/>
</g>
<!-- n73303555&#45;&gt;SUBSn73303555n18648219 -->
<g id="edge1" class="edge">
<title>n73303555&#45;&gt;SUBSn73303555n18648219</title>
<path fill="none" stroke="black" d="M315.07,-144.41C305.32,-133.58 292.6,-119.45 282.7,-108.45"/>
</g>
<!-- n00000000 -->
<g id="node15" class="node">
<title>n00000000</title>
<ellipse fill="none" stroke="black" cx="267" cy="-18" rx="41.69" ry="18"/>
<text text-anchor="start" x="243" y="-14.3" font-family="Times,serif" font-size="14.00">FALSE</text>
</g>
<!-- SUBSn73303555n18648219&#45;&gt;n00000000 -->
<g id="edge10" class="edge">
<title>SUBSn73303555n18648219&#45;&gt;n00000000</title>
<path fill="none" stroke="black" d="M267,-71.7C267,-63.98 267,-54.71 267,-46.11"/>
<polygon fill="black" stroke="black" points="270.5,-46.1 267,-36.1 263.5,-46.1 270.5,-46.1"/>
</g>
<!-- n25139178 -->
<g id="node16" class="node">
<title>n25139178</title>
<ellipse fill="none" stroke="black" cx="232" cy="-306" rx="118.08" ry="18"/>
<text text-anchor="start" x="149" y="-303.3" font-family="Times,serif" font-size="14.00">!Dry(</text>
<text text-anchor="start" x="187" y="-303.3" font-family="Times,serif" font-weight="bold" font-size="14.00">G28</text>
<text text-anchor="start" x="219" y="-303.3" font-family="Times,serif" font-size="14.00">), !Rain(</text>
<text text-anchor="start" x="277" y="-303.3" font-family="Times,serif" font-weight="bold" font-size="14.00">G28</text>
<text text-anchor="start" x="309" y="-303.3" font-family="Times,serif" font-size="14.00">)</text>
</g>
<!-- SUBSn56209566n82633819&#45;&gt;n25139178 -->
<g id="edge6" class="edge">
<title>SUBSn56209566n82633819&#45;&gt;n25139178</title>
<path fill="none" stroke="black" d="M232,-359.7C232,-351.98 232,-342.71 232,-334.11"/>
<polygon fill="black" stroke="black" points="235.5,-334.1 232,-324.1 228.5,-334.1 235.5,-334.1"/>
</g>
<!-- n10240076 -->
<g id="node17" class="node">
<title>n10240076</title>
<ellipse fill="none" stroke="black" cx="429" cy="-306" rx="61.19" ry="18"/>
<text text-anchor="start" x="390" y="-303.3" font-family="Times,serif" font-size="14.00">Dry(</text>
<text text-anchor="start" x="422" y="-303.3" font-family="Times,serif" font-weight="bold" font-size="14.00">F189</text>
<text text-anchor="start" x="462" y="-303.3" font-family="Times,serif" font-size="14.00">)</text>
</g>
<!-- SUBSn71172237n72975763&#45;&gt;n10240076 -->
<g id="edge12" class="edge">
<title>SUBSn71172237n72975763&#45;&gt;n10240076</title>
<path fill="none" stroke="black" d="M429,-359.7C429,-351.98 429,-342.71 429,-334.11"/>
<polygon fill="black" stroke="black" points="432.5,-334.1 429,-324.1 425.5,-334.1 432.5,-334.1"/>
</g>
<!-- n25139178&#45;&gt;SUBSn10240076n25139178 -->
<g id="edge8" class="edge">
<title>n25139178&#45;&gt;SUBSn10240076n25139178</title>
<path fill="none" stroke="black" d="M255.72,-288.05C271.02,-277.13 290.84,-262.97 306.16,-252.03"/>
</g>
<!-- n10240076&#45;&gt;SUBSn10240076n25139178 -->
<g id="edge11" class="edge">
<title>n10240076&#45;&gt;SUBSn10240076n25139178</title>
<path fill="none" stroke="black" d="M406.54,-289.12C390.9,-278.06 370.08,-263.34 354.11,-252.04"/>
</g>
</g>
</svg>
